<?xml version="1.0" encoding="UTF-8" standalone="no"?>
<svg
  xmlns:svg="http://www.w3.org/2000/svg"
  xmlns="http://www.w3.org/2000/svg"
  version="1.1"
  viewBox="4.992954304880996 0.24096576517334256 193.50779631070185 188.6689947832206"
  width="193.50779631070185mm"
  height="188.6689947832206mm"
>
  <defs id="defs4215" />
  <g id="layer1">
    <path
       id="path8"
       style="fill:none;fill-rule:evenodd;stroke:#000000;stroke-width:1px;stroke-linecap:butt;stroke-linejoin:miter;stroke-opacity:1"
       d="m 100,100 0.0,0.0 0.11138180979465062,-0.01750177542270137 0.12654559151854983,0.043015867699622845 0.08953593574503316,0.10517367147785706 0.03888612868665575,0.09340003312962608 0.03187584509953467,0.02384327699198252 0.054389612075937066,-0.03859373564745283 0.08678028588028042,-0.05477200497361423 0.1356073767106949,-0.009225277574557822 0.17331846988545863,0.11949007946564905 0.11272851633523828,0.3055359593079885 -0.06416218597733803,0.38869276136072983 -0.17085232111472237,0.257991380632987 -0.08080468464166302,0.037445529575720116 0.06528903812940712,-0.1297566571330293 0.11948871033334285,-0.1803467240750507 0.11360749744618204,-0.07859422511545233 0.09122008305732265,0.1529543196495382 -0.04312903566766124,0.4290464758224317 -0.3284292128595041,0.5485115511303889 -0.49333104790173365,0.37803782586945545 -0.28523306234021106,0.11348802547327352 0.1086980253769525,-0.07587373991370328 0.325373191422031,-0.22123050586228032 0.24522962877790633,-0.24049833022881728 0.02702621755032908,-0.03956080338937795 -0.24964127156319194,0.26200112783836005 -0.618493753431224,0.41132536202337633 -0.8607599800886874,0.2671141403810964 -0.6567631343771865,0.08281342514074197 -0.09255837023476943,0.09724318575750601 0.44639379582568495,0.08399105773153792 0.581385601019818,-0.11607699075177891 0.26604026508975664,-0.24335995766682572 -0.21759797441055184,-0.15802259958734055 -0.6863080579800425,-0.07485987981111464 -1.001340224620094,-0.18621232716174063 -0.9495296403507041,-0.2796355662416943 -0.5426174864827829,-0.004413874354540326 0.054830023589943266,0.4338164705186074 0.5781956310648013,0.4646420138395513 0.620641569005798,0.03205151894249525 0.1939871111833611,-0.39984629314152187 -0.3005441643153972,-0.635420576990569 -0.626811572080868,-0.794760069281935 -0.7406602360229186,-0.8516485319966449 -0.7222689847748285,-0.5300280837194293 -0.5903272300216855,0.21352466458266406 -0.15943403844750037,0.84207164814039 0.37595284347816005,0.7078741003687838 0.5305064199943956,-0.05725590950449089 0.3807930773852064,-0.7868610583691549 0.24128733169636973,-1.1362578057938322 0.09485284365045743,-1.1746926885598157 -0.207653428765326,-0.9900644811559971 -0.6902010071749061,-0.4762791638140982 -0.9833881538687166,0.3388069221895904 -0.6257317783774567,0.8660326866092305 0.12038765171607224,0.49370384256997113 0.7436670679591799,-0.3922569702580603 1.1494976987605412,-0.9219596714836626 1.193772658261068,-0.8900417727086563 0.757842926337986,-0.7687100610853008 -0.03457549279502814,-0.7643455706045046 -0.9519762853268361,-0.5545828477621058 -1.397191428978445,0.007579796628888857 -0.848524792909501,0.31960413562067913 0.3631478635168577,-0.03292776666691566 1.531577402617046,-0.365063507880933 1.996650870533955,-0.09559888858862564 1.5377525639202645,0.1922576824929365 0.6722405777041871,-0.11946550796079691 -0.2497729569954572,-0.7327287716288424 -1.1083565393304866,-0.9883937427996301 -1.2820859312040938,-0.7095121192955105 -0.28701215265695623,-0.39387210513200444 1.2981448787940195,-0.06683269915907886 2.2133058480763026,0.7218329572441178 1.7608359637970636,1.3966440626266348 0.7430785872584664,1.0603520686276795 0.068277503738301,-0.013512199435268712 -0.38811145822752735,-1.0643625544210664 -0.7204030735847908,-1.5164348121696065 -0.31363345454501257,-1.216674998928653 1.001018967347207,-0.32184921889424345 2.0372264713923585,1.1265202855323366 1.5536645008095462,2.326064019825054 0.24155926010836026,2.0886728946076687 -0.42586342648765196,0.7810238007155164 -0.3426408139439161,-0.535915972879863 -0.10131060113555179,-1.4104325957643056 0.2640420631696685,-1.5464808941098767 1.1083721232554353,-0.6643116830046125 1.8571641305857725,1.155345865823108 1.2318356484007467,2.8340315690758757 -0.36548894055678716,2.744194051619658 -1.1777247703177238,1.1318247270148305 -0.8837323544966296,-0.3898172928150814 -0.20728925922080066,-1.155800505690749 0.5052114285684013,-1.2658208452814108 1.2555075284228536,-0.5554336946416072 1.444519433970001,0.8361533520961757 1.0648777142141483,2.2639856346118705 -0.11092143551353217,2.9041285623277986 -1.206500604925111,2.1699767675552124 -1.3992318881549721,0.6639499354704839 -0.9037315209449304,-0.626853419268798 -0.3417230832183549,-1.2505036725380734 0.09501330864101476,-1.2334059139229936 0.5290377095531369,-0.7428863761110875 0.92884261867178,0.16588555519111026 0.9455583043883564,1.4738025917948363 0.1646497554611699,2.7190693072961665 -1.1682912398593714,2.979517819481927 -1.9550330974739154,1.9197876657977844 -1.5161956130520764,0.3227058536467666 -0.4344144593213599,-0.9513478483017366 0.3347457198987911,-1.6213403892359395 0.50483076363615,-1.6082032653941383 0.4248080236271363,-0.9229506421169731 0.32419853501926355,0.2362652603394224 -0.07450804838381941,1.5721169992090012 -1.1064121815785342,2.5457787813899557 -2.3528756231894334,2.4718073031949643 -2.6909402250004604,1.388721863566758 -1.623284242437066,0.1829737337762083 0.09446498177514684,-0.6256280911810705 1.3177046786536977,-1.208090614369965 1.4638660167409085,-1.5398751134582085 0.8156981443211606,-1.2580946128746007 -0.04870718749704395,-0.33674547445315284 -1.0106454878147986,0.7702700319904068 -2.208453471072346,1.41957053233088 -3.2448715721363897,1.1651049963535627 -3.2473130329619835,0.37608672109189456 -1.9430171515164574,-0.03436494077095631 0.02569226266922442,0.10913816667630272 1.7183165384118695,0.08501940863598634 2.322630492633266,-0.48063869266182735 1.6511375047276005,-1.0363698075887697 0.29644193436190847,-1.0223409298885144 -1.1244981885874097,-0.623914122307653 -2.383437700550587,-0.4275310621515871 -3.1988275907192474,-0.7365393695128262 -3.1473414197703846,-1.0913821439139468 -2.2180596281547054,-0.6857464344332413 -0.7605964369596308,0.49860490504846666 0.8842595616991957,1.455701244000693 2.0915938310446904,1.2426747040505575 2.137383025901215,0.0755254180638758 1.1117912464234365,-1.0908187252670842 -0.20425399851491477,-1.777787135114238 -1.2390183673815613,-2.164569964876492 -1.8228694323859713,-2.4670323367861045 -1.970812273110937,-2.462652161662959 -1.879086387904593,-1.6541156668148318 -1.618252815218284,0.02664464738725769 -0.8536992957029526,1.8054550526308475 0.43858651997192055,2.4558286593959764 1.4538547329143512,1.4620867902024202 1.584572624416836,-0.39908396443297534 1.1982296694090309,-2.014040720586209 0.8479970460984276,-2.87335416926706 0.5649545195537371,-3.074277565025369 0.11477699455738843,-2.866799644491749 -0.6816647747875493,-2.234575164668101 -1.7218587631270736,-0.9810577023267371 -2.3336220903618567,0.7629219874088164 -1.783061452698874,2.0990694392725686 -0.3142599361437419,1.9428229794909413 1.1594146756949897,0.364424798103542 2.244409386753617,-1.3886469719514167 2.9376446088079717,-2.2111956561834916 2.9847534679772423,-2.082226882407454 2.222150330176106,-1.7617774615904978 0.835388704226574,-1.6991732626941456 -0.9334155319924946,-1.5911152024051631 -2.5778893332956017,-0.9024782933389872 -3.1306126209354517,0.2497046440519597 -2.0297852263784506,0.8617192476989999 0.18997487521235712,0.32045400757147036 2.563462737427159,-0.5705248022319438 4.204688977789701,-0.6162820851067039 4.398117668778525,0.13732938585465604 3.2618205536345073,0.5386653228447216 1.633815853937179,-0.053094590159403765 -0.03420898114742954,-1.1867357914943995 -1.7011727821672906,-1.9754923379659743 -2.822158289602001,-1.8570179455877849 -2.4305578278197544,-1.181942374655577 -0.3198093454457762,-0.6652984468047549 2.518043608121914,-0.11922162474994025 4.469257829664414,1.1405233577863498 4.372164321202277,2.6444303758865715 2.7198902018631657,3.0007407754173983 1.0395702734493284,1.80048744012619 0.0076387357720619775,-0.15917169235733297 -0.755678407964055,-1.9624947261710872 -1.4213221297649312,-2.927563297865248 -1.2940163099854374,-2.778553421252397 0.2852480722749249,-1.7374861562478259 2.685380050033885,0.09219600920550874 4.089234956235174,2.605975580006387 3.219610691239481,4.6150119619234005 0.9939864207327389,4.607029758339166 -0.6233741637469166,2.747899353878907 -0.9500889400001711,0.40871142208592914 -0.6098633525327131,-1.5347978930680597 -0.22096339986565283,-2.779046824630484 0.3425126551749713,-2.9851308221084594 1.5690561610453386,-1.8439410190799208 3.0904283025572425,0.6672252719748002 3.3738106350555057,3.835834042418824 1.5311453105050674,5.788164800519027 -1.0292007448081222,5.032606612524347 -2.2924054461713723,2.400852130812922 -1.992764293649529,-0.16698094657368756 -1.0020765988988956,-1.7318360529121861 0.09348274308466387,-2.374494015718298 1.2002820948745239,-2.180148921875187 2.3462741971429892,-0.826594072781262 2.632092919744778,1.3950603523487501 2.2204514558149526,3.7495359191680393 0.5793624906175836,5.302860163619158 -1.4905790446065907,5.017515412411839 -2.6867789728602958,3.0505824007375963 -2.5411898888443716,0.5790750943403964 -1.6513326082928046,-1.3371140420884586 -0.7520116445051599,-2.3023686281146496 -0.05119500088932227,-2.378809396803362 0.6084415318948402,-1.783619615017642 1.2935322049706883,-0.6472450448853238 1.7557468738371256,1.0539108857725665 1.4787385613761046,3.174787295866352 0.07587833950869083,4.973840359427214 -2.0066170698161585,5.353579979175834 -3.4498289812975997,3.91976329890727 -3.266789463104061,1.4972174141634156 -1.7928507829197002,-0.7660892672556514 -0.18436456643486565,-2.314228156770085 0.7036376485372671,-3.0277330896056753 0.8437171671131978,-2.835839139474942 0.7098974690435682,-1.785355070143666 0.5784240688871307,-0.11372006463925288 0.19585556713632002,1.8705704735088347 -0.9176274956867729,3.689958727772293 -2.7682914185960072,4.559995656909621 -4.4200873659378175,3.905782243904113 -4.6062992400117935,2.1414497022490764 -2.986691896041634,0.3450729040080205 -0.4468534994498867,-0.9082708238649957 1.7120000191347629,-1.8084846351378303 2.60587026821581,-2.503506082017182 2.182759480158026,-2.657000162471107 1.0580588724156001,-1.9328003972901087 -0.20386654398360804,-0.48806574399863223 -1.5771648608862563,1.1273840258963759 -3.2536735779109307,2.220751771184169 -4.936527551337761,2.2231007534662552 -5.703508617989243,1.2316562358166578 -4.831614300993763,0.16938718021116017 -2.531388383692928,-0.13097558647135088 0.3239271686007186,0.1420511577604202 2.739120013584923,0.12204724279300194 3.8524555447231563,-0.607875966677824 3.33745749768687,-1.5282215340454997 1.6735012021307796,-1.8794969074386927 -0.3506765225301649,-1.5177020061985615 -2.2904129344540536,-0.9312107210237599 -3.987638423584272,-0.7399183816198303 -5.117579506443093,-1.1806488161338393 -5.218243400824107,-1.761801868672876 -4.202796525559208,-1.581038320416468 -2.417752751934785,-0.27242590880688056 -0.21492230996308592,1.4764343407703961 2.0108988649405717,2.4274773660685867 3.499630431522064,1.864327670134216 3.5432637385995065,0.2266521194336235 2.2533624896895077,-1.4509191398881 0.4339484092526078,-2.563756670896737 -1.1976025037000682,-3.188336482649831 -2.346079172483954,-3.6385391871744304 -2.944102523222867,-3.9865492392031143 -3.057705753720711,-3.865154490975513 -2.9181819809260077,-2.7635359608355685 -2.6187510061535875,-0.602501874316971 -1.8361158335494423,1.9529756473607307 -0.30824066210952594,3.6779464018963637 1.457130506969932,3.564050840786109 2.504181079550378,1.698408185847768 2.4984317561848712,-0.8528202609634974 1.9560539731652113,-3.0104420167110533 1.4560022080304549,-4.285520352033259 1.0859590048421097,-4.736372169273281 0.6256391016607665,-4.647392312064554 -0.14472879715597742,-4.1493049165814 -1.3341559489718406,-3.0973738386927607 -2.711070952643823,-1.3110728755080032 -3.5303864957229365,1.0095414092061077 -3.030776258268901,2.972451432220751 -1.296240292712099,3.408489437021487 0.7762477431087689,1.9621175532749788 2.48248074734164,-0.4743736062096531 3.747664352396356,-2.529635951563506 4.55266934349666,-3.3724830503776246 4.603902584372534,-3.16783394085148 3.7366451033245767,-2.7018891231169704 2.1234455767308162,-2.523920416514926 -0.005415250120734072,-2.5111407335839715 -2.358794840309656,-2.1183924974670703 -4.231964249199791,-0.9680361418046175 -4.651155637352133,0.5425912097528851 -3.2071714551200756,1.346702379088626 -0.4557775559664634,0.8169293476167212 2.6649191497547946,-0.41963220382390887 5.311711222568633,-1.075948040507086 6.682242627317791,-0.5434698790691073 6.3330703474060215,0.4870363107627895 4.68527190873813,0.84271960234895 2.5945567539309877,0.0741981259560589 0.4823705793931907,-1.356485142452371 -1.6599256164598444,-2.6059197677125354 -3.5407749743074675,-2.9631339170744155 -4.2797892926620165,-2.3618295296478635 -3.107002550763255,-1.4782635504169122 -0.17625203499207487,-0.8811199032685053 3.4331040411098144,-0.2196819065488853 6.190754921156227,1.224768337444857 6.828112036060816,3.230489791565354 5.319346876111084,4.492718238554517 2.971217886266814,4.027480250058261 1.08642939469307,2.0916199373221502 -0.09423927050040959,-0.41238005323702964 -1.0353022426468073,-2.6717922660067757 -1.9262892207587043,-4.059999085999763 -2.193138873141521,-4.244133782278709 -1.0243797031158692,-3.3646147193028355 1.6115059141486086,-1.6674344431161998 4.53070830281068,0.8930608715074797 5.928396689574669,4.068549808695309 4.813039762435878,6.581628021131195 2.08270364305379,6.960151905073673 -0.341201582866816,5.113552715966222 -1.3737771266522714,2.2517808662838377 -1.267941879071273,-0.49390415079962224 -0.7738989730244299,-2.663746132609532 -0.3059549410509703,-4.0361571739473305 0.36501238901075794,-4.286963736148479 1.734309030379677,-3.1353008935378597 3.6680362530113086,-0.5067424905681861 4.949454134871132,3.247349228788252 4.153501500321852,6.846487535623439 1.3186431208011697,8.370380303907595 -1.7368483562498795,6.945013754021048 -3.2650637617888094,3.6832436702648863 -3.0804438731044,0.41818520641825785 -1.9904957073856053,-1.8394913451037382 -0.6709198817305548,-3.0419132075446385 0.6468667811147952,-3.399141220810776 1.9969269023134189,-2.823578951834392 3.3692274821568162,-0.9600892471411697 3.7178459345845454,1.7946072221738802 3.396103395231819,4.772013098412316 1.6726720230168723,7.137724790989466 -0.9411623416530404,7.709720537958489 -3.1702678300788136,6.134051280320136 -4.004808112129098,3.209677272715396 -3.462665029284892,0.18878668037582713 -2.2904487700600384,-2.0601264058353763 -1.1657841786827703,-3.2497710030060887 -0.2763510869390018,-3.454964127177732 0.5294433341494198,-2.890249687650467 1.379364862996681,-1.7269117337623214 2.158607791402858,0.021224169786819402 2.4796002262246475,2.37249172030387 1.8138512578937593,5.021055831087679 -0.09265118807036288,7.105162944601858 -2.6870113739626618,7.567976480087893 -4.673877004439078,6.021094191380627 -4.965622359172528,3.1642218989356934 -3.5723497148102297,0.16478929367545447 -1.467338282232987,-2.207915003311456 0.2560350604329358,-3.7238336465228485 1.0721304471335031,-4.319989286298863 1.1507774185296853,-3.935664028148622 0.977936169185142,-2.641024753034955 0.8252101235848386,-0.6684936399774699 0.5043345050812036,1.700779719208569 -0.4555933034298363,4.094152002606279 -2.3328570717990686,5.869077061803964 -4.700301095614321,6.258082772677909 -6.402165293950333,4.999487116161646 -6.333822435961608,2.7487219798440776 -4.339738271019769,0.557487662448267 -1.2822576128860703,-1.0328518390158763 1.5983970201264128,-2.178324272187865 3.319822859830836,-3.1291686545255004 3.5300142328186297,-3.717925280696022 2.5739941030716125,-3.5247959521874748 1.1232414368312362,-2.38111912887166 -0.3977768413090672,-0.559762193517912 -2.0380739160840733,1.3964035754301563 -4.003279885518452,2.8441326599981096 -6.114400070755622,3.2051904883400084 -7.600038562047018,2.354481558218282 -7.575634452926408,0.9267592343494186 -5.7772807954307694,-0.07811387838188466 -2.7222168953594377,-0.18019061506788603 0.7086830542944682,0.18448430882963862 3.6055272378135186,0.1717052226510134 5.169184748747057,-0.6174215705586619 5.005190980878751,-1.7715678778000665 3.399340343755938,-2.521464196724793 1.0861607818518593,-2.4674977701763794 -1.3168386263225216,-1.8283176169954345 -3.5611032804202694,-1.1715738902802286 -5.517901167077909,-1.0319998749473598 -6.857830584449687,-1.563603326508968 -7.14104592013679,-2.3085923055385393 -6.22505697106601,-2.4162531997701535 -4.382179334323659,-1.3305563486889156 -1.9742877314538205,0.6699196360202961 0.7197147871492504,2.573189699279169 3.2411725162573077,3.283313682963694 4.823670995019917,2.3878135519538546 4.863936070462913,0.43249477587670526 3.4735928863276797,-1.6060696665850287 1.3720183888574127,-3.092013093403139 -0.7008904716597755,-3.983458935969921 -2.3503126099594738,-4.561249334826584 -3.4527288684704303,-5.055884111109123 -3.987048231835935,-5.386700049186018 -4.0533610055041365,-5.134548094398312 -3.8810401006548005,-3.8426700582753597 -3.5683933522706255,-1.4321939497041996 -2.8513637632389077,1.5806113172371283 -1.3770257926084994,4.159515931267535 0.6981757825102761,5.18728868263814 2.5753227276596036,4.176378136022905 3.473444451763889,1.6355011280734573 3.3227445015356096,-1.3551223831729828 2.673404937911002,-3.868348860848016 2.0624665740087167,-5.4751891888730455 1.6161086618261535,-6.1927717205388575 1.1592305601664634,-6.273984364826504 0.4760694163180972,-5.929287718768251 -0.5939781253421188,-5.140805639370015 -2.0786195802327114,-3.7209462422627837 -3.6618119361949937,-1.5429420057026988 -4.6221506393004645,1.1583379560747176 -4.2524738259808075,3.580313720248 -2.5067601337382115,4.629958422967576 -0.10673637197726293,3.7079410539347464 2.124525155651483,1.243211511333925 3.877948033624506,-1.5995356596552313 5.212205737274516,-3.6719379022298853 6.051276373398025,-4.443830350752009 6.106017362011684,-4.182781511313209 5.225258514063029,-3.616402649340472 3.549548866722702,-3.307889722605026 1.296644727934563,-3.2885630065951545 -1.3430748070309448,-3.150553577297714 -3.9735891286704685,-2.3916638886397195 -5.81481940116177,-0.8708481452710828 -6.029248942502392,0.8539364899250899 -4.35864175876636,1.78709438928815 -1.319976642948376,1.3491277558425736 2.2480758976845223,-0.025928979016022424 5.589786766704407,-1.2009409474636499 7.993674495394757,-1.2595602193385247 8.824921541942885,-0.2570342484595969 7.9490490239940215,0.8606370500865239 5.931674558377935,1.113806173395048 3.540566688186587,0.22761373466324386 1.14138410367363,-1.371548680846601 -1.2868090977595017,-2.9483965282033466 -3.632649990310071,-3.7984091544993035 -5.2809717734930075,-3.5934390827217086 -5.369660409255815,-2.655283765554792 -3.4644975557413886,-1.6970091269235752 0.059473741370538846,-1.0664162365766572 4.1734871712089046,-0.33764226676566267 7.530938888822774,1.164568611768992 8.923844635717757,3.406200620676593 7.983625035929592,5.363607740182104 5.534447233235483,5.866632263359449 2.9387710023856783,4.5989669351287645 1.0366245005625103,2.132955304216381 -0.21361294172579903,-0.7151271295125241 -1.2661936612389582,-3.2695641080835003 -2.3036565475013475,-4.988490062574741 -2.8923547514222747,-5.531469698613506 -2.265654119787399,-4.935153041673637 -0.03273657123611429,-3.4676778569612026 3.29826455232849,-1.2159630135450001 6.368638057835298,1.9020572686768915 7.617754401529027,5.498146401362909 6.338399346292476,8.3425832434487 3.339204553955767,9.109399709206983 0.3284186121531434,7.535741108702126 -1.4460663801092153,4.538662773567026 -1.8480526160098236,1.2772309243637068 -1.455717031194979,-1.5842745618370344 -0.8878711935011836,-3.8123872022722765 -0.37192143124397603,-5.212049030966398 0.36314678321099336,-5.492463304744334 1.7737060742612982,-4.411402551374103 3.87373182983751,-1.87853858938292 5.81852487092965,1.9501542898133764 6.241328680470076,6.33053312665762 4.347045660124763,9.739044236138895 0.8492355592834429,10.614454350014952 -2.447727175414883,8.627391799792235 -4.1430313110773795,4.954043347846948 -4.110693190482635,1.2137809426052115 -3.0413689049826473,-1.6089639580346358 -1.6092268602770332,-3.3413261501624874 -0.13830434356887622,-4.18281726557251 1.3202908975071068,-4.227339094016045 2.8337574621800172,-3.2776410752057785 4.340464559237432,-1.0155340089863216 4.731934513008241,2.1007548997363443 4.533975092309788,5.504670932544514 2.907814005515405,8.504781867143151 0.10555067796877893,9.9549741844085 -2.8455594411308596,9.188520085720484 -4.764588825714242,6.509658618069821 -5.1173927485914135,2.9654809018196175 -4.234770314517306,-0.35025665127324146 -2.8622225060404958,-2.7804264756580466 -1.5791464448527393,-4.126016311352117 -0.547209038571026,-4.463137155220309 0.3653652419411628,-3.986158560566423 1.3106483012723231,-2.877294690396937 2.270016109756625,-1.1975956838269042 2.9994308685582496,1.0958872575784397 3.0629395111786835,3.9458585683182577 1.9990772723933503,6.920384245677752 -0.3088927498327223,9.142660595313586 -3.2680532421587145,9.665293632791816 -5.6871438841368445,8.128929684262857 -6.490733880770051,5.085751915811073 -5.444891109329774,1.5985097605843634 -3.2296425548932035,-1.4612757816964006 -0.9007047726493198,-3.7169785486450166 0.7299930840401885,-5.085674223691058 1.4183706594263583,-5.511525850168397 1.4359684925012175,-4.94988417128144 1.234289616751198,-3.483622000203013 1.063103757237002,-1.32612359715813 0.7943277892182721,1.2741873949009062 0.022556176903862024,4.025603299664795 -1.6296704064740481,6.449178249409329 -4.113642962974112,7.849951259231119 -6.70965650288484,7.645096898052145 -8.272087715420682,5.866029599917368 -7.932339235078302,3.26774023095561 -5.672659868601571,0.7992518927047456 -2.282712069212508,-1.054924629327786 1.122848255482083,-2.405396105279266 3.5756864427485056,-3.5331932465619786 4.551979525747981,-4.430379861224935 4.106969212211538,-4.7568444915741 2.7555528432799576,-4.178523021294097 1.0875741489633555,-2.6809600305242043 -0.6122354180183152,-0.5847048328257642 -2.436158669262767,1.6108495043654045 -4.583996010229825,3.335171668133711 -6.964262024160831,4.04847519400289 -8.987222109602854,3.5031946437469514 -9.804512261643652,2.041185603899578 -8.866628831849596,0.5156576588092889 -6.28178543054824,-0.27914984010476473 -2.678909499876788,-0.19122586912018846 1.1379921854903685,0.23102232549567248 4.371870201277588,0.2253520906941162 6.312699446017504,-0.5702186184109053 6.548595429687239,-1.8510841410845842 5.202034330701949,-2.9260205568929507 2.8594095436195204,-3.268682050753739 0.1800056208328158,-2.8454120328031536 -2.441673702216761,-2.0394214434854803 -4.873887430576005,-1.3851615130819255 -6.991198933339632,-1.3124048420059466 -8.478058167740471,-1.9089192965936945 -8.935664560365147,-2.767085968694232 -8.19182333929318,-3.1330370380593706 -6.432821567147364,-2.387216169418565 -3.997721880770648,-0.5072132105405274 -1.1489047082978345,1.843524410403404 1.8503450906796317,3.636617626353228 4.496839959211151,4.028177520838824 6.083606356638235,2.847185811252558 6.120520826110464,0.6679813290997743 4.7116016348316165,-1.6303292667715255 2.4703881327929906,-3.4289436040295413 0.09548770189034883,-4.595302985742194 -1.9604175687143552,-5.331749869362028 -3.515441686791114,-5.904440935040114 -4.515466982747043,-6.419031919903418 -4.966334608350529,-6.693694253795201 -4.987752826678452,-6.314299654840738 -4.791988286994936,-4.891783921746907 -4.4739978645587755,-2.352672744151917 -3.8310875042220403,0.9114496684649254 -2.509847058781091,4.070458741766899 -0.43821361544463855,6.094052788816796 1.8909598085209893,6.2242620027797955 3.6678324565534126,4.425898063879018 4.3652088024495725,1.3985309982794405 4.087340425144589,-1.8790226067843179 3.361956286943297,-4.637516186204465 2.66720245152716,-6.509452848498981 2.150050377587405,-7.481682587352097 1.6852294682587612,-7.757266679830181 1.0762792237948204,-7.5655565256977155 0.16038017869124843,-6.988011780941179 -1.1702534849204582,-5.921464946188038 -2.8700470046737863,-4.188020327997762 -4.580847046903372,-1.7155248646323287 -5.640683380535577,1.2494637140996048 -5.418067637436742,4.006611978786481 -3.7857421987775552,5.587298418414349 -1.2718336208355367,5.2987267296687435 1.3349042716274653,3.21085986194295 3.5384761221118595,0.14016205754504085 5.281452789322394,-2.8112423767168337 6.631995311397169,-4.775969734989886 7.468549103115528,-5.4514594875616496 7.525962921195372,-5.1483090233002855 6.670123008623001,-4.514274399400527 5.009155875128414,-4.085918131057845 2.741388747115394,-3.995367717364175 0.023015978604973952,-3.9822385039546404 -2.9279445188627164,-3.5948393814581436 -5.623801802346534,-2.4752123325821387 -7.30817405170032,-0.6801941329049299 -7.309129429838819,1.1708540609850289 -5.481590896060489,2.194292506683574 -2.2878212963233224,1.8742840159427843 1.5431737716744038,0.493468776422084 5.341177470143826,-1.019312503152861 8.502572270817481,-1.6939425802555732 10.417845356241791,-1.1555203503026306 10.668171447349764,0.13262214101737868 9.351482067753864,1.2235050024003726 7.066162307921303,1.360554441628615 4.469735274331768,0.39255525852379236 1.8736202857726738,-1.301271693852975 -0.7389304890317874,-3.0960065050394903 -3.355080987231105,-4.351932449666691 -5.5981607154082695,-4.6350385676487775 -6.7453949225648415,-3.9637486601128984 -6.134185022173298,-2.8431407782004356 -3.611258057958267,-1.8789736378588202 0.346521789612396,-1.2330299209501874 4.806705437405441,-0.46186664507925457 8.609901171680178,1.0423847479312371 10.666135788908804,3.361411170962114 10.436491332200134,5.755226811705327 8.314244884278978,7.116506794784236 5.4084733382381955,6.775029578550445 2.8005254493695872,4.86562904689842 0.9453254642125302,2.0309068758898974 -0.3410389725022185,-1.04199729784861 -1.4678278785199979,-3.7970669267163544 -2.601614218948626,-5.772854134578665 -3.4241487974357483,-6.6462300400642675 -3.2796682206171965,-6.3755770133964305 -1.6424814816413686,-5.1756174963823725 1.4266988141822594,-3.2343735143783903 5.129171562060222,-0.5112921468495415 8.145858562809892,3.0256108298637088 9.200539369847121,6.894222945446828 7.807206790615112,9.966258094885482 4.673793882213175,11.079154222744798 1.2666144861736939,9.876320838338955 -1.1587837058406762,6.995396705740973 -2.184482703014851,3.4811240672786994 -2.128160977956014,0.1210264922677311 -1.57486910313159,-2.7350404188742914 -0.9753680577337036,-4.945969632129334 -0.42636848294347374,-6.328659852381016 0.3496352312912734,-6.629375352348426 1.75833453659655,-5.642003536507936 3.893817095754116,-3.275314673019679 6.2025629646687435,0.4097685802273645 7.571128102229352,5.002728520929274 6.943658574860592,9.482878102254084 4.15510207859208,12.384440997585564 0.2534384427861198,12.597486730838185 -3.149272075578267,10.160998480779952 -4.955691195504812,6.206501308051813 -5.079713136574895,2.1346200361150096 -4.095525066649969,-1.1378054828734605 -2.631171713957883,-3.34959680508409 -1.0588788032517868,-4.633040016145117 0.4962132758590201,-5.155929471559645 2.057619414951006,-4.889810697027798 3.684782991575389,-3.5993444118697937 5.272528030817227,-1.0238328359767763 5.694430118790393,2.348577580205273 5.622046118258822,6.051590539348155 4.1658075167278525,9.5274468721788 1.3946072696782892,11.739759956037645 -1.9441576334292847,11.888856655493072 -4.743248974446885,9.885369933322409 -6.162164951355692,6.4095901809830025 -6.057018266170871,2.498762797265158 -4.906175160656062,-0.9641700863382141 -3.3896861362816253,-3.4931574717549267 -1.9906912763025844,-4.951927414110969 -0.8469986770556375,-5.412920939834962 0.1508477181384933,-5.046566666785893 1.1571593929784285,-4.0291334776719765 2.2125486590988714,-2.4539199133350422 3.181871446499997,-0.3038090952796608 3.755838705100274,2.453026662785561 3.5085985332906944,5.666598024355466 2.0734155426299594,8.830266834174864 -0.5550150195795709,11.108532295972964 -3.783451109890308,11.675539439174827 -6.543691462553312,10.207237569065 -7.824304834991494,7.126993373997664 -7.240006190659585,3.352568416082079 -5.194806362831514,-0.2345157930239452 -2.5756741361823856,-3.1354182572969194 -0.2717249417295875,-5.195800192105594 1.1850996167731864,-6.376529694288166 1.7409702940246916,-6.621662430151019 1.705748881772081,-5.904341837803997 1.4822785295056349,-4.312579432435655 1.2944074373125716,-2.0375841556422074 1.0604218039912325,0.7027959907526338 0.4497168625167376,3.673074664298497 -0.9213518674268073,6.520218975162635 -3.2094177095308396,8.692535174985665 -6.085178774789341,9.562832552632699 -8.701512263027936,8.779179659634877 -10.035765937775722,6.580018007437786 -9.439309735393934,3.729967459174418 -6.984339593034946,1.059072258025708 -3.377139297211997,-1.006409244923418 0.40205092952261623,-2.535812524353588 3.4485953980805135,-3.7995484340088694 5.165351644541573,-4.896458515732149 5.39717178375416,-5.615812027002903 4.432110991953948,-5.6073001285271005 2.8066233134791787,-4.666333479380995 0.9910339401923665,-2.88154113846025 -0.8382639754166945,-0.580555708468296 -2.794217559974655,1.789705380525504 -5.062681201123667,3.7305255711443692 -7.609949697273663,4.755500182201104 -10.002487541326573,4.564657257746887 -11.509042476808375,3.285181741475668 -11.474907900705233,1.5343079487094826 -9.695212622443798,0.1257608464158011 -6.4903077590695375,-0.41904581040449784 -2.492205998386879,-0.17624902712401536 1.5913392493315968,0.27911211971149896 5.070351757412155,0.27963470369178367 7.3227508662821705,-0.49660628845697374 7.946847877524149,-1.8315393565474665 6.950414405677449,-3.137997279492822 4.760671508015363,-3.8576217560730015 1.9843632150426487,-3.7793084359625766 -0.8954077988716591,-3.0867663494303486 -3.6495597228354058,-2.201942914415554 -6.201188921738833,-1.5895855287959648 -8.420556348617396,-1.5853916677063182 -10.014163643773195,-2.2297309006385717 -10.627208691509168,-3.1650678092223643 -10.076353623528881,-3.7389908486252637 -8.473700441575005,-3.3386413460145263 -6.110855742727722,-1.7580695968970872 -3.2532556652629694,0.6438256924873826 -0.0962250469270316,3.0692899661967203 3.074983272439894,4.6152876838221175 5.746234517233077,4.681830012369119 7.294698145122922,3.262998496959227 7.328612172675868,0.9203010471677544 5.942165384055784,-1.5685665859566313 3.6501199197109813,-3.623532202353573 1.083608023443773,-5.052903515495217 -1.2854897284578541,-5.977349669557583 -3.222482095447802,-6.6388046725289485 -4.645487427673508,-7.223146953358537 -5.528051449155896,-7.730936787577633 -5.896605551605788,-7.9277638665219285 -5.879169170754494,-7.431047837522499 -5.666076104192442,-5.91486660122078 -5.345464281447747,-3.3127619655268603 -4.76554326939366,0.07816341852678477 -3.6099171565406465,3.6030596519697724 -1.691643769617727,6.3794013074818 0.7616123525341862,7.589635334458265 3.117448503136103,6.853545464841886 4.696623313597698,4.428564038056081 5.1939817486513675,1.057578618865989 4.810460647151089,-2.4122037260266467 4.029267609032928,-5.346822536888752 3.2701363576674822,-7.432569292098634 2.688299097602112,-8.636608659687496 2.2026768852969525,-9.11400712131794 1.6430846668689938,-9.079989685977225 0.8546271650106405,-8.67104713598195 -0.28335770500837754,-7.871323686453579 -1.8308023223918468,-6.546696571210113 -3.6845992619429353,-4.5488782745319085 -5.47439407767564,-1.850198535174492 -6.606733647587191,1.304648767971699 -6.525666486046461,4.3095411865923055 -5.059692894603103,6.323442371628161 -2.5733469354923386,6.646688284992408 0.25066044256686837,5.11813150497386 2.83348261532052,2.226197991252846 4.957407425605879,-1.1295747080326493 6.671749648857073,-4.024905770579608 8.010412203228924,-5.835162070646007 8.827036060900959,-6.41292310677953 8.886418212856938,-6.077893963461641 8.070982690227432,-5.398964255571116 6.461477421212351,-4.87013829728722 4.232281380617991,-4.681383151989259 1.5277500756606202,-4.691975356799723 -1.5148446087855092,-4.547906857693704 -4.615331981952423,-3.860064285275385 -7.243199568692347,-2.425037981404074 -8.718182304572451,-0.4354918483008561 -8.519109419469892,1.4880337044956775 -6.578703545016076,2.5768092924263613 -3.304399407184917,2.377694465515191 0.6756843358314057,1.065049627991911 4.768184386480158,-0.6275935936509569 8.455614279915373,-1.7988493558072634 11.214312511472876,-1.8618137685323006 12.559351059347179,-0.862498212742878 12.277503589172284,0.5594064388976676 10.608681450286397,1.565017768307925 8.125863435798664,1.5893662821590624 5.3833085905746145,0.5624377324742795 2.645895846067887,-1.1828517627538986 -0.09412570774034634,-3.117866354898723 -2.870404159074937,-4.6807591824241825 -5.474155988294015,-5.41899320680605 -7.373000491532267,-5.1690327363025546 -7.9074869885279355,-4.177560844408191 -6.643205133277675,-2.9818962656394916 -3.617143615339259,-2.041811014910934 0.6635948573183725,-1.3873143913780552 5.370444430756621,-0.5878979738455854 9.509070491507202,0.8945664659905219 12.116977063171674,3.206094788072633 12.59346016347817,5.836155558454166 11.02705875064197,7.840850897293365 8.197713450315277,8.412183261327783 5.146766799749258,7.325468307044815 2.6268404693493608,4.934426320970779 0.8346185572204945,1.8432894778893854 -0.47230918832840985,-1.380915493819444 -1.6507494424811,-4.277922266919418 -2.849395434767075,-6.454911190537224 -3.836486542606025,-7.615809437619632 -4.074049941314172,-7.670465653952903 -3.02102110972217,-6.76158499835887 -0.4894918710418068,-5.101812873922739 3.1498458714925874,-2.7564275320824834 6.993031556621844,0.3640876695472599 9.851398695285127,4.212806624079477 10.705818139093338,8.260485886333882 9.23053766310818,11.494525705427677 6.040265611602791,12.903902065736283 2.379058289934136,12.090813972562522 -0.56925419820044,9.468850087072362 -2.2192737437355845,5.912905024698624 -2.644963580452611,2.2346540032276323 -2.294316521018203,-1.0964566702149625 -1.6587469295090784,-3.895806145338959 -1.0474376263765635,-6.054726964403223 -0.4733352584103159,-7.4012443666919765 0.3301874602658472,-7.716313635268094 1.7191204602465007,-6.824541067933289 3.8265123622728936,-4.639408885051424 6.302636053103328,-1.1760831176389672 8.298864508825517,3.34200305899887 8.793777564152379,8.27465897631857 7.1743716040603545,12.50125616611814 3.7262670667481643,14.77562888921107 -0.4030109654715375,14.386590680027481 -3.8383800365643594,11.593736118771403 -5.721814595366197,7.440115815810714 -5.9934673848459,3.1316972857108 -5.126670184273763,-0.49561217797509016 -3.686045975080418,-3.1280828959974087 -2.059746107774515,-4.821618674194596 -0.4245668243566172,-5.74730943814437 1.1891710828138002,-5.981407196577578 2.83121382810657,-5.41866849909988 4.538235029966756,-3.827057014340255 -18.204642274761454,5.932071323726973"
    />
  </g>
</svg>
