<?xml version="1.0" encoding="UTF-8" standalone="no"?>
<svg
  xmlns:svg="http://www.w3.org/2000/svg"
  xmlns="http://www.w3.org/2000/svg"
  version="1.1"
  viewBox="-3.5144161527404236 -17.862109591705718 219.19658255501918 203.56239731580118"
  width="219.19658255501918mm"
  height="203.56239731580118mm"
>
  <defs id="defs4215" />
  <g id="layer1">
    <path
       id="path11"
       style="fill:none;fill-rule:evenodd;stroke:#000000;stroke-width:1px;stroke-linecap:butt;stroke-linejoin:miter;stroke-opacity:1"
       d="m 100,100 0.0,0.0 0.02121175366978889,-0.00036651633480744295 0.033076200871690276,-0.0012999719494075634 0.041031592274180184,-0.0018305711120518708 0.047850098531910135,-0.0011229678197821613 0.05388145772624853,0.001604022617655687 0.059016384354606544,0.0069441006886847845 0.0628519667760088,0.015144636694373048 0.064792276256739,0.025968189860563484 0.06422929503993657,0.03862038916588517 0.06079798837821215,0.05179713982097667 0.05462212851568893,0.06388209795376554 0.04643585088687985,0.07326750941555815 0.037497538750315584,0.0787039883987859 0.02929890955883252,0.07955430942922703 0.02316714687037802,0.07586319812375564 0.01990586088369639,0.06824314605556481 0.01959725615151342,0.05766030205239758 0.021615525591599294,0.045232420236928306 0.024825304368988554,0.03211171620479547 0.027890505001479937,0.019452460951555395 0.02960186355674921,0.008405472987263352 0.029136184425937017,7.210695312664939e-05 0.021069594700549032,-0.06119689745504786 -0.0025779233124012535,-0.05856836448046465 -0.028241592504230084,-0.014154682365330018 -0.04963377671491287,0.03934927450852399 -0.06580306894103671,0.08684834051481971 -0.07398985983492423,0.12075317176497435 -0.06654799452714144,0.14184220518333746 -0.03440504707339187,0.15541244639469198 0.026417597761039247,0.16450094385574232 0.1083186444269586,0.1658133377773936 0.18862565232417694,0.15550314949743438 0.1500518498892376,0.12884476581969295 0.11296060762767013,0.1248198807296319 0.10647640125810653,0.1332644422063538 0.08952994891984645,0.1462239612738614 0.06156608270360664,0.16329277013920773 0.022801060955217167,0.18259645033707272 -0.02554674309061511,0.200850496271471 -0.08093856049022463,0.21387924914797907 -0.13928194080349954,0.21755618813703848 -0.19504110323047996,0.20896339266720076 -0.2418823538727395,0.1874107499048705 -0.2738148687971602,0.15490120094146675 -0.2865030984684438,0.11576723832385483 -0.2782731782894814,0.07552396033284481 -0.25043651193344374,0.039334281694578976 -0.20686357264951027,0.01065960889010853 -0.15306452175421725,-0.009429120249976108 -0.09517374056839856,-0.02210857142441114 -0.03914050631220789,-0.029987789920866703 0.009791483745175356,-0.03598902010496374 0.04740898868053023,-0.04233338289252231 0.0707839568907076,-0.049945390359511066 0.1684134801303827,-0.11670882853451303 0.2125005480857709,-0.20896269860728012 0.06050716351758467,-0.20465150319878944 -0.1111452474759318,-0.17160076648846712 -0.25726368970728686,-0.1315903016307658 -0.3539095040711828,-0.09621897783078737 -0.3939559014471996,-0.052838479315411746 -0.38104792831822465,0.025229325547428516 -0.3218962619125705,0.15547378264406575 -0.2215943952767816,0.3252721651820565 -0.09453959164612513,0.4873944656231828 -0.023137147188208473,0.4840253452571375 -0.0749289241469171,0.30348294481777316 -0.09159305198001277,0.2963090674969493 -0.12797289222422137,0.2745663053012066 -0.18375967839602936,0.23766474873325194 -0.25521672382008376,0.18484130826338685 -0.3351210071586763,0.11544799480957124 -0.4133999337176135,0.029904344907535574 -0.47853470682666455,-0.06898222139552956 -0.519646985486176,-0.17495941127575065 -0.5288890014836483,-0.2782488841555164 -0.5034371770404249,-0.3668537948929611 -0.44629812617657194,-0.42905907471016747 -0.36546676988915294,-0.45631143842454946 -0.27164919774784835,-0.44541689215347446 -0.1754142087627315,-0.3992873681094551 -0.08486961188269504,-0.3261212543366696 -0.004641932147407601,-0.23750518360353112 0.0637131507713633,-0.14615884264448198 0.1203547232393305,-0.06389814338703559 0.16563741872460014,-9.575216768098471e-05 0.1991293324176837,0.03928868747384229 0.26340877199125146,0.07624519047901401 0.6024183596776709,0.1873093287809553 0.48319047212784483,-0.029658120871772553 0.2810952534401281,-0.27186021159293716 0.07316568101636278,-0.47563575845491357 -0.08618793926157764,-0.6109793380666559 -0.19503612262708714,-0.6577108080667955 -0.29226920928640254,-0.5986036837566928 -0.4188774135860882,-0.42644060746233947 -0.5772931366610692,-0.15317021339760117 -0.7200668589924817,0.17412403074388294 -0.7887320574144354,0.45484405501541403 -0.45121170470766003,0.1478124858517731 -0.45177002334048666,0.1286546375279869 -0.4476728539980286,0.07037654404916793 -0.4387957458733638,-0.027609118591328752 -0.42214131157585655,-0.16135819691947972 -0.3918205819487639,-0.3221179274366648 -0.3405112698930566,-0.49642811500412165 -0.2621781729087047,-0.6668506291463672 -0.15524487037924928,-0.8137123210311472 -0.024987020800679716,-0.9180288347204311 0.11606054354177786,-0.9651745962963503 0.2502703947915279,-0.9481979863264769 0.3591897365061243,-0.8694615711890776 0.428449437004204,-0.7398220302505507 0.45152585742789597,-0.5756389390652856 0.4310986483452979,-0.3948721018795709 0.37779679383628206,-0.21379447966084797 0.3070728700552223,-0.045301959046639695 0.23537068008241135,0.10114600440358856 0.17665676916439566,0.21868550701692868 0.1400402264535643,0.302251467931157 0.12883882354721266,0.3484352168889302 0.1863249197525647,0.8564330470312882 0.367957463328878,0.7574622996057769 0.5432078734429382,0.33283210378806416 0.6644738845079416,-0.11130222162553594 0.7331471407273824,-0.4596019609523978 0.7371981448199847,-0.6719481173650479 0.6325526522402498,-0.7732548211099441 0.37275202935410334,-0.8143467654696792 -0.048302010483737945,-0.8228994084800405 -0.5630793199253361,-0.7822139778125745 -1.0222146612014313,-0.6746154777861761 -0.7352825386169144,-0.4796148501762474 -0.48142550103671056,-0.4321511731610599 -0.4206620836770014,-0.45901194975687076 -0.30754901503772203,-0.508854502895133 -0.14425164221330533,-0.57725345644306 0.06341169196480223,-0.652700499350729 0.30529807247859253,-0.7178805581010153 0.5659223766844832,-0.7530087624940194 0.8239915608732247,-0.7406848910304262 1.0536252887239783,-0.6710616017200408 1.2278768119141716,-0.5456218366017396 1.3240107617710635,-0.37792118247134 1.328829599268957,-0.19055280779562622 1.2419643860426532,-0.009108814574886992 1.0758258753239147,0.14472554556499517 0.8524245469843095,0.2584158182603602 0.5985651102941887,0.33044291012676297 0.34124926637529995,0.36856693201245605 0.10445639133870088,0.38561696974919357 -0.09256718778141249,0.39457920825635995 -0.23607748258145023,0.4046500670205546 -0.3182653102599602,0.4193232513718641 -0.6781518354500093,0.6575981100463082 -0.822553644596681,0.9807820240484801 -0.23956495318248017,0.9351120676406026 0.39007612610646447,0.7874763752125773 0.9025384980678552,0.6213336996089396 1.2199935117966447,0.4785130829583011 1.3281187374939663,0.313590366963183 1.2503302921325172,0.03578157612471955 1.0187567728957845,-0.40884658990432854 0.6579280053610432,-0.96998642906415 0.2216006529981911,-1.4857226560456809 -0.016801142988200013,-1.4411921377127896 0.15227262906755357,-0.8244842366466827 0.20308742665058332,-0.784479740744132 0.3147507229010529,-0.6998567135707248 0.48370608213761557,-0.5706579364050555 0.6960097906605824,-0.3963435816736762 0.9277896029131085,-0.17671342004621238 1.1477632014121895,0.08521935353282117 1.321869123956148,0.37944682289493414 1.4196038102925144,0.6862220805733443 1.4208250176974104,0.9763656032135515 1.3209559519971492,1.2155934064522 1.1324330403596576,1.3720035543056497 0.88136046424151,1.4241692751704704 0.6003201958459385,1.3667915216611135 0.32003399892741413,1.211933358434223 0.06300361611931748,0.985829691177841 -0.15886466789980602,0.7229238809836289 -0.34257898453945757,0.4592916368127504 -0.48991604879373085,0.22704768739262704 -0.6030808549117808,0.05041300424940687 -0.6820542572360182,-0.056479259446916785 -0.841282457255204,-0.15440378637146068 -1.7227389922636291,-0.4458531179424057 -1.3831321904081761,0.1292535761154454 -0.8357544929895084,0.7571947619702541 -0.2855256136833759,1.272189978688587 0.12812350845462106,1.6007470153709846 0.404334228417909,1.6969132500303203 0.6454323321966342,1.5236848368185036 0.9554385322453527,1.0703244681756416 1.33864999976268,0.37411842052992483 1.6756284226567573,-0.44196019977054846 1.823745652857042,-1.1273162545318485 0.8357146592062747,-0.3027819998971637 0.8317937046006136,-0.27842952135496546 0.8211099812907321,-0.2002894223700764 0.8045785666925411,-0.0668910333859003 0.7806203807541578,0.11902076110753512 0.7446571988155029,0.3502322858091276 0.6895397323336141,0.6150301594748981 0.6069814165358736,0.8974296744477641 0.4897941560090544,1.1778209491248646 0.33444766232697987,1.434253975550149 0.1432737202486294,1.6444978867450715 -0.07440334299127471,1.7887554044976923 -0.3027399075400723,1.8525745219095313 -0.5215647212878736,1.829242519507261 -0.7098741908414041,1.7209393325955915 -0.8497721568664502,1.5382313163650565 -0.9298297635228892,1.2980037409103744 -0.9470324923480575,1.020437571933428 -0.9069402009774592,0.725905142150225 -0.8222071109056373,0.43258247761204416 -0.7099899580448295,0.15521522865890347 -0.5889166793041909,-0.09498818657424124 -0.47622504523008047,-0.3097315063023842 -0.3855120086481918,-0.4828197855849652 -0.32535304832964584,-0.609625692861286 -0.29889382224985184,-0.6870521122433075 -0.3190632574336405,-1.132493153227614 -0.5284479058410483,-1.7814457862039603 -0.8214848161480575,-1.2636716304108688 -1.0741156329814743,-0.5768103665962343 -1.2524019423128578,0.11093975414378576 -1.3627227494559406,0.6755928149936921 -1.400252622373813,1.0631012076299555 -1.3278517264163128,1.2841513957969113 -1.0912534432662682,1.3895746937879352 -0.6507465862823665,1.4338712441940231 -0.011355421213792738,1.4398577322162396 0.7551534058190583,1.3881157180959889 1.5033568733964842,1.250420857172628 2.0399213411619854,1.052348138737699 0.8474120564797545,0.7010574419958573 0.8165582884776512,0.7108542474496602 0.7226994513151226,0.7472140078041463 0.5650680139124376,0.8119537543501565 0.3459257510221221,0.9015025850379743 0.07050325241802113,1.0062248606891586 -0.2527148816666056,1.1109038690138675 -0.6113565825264828,1.1964787432016237 -0.9884835915562604,1.2429026505719207 -1.3624079599811552,1.2327327562470884 -1.707571840587221,1.1547950813370278 -1.9968030794034206,1.0070706697531762 -2.2047715167685027,0.7979494777955267 -2.311935301585308,0.5452943389501002 -2.3079336960542776,0.2733290489734088 -2.193443092019436,0.008033454116571193 -1.9799763103124945,-0.2277773025209342 -1.6877751710656668,-0.41841311081316235 -1.3425196224874867,-0.5573699709482298 -0.9718113693796369,-0.6471689209429599 -0.6022306111801754,-0.6972859273137715 -0.2573497220113694,-0.7209249677636649 0.04335010909996129,-0.7315410503934743 0.284978774250078,-0.7399250382467528 0.4574934849224661,-0.7524097787909341 0.5558844816345783,-0.7704341856363044 1.018813920116898,-1.0655258300668322 1.5812972399966725,-1.6876124592286175 0.8451696309453922,-1.678280622999111 -0.04455893720259496,-1.5217649120714185 -0.8872450359191077,-1.2858858670325901 -1.554957727019115,-1.0539271826352916 -1.9878248506563807,-0.8539368991144585 -2.175197821534752,-0.6397544979698893 -2.1386008459784023,-0.32258970302447665 -1.9122727292325123,0.1727904381152996 -1.524092776982215,0.8544735457813317 -0.9978969451034487,1.633945541942694 -0.393128466575547,2.339661955278757 0.14480720752162313,2.782919337179976 -0.21204999058039675,1.3033838251027987 -0.24097988523499225,1.274910377067556 -0.3362947970080512,1.1961939468233993 -0.5001800401613394,1.0676817190381769 -0.7272926169740543,0.8897308094031473 -1.0041186625635703,0.662133414673292 -1.3093448476849545,0.38471352418821425 -1.615333778860986,0.05904792251126878 -1.8907422125598146,-0.3090935269219699 -2.104194382331954,-0.7073961039789367 -2.228659567501367,-1.1157304186555734 -2.2458243744956548,-1.5068027771962704 -2.1494597457212024,-1.849047774513565 -1.9467750572085833,-2.11134353442111 -1.657155008444974,-2.2684391979007614 -1.3084143375846082,-2.3056505535549547 -0.9315003572069074,-2.221574713393167 -0.5550747383520331,-2.028222183883571 -0.2013903341976402,-1.7487697527595145 0.11563084496974341,-1.4137516687207778 0.38997645503440026,-1.056718017217264 0.6213447708419011,-0.7102148774918078 0.8121534033953353,-0.402572835296894 0.9647961597399615,-0.15565442711641708 1.079932076777851,0.01646225092450493 1.156150750786182,0.10790674356439922 1.7384715040240053,0.41159641768058464 2.7186701801304167,0.622110290781066 2.264704585287788,-0.1364337336810877 1.5671700015852537,-0.9646749104668686 0.8168881498005334,-1.6951966268827334 0.17663621850707045,-2.24560683096594 -0.28909706076082387,-2.5711768579429304 -0.622117193283998,-2.633901800416993 -0.9273362867622552,-2.403694335866078 -1.3029282632220287,-1.8717592857915406 -1.7736904606002781,-1.0627609964989801 -2.262306684532575,-0.054634155558090924 -2.6272941439899142,0.9888069497506393 -2.7610342063506437,1.805467819356906 -1.4467607487157395,0.5564571417762068 -1.4331155942942928,0.5091326897991735 -1.4072534824051957,0.36379094306686 -1.3709581134244218,0.11867230782874572 -1.3214502702838402,-0.22030106464285382 -1.2505348301614774,-0.6391728590109125 -1.14545101461362,-1.1160066220196114 -0.9915256726868691,-1.6214055372296627 -0.7762296128532853,-2.119775384539068 -0.493751725263472,-2.5717154293977984 -0.1488644326824513,-2.9377605002441243 0.24119303902991618,-3.183237815168468 0.6477246356492401,-3.2834015360525655 1.0346340404711825,-3.2275666254854514 1.3647370479466758,-3.020974267411958 1.6067663788601791,-2.683685203297742 1.7412437334332438,-2.2467266461011235 1.7637675828508748,-1.7466098813254973 1.6851018148976138,-1.2197881611531187 1.5283785145687574,-0.698459000497607 1.3243910335756368,-0.20845467699490428 1.106187071654361,0.23086107366380304 0.9040382947521266,0.6054154326886447 0.741548554711926,0.9049427041571079 0.6333327801788755,1.1220057890047315 0.584418243565807,1.2518956461081387 0.6167737056303224,2.0199893856468947 0.976822885552167,3.1362185103133697 1.4794452893054313,2.2282613930342308 1.9094293822580255,1.0338502260710385 2.208901147680436,-0.15511000624978522 2.3898539147392768,-1.1255555679013014 2.44492559213613,-1.7864687433318807 2.311461369035314,-2.15854940788482 1.8981003965485002,-2.3309061859585682 1.1391523323182042,-2.39805049049896 0.04570590205902647,-2.3996336910739444 -1.257809716725518,-2.3031252782992055 -2.523128761218345,-2.061340572028371 -3.423089819543577,-1.7186499679088527 -1.394445714258822,-1.1187746611468086 -1.3375834282389292,-1.1316569563951262 -1.1748989215023755,-1.1892562876732242 -0.9058431495817842,-1.2943143383722244 -0.5349488389837802,-1.4405061677819049 -0.07167620030111266,-1.6114005931496038 0.4691601434198702,-1.7813732022840085 1.0663867335849488,-1.918599997297875 1.6914023985742404,-1.9898835045936494 2.3079453260777427,-1.9666389131677775 2.8736287113396486,-1.8309341344347843 3.343739844887324,-1.5801682448881351 3.6769829938017438,-1.2289938707046204 3.841966112174603,-0.8075986853148152 3.8227001433040044,-0.35641722929108965 3.6215044771610962,0.0815554109020411 3.2584976470690066,0.46888117954864583 2.767964093503295,0.7801272043453267 2.192823095912388,1.005127570905458 1.578791943885804,1.1485716221973163 0.9695518381223849,1.2264776657482983 0.40352937105882347,1.2608190039790514 -0.08781550839698582,1.2738025302375604 -0.480734316626922,1.2831244028853277 -0.759532061297449,1.29909884577404 -0.9167924345445471,1.324020259851487 -1.663968996261758,1.7977547321764362 -2.5688464205507273,2.7983728799633454 -1.3720412279954388,2.7746082923157545 0.06712174299482854,2.513616975399941 1.4241202849025143,2.126024934499789 2.493762429678455,1.7464977319841068 3.181635747296596,1.4200119614970248 3.47292115296176,1.0722257011683638 3.404394438875457,0.5610774620152625 3.0328704892542504,-0.23280246133116123 2.4045821515529866,-1.3207397510772694 1.5589687969500972,-2.559979605139546 0.591867508960803,-3.676593494569545 -0.264895405080253,-4.371293280483933 0.3025848624984633,-2.0103457468596346 0.3477774264934226,-1.9599295087800996 0.49789888620674105,-1.8302056234049076 0.7558343102857208,-1.6223112373732889 1.112568304926242,-1.3372286051969269 1.5462680902381578,-0.9750377175909435 2.0229704018630343,-0.535863408263296 2.4989966205165786,-0.022581700970825125 2.925138953859289,0.5553691765501583 3.2524619103171517,1.1783513387971283 3.439153251297199,1.8146171645225664 3.4573044470039633,2.42141940943862 3.2980600638995554,2.949613181243933 2.9735815732458093,3.3510593706666683 2.514917165369127,3.5870711805003026 1.9660296070567256,3.635646649037234 1.3754662445622898,3.4955590432632135 0.7879162164601894,3.186403703100808 0.23785002031672775,2.7449577435389187 -0.2533772733306705,2.219155204635001 -0.6767746024326868,1.661292071958954 -1.0322248925848214,1.1217880035677723 -1.3238038560886025,0.644249058505693 -1.5555219769283894,0.26204990749785395 -1.7286917159153177,-0.0036149169244765744 -1.841432761444537,-0.14429139072123576 -2.730966942265468,-0.6103863413596997 -4.227621183277449,-0.9319140784203626 -3.5219367902771808,0.23224837625099326 -2.4461013140459897,1.4989491049256571 -1.2934679311748312,2.6118690514399248 -0.3128568469180095,3.445979837611276 0.3982253706467702,3.934397000327195 0.904719112002283,4.020846367999454 1.367188524308375,3.6614028690152196 1.9350368781082068,2.8447269626492897 2.6454423121950867,1.6103101324119677 3.380553113297651,0.07816949112034877 3.926000276009802,-1.5023009703554777 4.119836982627874,-2.734423264103256 1.8465590306554986,-0.722233339770284 1.831784395052864,-0.6840971941165321 1.80473333143064,-0.5538240731724358 1.7677535367419068,-0.32845312269117244 1.720403302477422,-0.010245013527111269 1.658569456298352,0.3930096506130809 1.5743654574898756,0.8679066184800917 1.4569662010574405,1.395542567459941 1.2943614870821705,1.951879453600597 1.075816104807359,2.5084964613928946 0.7946403870987808,3.0339078312758403 0.450737215478739,3.495573738935093 0.05234254629274915,3.8625753424257994 -0.383544675008892,4.108697439264716 -0.832326260130003,4.215439417082067 -1.2645116280962725,4.174352031229958 -1.6495504645309325,3.988146907892215 -1.9600831061650297,3.670260875494961 -2.1757832528302288,3.2429169084411456 -2.2860663032732873,2.734090905307397 -2.2912173823558533,2.17404392886894 -2.2018596011161833,1.5921322959846975 -2.0370191664313495,1.0144575202689339 -1.821262054722098,0.46263014291304216 -1.5814470820703548,-0.046400440603605375 -1.3435882312130047,-0.4997546262990511 -1.130200836165244,-0.8877023783261393 -0.9583748945455852,-1.2028318755794203 -0.8387033661572048,-1.4395945347850443 -0.775095877571431,-1.594323014257725 -0.765416852548924,-1.6656303639539658 -0.9769183122211871,-4.046729571661672 -1.494858656144146,-3.6766604680012165 -2.0385810119331893,-2.550345845048497 -2.4878953528110515,-1.2180024582491455 -2.812141813055149,0.08704129072572186 -3.024715569174134,1.1924912192233705 -3.1269197295932827,2.011731113508006 -3.0804673057238006,2.540197047382321 -2.8156500185799445,2.8338551093743547 -2.2608944469098873,2.975427942608377 -1.3762492279896321,3.034446488931195 -0.1813939540373326,3.0345604249819473 1.224165397550962,2.9477336513460273 2.6537927141578166,2.729023866169058 3.8534208292419407,2.381619051475326 3.5855184963376416,1.8418580860592613 1.7511090633737183,1.393573381776804 1.6718916402586217,1.4127232367687554 1.4939362850249722,1.4740976441478324 1.216983590417442,1.5799048497525234 0.8442548995823813,1.7261942024899213 0.38230170554473375,1.9020977249372208 -0.15886796540655723,2.0900292372900537 -0.7653244245657902,2.2669370397340742 -1.4185404042233358,2.4065737878570417 -2.094818364806514,2.4825999626537225 -2.7652462758429124,2.472175304161084 -3.396584986460965,2.35953288203649 -3.9533119761475604,2.138916287473137 -4.400741745045295,1.8162522004973312 -4.708796700725998,1.4090786037998555 -4.8557314372029765,0.944558982685578 -4.831025726875154,0.4558253873606759 -4.636808142562572,-0.022707044396497622 -4.287517431786199,-0.46015388682093317 -3.8079388863946093,-0.8331759753711765 -3.230121685151687,-1.1284777163730269 -2.5898729302054875,-1.3434460117106255 -1.923492240498092,-1.4850024376423505 -1.2651994694078468,-1.5670832189679516 -0.6454170367898087,-1.6073598650263534 -0.08980815584197899,-1.6238563481947779 0.381177899963447,-1.6320372591913497 0.7525170717684802,-1.6427819651929951 1.0147486021129595,-1.6614635243334135 1.1640700007443883,-1.6881472556578956 1.8039288061482495,-2.0859894927066875 3.4664404693154296,-3.499335982228729 2.320080128242381,-3.547713512517362 0.8285891220327954,-3.3648265372012247 -0.7196070524969684,-3.001069050810713 -2.1061709332718834,-2.570621530317311 -3.197954439988621,-2.169646836438403 -3.9326860962503076,-1.8202428972996927 -4.3001384672603535,-1.4618562145742828 -4.3263913732713775,-0.9831000889167569 -4.05619847448871,-0.27433587914660507 -3.5325972491623503,0.7186216850134599 -2.7859701555218095,1.9549980977812993 -1.8504430496718527,3.2866473040473068 -0.8104781044895972,4.484867591011749 0.15185927933632826,5.3095054145071 -0.031191008871417125,3.5196872080078947 -0.37546248186875175,2.463272594840504 -0.4701244119133534,2.3714976112753448 -0.6630200775312218,2.207593828475069 -0.9538213439183068,1.9726946616814303 -1.3339438850615721,1.667593641395115 -1.7861549854377756,1.2924145565525862 -2.2849812560042153,0.8471541017308084 -2.7979654283199054,0.3331276825121563 -3.287798276709232,-0.24491895603210878 -3.7152979860499897,-0.8765192442876923 -4.043089850443799,-1.5436647833399775 -4.239651489680718,-2.2201133990302537 -4.283178815924828,-2.872312356646944 -4.164582431660904,-3.4620785637118274 -3.8889363003327446,-3.950737142420735 -3.4749226154930994,-4.304007970443308 -2.9522222361229495,-4.4966831419547475 -2.3572794867723985,-4.516149902010653 -1.7282691285893748,-4.364088248699289 -1.100276389911059,-4.056118198390834 -0.5016092730575394,-3.6196368973648987 0.048164557032507105,-3.090423370064542 0.5383115696012908,-2.508715864910897 0.9654426071599858,-1.9153897328338019 1.3310292688449579,-1.3486604280118968 1.638640546307613,-0.8415106770215743 1.8915619967717134,-0.4198756687404881 2.0912733691169336,-0.10154745634055473 2.2369991091336487,0.10423987125395229 2.326272331419858,0.19655925502820537 4.079275153317127,1.0722286852893035 5.199239401389164,1.0579870612446314 4.446148196791434,-0.1817452544604521 3.3381017914652134,-1.5306383047259118 2.1038796338988135,-2.772507609254447 0.9625555700267725,-3.7892818337490297 0.04701853018365654,-4.519465221169213 -0.6255029884241665,-4.917868131971446 -1.1369996375883034,-4.942161456590881 -1.620061798604091,-4.560652269036126 -2.1940687126877165,-3.7645053893756995 -2.9057019517401557,-2.5773347535636617 -3.696225505247291,-1.069509228038072 -4.41645404616763,0.6149717557169652 -4.895850071730649,2.2317248665619616 -5.0395732675504235,3.445576787206818 -2.5858813253029354,1.0335615350388707 -2.561273178495995,0.9775600907654791 -2.5191906881722446,0.7900170164917455 -2.463035138533442,0.4670732091230292 -2.3922149293876345,0.012331372737691026 -2.300904556219365,-0.562735510155008 -2.177921191869231,-1.2386975366541577 -2.00793555070409,-1.9883636695604991 -1.773983995676474,-2.777331657870434 -1.4609732614936348,-3.5650861661687827 -1.0596095478786651,-4.306895508503388 -0.5699914917650375,-4.95668331408325 -0.004041789729768652,-5.470828959669348 0.613931015112982,-5.812528062846127 1.2489315280625277,-5.956030922255678 1.8591535162586865,-5.8899065268321 2.40143077877687,-5.618554739429335 2.83725317860538,-5.161526522439104 3.1381784593296516,-4.5507229753943506 3.2896168714245846,-3.826062400223023 3.29236798930728,-3.0305544447909654 3.161809626753268,-2.2057891540796817 2.9251129741665096,-1.3886307826711146 2.6171629895605832,-0.6094959210541617 2.275957694093208,0.10785989664508122 1.938182308106093,0.7454833943788799 1.635483809619089,1.2899064746308895 1.3917839302972652,1.7309601839336395 1.221804637494742,2.061122739177762 1.130842480674744,2.2755344100605086 1.1156998666094466,2.372547035768008 1.4106199211218637,5.7070042545016335 2.1342534948829837,5.181323909779493 2.8926293199036124,3.5979727563597734 3.5175161621353084,1.7293699317654116 3.9663864027752993,-0.09755660293005519 4.258400610491684,-1.6421811818529761 4.395770713091601,-2.7842655022231355 4.325446781875691,-3.518447680467105 3.9507136334525086,-3.923798575668741 3.1725474425986704,-4.116435858614466 1.936270786310061,-4.193741288891978 0.2703828696629387,-4.188921544465771 -1.68564392194547,-4.063167172077279 -3.671607477793998,-3.7542753342996633 -5.334381762086572,-3.2671137262371417 -4.955995899631873,-2.5136877733368266 -2.403940565665181,-1.888596058862916 -2.291280706249644,-1.9130617362240656 -2.041942987128323,-1.996033660604425 -1.6558883378576965,-2.1404340591716533 -1.1378954154917764,-2.340648980435148 -0.49733531632978156,-2.5815086411516432 0.25166950455862747,-2.8385960555656595 1.0896185249156431,-3.0800104515519564 1.9907175960127788,-3.269528527424143 2.9221094083234362,-3.370903695513775 3.8438361011235003,-3.3528212864991076 4.710086601897991,-3.19380998780791 5.4720326923172,-2.886256016946618 6.082136797701068,-2.4386595463745238 6.499338250890688,-1.875481013252653 6.69415502030138,-1.2343548184415596 6.652622368921286,-0.5610162512902548 6.378196833229126,0.09716500002545558 5.891232436744062,0.6978021073771856 5.226228444202633,1.2089852211531706 4.427552810420281,1.612673859340191 3.5446020768811053,1.9055264816233546 2.62730995937261,2.0972782388403886 1.7226228744269605,2.20724558198728 0.8721590909129873,2.259804978171559 0.11091110189285303,2.2797475884995464 -0.5333537767052405,2.2882959088534136 -1.040357967172227,2.3003466388073406 -1.397477448663068,2.3232331924313883 -1.5998463318251481,2.357021552536523 -2.4713764886772083,2.897319701691643 -4.73648076936675,4.821974457229388 -3.1685526821714376,4.882666152234364 -1.132856200805378,4.628160131814241 0.9768310132864144,4.127753159836715 2.8631756470617375,3.5373799121845337 4.345521449229068,2.988050559563021 5.340055119172035,2.509721722012287 5.833905577449627,2.019945430379188 5.8635454593308225,1.3674395907256596 5.490698031616262,0.4036860870724368 4.774591946862245,-0.9442060790069817 3.757134590942769,-2.6201565354162994 2.4851955205460854,-4.422686135053553 1.0737192025352442,-6.041692258384842 -0.230473875789869,-7.152354075977087 0.0175865579436163,-4.722720999453628 0.4833708259025684,-3.288948646528624 0.6109489681658715,-3.1616719879815633 0.8710945965582368,-2.9371221347645644 1.2631005982594274,-2.6170233242627177 1.775116819955059,-2.202635255835787 2.383653978514104,-1.6943094041567832 3.054167854879921,-1.0922236537232237 3.7427857718693645,-0.3983319142060111 4.399205992038219,0.3807958241943652 4.970728227922308,1.2309022424595355 5.407212928111619,2.1276137819977947 5.666515402284489,3.0355388915908605 5.7196605248587105,3.90954113015016 5.554831328180285,4.698369322066711 5.179265137099264,5.350234534340842 4.618452983828121,5.8193725623244745 3.912584735719321,6.072303789471448 3.110825681691665,6.09252342646063 2.2645427315806614,5.882728819057505 1.4208388982643783,5.4642917583491695 0.6176260971149645,4.87430805112465 -0.11897664693293564,4.1610071398961495 -0.7747347833394542,3.3784713488943368 -1.3452713815105426,2.58150721413147 -1.8327182711869625,1.8212358825508872 -2.242004454985789,1.1416657538759054 -2.577667777138174,0.5772887900025978 -2.8418232743900376,0.15164476669170313 -3.0335700272392785,-0.12320149012262505 -3.1497518968104714,-0.24629330363555368 -5.4843178018776655,-1.413789318569357 -6.971949535535316,-1.3935612179612988 -5.962186286035603,0.259299938993621 -4.4811457791693385,2.055272921991069 -2.8341887619741044,3.7063591432218743 -1.3130698802534368,5.055744782852997 -0.09427373704224351,6.02220332187261 0.7998508410311445,6.546361268170969 1.478830121144739,6.572773547882278 2.1191430594977305,6.060238632225676 2.879337247668417,4.997983642911123 3.8211470474696796,3.4183097595089436 4.866355426368443,1.4154522324745074 5.8170076919655855,-0.8189523018633906 6.447288757218416,-2.960667733447508"
    />
  </g>
</svg>
