<?xml version="1.0" encoding="UTF-8" standalone="no"?>
<svg
  xmlns:svg="http://www.w3.org/2000/svg"
  xmlns="http://www.w3.org/2000/svg"
  version="1.1"
  viewBox="-3.4555655901889395 -8.947897740247228 214.45406996188774 206.91113118037788"
  width="214.45406996188774mm"
  height="206.91113118037788mm"
>
  <defs id="defs4215" />
  <g id="layer1">
    <path
       id="path6"
       style="fill:none;fill-rule:evenodd;stroke:#000000;stroke-width:1px;stroke-linecap:butt;stroke-linejoin:miter;stroke-opacity:1"
       d="m 100,100 0.0,0.0 0.07379018519679903,0.06749080358552817 0.07402775095933123,0.06723060432925365 0.08187156829315256,0.05826235188339979 0.09436632455049221,0.04151105824962542 0.10722856447389972,0.018475085193756513 0.11633765292305043,-0.00779630290851685 0.11929783861297949,-0.0325286686308317 0.1163924664469107,-0.05009721546014134 0.1102917040285405,-0.05544126442661934 0.10447414900950491,-0.045139543608641475 0.10102836356850275,-0.017641384629271784 0.09876976967086648,0.027034685901497824 0.092408174864687,0.08727735400418624 0.07322969810321922,0.15889825688023507 0.031605717946121104,0.23349991775980072 -0.03875830301200267,0.29765922504191167 -0.1360270999728641,0.3348520977810381 -0.2474972106502804,0.33091243290579087 -0.3516981053981567,0.28114237802248 -0.4257565886550907,0.19483165663807256 -0.45459763955494736,0.09350686750040893 -0.43655269827533516,0.0031406479718327773 -0.38210498792059866,-0.055286164508501656 -0.30717343740185754,-0.07178284277956948 -0.22549807590115734,-0.047906568485501566 -0.14421667512965541,0.006439346905722232 -0.0639781136257227,0.0769973229908203 0.01755724873321185,0.14822657008552653 0.10109432726981993,0.2056360520550271 0.1822680113971984,0.23830160059371508 0.2510891510619473,0.24167421220766983 0.2946391520344491,0.21939604413752534 0.3015817868544417,0.1823868325712965 0.2658849559735188,0.1446740931853725 0.18774019480116522,0.11743617278742136 0.07181882883372737,0.10380232520265054 -0.07496196267022981,0.09637600041264704 -0.24368248839058992,0.07814884163424551 -0.4208542700615254,0.026760132545945226 -0.5848645639828902,-0.07804120579865526 -0.7053522081153716,-0.24464314403576282 -0.7492766015798935,-0.4607325434656957 -0.6938180128447016,-0.6909438696958432 -0.5403604562792594,-0.885572609212474 -0.32023952533864986,-0.9988167461591217 -0.08634638068465961,-1.007415223606074 0.10605777132494154,-0.9186085232313133 0.21849647395374916,-0.7630606211904905 0.2385763329700552,-0.5783290694422476 0.17748030516671065,-0.39328589587758245 0.06091149138536878,-0.22094254667378266 -0.07996689502232357,-0.060725622922191747 -0.2145815718778863,0.09337684934980928 -0.31690577955959043,0.24369971278926528 -0.3693746367135162,0.3830111079881533 -0.36701077149230343,0.49438199921539194 -0.319494249662057,0.5567496354380523 -0.24838119869568231,0.5530663582487421 -0.1790564823422045,0.47632864752041826 -0.1303981965653236,0.33034084599370317 -0.10657628683682674,0.12599627303816874 -0.09398223115439919,-0.122889239438976 -0.06388950840381824,-0.4000876227769936 0.01970943301132877,-0.6828102832428158 0.18768812954344583,-0.9362292102059513 0.45052798505952296,-1.1130451911888741 0.7854379869585131,-1.1637011053787205 1.1343905287414344,-1.0567235927836407 1.4194471130267488,-0.7995785345360105 1.571876903663167,-0.44564739403922715 1.5602328076571865,-0.0791858938689245 1.400664348187334,0.21525619062173007 1.144016254460368,0.38170678339899666 0.8494847014826377,0.40536982316055514 0.5610737158540076,0.3070540418479055 0.2976684182179099,0.12826232967644557 0.05747313221864658,-0.08293646705381263 -0.1691964499664067,-0.28093657367026026 -0.3863050983087106,-0.42817550706413954 -0.583754204579094,-0.5004476728333316 -0.7376748473688366,-0.49234733077692283 -0.8188601188416555,-0.4195924551865744 -0.8045509296430566,-0.31437556482008233 -0.6867723390673035,-0.21343887149905072 -0.4729414971862411,-0.14336022034322582 -0.1801737172426101,-0.10935024847098873 0.17081651620769378,-0.09158846189615133 0.5564927571633973,-0.04963017517339097 0.9447662964241061,0.06617899856860276 1.2875938564290408,0.2973350532882222 1.520738174262334,0.6564128260832831 1.578125609177576,1.1101434304513305 1.4196291727225514,1.5778371877870114 1.05879661279279,1.9533216168410519 0.5710552627398044,2.1449370611672123 0.07202540705318938,2.113050391708313 -0.3244546099185044,1.8827201731433263 -0.5449170928442442,1.5249718877302456 -0.5721633133510551,1.1206403335230277 -0.4366277785291146,0.7288615358304327 -0.16992109721637405,0.34619746533633133 0.024914793298194127,0.12094942080237558 0.21710483288848081,-0.09143810934581609 0.3804013272211364,-0.29599427166074577 0.4945450189136409,-0.4913067139058285 0.5477623936918832,-0.6676227148820573 0.539030279283125,-0.8084199842740816 0.4787629212832769,-0.8948117884443718 0.38670825893333927,-0.9110251780552829 0.28693430228847205,-0.8486954110293112 0.20117955955508648,-0.7083145802994721 0.14263142735505596,-0.49766563470230096 0.11193651820548212,-0.22863959446372917 0.09627345129938192,0.08541429769951492 0.07140575243866465,0.4300815473916373 0.006304082207904571,0.787625434849275 -0.12996392029890558,1.1333256637493179 -0.35948833549470294,1.4329777520939615 -0.6862253584464924,1.6445065806212966 -1.088983257266392,1.7255396967824908 -1.5205141736855978,1.6460520507590957 -1.915541095465855,1.4017611916464148 -2.2070117562103064,1.021879679062252 -2.3452955476734445,0.5661342046699502 -2.3124509932573716,0.11072271002063871 -2.125372402774289,-0.27150857561839814 -1.8269436663569394,-0.5285844517957088 -1.4699503034719612,-0.6383266623244168 -1.1010283769155933,-0.6072747351665555 -0.7504564412637791,-0.462767727195029 -0.4298932168053966,-0.2431107950217637 -0.13675465424246624,0.010464861287388771 0.13780021931667363,0.25891316351584237 0.40047138787682,0.4685104094708379 0.6495973447402292,0.6135883162707358 0.8728274850335822,0.6796211122624953 1.0492650211682104,0.6659760925322047 1.155194455443322,0.5866169533611156 1.171092582249912,0.4672471723446421 1.0870352895951214,0.33879779273459576 0.9044192815767786,0.22893161520038063 0.6338446416004047,0.15420537516736488 0.2909855109109287,0.11515652645930174 -0.10680793035577096,0.09531510846818492 -0.5410163124431051,0.06397685064955283 -0.9891157782940923,-0.01783337392036799 -1.4200128121523363,-0.1886292838028254 -1.7909885306116706,-0.47551303568390324 -2.0498269666918105,-0.8826707417295978 -2.1443630221254892,-1.3828440255331031 -2.038244995677374,-1.916508875473312 -1.7274532212924356,-2.402181848481746 -1.2496218758886073,-2.7568300565131096 -0.6799421383880997,-2.9197015668738118 -0.11341095808342061,-2.8697838230906427 0.35987044712143756,-2.6293161582095053 0.6762813826870371,-2.252456322552831 0.8094366592632412,-1.8051440049886338 0.7685104855269884,-1.3452294799847948 0.588175156479565,-0.9099993883661028 0.3163004928271391,-0.5135889682744761 0.003985070723430795,-0.1525598876825569 -0.3007214941431897,0.18416232928751697 -0.5566194917205536,0.5049485040929085 -0.7326316136278166,0.8078879755746016 -0.8114798308331359,1.0780322551851356 -0.7929219057812844,1.2901100580623392 -0.6944709854389401,1.415577122442258 -0.5477860857559449,1.4311599864445412 -0.39066128318071947,1.3253751681609742 -0.25668367084566057,1.1005239828540567 -0.16577932297970221,0.7700236484985226 -0.11837653471309295,0.35333142735811407 -0.09435676563700213,-0.128201563012027 -0.05654794886044101,-0.6519510774945729 0.04197083004864055,-1.1906061217388952 0.247294647306731,-1.7066999605553832 0.5915377358731035,-2.1489993091293655 1.0791161250127175,-2.455147352762353 1.6767047937998,-2.563186347468431 2.3125035772610403,-2.430437940595681 2.8888226014976084,-2.0531452509384565 3.3066483568159413,-1.4773640727149626 3.494107586074165,-0.7937500721062349 3.4271166529239707,-0.11609920614621672 3.1332599136446646,0.4482323186244628 2.677968978748737,0.8239783135783796 2.1403377065053064,0.9805466562020513 1.5894305830540247,0.9297462358874498 1.0695423354683982,0.7135825857640725 0.5972847197435556,0.389490190632543 0.16836512112264757,0.01843500273422194 -0.2305244392583603,-0.34252982477053706 -0.6094256203089969,-0.6447285739702551 -0.9661786064089739,-0.8516749109849115 -1.2832370253366747,-0.9433385494037481 -1.5309550949564823,-0.9198677190303641 -1.675959789441194,-0.8023250175167789 -1.6912273906391846,-0.6283249991672477 -1.5637150467267986,-0.44252477362684317 -1.296628684131349,-0.2844357264909547 -0.9062026553966263,-0.17735327079201113 -0.4156773438053136,-0.12159654296691258 0.14959519566828305,-0.09339842280579091 0.7628858425460407,-0.04911904707135761 1.392096465183684,0.06610828617692732 1.99338710895843,0.3059600108106366 2.5070100876470605,0.7075624360623038 2.860467738832895,1.2755615082958371 2.9820096728113867,1.970565562066497 2.8226308855139877,2.7084982790487686 2.3788372805844773,3.3754633545134567 1.7051062695413322,3.8564666571188155 0.907558005824356,4.068513605274518 0.11878745420902703,3.984449482757242 -0.5365941901275164,3.6372036690798524 -0.9716752444697221,3.1034816349446572 -1.1516566531408614,2.475531408021965 -1.0909819862478827,1.8336316861232262 -0.8389900150486085,1.2290852825707361 -0.4117894776127713,0.6247226747726842 -0.09765665986708427,0.25548908845581764 0.21745909606796943,-0.08974751589582297 0.5012979775209061,-0.4188321802260333 0.7273597061886221,-0.7343245276619683 0.8767764763989305,-1.0307647868140606 0.9403362247494158,-1.2944982646928054 0.9200140733027524,-1.5060234137261972 0.8290875282100814,-1.644175330813269 0.6901383735869189,-1.6908893502043583 0.5309088271063445,-1.6350788439797128 0.37876906694214085,-1.4744846978263695 0.2550766129615738,-1.2151395365791728 0.17072403936055025,-0.8690167819984396 0.12372958001689938,-0.45110159090904745 0.09911577755802625,0.02273846717380934 0.07087399801753236,0.5361097970200603 0.005686477724296424,1.0704715957853352 -0.1318240531490602,1.6022094513974992 -0.37250126817430385,2.099821816526074 -0.735183643556411,2.5230323368138414 -1.2194955326347383,2.8254634333649165 -1.8008484231043553,2.961589494599693 -2.429979425221518,2.897091727611425 -3.0387278725317373,2.619928322253216 -3.551942412741269,2.1482580261619972 -3.902965606571499,1.5316553301648668 -4.04822308090705,0.8440818935524703 -3.9762094431761597,0.17011809832398228 -3.7079840060593483,-0.4114211238058658 -3.2893919588734803,-0.8414897247979525 -2.778111060390856,-1.088699678541417 -2.2299852612703432,-1.1499858250637232 -1.6885741985307874,-1.0455332408320857 -1.1800395961600572,-0.8108884830841419 -0.7134581123822414,-0.48911789106047365 -0.2852126053612807,-0.12476297670220049 0.11447569489223497,0.2400535150687091 0.4947590507115933,0.5680404858647279 0.8586530800109955,0.8286741055843834 1.1999019761791345,1.000334053487478 1.5028090106527117,1.0726051500233638 1.7449778383012386,1.048003116334698 1.9021577390079472,0.9420616927952352 1.9537370882351013,0.7809857175591475 1.8871947067120942,0.5968439251271889 1.700199582796543,0.42118363995528796 1.399959527070422,0.27854670084447264 1.0004866169712727,0.18137669026992853 0.5192098456347622,0.12729239527163827 -0.025480291017402124,0.09899804740354057 -0.6146428145215737,0.06658653443012952 -1.2269272894288008,-0.00815135680046808 -1.8352254528197705,-0.16568361533708753 -2.403464487851096,-0.4411774278685954 -2.8856172607007693,-0.8559615908813498 -3.2287918222580885,-1.4093204230303087 -3.381204942609884,-2.0728449241404405 -3.3040159758650276,-2.789990647864286 -2.9839359677147854,-3.48276429195235 -2.4421986974198404,-4.065387108863035 -1.7358430633562563,-4.461992984441551 -0.9495863777607241,-4.623242220252905 -0.18004129015710646,-4.536487556018898 0.48299280860561566,-4.226228332803004 0.9724608425264876,-3.745137439780521 1.252966058752321,-3.159228277771277 1.3214319774796195,-2.5322620146034183 1.2012363509135753,-1.9138669333498939 0.9331642490819405,-1.3337664621453627 0.566446304508176,-0.8021935499917987 0.1518692935373167,-0.3149361222667295 -0.26264793406944875,0.13920387388863276 -0.6347829942085639,0.5706859211971391 -0.9299885049801304,0.9829816323600511 -1.1238916305760114,1.36903916554418 -1.2048740752973401,1.7111197566126606 -1.1759921593666007,1.9839322628762517 -1.0550358573804317,2.1601401472026254 -0.8718330615313477,2.2165848262658443 -0.6627790231480617,2.139310569444504 -0.46359821296840664,1.9259144677667024 -0.3020167887273857,1.5847795175616568 -0.19202934117932102,1.1319564519441059 -0.13085521052636295,0.5873181003604628 -0.0988803172490691,-0.028222114860980696 -0.06229907084271247,-0.693175832023087 0.021989191325232582,-1.3833829830722522 0.19954317752510065,-2.0682414542420418 0.5098535875629011,-2.707107159176118 0.9767395382063029,-3.248202184587697 1.599145313425879,-3.632120211151303 2.3448414251765257,-3.8008203906200606 3.150001870507026,-3.710940224118602 3.9268007113729624,-3.347943613176369 4.578831804984844,-2.736139368677698 5.02102036231156,-1.9400307965476316 5.19826135959876,-1.055090861968992 5.09676566886165,-0.18996448199020222 4.7444726595466875,0.5545644934053655 4.200882920687533,1.1034319602549942 3.5403454951516835,1.4172324389632394 2.8345387679365075,1.4928781298955158 2.139159668168986,1.356939460995065 1.4874933281306824,1.0554400150797392 0.890928987601356,0.6437747179558784 0.34465963917220677,0.17897561037243293 -0.16393205288507318,-0.2852423530702026 -0.6466127916826849,-0.7015255025523857 -1.1073101847090783,-1.0313029043758775 -1.5381763549092824,-1.247449207664559 -1.9194305025725384,-1.3371430005712739 -2.222886687451293,-1.3039812023985604 -2.4181225553973036,-1.1680100219655856 -2.4794325642966015,-0.962680405503562 -2.3914264321768712,-0.7287141211689061 -2.15162935273689,-0.506012785981568 -1.769599508052906,-0.3254868766102845 -1.2634262869169248,-0.20268199208871351 -0.6554263550861634,-0.13441802578108764 0.03096393870455927,-0.09876258709459762 0.7717088495246145,-0.058011607255281206 1.5398386767156893,0.035827025849982874 2.3012574556643415,0.23340273971311376 3.010749830501126,0.5785297472572211 3.610787108474625,1.0975174855312275 4.035448600044489,1.7889702038214494 4.220435838630252,2.616837926212611 4.11786447237219,3.5100130931497944 3.7119512586379244,4.370837130793575 3.030080039935541,5.092276501106625 2.1442185297390495,5.580047740181584 1.1605953461772458,5.773280498944629 0.19988767382329797,5.657043781704402 -0.6261361782050869,5.2627169862903145 -1.2344030779835293,4.656628401594588 -1.5814988191741577,3.9214627125321044 -1.6643242823114122,3.1368155212695825 -1.5126425710765545,2.3644524029880785 -1.1777157810775378,1.641220194116002 -0.6492186731521343,0.8996844707540959 -0.2572389847242391,0.43187606703831705 0.14145209367332257,-0.006181449954468121 0.5148560089588585,-0.42294033035790335 0.8355177054019975,-0.8234093974075449 1.0817732463528387,-1.2065345729155723 1.2391763954704231,-1.564145006822102 1.3018948254396605,-1.8816016423125745 1.2736112396448505,-2.139982757579446 1.167400103610447,-2.31931512349135 1.004218356189341,-2.402098913310766 0.8099984236882278,-2.3762866233127653 0.6117346049916819,-2.237026977363982 0.4332530704517694,-1.9868517987923866 0.2914396674092643,-1.6344534423117523 0.1935536633513948,-1.1926134938403834 0.13596411534376784,-0.6760647374188693 0.10434463709671604,-0.10003886369251802 0.0751685684314225,0.520000738987747 0.01830230028377855,1.1673343880397908 -0.0994468269261688,1.821995652487189 -0.3099182674066583,2.458524636521375 -0.6384792088024938,3.0444304999380307 -1.098605633629461,3.5403768325164435 -1.6869609991136372,3.9028656048700725 -2.380144540018563,4.089631570051182 -3.1344054784431137,4.0671291094319315 -3.889281371284085,3.818604001037528 -4.575259127240685,3.3506241863334196 -5.124364795051591,2.695932400260574 -5.481482510940808,1.9112405141740965 -5.613671980488192,1.0699548767317424 -5.515109038309603,0.2513376010042805 -5.20645994300105,-0.47131774323992204 -4.729088597392121,-1.0407133258313763 -4.135883884435131,-1.4217111434073217 -3.4811963812759643,-1.6028671984796574 -2.8122350820987663,-1.5939095478853744 -2.163492943413644,-1.4206396859316044 -1.5547409903908829,-1.1189886236955147 -0.9922343546355421,-0.7296289658812896 -0.47222308927231893,-0.29389234893798744 0.014327526134209734,0.14893357757065928 0.4768393270425264,0.563329783085976 0.9209000781705612,0.918866877637214 1.3453641215987915,1.191580132504896 1.7411946052570926,1.3655405355527535 2.092195170700677,1.4343894245399156 2.3774436506122782,1.4023217394768608 2.574879726930689,1.2839325860342115 2.6652112859842987,1.1025289117621924 2.63520889828402,0.8868965641772206 2.479626918855587,0.6669588874945305 2.2013977108031355,0.46909310176050667 1.8102659514338342,0.31196178889311454 1.3204865802042463,0.20355321992761333 0.7484532178686862,0.1398003270036554 0.11108921739642597,0.10481457480631207 -0.574448234398929,0.07255675779794046 -1.2896357017963709,0.009718313059124739 -2.0123858060085666,-0.12034786694331956 -2.7145702325933456,-0.35274877218606093 -3.3603302561784574,-0.7154005142249389 -3.906292353836733,-1.2230561431723004 -4.304541437492972,-1.8718928426831951 -4.508580166772475,-2.6359506787929092 -4.4815867614033635,-3.4668494085855173 -4.205304128164286,-4.297833929914503 -3.6872148202920556,-5.052248717030523 -2.963649052909318,-5.6552268144128135 -2.0973123874142985,-6.046162905230005 -1.1692319304715184,-6.188960073740006 -0.2667896035059343,-6.077437605165301 0.5293102020955729,-5.734599116592733 1.1560724641451188,-5.206212246498822 1.574972287848368,-4.5506781501669025 1.7736087457267757,-3.8279375269628275 1.7628928310162166,-3.0900015185934535 1.571405522835903,-2.374830261060282 1.2388355251916323,-1.7041464261469628 0.8100392586104164,-1.0847842385170168 0.33054571315174996,-0.5125701115062924 -0.156415061467996,0.022473602313937135 -0.6118035572130651,0.5307383237271495 -1.002216049872473,1.0183907589335917 -1.3013870186569676,1.4841936702820249 -1.4919046756350411,1.9182442036920548 -1.5668840236402204,2.302788699088836 -1.5310322393088214,2.6149045436450535 -1.4004650684579971,2.830444330370028 -1.2008394673350296,2.9283236586578454 -0.963794704666249,2.894131173255232 -0.722183169997372,2.722226860347263 -0.5049331330692297,2.41594362281387 -0.332483910376979,1.9860784605559019 -0.21355277650381765,1.448359666568109 -0.14363653866352877,0.8208416983185174 -0.10528451251590809,0.1221395711003197 -0.06994494716445843,-0.6288957298100968 -0.0011343258344780338,-1.4119370155529651 0.14124890696047032,-2.2027759595299585 0.395579276965492,-2.9706158286652737 0.7923218196473698,-3.6762300124189977 1.3475066527151256,-4.272207875156909 2.056824686252746,-4.7062172701158715 2.8917568175672272,-4.92752876349374 3.7992933387278995,-4.896044413374781 4.706386488544979,-4.5920042552911084 5.529238306820332,-4.023805454250677 6.186088833773994,-3.231365705558069 6.610843299519317,-2.283384260654529 6.764248166991777,-1.268508984211266 6.63976617202114,-0.2822416060075881 6.262738290184316,0.5873026609512166 5.683335895605495,1.2714316024588541 4.96547241589866,1.7282334322894002 4.174678672649577,1.9443502929738372 3.367767955088283,1.9318761141471512 2.586167578706835,1.7221713597401376 1.853551861903071,1.3586824266877784 1.1773341223985199,0.8904495513395858 0.5529171337402659,0.3671990773654983 -0.030619678493678748,-0.16389654536536113 -0.5846373204117583,-0.6602773313401542 -1.115881439696608,-1.0855652221077108 -1.623023218965244,-1.4111939048090179 -2.0952938021270597,-1.6182688157173644 -2.51338222747691,-1.6993786227404755 -2.852365436677914,-1.6597427391408317 -3.0860089338093957,-1.5169975508817828 -3.191436031331378,-1.2991500229078667 -3.1530534482264727,-1.040692845155263 -2.9648268018388535,-0.7774074525002064 -2.6304895348246333,-0.5407731643779528 -2.1618909696779838,-0.35300603186085056 -1.5762327529319577,-0.2235523330800291 -0.8932301787683059,-0.14747275032339502 -0.13318992480427028,-0.10575445022551122 0.6833432252212646,-0.06733313653097639 1.5342383293095736,0.007449661390161566 2.3931661130513646,0.1621499469776353 3.226661424737216,0.43840978174490886 3.9921297686594386,0.8692431250698078 4.6381233964771695,1.4719571622579437 5.107893102738757,2.241756529822304 5.3464773602150615,3.1475629563415737 5.3105020653461565,4.131737268870289 4.978704382417931,5.114939047175419 4.360396088209285,6.00622789661017 3.4990823582068344,6.716950853135202 2.469456133894738,7.175523693808572 1.3677860379510207,7.339536260243548 0.29769360850923476,7.202094738876838 -0.6452951198068604,6.790877463776013 -1.3867907407725966,6.160459544712211 -1.8814945767304039,5.380266681630403 -2.1150918402209697,4.521419818336398 -2.1008593972780147,3.6455343915830127 -1.8729371966443864,2.797504896353445 -1.4785293281839245,2.002957297659208 -0.8820641315314788,1.1705364945801193 -0.4367167761863868,0.6317840172571891 0.020382684107488558,0.12557863125044832 0.4596182804869784,-0.35614195292362183 0.8548268122666229,-0.8193946356142021 1.1841289062278975,-1.2659624392775584 1.4308775411530803,-1.6921332626306764 1.584688148080403,-2.0885057514175287 1.6423536261165452,-2.4408650746266147 1.608349739743403,-2.731970406481352 1.4946366919065497,-2.9439341680528344 1.3195681282316798,-3.060751432558135 1.1059024970800806,-3.0704996784416494 0.8781188668861546,-2.96680003136656 0.659405458774728,-2.7493043278642944 0.46876362799741855,-2.423206188881764 0.3186352224985285,-1.9980057213896885 0.2133383391796997,-1.4859241463945096 0.1484350367673244,-0.9004259844768256 0.11101104387316241,-0.2552539665076665 0.08076274716239595,0.43576383908323635 0.031771353635889454,1.1580769317997976 -0.06512344961262784,1.8951053275928302 -0.23940156636777488,2.626621218756185 -0.5174517505825804,3.3273272005594237 -0.9188183340844489,3.9662084366637487 -1.4524190845717442,4.507193918564155 -2.1132560164579672,4.911480885420758 -2.880311266765858,5.141551208223618 -3.7163548427932938,5.166476429894516 -4.57020938378065,4.96766096024902 -5.381597903518127,4.543845868196428 -6.088112892339183,3.914127721455884 -6.633246461593728,3.1180219060527463 -6.974012032994608,2.2121945450078897 -7.086635735110164,1.264255984586498 -6.969158260366143,0.3447232885647793 -6.640477978013038,-0.4813087164197327 -6.136176740646306,-1.1612347263047127 -5.502154711307767,-1.6595860690853215 -4.787469627443514,-1.9597538274928468 -4.037761694447099,-2.062978884507345 -3.2903116976659845,-1.9853307701256426 -2.5712773543015857,-1.7536459067052022 -1.895148127416924,-1.4013528989993347 -1.2660742348172676,-0.9648562155270497 -0.6805115334329699,-0.4807996357403681 -0.13056485220126746,0.015798182932741156 0.39254389748754903,0.4927718916012225 0.8953652789056434,0.9217291409196378 1.379848690702545,1.2789490857762473 1.8419776061772666,1.5464074896056559 2.271564248957077,1.71288934163681 2.653205335019379,1.7749755079991019 2.9682258733131164,1.7375840392664088 3.1972628144270914,1.6137475342700327 3.323008875191732,1.4234227543355757 3.3325960632506906,1.191328112576059 3.2191760474714215,0.9440292865212143 2.982442851091079,0.7066730294298225 2.6280971499804053,0.49984944953629906 2.1665022635696403,0.3370246755261803 1.6109622053790247,0.22285206979958616 0.97611804456659,0.1524948229163101 0.27690135080338507,0.11193712770264597 -0.471674857782304,0.07916937531783219 -1.2538260817439948,0.02611631026923078 -2.051581511626864,-0.07878762016065366 -2.8430335475223956,-0.26743188932914563 -3.6008018128551385,-0.5683374820646065 -4.291336357384608,-1.0025973344210684 -4.875638275928651,-1.5797894482927575 -5.311779302627997,-2.2944273312874373 -5.559249566581514,-3.1236959579782138 -5.584695221449657,-4.02725806407625 -5.36812451819771,-4.949718136645885 -4.908308327851067,-5.825877427909489 -4.226029165699053,-6.5882777972879865 -3.36413171747693,-7.175885519622767 -2.3839720125224844,-7.542325275883158 -1.3586939014644202,-7.66201991344731 -0.3645331136029597,-7.532985428433719 0.5281853786116457,-7.175777785790217 1.262678324311338,-6.628964642704275 1.8007134585725169,-5.942234457786498 2.1244557167115516,-5.1686527816463155 2.2353599975466665,-4.357558330334413 2.150893184455853,-3.5492293937186474 1.9001357258535307,-2.771907141057291 1.5192654349882702,-2.041216719865851 1.0476482995226277,-1.3616119750543803 0.5248824952943281,-0.729239049608772 -0.01121368175800086,-0.1355510731520937 -0.5259255027154452,0.42894584205146913 -0.9886314695726384,0.9713359221970848 -1.37376926532459,1.4937349421275883 -1.6619374380582457,1.9918219497237857 -1.8410905351932172,2.4546227464966393 -1.9075973898817224,2.8655455954122147 -1.866818338789372,3.204481340144838 -1.7328583766335157,3.4505914608013057 -1.5272773804394646,3.5852663178253295 -1.2767537280720163,3.594692448059689 -1.0099397061563025,3.4715520635763824 -0.753940600084924,3.2155813743178783 -0.5309352710751938,2.83298811107899 -0.35541412855384635,2.3349988057496205 -0.2323658004194371,1.7360002643635255 -0.15655460906528162,1.0518101046563402 -0.11286321153211532,0.29854873509913205 -0.07757600347330396,-0.5075858764814001 -0.02046126690253658,-1.3495752316881493 0.09245179070863685,-2.208057695660912 0.2954622122905448,-3.0594458762885637 0.6192232135466256,-3.8742764251509243 1.086376334757702,-4.616464278105525 1.7071598120137708,-5.2440826332930754 2.4755986461168646,-5.712077719835165 3.367080649190598,-5.976947924939495 4.338161285359092,-6.00291401300472 5.329226889511197,-5.76858807614645 6.270156952300894,-5.272770787505756 7.088442702236726,-4.537930609942137 7.718524577651834,-3.6102415289011773 8.110638518771609,-2.5557494800370577 8.23740409178454,-1.4531318183423494 8.09681259650138,-0.3843429386411259 7.711077593567353,0.5750620408035445 7.1217525447621455,1.364121922317949 6.382314204265398,1.941840848059762 5.549835935848975,2.2891576059301926 4.677354966221742,2.4077411105860094 3.8081470897713814,2.316455598786092 2.9725369278130245,2.0466255450018735 2.187285312314714,1.637177970977156 1.4571497152915072,1.1304403835181986 0.7779665657845669,0.5689653548483093 0.14053729410292704,-0.006629180583246352 -0.4653477866153821,-0.5590791138296893 -1.0473065654884977,-1.0555337982255963 -1.6076211935526317,-1.4685894448729968 -2.1416662932703616,-1.7774673865108213 -2.63768124403623,-1.9692917287496527 -3.077885855804908,-2.0402192717642293 -3.4407368069766733,-1.9960526383124204 -3.7039201071754775,-1.8519692189969774 -3.8475237604589694,-1.6311320065433748 -3.856788832868773,-1.3621793435679876 -3.723928079681201,-1.0758501257913622 -3.4487198975446773,-0.8012081707400256 -3.037879072177631,-0.5620210926140885 -2.5034953479295865,-0.3738035815815124 -1.8610383233480121,-0.24187953103927384 -1.1275021647461472,-0.16061439521426735 -0.3201961193948222,-0.11378929536159887 0.5434968951804819,-0.07598263162876151 1.445324381632318,-0.014806223535856589 2.3645338796949744,0.10611596125664846 3.275858205054689,0.32349253525191557 4.147751037446739,0.6701089450286446 4.9415921988263705,1.1701553350943357 5.612526990657543,1.834530175734777 6.112376137042389,2.6567699609463418 6.394646283297419,3.6104653404029463 6.421132804559846,4.649064506641999 6.169051634095126,5.708735642376432 5.637233247160481,6.714436476692349 4.849832054185214,7.588607607185409 3.856351340325432,8.261163635680958 2.727526947551638,8.678951761660144 1.5475697352202644,8.8127882701217 0.4041527636793205,8.660639764568941 -0.6219387029954646,8.24637740134456 -1.4655655203245885,7.614540446820101 -2.0829682375469645,6.822393950744171 -2.4538594951488335,5.93101909005162 -2.580122223625409,4.997151602109199 -2.4820180131162886,4.067064785824044 -2.1931153641501453,3.17316671456868 -1.755090506966127,2.333353904763669 -1.1108260770492109,1.437562108110967 -0.6274170247075119,0.8457439022956237 -0.12838311403965008,0.2875930596492253 0.35958663284023373,-0.24420159068966996 0.8124251456605123,-0.7558250746967303 1.2092580411121503,-1.2505990388013686 1.5330359864732088,-1.727798496743759 1.7712490327551222,-2.1821301813013463 1.916651286743928,-2.603915281408092 1.9678508535585308,-2.9799412527510754 1.9295848672189493,-3.294860559598362 1.8125140985967505,-3.532931794515008 1.632435467777384,-3.679839484040585 1.4089099641354892,-3.7243113885221675 1.163413745672699,-3.6592869461727133 0.9172134387040387,-3.482475483787937 0.6892193614356188,-3.196261830965682 0.49407094301278676,-2.8070440612006706 0.3406607265458206,-2.3241949101729205 0.23122423725459385,-1.7589024104353115 0.16103703149252624,-1.123155254321773 0.11869062140104347,-0.42909595266135625 0.08688041808068192,0.3111183497767058 0.0436335820303384,1.084914771550956 -0.03607742961403915,1.878444836888434 -0.17836755110863578,2.6754536339392416 -0.40814469102329554,3.456151378434271 -0.746543748373881,4.196413504402358 -1.208214204493629,4.867642003087269 -1.7986882244680942,5.437567926678497 -2.5121652095136255,5.872153847218243 -3.330126945175664,6.138568128922856 -4.221202759951211,6.208971122452283 -5.142603857793603,6.064619179477575 -6.043232158119679,5.6996143814323545 -6.868268716456896,5.123566722668812 -7.5647227813094275,4.362533146407401 -8.087159536287587,3.4578578008272416 -8.40270429886779,2.4629153838689035 -8.49449328855539,1.4381682530233775 -8.363003171457706,0.4452841248112236 -8.025084461083523,-0.458764020651131 -7.510949526361458,-1.2267246051761163 -6.859718968956983,-1.8245498391900128 -6.114331046599233,-2.233006043566718 -5.316636660798849,-2.447454949917301 -4.503358450881841,-2.47615652622423 -3.70334612105259,-2.337626884668765 -2.9362846059961285,-2.0576243926188056 -2.2127705051463025,-1.6662533714259382 -1.5355036444438213,-1.1955129740376265 -0.9012541090510027,-0.6774318043012499 -0.3032475586580219,-0.14276243830965996 0.2663610711055284,0.37990510117322174 0.8142070448140615,0.8648021795316367 1.343856269917275,1.2895910108257738 1.8545401103700812,1.636039721856747 2.340599338713851,1.8907847523806538 2.7916824877494335,2.0461038487675296 3.193660239591665,2.10054436377456 3.5301245919645083,2.059214120982972 3.7842534584557512,1.933557963401995 3.9407582603913767,1.7405115636196626 3.9876135789785963,1.5010302793422454 3.9173054632047837,1.2381088139514418 3.727426109544467,0.9745071026740675 3.420570080302923,0.7304540418752481 3.0036231949572425,0.5216010408868783 2.4866494044038348,0.35744594122223816 1.8816492185894447,0.24036307013398073 1.2014736971194395,0.16528316263281795 0.4591323982725726,0.11999241352907575 -0.33235546988208853,0.08597873337569695 -1.1595322049830372,0.03974772821882766 -2.007582640527403,-0.04544987497672537 -2.859126099073052,-0.1975137722068041 -3.6930116596540614,-0.4430413447948638 -4.483465249545134,-0.8045862257168324 -5.199943846232827,-1.2977620835530956 -5.807995375979118,-1.9284341928982087 -6.271293254286945,-2.690357631179637 -6.554814688001009,-3.5637042055571158 -6.628884334406948,-4.514925499484207 -6.473554975120635,-5.498292005246213 -6.082607168240756,-6.459219677982503 -5.466385095738282,-7.339174514685254 -4.652790711391134,-8.081599938623583 -3.68603639235711,-8.638031386602108 -2.623159634355474,-8.973434734335754 -1.5287397399379614,-9.069883168095515 -0.46861492429741247,-8.927967564339426 0.4964157937688043,-8.56575523630407 1.3159547439465769,-8.015566346956902 1.9537165390131008,-7.31921379827341 2.3892391552276564,-6.522566297692393 2.617642457146829,-5.670312676245473 2.6478095003894566,-4.801651250094714 2.4995608908845526,-3.947364585920525 2.2004342431405135,-3.12844577756303 1.7825909942666769,-2.3561849735322937 1.280199871026042,-1.633445180776718 0.7274465838950022,-0.9567643158063603 0.15714176257966983,-0.31890205766682556 -0.40022356950623106,0.288520551521394 -0.9171792134027257,0.8725890149313855 -1.3699239805394399,1.437113501033167 -1.7390434572402995,1.9812817239964247 -2.010320472006242,2.4990684961264336 -2.1755564107910317,2.979449694090718 -2.23323787399066,3.4073792264323046 -2.188843374746966,3.765388624330626 -2.054601828207254,4.035575122396509 -1.8485876594619128,4.201677036742069 -1.5931505945490159,4.250915769435025 -1.3128038822301278,4.17532398023684 -1.0318007666441815,3.9723767353009833 -0.7716887223148063,3.64487832964015 -0.5491311387609699,3.200202328713843 -0.3742311558986984,2.6491038986348343 -0.2495019030133534,2.0043960267435494 -0.16952929377309545,1.2797921399170917 -0.12129420565710802,0.4891688438838173 -0.08507704867071197,-0.35359258998752807 -0.03586187440734534,-1.2341496384150759 0.05482232033936896,-2.1367204441663574 0.21665999330502927,-3.0427985642069046 0.47793799856641783,-3.929871940873838 0.8626287030598263,-4.770516994688009 1.3873099626125196,-5.532245689378257 2.0581801613283375,-6.178422825279753 2.868550052845606,-6.670432661355484 3.797281465938781,-6.971061247079618 4.808648239017131,-7.048797546361456 5.8539801526989095,-6.882490770763724 6.875207197845164,-6.465599955049022 7.810080312913904,-5.809203468807908 8.598477095937568,-4.943048276374753 9.188903236916389,-3.9142149838868647 9.544165169803506,-2.783403884841988 9.64527304763591,-1.6193112268526306 9.492931957220975,-0.49194572378361556 9.106426011524647,0.5340675668864776 8.520183167552219,1.405184882717009 7.778708627590319,2.08288323883626 6.930801548785382,2.5454722668885665 6.0239886916921535,2.7878299643763995 5.099944049307453,2.8194624745545838 4.19138305078863,2.6614948971004395 3.320606949129825,2.343244093662136 2.499599441918292,1.8989286171074156 1.731386717109615,1.364886768014479 1.0122745225616825,0.7774613634887189 0.33455655667566475,0.17152108684971523 -0.31068003193723825,-0.42054203783921906 -0.9309709850487309,-0.969556247273843 -1.5303707321490094,-1.4502569502530491 -2.1080233376227966,-1.8420471926238946 -2.657537653539009,-2.129856191631788 -3.1672169004319812,-2.305008972814548 -3.621098213272859,-2.365931384206718 -4.0006526566969285,-2.3184726285110457 -4.28689678633711,-2.1756456930124557 -4.462595813092889,-1.9566637553042199 -4.5142179598913685,-1.6852709097557437 -4.433342497269052,-1.3874989505088848 -4.217327361057514,-1.089094430614253 -3.869186578977306,-0.8129234027543788 -3.3967814624704005,-0.5766612366350472 -2.8115583928658765,-0.3910163705751728 -2.1271428348976116,-0.25864073589269765 -1.3581105827147724,-0.17377542491338716 -0.519205289494991,-0.1225959977851403 0.37482971009289656,-0.084175363965727 1.308767071847143,-0.03197602059584881 2.265858247805326,0.06419476570201255 3.226471029340729,0.23580621440322602 4.166732222093586,0.5128346523379861 5.057568739830842,0.920671180402806 5.864547532523716,1.4768578416719578 6.548850274580417,2.1879261297584662 7.069572068424122,3.046742474511589 7.387307806157935,4.030858726320318 7.468710758316121,5.102370978550141 7.291426566406756,6.20966830015152 6.848592741857402,7.291194717707931 6.152021841877371,8.280986111142276 5.233305841358515,9.11535425325173 4.142393575416634,9.739775087230804 2.9436481353286013,10.1148956052715 1.7098827137672288,10.220662927176065 0.5152765232697902,10.057896350102524 -0.5717193400041367,9.647096786745337 -1.4944150214874696,9.024799988147606 -2.2120499386593906,8.23820345690693 -2.701705378549434,7.339036799878443 -2.958017471606013,6.377664707138848 -2.9911154487197678,5.398236848520241 -2.8234289033162554,4.435401515656622 -2.486053944183766,3.5127681206966486 -2.0152662399481756,2.6430139103043473 -1.3361139504086168,1.70124935998885 -0.8246699821138463,1.0685015974668204 -0.29479103491007663,0.4695769960386542 0.2297114181679376,-0.10200901151426933 0.7270371119466574,-0.6521903781840876 1.1778032530520761,-1.1849954768476039 1.5654767851735016,-1.7015303161348072 1.87686532977321,-2.199376580293716 2.1026480253191266,-2.6724485580494957 2.2378801677303954,-3.1113140528748318 2.282372511568809,-3.503939060374705 2.240835076509967,-3.836768050964565 2.122689959976867,-4.096008223489406 1.941496308966066,-4.268956042735994 1.713986115084623,-4.345195950552352 1.4587705368085153,-4.317519082461516 1.1948300657403195,-4.182453420283039 0.9399366967506069,-3.9403594550489487 0.7091655609488612,-3.5951159131730606 0.5136367498375307,-3.1534852898985264 0.3595910245880134,-2.624296998993927 0.24785586829329986,-2.017609006343193 0.17371240586021486,-1.3440043089149611 0.12713882280084476,-0.6141491028519397 0.0933875747776085,0.1613088441467454 0.05385203222584778,0.9714823946097653 -0.012811700283862137,1.804671109462845 -0.12932875101660102,2.64757349322457 -0.3182295532033095,3.484437539610994 -0.6000769651774931,4.296336933061866 -0.9915481605594891,5.060775172874514 -1.5034711282672788,5.75180832330831 -2.1389754696552927,6.340833576065677 -2.8919746414330234,6.7981127984557475 -3.7462333243796024,7.094991018569715 -4.675270226606301,7.206640920783855 -5.643289404238544,7.115036329510332 -6.607218835312949,6.811757348055949 -7.5197749545756665,6.300185291301943 -8.333292734077531,5.596677960352935 -9.003900076576485,4.730431590542651 -9.495512219417549,3.7419216811773026 -9.783106965958027,2.680038249896427 -9.854826470036926,1.5982464458787717 -9.712623728393979,0.5502641490321594 -9.371397739246433,-0.41418115052732674 -8.856793201578157,-1.252987263988416 -8.20203106229333,-1.9343015563236179 -7.44424977403439,-2.4379196547845936 -6.620858863238155,-2.7554489487580724 -5.766343491646779,-2.8894073344135904 -4.909835649210294,-2.8515510582627144 -4.073617496147243,-2.6607776509831638 -3.2725771717237535,-2.340933754353699 -2.5145206629833936,-1.918789436760818 -1.8011666935288986,-1.4223435833748113 -1.1296152041711736,-0.8795228107317712 -0.4940758958859277,-0.317248461807651 0.11234001013507111,0.23921477641755473 0.6959349825171302,0.7667436817336579 1.2609881951076076,1.2447865608315851 1.8086778643002575,1.6558207077833629 2.336444006688758,1.9858718978761942 2.837838122974503,2.225075974190929 3.3028649618499557,2.368212415431742 3.718773474941976,2.4151047750941075 4.071203261204396,2.3707712616852348 4.345546762391159,2.245224333783341 4.528355689931878,2.0528592171782805 4.608611330683146,1.8114301309690575 4.578697499158693,1.5406777133513003 4.434961206387783,1.260727929020419 4.177812574857313,0.9904196024915564 3.8113902505627095,0.7457274892354349 3.3428876349458676,0.5384299732678528 2.781686140252148,0.37513115210572323 2.1384660240891975,0.256696956926703 1.4244604898309348,0.17811625439497902 0.6509873739245364,0.12876090210909297 -0.17065853375206075,0.09299931592377675 -1.0289323497618028,0.051116388574342864 -1.9114311826371022,-0.01949667942699307 -2.80405997907188,-0.14290496704765587 -3.6901323673092747,-0.34296011981371066 -4.549604961818574,-0.6414227431055224 -5.358659278035361,-1.0559317732781608 -6.0898330454900105,-1.5979266251045203 -6.7128565184589135,-2.270691232068856 -7.196266695181663,-3.067749850230882 -7.5097566739189645,-3.9718830541876287 -7.627080949328544,-4.955028642485672 -7.529201936948155,-5.979271446519135 -7.207256990467442,-6.9990048803917375 -6.664878264483988,-7.964177628481991 -5.919432328058008,-8.824349314925513 -5.0018692110902805,-9.53310893231864 -3.955067454319277,-10.052300958540684 -2.830798147888075,-10.355488635708369 -1.6856588131321502,-10.430174039559475 -0.5764978379140331,-10.27847728105975 0.4440753251269882,-9.916216263890874 1.3315346042598861,-9.370573831163384 2.052210912837566,-8.676740511583262 2.5847680805317452,-7.874041004406699 2.9203714948389603,-7.002075269868911 3.061730370629988,-6.097338259738201 3.0213249965162134,-5.190651928992786 2.819185287791896,-4.305584215617031 2.48056966203427,-3.457876017732083 2.0338209368152036,-2.6557737438893128 1.5085732163409773,-1.901084027068947 0.934375639349696,-1.1907288108755125 0.33970588870526797,-0.5185747957332012 -0.24871813466717185,0.12267100875584447 -0.8064502515206584,0.7396795868501869 -1.3117698686110657,1.3369809133675403 -1.746164630393281,1.9158254124658498 -2.094878465979164,2.473511433083708 -2.347503923062689,3.0032276878995603 -2.4985446631329893,3.4944158708249446 -2.5478370386195763,3.93360788950946 -2.5007074468604458,4.305638471444134 -2.367758707589857,4.595085301292947 -2.164222125390438,4.787755337127628 -1.9088741468535062,4.872026710814069 -1.6225848898940853,4.839875915855814 -1.326625792300561,4.687468992492526 -1.0409025082324774,4.415265694665621 -0.7822894175219517,4.02766458795233 -0.5632231966982459,3.532289979993422 -0.390671279623362,2.9390752815102985 -0.26553804556019145,2.2593230418351453 -0.18252010292972898,1.5049166707469084 -0.13038298141728433,0.687825644997119 -0.09261105706997341,-0.18000822335734767 -0.04838074492285216,-1.0863823049138404 0.02618165857010979,-2.0181912558113737 0.15648118307872494,-2.9605464649191475 0.36769068642412606,-3.895827195007513 0.682768521033509,-4.802872990575338 1.1203153859968609,-5.65654338319608 1.6923821219418613,-6.427857767672052 2.402406994482334,-7.084879460851958 3.243525059028755,-7.594420591907536 4.1975327839954275,-7.924522329267887 5.234787058365285,-8.04752097787371 6.315253488799769,-7.94336754438595 7.39079092547037,-7.6027566328788225 8.408580302388657,-7.0295712376662465 9.315405895772827,-6.242186695762669 10.062317788061428,-5.273306831638223 10.609089697663471,-4.168213227461123 10.927870305458896,-2.9815580458797797 11.005521609081882,-1.7730711803855002 10.844330833725877,-0.602731526795921 10.461034788535258,0.4739694997266781 9.884354460748227,1.4100819445312993 9.151449960873194,2.1701202693515 8.30383223477915,2.7316165062789395 7.383291676499681,3.085294040919891 6.428333027829694,3.2340534068463995 5.47146820877515,3.191098934769613 4.537550935086898,2.9775929246006854 3.643174863740313,2.62020556971477 2.797026824795296,2.148852436869632 2.001001360609024,1.5948028493072144 1.2518424175798373,0.9892284679675782 0.5430736955805173,0.36216331560289916 -0.13300200737666046,-0.2582214929168032 -0.7834241911832294,-0.8461568213076731 -1.4129736316276365,-1.3787531763906458 -2.0229729606312503,-1.836508553003057 -2.6105788594788066,-2.2038850340822336 -3.1686172528244185,-2.469931871934378 -3.6859667798001112,-2.628876910834336 -4.148442304076724,-2.6805693021448747 -4.540073681683964,-2.630643632035742 -4.844623840194856,-2.490293081396416 -5.047154984323328,-2.2755850336025674 -5.135442090945048,-2.0063181627379976 -5.1010543325527635,-1.704492066436785 -4.939976778597369,-1.3925236555807317 -4.652718814474028,-1.0913854139734127 -4.243938925341993,-0.8188513458084969 -3.72169232504082,-0.5880164201285965 -3.096464422768406,-0.406211407141015 -2.3801800595811358,-0.27437913419365145 -1.5853728516628962,-0.18692395146449314 -0.7246639160697299,-0.1320050607255041 0.18935791296267723,-0.09222279821612744 1.1438322600659205,-0.045645101271361455 2.1249513289856026,0.03286663771322651 3.117032950766415,0.170057399109794 4.10152202270578,0.39242125303452724 5.056141019331989,0.7241142989614815 5.9544274883569415,1.1846989987155894 6.765882489853908,1.7868376187791313 7.4569024032450955,2.53412275689584 7.992574488633437,3.419300267826628 8.339287984617073,4.423182513803383 8.467961006418449,5.51454547424467 8.35753315182393,6.651235531080474 7.998256275290231,7.782576970549087 7.394264210848377,8.852982976295152 6.564941063467586,9.806462476620567 5.544744452185881,10.591526643803633 4.381359000603112,11.16587843678667 3.132317943871442,11.50025197520921 1.8604835476388928,11.580869178604416 0.6289652156777663,11.410184386391805 -0.5038636743263396,11.005853313179585 -1.4886292848027267,10.39813509033327 -2.2880296258654482,9.62615941016324 -2.8784649320261337,8.733623465151481 -3.250216587000722,7.764508083130323 -3.4063764430628964,6.75932779592128 -3.3608728730230837,5.7522844885576205 -3.136000561409361,4.769517654556694 -2.7598414773953266,3.8284737097486072 -17.075145817234613,-13.877523123832304"
    />
  </g>
</svg>
