<?xml version="1.0" encoding="UTF-8" standalone="no"?>
<svg
  xmlns:svg="http://www.w3.org/2000/svg"
  xmlns="http://www.w3.org/2000/svg"
  version="1.1"
  viewBox="1.6605902099527015 -4.493315283792455 208.98663056758488 196.67881958009463"
  width="208.98663056758488mm"
  height="196.67881958009463mm"
>
  <defs id="defs4215" />
  <g id="layer1">
    <path
       id="path10"
       style="fill:none;fill-rule:evenodd;stroke:#000000;stroke-width:1px;stroke-linecap:butt;stroke-linejoin:miter;stroke-opacity:1"
       d="m 100,100 0.0,0.0 0.1181788103782111,0.03417771106227008 0.08420633837941693,-0.004727619166843056 0.03529155677992435,-0.03009934016174043 0.050585713694943024,-0.012708868506820181 0.08697523305721688,0.040216135872881864 0.15606988413723855,0.14966978675005294 0.15008269862192947,0.290207745245354 0.03436527774113074,0.26031972340689435 0.05118965883208659,0.10882251069354254 0.06584362726466964,-0.10395588124866606 -0.03923594116336915,-0.23061923716292654 -0.01398639111913269,-0.1003447830636901 0.03602300119410984,0.08558452368336589 0.05694411683724354,0.32942875115665515 -0.02375422412961825,0.6141963230631688 -0.24779573770369723,0.4949422151638174 -0.1446256995376416,0.194352668074103 0.1286723230781348,-0.07784989436326839 0.1592054665997722,-0.432476743933762 0.05108654399263912,-0.331694185906926 -0.004791502643229251,0.014956008501201268 -0.14447665196391313,0.32641530822159837 -0.39528192022308417,0.7197211951853717 -0.7090876339132279,0.5781988643145297 -0.4870623523212174,0.1394165170206776 0.05675731651032834,0.016499635932646584 0.49104424703094196,-0.3404495616054817 0.4036358910737903,-0.5138835898775511 0.09078669611960777,-0.12841337891484272 -0.2579944612037224,0.16152337430270336 -0.750912215625462,0.4936630244675797 -1.2215879033538641,0.3698378505889792 -0.8654547737431244,-0.16243529853609573 -0.15865751452905386,-0.05514306413088832 0.5960338580357529,0.0174123699757871 0.921099754339366,-0.3176787162816197 0.4043401013372687,-0.1934188077922272 -0.18591407504231938,-0.019632520003796117 -0.8508616299523766,0.046598519458910914 -1.5407174378636483,-0.16721764346894474 -1.1193136470214995,-0.7233910945850823 -0.3032251857577961,-0.41254801712997846 0.35913343758525684,0.27009973885130023 1.150765768883005,0.325920974820022 0.8521761108277275,0.06598184813195473 0.04327740641744526,-0.057836282988446897 -0.6274068625232587,-0.3514323037785374 -1.4220459697257866,-0.8568558504224626 -1.0745774796528025,-1.4590780216899475 -0.15730249583799605,-0.9550282274837372 0.08517953851291793,0.14769234408291254 0.7651054615903945,0.9773608748950551 1.0630587365350124,0.7771724419858117 0.3074124715246285,0.16886452373240957 -0.23607151554818984,-0.4757727865345487 -0.8312561647979351,-1.352154644500871 -0.5895930025560148,-2.1529680614623743 0.3592358748133222,-1.4705898240793545 0.16147578709384902,-0.2084925183645936 0.031018887313123855,1.0881118348228682 0.5961214913998703,1.6115802715157912 0.3728512244653217,0.7083354196108615 0.07528804120170207,-0.2862436264013013 -0.0362529220805925,-1.3722945087481122 0.31068106280827124,-2.4672385526641136 1.1989864514664816,-1.7436850788791816 0.6804703347223011,-0.412097703441475 -0.41152715462446565,0.6404169808072453 -0.49263648304025764,1.869054793832234 -0.08087715227127035,1.3726580357485432 0.11088106333365033,0.101510821336106 0.5583879555931617,-0.9283984168249475 1.3184297806218694,-2.1243707442662014 2.2090684094666386,-1.5709560949910468 1.4229941026462711,-0.17518847465532872 -0.23862737165549675,0.18685871295848244 -1.463677502759154,1.189761361575279 -1.1507089928978615,1.6122338831924736 -0.24694235134521136,0.48641156413444264 0.693551111865375,-0.3106196567936621 1.9533970733763084,-1.1688493051283046 3.084348219570842,-0.8093481545230503 2.075724874415613,0.5560364510905345 0.2583275222001049,0.2678085100568097 -1.5801898116099409,0.0794501446020206 -2.3020607886922306,0.8745642665181492 -1.0123307378844544,0.5522836411384162 0.386573177760269,0.13094356239960803 1.8937273875438336,-0.02590732470225987 3.393759667464579,0.4541444821475693 2.368056510736892,1.6745818083479094 0.5209702211251397,0.9483926523146096 -0.921700524029248,-0.5529545703976311 -2.5873438187814912,-0.6593519912605075 -1.8931399606693304,-0.09577245641060017 -0.15974423625473833,0.1639258436788964 1.2293899711266079,0.7653436074077717 2.826695518806588,1.7800037108212479 2.067334710329334,2.959058797243358 0.1930744534726614,1.890959977808805 -0.1683556313007415,-0.11717078929947888 -0.9670345847779771,-1.4461610850168256 -1.9279775622666335,-1.6276134197310768 -1.3406485937202461,-0.8508181660066043 -0.2620228918753753,-0.02862985171664434 0.396479756879657,0.8582721001675395 1.2264443064008361,2.0094008417455314 1.2595847154256603,3.283245324935095 -0.1632266385598058,3.042785732987369 -0.7121783718074823,1.4210801060193745 -0.10445995048578993,-0.21332619400530461 -0.1339677419837102,-1.915050492391174 -0.9470504211461304,-2.6110904900206577 -0.813490846915812,-1.547211357914648 -0.2391728936721762,-0.1740187114699836 -0.09987753468233507,1.027177664348926 0.056975826183986555,2.569417937691327 -0.6075543746520822,3.7888504885975465 -1.820488582314141,2.779036783850387 -1.4516788128113376,0.9433937187160524 0.01510118794334403,-0.2695661088619232 0.9141166115000487,-1.8903754346007275 0.5251852553718095,-2.9861075563070045 0.07169803066133795,-1.9068947061587096 -0.13402362511899923,-0.2993487368103729 -0.6551250652887717,0.9067487767421198 -1.343762889800388,2.440505893601525 -2.6275840333182288,3.222472149636232 -3.2154724406977095,1.612909872490988 -1.8709945202473648,0.08855154854765601 0.16320620557610255,-0.2546729408027488 1.8821733448127418,-1.2865649725673762 2.108009616632202,-2.5211897806296406 1.0979004205467788,-1.7530310669571065 0.03609483065895347,-0.35837168890442683 -1.101957956266844,0.4883175358572913 -2.5712781981732746,1.5492658323661317 -4.188563234907562,1.585633734157767 -3.865310766093998,-0.23475962585550292 -1.7863667857146055,-0.9321248684017007 0.296352688725662,-0.15619522516254847 2.452413379630599,-0.19268304519246726 3.3237319095999283,-1.220589173633229 1.9673821037892338,-1.0470834175443144 0.22865797138726407,-0.3188809100522576 -1.2841346957627167,-0.1421866131102263 -3.217428765151652,0.05560879034453592 -4.735903306500745,-0.7778465965373442 -3.455597864121515,-2.2937004830741046 -1.1497680146991058,-1.8248014061829423 0.3673367998153054,0.011810373161665666 2.385102997605401,1.131949110950103 3.7400425056952145,0.6446144565881013 2.387569531327401,0.07948630329904915 0.3865217321327634,-0.1757331622307845 -1.108125554413533,-0.8202443177249279 -3.001016214189818,-1.6689521912954035 -3.9574978377234515,-3.2485878324893633 -1.9622230048376395,-3.963566508264506 -0.0807156348712823,-2.2973153128246366 0.34099025030474195,0.209241621852712 1.6060953603567896,2.318185604608658 3.114401998992605,2.5884058135333134 2.1654135401939953,1.344982675086996 0.45472048593349257,0.04355980960124839 -0.5801553148349399,-1.345643812366177 -1.8720873583314273,-3.1331555546010037 -1.9116827528898312,-5.093881144880015 0.3062926131511716,-4.687835799200613 1.1520713649959333,-2.151653465409865 0.2079304998392928,0.3793791834460336 0.2513983484012243,2.9897762668700096 1.494127926120342,4.036373329179227 1.2806759881728027,2.3875528496638196 0.398588926432339,0.28329723130453033 0.1844956915381033,-1.5410917271764788 -0.05424175450505686,-3.8654395926119776 0.9481388184225921,-5.682956124403987 2.7669123838340823,-4.132158944392671 2.1979239995545186,-1.3561423106821024 -0.008519558380015724,0.4651074907686734 -1.3497816104001288,2.8798305606101167 -0.764043657804379,4.493977455083382 -0.08727457593676036,2.868244356496092 0.21744269934256977,0.47369472745515395 0.9853635701610557,-1.3095023320849322 1.9941414927904049,-3.561526534778068 3.8695916316604695,-4.692523525810657 4.711660575831431,-2.311536137184362 2.7236361054018516,-0.07287972119492281 -0.25527703812933566,0.4273075598067635 -2.754197864404617,1.9256257481462171 -3.0688020104344247,3.707614217355598 -1.5920649296271705,2.5777960134308557 -0.0510247885435291,0.5510692829625299 1.5893296684654672,-0.6719930938125458 3.695032911028747,-2.1949088842967512 5.999199054852426,-2.237731771621924 5.510360832307313,0.37782560044686875 2.516940145105096,1.3720178615901517 -0.4624056781663626,0.2596657745160371 -3.527139154109392,0.31011365160995297 -4.749014748758583,1.767666678607469 -2.807723595538377,1.5142685588013194 -0.3379364912218108,0.4782969428124062 1.7980487585902125,0.22680476996599452 4.513450420072374,-0.052874718665606224 6.630008942307157,1.1184310403078257 4.808720024663813,3.2401242845940885 1.5625166066651417,2.571046592926109 -0.5628781817220414,-0.00522874359833736 -3.3745581236147473,-1.5676141098501546 -5.247912404471734,-0.8834728590207419 -3.3489191816647406,-0.09506284857444314 -0.5608677227775019,0.25915223645436924 1.5108791097563739,1.150482822597212 4.12203685536636,2.3193307942854346 5.427549213897834,4.490595430831576 2.6608492695310417,5.459754643398284 0.06504380751853489,3.149956897979095 -0.37059985914631,-0.04441737797326084 -1.4275640188020873,-2.3479978569102826 -3.3168455949132465,-3.2747173931766866 -3.506818112487082,-2.391785448527017 -1.7466143338340032,-1.0193221568393085 -0.24005112007355933,0.27813973748993703 0.7501674348821297,1.700129886726117 2.08680078694573,3.4832055587539372 2.550097907017985,5.611649030646902 0.609184618949655,6.132192538567153 -1.3056690983354855,4.07953401355465 -1.0566892496990477,1.4188544979176498 -0.05452620461717572,-1.1042321011778569 -0.37773028026464317,-3.713585053032972 -1.7062742635350219,-4.793439450065634 -1.7477096138118071,-3.3491868696773537 -0.7359778577764047,-1.1411627569278266 -0.3042906338408642,0.7143691365357796 -0.12419682784050678,2.6382145214710846 0.03233983981091626,5.1251997715096 -1.264093478160163,6.657057299546935 -3.1723233049651043,5.034679687700134 -2.9840110961703203,2.1148104521381583 -0.9333844036620889,0.17298005257794102 1.086550746559979,-1.8050401076461355 1.5370180219926084,-4.397936364660268 0.6225682362968286,-5.144955372467379 0.06852272714823471,-3.112287448240778 -0.20431595631995947,-0.7088062560973611 -0.9310354452390044,1.046126556254137 -1.8055212325777177,3.094109502187976 -3.262682383426693,5.250075731278784 -5.197645628655522,4.825010690808966 -5.200467412153557,1.8670459977785754 -2.903181529744586,-0.04111310057496098 0.057440623017782855,-0.44865236718965207 2.7240808779580306,-1.6715518447367401 3.7928767269025485,-3.85516920341297 2.7673602432788584,-4.070018466067609 1.1780642191530433,-2.030998985369976 -0.3217368363538782,-0.28860178141181336 -1.9625924526629177,0.8547214023814718 -4.017083578151727,2.3956225587750026 -6.466172314138333,2.9270321489732964 -7.058498327320478,0.6874848019210731 -4.686810971342837,-1.5181761901299637 -1.6195006929348494,-1.2298027687096322 1.284312615853267,-0.07561425746517614 4.282414252689492,-0.44698058329194623 5.518256928432066,-1.9728034551087745 3.853671825711899,-2.018125156557332 1.315310945627786,-0.8546995501137786 -0.8145567152670452,-0.3585312496134634 -3.0192983902243924,-0.15160997733042336 -5.865793290320568,0.027983397265913368 -7.613973749659536,-1.4566924652856557 -5.74904634725543,-3.6393142175613633 -2.4027402534063356,-3.420035304515494 -0.18000852766925846,-1.0716873716200723 2.0806433164651423,1.2379389467395043 5.040206901031496,1.7512662963175814 5.887878233537023,0.7055038019254738 3.5623505388666103,0.07259755103710575 0.8174156603526228,-0.2386246809016228 -1.184076620962145,-1.0668104284726923 -3.5165356743790994,-2.062154592665536 -5.968589068842121,-3.719662463988854 -5.4790406169431805,-5.918695880845689 -2.1083325219114926,-5.916228931737649 0.06362320973866531,-3.2980154849228427 0.5267048752330368,0.07046386806233329 1.915539670671322,3.100163899005679 4.393492811912793,4.311036060628524 4.633218819648079,3.1429350380306715 2.315383636905949,1.3368062814667496 0.3371524427500674,-0.3653339352177909 -0.9592753698808281,-2.2250550185997753 -2.7044443306042183,-4.550961597549403 -3.3039663909286503,-7.320695597629836 -0.7657849848924911,-7.984804116073789 1.7306832819244562,-5.2940879291310665 1.4029162877202168,-1.8201468879520064 0.09670231031313392,1.464393130528677 0.5162308863192919,4.851243452345983 2.239332646682456,6.243074406798428 2.288540699302928,4.358156781746587 0.9734212424511384,1.4894591343276886 0.4127718653860484,-0.9147442939982824 0.17902312682036836,-3.4003822589776718 -0.023626954720924687,-6.606386809131607 1.6492914524111768,-8.570890199772123 4.106305130157608,-6.463413006810747 3.8560595128606394,-2.690670054674463 1.20999033957807,-0.1870370027605972 -1.3893271469190154,2.3562465252841136 -1.9655145706425685,5.682477437402753 -0.788439367554119,6.6308010946066815 -0.07667237492596257,4.012413629492414 0.27293340548328615,0.9260250646078987 1.202585411706366,-1.3220266856701386 2.318787952753354,-3.938961846570237 4.176642544551015,-6.687102406405458 6.639746133035871,-6.133070543077409 6.631990451321727,-2.3496190460443955 3.6928494401011136,0.08613331890238385 -0.08348711310686951,0.6047573832763788 -3.476246920053484,2.159527496606003 -4.8291953943543575,4.931816420412517 -3.5185098327824846,5.196419173228591 -1.4955483437804844,2.5997682884418936 0.40893103408174625,0.3857031040883072 2.487517584536505,-1.063829337380099 5.084839616947221,-3.0132661024335192 8.175218881121282,-3.6809006328839757 8.911109904827114,-0.8440851678639092 5.901364886919225,1.9431903737189202 2.0207930829692486,1.5760298067308156 -1.644473645204073,0.11779036316113434 -5.420072652002418,0.5854811893465666 -6.967891885165045,2.5058618382562514 -4.862641737781061,2.558956242048424 -1.6636073230276338,1.0921429347885123 1.0149318727295196,0.4670124811586618 3.7814661277310506,0.20643627631028494 7.34698032794266,-0.019270512175921795 9.527806649884582,1.8418904395366553 7.177779666366007,4.5732960427538245 2.97859985594269,4.292083721205884 0.1940654778518649,1.3482933075360108 -2.6318497341030707,-1.5407153470985264 -6.324747973773867,-2.1797628449675273 -7.373723955676439,-0.8713749331827643 -4.462476720118303,-0.08074719881486203 -1.0346344688630893,0.3072421300649921 1.4599767503781038,1.3383603949400253 4.361388018761389,2.575421312841172 7.405615743968909,4.633622625113247 6.787100469211509,7.360796385225996 2.5909055701773127,7.347751970905719 -0.10864342806610239,4.087683395279484 -0.5385608767304859,0.14706099073866596 -1.626408531275132,-2.8585032371285877 -4.0302626050350625,-4.615657304194869 -5.437711054141971,-4.19929232616829 -4.0950059633125875,-2.53342399578527 -1.696067397259739,-0.8758983938689084 -0.09230336979283038,0.7547991435955623 1.1252591578990376,2.544224949089241 2.813219006235755,4.739758556194531 3.7528324881585036,7.442778235572021 1.9494143350659385,8.90742555565734 -1.056289995847294,7.3240557817406255 -2.0995407943520945,4.03005021302107 -1.0319076487015195,0.8685447003018396 0.02322935100787049,-2.2955639168971516 -0.6555891119481885,-5.473535742927382 -2.3610936229200377,-6.822560241241661 -2.6887722197729857,-5.291320421926443 -1.4736089297294797,-2.5377194210837786 -0.5767080083015088,-0.09668254220378003 -0.3842896985361506,2.079928182427196 -0.04983357778195341,4.6777317588477985 -0.08736876835511964,7.782708318409888 -1.9624323837914517,9.299938307927547 -4.369035539995437,7.242899529124259 -4.518133368918143,3.564890900829937 -2.328469315890132,0.9072717751053005 0.4534920589942715,-1.178887613403134 2.1347096957527043,-4.15238202014001 1.823338703341605,-6.964778333137588 0.6050311860783495,-6.889915906459805 0.05863118761320152,-4.103531664594229 -0.24738992111804237,-1.1667596849518134 -1.0801919288276451,0.981795431881892 -2.1024013495244986,3.2376157925814795 -3.4335911509096064,6.1090629273925 -5.755777411643066,7.617821452768766 -7.610829690237637,5.496087692222773 -6.750597374818682,1.7774750232884173 -3.7335822749222274,-0.19256188965670162 -0.1591657972288374,-0.6117804727511214 3.1785718525380844,-1.819427759864169 5.127588248672822,-4.487105868040686 4.662656070069261,-6.0467088540658835 2.8116878473488356,-4.553521025611786 0.9714913389304058,-1.8898978345132775 -0.8374598426449893,-0.11028034117936159 -2.820939210154009,1.2397236404539171 -5.252971233958746,3.1100397624176424 -8.2454351344701,4.1496286437040055 -9.863668920877885,2.1496328128896494 -8.104903239200212,-1.1803419755294726 -4.453466255832609,-2.334804377199987 -0.9515675543583342,-1.1517277743522811 2.550488770563476,0.016596212662847165 6.065186722481798,-0.7344016977441186 7.5542050615744785,-2.620443490592095 5.857058145927724,-2.9814248497168307 2.80985420186164,-1.6364677948670021 0.11043378425334538,-0.644299098209018 -2.2947646870163254,-0.4313245822220608 -5.163464781886276,-0.06160062220729401 -8.590184412822737,-0.10299449041509945 -10.261253588256857,-2.1732958484903406 -7.985502649160594,-4.828840301626215 -3.9225055458095923,-4.99100627467746 -0.9883489670644963,-2.572576568076798 1.3132963233105528,0.4974432333533514 4.591857462308944,2.3513107496019217 7.690450958987263,2.0068934961544187 7.604218091596394,0.6630120395659844 4.529864528187844,0.06056111853560253 1.2920148261207345,-0.27661699836636444 -1.075303526641079,-1.1938190724563924 -3.5590879335139505,-2.318968043888944 -6.718956636786238,-3.7835276903920345 -8.37665862210249,-6.337924473418511 -6.03787203552514,-8.376488804827758 -1.9437504055783563,-7.426179770496759 0.22412157557278078,-4.10408524863216 0.6850000687717994,-0.1712706037189946 2.012446988453135,3.498640467947496 4.943949131046338,5.639519193150818 6.655706653989718,5.126019813970117 5.012036087911106,3.0899516989125857 2.083728271766759,1.0670842839918322 0.1282573125659212,-0.9201205416943878 -1.3541881230088393,-3.097653471218848 -3.40686051859948,-5.766183911722862 -4.5464247992495075,-9.048092033368263 -2.349851290713353,-10.819912286098372 1.3043939552115802,-8.88575069665977 2.5700679600479432,-4.876882298644219 1.271547900003064,-1.0345904084147861 -0.009963074317859366,2.805413624229857 0.81321428354007,6.656837702036128 2.8797933582640383,8.28584988190714 3.274077479660832,6.42279586992926 1.7993266600044535,3.08198898263943 0.7118901881165272,0.12418502630289652 0.47835946590797107,-2.509601191605455 0.07336766663263461,-5.64919780492464 0.11862021247510768,-9.397660507236054 2.3841593131892154,-11.222568868585803 5.288645063256951,-8.728105769196894 5.463879180436791,-4.2801201907893045 2.8166838202634636,-1.0694261590236707 -0.5413944077124881,1.4477050332180639 -2.5679118034509543,5.031332904477587 -2.190448288967332,8.416123584836967 -0.7209928930536478,8.318520276733203 -0.062491049457989334,4.9561973917814015 0.3058440756146865,1.4172699672896698 1.3074462160851539,-1.168811621400323 2.535534738253432,-3.880560074446521 4.133464229874306,-7.328850346179628 6.920071535193927,-9.135495791436277 9.142147919418065,-6.579656378827657 8.101762166174638,-2.110025787868267 4.474588222342248,0.25568126148884573 0.1833754102091092,0.7582196647924775 -3.818709083357078,2.205466217042172 -6.151450137628686,5.4007923940520115 -5.589383557871102,7.264704453913616 -3.3682155504760516,5.470551150210163 -1.1626772290533438,2.27755870902034 1.0027812407437864,0.14623428395248084 3.3743677322835595,-1.4686526055636904 6.279396589487092,-3.7036812747813954 9.850748932266583,-4.943220954795088 11.776155651318916,-2.550069768537014 9.666598154119185,1.4284459348937801 5.300298341455772,2.805331542895857 1.1176132624712807,1.391368025653847 -3.060338477896238,-0.0033299359728573563 -7.248488681590345,0.8920268693359432 -9.01749470223993,3.1391432259360172 -6.988533593930882,3.5667301096048263 -3.3541237634171495,1.962185525141905 -0.13793626835246187,0.7794812780240647 2.724437696194599,0.5253943495938813 6.134930827963103,0.085134711057961 10.205136601648832,0.13424593453513012 12.183884148915155,2.5950227778880475 9.470708889233123,5.7484498248876434 4.637734835769066,5.936752086196179 1.1505033509828593,3.060791072450101 -1.5821137431254328,-0.585345582071497 -5.47080834664655,-2.784512857300143 -9.141796210686408,-2.3740030817801028 -9.032822461870069,-0.778973746541368 -5.3825302553750305,-0.06442098038041877 -1.542525108458534,0.3350711528630512 1.26231971615951,1.421073359713887 4.202032215379006,2.752101432617877 7.938744055573409,4.483400769356763 9.894332960770072,7.502218596969442 7.121440722130018,9.907807034008243 2.2763011701580638,8.777344561852459 -0.2872409474049107,4.845091196052337 -0.6904115227917771,0.4061630313131275 -1.7201665858856927,-3.107859332349122 -4.297962148701316,-5.588556181999849 -6.721325364207331,-5.92396012497106 -6.5442836164203015,-4.3799486766851174 -4.0396647830843335,-2.385972811393131 -1.4802927634634102,-0.5545823326500283 0.11442466087129333,1.3288696908301034 1.511917510797673,3.3835668327660926 3.452679383089418,5.863972160231285 4.809792376519539,8.944380974446801 3.4693084910653056,11.226024400945391 -0.020958223380716845,10.57521518197953 -2.504558826413131,7.2891990846906936 -2.3825041003993306,3.4810622830628404 -0.8265603854543144,0.0040274396498318765 0.06361726349234686,-3.6563176400095756 -0.9569222106635209,-7.191743873405613 -2.943079938470248,-8.73611974529635 -3.579118826963139,-7.268778258433059 -2.3732327884186475,-4.203904808771242 -1.0351653933429077,-1.2561743268956036 -0.5832288846476104,1.241427880026194 -0.3950588671728781,3.789737391311405 0.05800352518159002,6.99608042218577 -0.3172143019862119,10.436155699484999 -2.683787891169004,11.777618143912974 -5.4566681672446435,9.40268896484153 -5.97822166523828,5.199341590506322 -3.9114866878280026,1.871151505636476 -0.7387187581892647,-0.4247522532097605 1.9351041323568268,-3.225673029321854 2.843455435907458,-6.896965498144965 1.868918484001881,-9.291664623339443 0.5485575907354132,-8.311521879788444 0.04686436517850723,-4.963170776772586 -0.27692073544457685,-1.6516608461671467 -1.1579873605351878,0.803457768941314 -2.2997033440563825,3.1678164527616275 -3.5436062032528355,6.253476133251354 -5.644422030675315,9.12114473300332 -8.438707058965718,9.098123638933032 -9.68503136078155,5.559809610504203 -7.9890142598169405,1.5517141620255757 -4.440104762596022,-0.3477792773715578 -0.43797811070209036,-0.7606026696375636 3.3790991122007057,-1.8788607893321512 6.072202995646052,-4.677848344346216 6.4345647321408705,-7.307874865780548 4.756264285022311,-7.11342363674882 2.590270273048091,-4.392367298582371 0.6017238807058334,-1.613114546676968 -1.4424281885180648,0.11801940731965033 -3.671481198869458,1.6343780204857126 -6.361400509360578,3.739459446048727 -9.70098736489706,5.210501864296958 -12.172782560966112,3.7551247573746593 -11.463474409217092,-0.030889864543553358 -7.897220029470276,-2.72374545606678 -3.766499680248515,-2.5906050554177114 0.0035154667987669086,-0.9032552414379893 3.970565281601118,0.06180394180017856 7.800537398305124,-1.0440898998159014 9.471591057181548,-3.195744403824932 7.879247145257793,-3.883850738709384 4.557182858242101,-2.5765333959911345 1.3634109966924655,-1.1266216577539012 -1.3415697970637552,-0.6368949917471411 -4.100308801315478,-0.4329621378743127 -7.57025604057381,0.057648170438596935 -11.291750798169254,-0.34849290125865195 -12.740442894885959,-2.9096428237406258 -10.166978200193746,-5.909398834411718 -5.616309859891629,-6.4720533270781 -2.0142970652802177,-4.2344261000184815 0.4696320298044867,-0.8013669985864453 3.4987261308655633,2.0906575705019748 7.46778000094362,3.0723627651620404 10.054933695864037,2.017840294313757 8.992569399871691,0.5898864572316853 5.370768846000111,0.04743989915135671 1.790258658633924,-0.30250584886127285 -0.8633501595297233,-1.254534531124392 -3.4178275481635723,-2.487814244372373 -6.750549127637527,-3.8310017586816514 -9.846472524181308,-6.099307641582243 -9.819026866382089,-9.115715543629179 -5.995338170574627,-10.459252237296425 -1.6659034449654513,-8.625169158856167 0.38528129237641906,-4.7913512772580304 0.8307938164833502,-0.4697931900910959 2.03755499277851,3.650338892052261 5.0577345399911735,6.555849809292241 7.89442436735397,6.945169339310908 7.682563657077189,5.132579893359363 4.745069814080367,2.7945677347030085 1.7459363298905117,0.6488654287616669 -0.12161415376799312,-1.5559866862060119 -1.756838530173816,-3.959395564972951 -4.026239509007958,-6.85882885848973 -5.611211352074321,-10.457593755347204 -4.0409410236841055,-13.119540720987018 0.04082150570633303,-12.351733636454405 2.9429320857205425,-8.505240974250135 2.798706010436028,-4.051937077434161 0.9799500974217352,0.011058373247351483 -0.05999062010809553,4.284812923192774 1.1312575889683671,8.409330923204543 3.4484088691794526,10.207062369066541 4.18858265045575,8.489716032082782 2.779834003563643,4.9104609077129595 1.218077922164838,1.4706476664892847 0.6905610988466861,-1.4417117141013165 0.47086540857576153,-4.410880211319437 -0.057292815695596744,-8.144431658962077 0.3797715005310991,-12.147345896853665 3.1354977563122617,-13.703267645858666 6.362129501578572,-10.931267435545756 6.96588498891802,-6.033278129277136 4.557365512209017,-2.157442624923945 0.8640152389836402,0.5145118063991845 -2.246211008647137,3.771779232409301 -3.301270094416637,8.03859450374243 -2.166762104625505,10.818202768388176 -0.6312153237280569,9.67361691995525 -0.048015433124191986,5.778366915227579 0.3280909622779973,1.9288564711007083 1.351081701713582,-0.9232425501181538 2.6759251446882644,-3.667838643565368 4.118397314110624,-7.247622122024019 6.554193252488901,-10.571800315358807 9.792724028292639,-10.539930093831266 11.233473113811755,-6.430866730645306 9.261324057895209,-1.7800927279052559 5.1425977919199966,0.42278330738129455 0.5016082694801156,0.9009849633290941 -3.921578671903873,2.1962491962249686 -7.0394966229386,5.437620735636202 -7.455773946480647,8.480973868927144 -5.508895501696401,8.251703677405509 -2.9988651963581106,5.097772329578611 -0.6960069768174151,1.8787581131039914 1.669545183893959,-0.12520890021635012 4.247309931076231,-1.879299039861813 7.35625720761908,-4.313019571967267 11.214200145797633,-6.011920839851868 14.06629888100737,-4.326757289993353 13.239992863692294,0.05075314686914112 9.11326191902964,3.1621187153741914 4.337374474619821,3.006806965454409 -0.018601279696014217,1.0566449534053746 -4.5990605647843665,-0.05817729841587038 -9.018124448103748,1.218425278120705 -10.942533680951897,3.7010733345341222 -9.100184918907388,4.493314562201967 -5.263738957183961,2.983134611136215 -1.5778843362861323,1.3095341865758172 1.5418536311388635,0.7442272059462169 4.7214516213233395,0.5087686792771962 8.718607277350145,-0.056937460952575236 13.002940995538324,0.4110500998034894 14.666092396831345,3.3613526888838834 11.695556670897815,6.8148601687455255 6.450246398662699,7.45971665075804 2.3005881845676015,4.880304924399439 -0.5593915829938396,0.9266634793808635 -4.044832333953082,-2.401764446792356 -8.609409006540858,-3.5301774236711196 -11.58147184091311,-2.315683914937466 -10.354664440038249,-0.672544190224329 -6.185964984455325,-0.0485909670970841 -2.0674542835674288,0.3536760756947359 0.9831349407065773,1.4476288723027722 3.9178497389673907,2.864036045004326 7.744695116410213,4.4057928695394395 11.297128106536405,7.009078863395644 11.260833321280614,10.469732512956242 6.8663952907157295,12.007693990326615 1.8942820108451315,9.897478956934364 -0.4602853223861416,5.493844306582133 -0.8336549563579752,0.7061031382186371 -1.7770043073614943,-3.1839284881267247 -4.326648792750831,-6.244782741490354 -7.395303730067468,-7.381538077038087 -8.534066344560586,-6.324209285618693 -6.77225464828868,-4.195012820242056 -3.696110043278736,-2.0937731957274224 -1.2146931224055777,-0.1178237144443699 0.3560912561836176,1.9620017836408152 1.9052071648042954,4.216223597368199 4.033794002539395,6.902302948376146 5.730953694985033,10.231824633635426 4.9567728022864515,13.137489612578747 1.4965368500345733,13.521570304950473 -2.082941246148465,10.805337657805126 -3.358744334131501,6.659083198422991 -2.307329441278057,2.682710059994008 -0.5676074840208116,-1.0696849312124073 0.049610920540288816,-5.114220081933581 -1.2739988701000584,-8.87187503060261 -3.4734870352602343,-10.562265544846412 -4.401382550377804,-9.232427410419234 -3.3475962759707443,-6.03202111505577 -1.7044841731140536,-2.6805373627322098 -0.8386062703129085,0.17646960522455402 -0.647702320840267,2.803926880193444 -0.31255017542036967,5.778072748095809 0.1367616825016853,9.480905360497701 -0.6471120314099323,13.03836153224907 -3.417372158350304,14.13262232829058 -6.4661668006205275,11.518778678739523 -7.346094667465906,6.9535058436032955 -5.542246406216208,3.0380837896342996 -2.2488298854443656,0.3990520416570291 1.0704441448749975,-2.1961630698905026 3.1468681429298613,-5.835475929051512 3.2026435554707007,-9.675861356889214 1.7838016078958816,-11.301184829557599 0.484610173757801,-9.499341280747387 0.0346314301283428,-5.737540988848679 -0.2993078401610205,-2.152413545156179 -1.1955290147916173,0.551789944436365 -2.4218132924333275,3.002352655809119 -3.6618982623038363,6.078241481080852 -5.434403620309453,9.594790071937553 -8.280230265719922,11.509746005564892 -11.001560938839148,9.760473146671103 -11.41634518673473,5.2945258114290255 -9.010994183534592,1.2806617202035113 -5.066175025658765,-0.5010212792768982 -0.7537699018458568,-0.9018361927141711 3.413465306899184,-1.9121814198964557 6.691365988471276,-4.6427816236988235 7.907588085785335,-7.9284826990892725 6.773779096368102,-9.146496055123691 4.492516111316718,-7.2581752310404966 2.241832373919678,-3.9631069040842988 0.1259201914776895,-1.305694446819615 -2.100601312049406,0.37612127391108174 -4.5131807196212606,2.0342734295678326 -7.387319217332305,4.312186862742067 -10.949293222430185,6.1277471154431 -14.056708989268913,5.2981628125399425 -14.46511124447727,1.5946571437151533 -11.556292983015261,-2.2354085684071094 -7.118397973885301,-3.599878164427338 -2.863451214155887,-2.474470227915191 1.1507560777032637,-0.6131321433095991 5.476326854631651,0.04713489761678602 9.493924211478735,-1.368385361754349 11.299814624960128,-3.7201420917892563 9.87583936465846,-4.71161304408534 6.452324993670004,-3.5840926414516616 2.868224120665076,-1.826852640979297 -0.18633556717270494,-0.9009214525563323 -2.994720020963186,-0.6966981809926267 -6.17289024528047,-0.33836089253108526 -10.128953620904397,0.14188120485573563 -13.928627504681849,-0.6957701835967782 -15.095398585458888,-3.6556408448420825 -12.300135325795978,-6.912319474445553 -7.420892060262162,-7.851132707403593 -3.2371127414478167,-5.922860859329603 -0.4177681252109551,-2.404060067515701 2.354043160138545,1.1414373123003116 6.240162925247461,3.3587298070508638 10.339991904508992,3.4177142389929145 12.073632331836222,1.9021619408141532 10.147787331815032,0.5147481895275234 6.1300587876227155,0.03428402263722319 2.3019604832256277,-0.3221873241696187 -0.5848700526685207,-1.2787390914734544 -3.2002537268302476,-2.58732188019016 -6.48232351866303,-3.9103009781762097 -10.233797298067152,-5.801099574394726 -12.275388328515902,-8.836682172033278 -10.406979020371566,-11.738673661542904 -5.640777168405322,-12.179213239584556 -1.358040303781621,-9.611254377551731 0.5426279052203427,-5.401846581966666 0.9700174290704098,-0.8014366654731191 2.047358532431332,3.6430021256716003 4.958914454646845,7.137949235452268 8.461661668111162,8.433638094532625 9.758925765686499,7.223348907117256 7.744095813792541,4.790019402391579 4.230103764889918,2.3898915521119335 1.3966957712335741,0.13401666851100913 -0.3961512916385601,-2.2392008404580395 -2.1633396943313343,-4.810137841874393 -4.590579722944696,-7.872335486288378 -6.524540535901124,-11.666761811224802 -5.639552822793419,-14.975928365958929 -1.6927774373957902,-15.40865218400414 2.387875890665711,-12.307248308225518 3.8410119947231323,-7.577712749347555 2.6416110145523675,-3.044192368317823 0.658656802598415,1.2318272241939638 -0.044658874693283224,5.838433627329877 1.4627718534086256,10.11597339235476 3.9667971483183067,12.037363705073965 5.0218435377927975,10.519251318897496 3.8205890069326287,6.872628872284366 1.949221108844533,3.055910878597956 0.9632366347997845,-0.19620152912087008 0.7456940411450006,-3.1855131617330272 0.364171609641744,-6.567707742465075 -0.14700072720975044,-10.77700188131142 0.7444283357836028,-14.818893477114166 3.893909531333911,-16.058174842627302 7.358472148270344,-13.081491972852191 8.356170747341771,-7.88827827692144 6.303475312442814,-3.436141693261206 2.5592902495869794,-0.43648420876481 -1.2124304797258247,2.511923250386701 -3.5705914711717526,6.644849921443409 -3.6327849225152136,11.004122452128925 -2.0205222737322686,12.846079834114391 -0.5448862052972885,10.796233382882583 -0.033936615146132,6.522576586396987 0.3450668081782169,2.4515074212950694 1.361949168155249,-0.6179501609005982 2.7528304679469073,-3.39815479785117 4.158703694048825,-6.886405556245634 6.167795528479758,-10.872804524196262 9.393134078347089,-13.041030651467665 12.475786384246106,-11.053484894071417 12.942081292434764,-5.987028525381845 10.211514571568628,-1.4354188873597025 5.737518138274709,0.5842345311638155 0.8491034291003245,1.0381986654265916 -3.872538944443903,2.182535644966208 -7.584532482433559,5.275047285595022 -8.959688103279447,8.994840637132654 -7.672918717867006,10.371355476249931 -5.087522693466013,8.230016396544102 -2.537950730304317,4.497100625695715 -0.14211314554432875,1.4876970956475049 2.377800368866673,-0.41618130936601716 5.107094964127327,-2.292405959094779 8.357351755244679,-4.868972583147368 12.384230400019675,-6.921333956359348 15.895147742648987,-5.980942833046797 16.352193123530554,-1.7908977310763845 13.058203633436051,2.5403432129243697 8.037027524809872,4.082145825018941 3.2249335224796596,2.80875180118953 -1.3128983706848771,0.704181461887103 -6.20054040002816,-0.042182851769723584 -10.738022573230353,1.5571583450628594 -12.774912785188064,4.213452204847414 -11.16266327313653,5.332074031500277 -7.292932750898785,4.0570853724136455 -3.2435976365306374,2.071589576709684 0.20606749106892153,1.025551817043258 3.3763063025027975,0.7946899012973887 6.962525239649693,0.3899823267523672 11.425050141718259,-0.15212024956376524 15.709159449546405,0.7930864879704274 17.02095109979598,4.1321782178256825 13.862848619908846,7.804624822095491 8.35566449358032,8.861208787279566 3.63517064507451,6.684089765555967 0.45520029231877857,2.7145204316584 -2.669803340634701,-1.283423647151153 -7.049536917639557,-3.7824531352927977 -11.668252999748546,-3.8478556060373847 -13.618527336393328,-2.1388826066506113 -11.444679433949602,-0.5750242210669256 -6.915094385171443,-0.033589207655126074 -2.601054359364383,0.36794629218690034 0.6510302691327183,1.4451592448370718 3.596055868872213,2.9183390557037256 7.290487593827777,4.40710640992117 11.511811750326103,6.534491482565144 13.806672974418547,9.94958598466036 11.69999076777205,13.212899106950076 6.333279882357999,13.70494934528439 1.5127974709378122,10.81177476558581 -24.614751305927882,-6.9836770450351935"
    />
  </g>
</svg>
