<?xml version="1.0" encoding="UTF-8" standalone="no"?>
<svg
  xmlns:svg="http://www.w3.org/2000/svg"
  xmlns="http://www.w3.org/2000/svg"
  version="1.1"
  viewBox="-10.98824652672755 -17.00238796413646 226.02014193857875 221.97649305345516"
  width="226.02014193857875mm"
  height="221.97649305345516mm"
>
  <defs id="defs4215" />
  <g id="layer1">
    <path
       id="path9"
       style="fill:none;fill-rule:evenodd;stroke:#000000;stroke-width:1px;stroke-linecap:butt;stroke-linejoin:miter;stroke-opacity:1"
       d="m 100,100 0.0,0.0 0.10263934837917077,0.02968364617393604 0.11502873644114686,0.0019903434444188406 0.10544610694526568,-0.03255662272432858 0.08146497241715167,-0.017865616261801165 0.06483068613275123,0.05234673994688421 0.04405373604292606,0.13700063341069324 0.015284848545448426,0.1915805484820936 0.018532041279485156,0.19374081955487554 0.0904966732904171,0.13917971966499465 0.1847899639214461,0.027838051365037586 0.19155874177177168,-0.0822953736741141 0.09228182060053314,-0.07157931467553169 -0.03107141257360979,0.07243158299166907 -0.14532046250211295,0.22823190350857203 -0.23727122649462729,0.29752653753381253 -0.23891764205571064,0.28647424770986163 -0.08708866152838368,0.24951411055984352 0.17096653997136002,0.173216317751141 0.33822757072613285,0.01742301084377118 0.2432534969694018,-0.09625206026341004 -0.03713575356314891,-0.02864184356330668 -0.3294237129024964,0.11686290205720695 -0.5318674093091573,0.1728008808794499 -0.5678046704754536,0.14995759904270756 -0.3917548486830498,0.17973245905554336 -0.03297428386900947,0.2802818350445051 0.34417594067453194,0.26989608721576985 0.4358367688368645,0.07721331140450616 0.12768689892732255,-0.08253351615398685 -0.3375157513910523,-0.11673983843185454 -0.6798378638059859,-0.1635639057078322 -0.7742496954480202,-0.23575949376747474 -0.6374935268817552,-0.15960373816135132 -0.3327621034473225,0.15184837820014252 0.09565021235897575,0.4696045544267804 0.4336344645372634,0.43997244729962404 0.3420367674811331,0.09246632276698108 -0.12052700305464725,-0.26813305145996935 -0.5476714073427047,-0.5525323135627076 -0.6898651642321312,-0.743439437401392 -0.612501343220984,-0.6843873509132692 -0.4828319343196483,-0.2568722568037458 -0.27464078219219346,0.37845779069851915 0.0968199774291918,0.7439579407908639 0.34116458859305965,0.4896932378317871 0.16974101598049174,-0.14796319103594158 -0.1539372289739731,-0.7623213371270054 -0.2674535041754922,-1.147169257956179 -0.21292741848412788,-1.1692660121168075 -0.2674395529544711,-0.7690494612006802 -0.45792432170985364,-0.036264921564068686 -0.42476343799039284,0.6903422247934969 -0.04898051586374663,0.8391169149493862 0.24653200472512538,0.23750818159282971 0.2983103629964887,-0.6226847628352203 0.3711815474585478,-1.2226750942012785 0.4868038360803979,-1.3569188424139185 0.337739517602202,-1.0812462342086349 -0.21320008310985372,-0.5263444872296787 -0.7544191449321431,0.2191384760830033 -0.688386152827448,0.7849735554004269 -0.09265082493344323,0.6124942202867203 0.5051946903463289,-0.16862242311762543 0.9597441646233307,-0.8671109111768516 1.2496076483081282,-1.0822037909304498 1.129857059770842,-0.9385284387320922 0.42665585207909373,-0.7161497580794389 -0.5859490414256783,-0.37606524663326013 -1.1496883108555949,0.21106296570215477 -0.7361329786941582,0.5860771169227235 0.2587906285087058,0.3108401883976626 1.195218961351543,-0.19101155589076768 1.7624711066032148,-0.36210612747150606 1.7707273537581472,-0.2758972379255624 1.1463440737182822,-0.3551466468533988 0.039555559259142115,-0.6355668083751738 -1.0365085089124477,-0.57963078876503 -1.242397061061908,-0.020747720323001317 -0.3473294642583653,0.4105304932962781 0.9078537742793742,0.4798808875610945 1.7655123245965996,0.5787991892093061 1.9395879893798025,0.7378481783933069 1.5249989415355287,0.5158752970430669 0.7199268710120208,-0.27455178801959335 -0.3426267398070024,-1.0392337354374632 -1.1363126462635904,-0.9367998583553145 -0.8829516730923075,-0.09283532709989117 0.2167178431805894,0.7422563292326743 1.1865504150109842,1.3669560156839395 1.4745424176287685,1.7557758592148929 1.2645555342432289,1.5753267686284147 0.9494675818392295,0.5964394473544274 0.4774897110742984,-0.7934402921528232 -0.32530595397511775,-1.5554186809203543 -0.8309896452523731,-0.9825727195565293 -0.45193936081483344,0.3696180659814985 0.22808588280753384,1.6281165855760662 0.45675875076754835,2.3777729552502365 0.33886705736698275,2.372188695399501 0.44285374075232653,1.5236386862359126 0.6781528402964057,0.1545367501070416 0.7215803785196471,-0.9187855030511685 0.3031264100375495,-1.4653364862053309 -0.2510198427759889,-1.0918465327393108 -0.5128650012706402,-0.034779175067185975 -0.5408508493745927,1.1132968806197994 -0.6298208395556628,1.9058765487852725 -0.8000273546267067,2.1662281218422947 -0.7678033597946978,1.9336079868675426 -0.2783960531536138,1.3515581017223042 0.5537985841481827,0.5124685325961025 1.1835118663204014,-0.48511874585462067 1.0838170752787732,-1.2329650524120126 0.3513619391600855,-1.1799055652503085 -0.47630428780439615,-0.3185914003943253 -1.1300850476696098,0.7547615312717681 -1.6456990692484368,1.4555211695959827 -1.9462516293917673,1.6066657477169173 -1.7856792062683269,1.4019212284342473 -1.0030285849331904,1.1169530597097577 0.24149508357106697,0.7768541574861416 1.3785396541512114,0.17774736365126387 1.6896094657407161,-0.5815879680035039 0.9684253827232965,-0.9289816209190462 -0.2800789744413237,-0.566577072796008 -1.4775574454514384,0.0889424069984841 -2.3405076440001693,0.4678401204792948 -2.701650192916148,0.4463050283425929 -2.43635302222512,0.3406528108486526 -1.5445678528989788,0.49690986763684464 -0.19166092716869798,0.851208045657927 1.1980722666647097,0.9040151499201556 1.8983898126091532,0.36013896204714513 1.4088344239816735,-0.35495356661665767 0.04370995666529609,-0.6896319375604207 -1.4294617899066395,-0.722203083499636 -2.438350432150557,-0.8327281693553346 -2.761161259142554,-1.0464567288016298 -2.453601029453637,-1.0008421046732252 -1.7033558475854278,-0.3737230099504245 -0.6311466157068537,0.6851066997175792 0.6357707923844345,1.481148394693605 1.579493958266255,1.3497180568555507 1.5063919936785908,0.4198466396253622 0.41470915227884575,-0.6249235543814393 -0.9378922574368715,-1.4452231440984065 -1.815203414542225,-2.0876589131516283 -1.9986782710846427,-2.4571322963161037 -1.7357290406657029,-2.2474932006922046 -1.373955366222944,-1.2614830241162593 -0.9452864501171803,0.29587220582182283 -0.1960971284109405,1.711626472081548 0.7487403128305061,2.09315092360454 1.177484811696175,1.1909780873109383 0.7241271209711613,-0.3607281588465838 -0.08996921985655604,-1.842040405741571 -0.5583541599413593,-2.9030972187460975 -0.5303574987185158,-3.3400920904588105 -0.39883185901086904,-3.0031995793350887 -0.5902531743168993,-1.8968971162089616 -1.0242632510194625,-0.22878510423036857 -1.08644992132065,1.4773590302782509 -0.4171515140567408,2.3314431390129187 0.45888729045729804,1.725822315224093 0.8663988738502013,0.05264073826342042 0.9035553176247078,-1.7456266991935223 1.0356354991549779,-2.970824315515813 1.2928861029765812,-3.356094396442799 1.2338808495517384,-2.973594072039745 0.4690499667472352,-2.0551535934485656 -0.8164148152869757,-0.7498246988176049 -1.7787849230668087,0.7864228389142482 -1.6156190384323281,1.9260228641204975 -0.48833134009063883,1.8328784221069014 0.7735428209584683,0.5108269041633378 1.760361240527189,-1.1210229836019323 2.5296187570548483,-2.1748856594884955 2.968012963240426,-2.390690794452368 2.709307195116125,-2.069536852897201 1.5199374632992857,-1.6309576727360735 -0.3502493280726071,-1.1137187427482331 -2.0447132900118703,-0.21444689317061716 -2.4966923814683497,0.9158926576575226 -1.4135307918985802,1.4259880024732894 0.4413773432518582,0.8816771691463146 2.206523366031675,-0.09099603271461376 3.4656867934919973,-0.6488681994034238 3.978533988001473,-0.6144099690944529 3.570046136445171,-0.45701090717308546 2.2492263795188876,-0.6835964809969681 0.26590928129202496,-1.1973184563809838 -1.7566457938918063,-1.2688846927211728 -2.764496465416741,-0.4741640660663222 -2.0428102064664557,0.562821014297981 -0.06157151986150211,1.0431658101399535 2.061791608480334,1.0849075517497653 3.5032981988811116,1.2385428289546496 3.95102753374303,1.53931547715149 3.493587114625896,1.4669195944302942 2.406951339311675,0.5643769235440459 0.8685027819283704,-0.947722930856358 -0.9370748854440478,-2.0764214514400123 -2.2725517699747826,-1.8815200200091482 -2.1593648505351553,-0.5568160405558871 -0.6069446560478724,0.9221620875354972 1.3041537097670073,2.0754993369559287 2.5345679044347804,2.971578600958125 2.782703317820065,3.4788936301647198 2.403344665128685,3.171121189540031 1.8879599792492172,1.7783919024823405 1.2821510353793002,-0.4046264503233772 0.2327966579302938,-2.3778001079421642 -1.0830450024845675,-2.9002338393322873 -1.6744911932504039,-1.6360834964861795 -1.0392272173214394,0.5220265276571752 0.09202284557267149,2.571006326321836 0.7393822388655025,4.028276368237897 0.6984624394703758,4.616975885544107 0.5151899553353019,4.136892693555211 0.7769397876770228,2.601555642828828 1.1617718331762035,0.4180988328881199 1.3290427914976561,-1.3676089341493451 0.8396666853459749,-2.586924500773108 -0.08090421574100048,-2.619170282487019 -0.8154575931596639,-1.4228139537949716 -1.0638606043198848,0.41605717136975784 -1.0764544532392648,2.1862885926889106 -1.2067161311618122,3.4186537369669168 -1.4757828352112767,3.9215286533302987 -1.5703935242346034,3.725303779090069 -1.1280399540819417,2.997462979288926 -0.058830245671572357,1.896820109596291 1.2623744803159127,0.4901199954446298 2.114251459169836,-1.0585053704798781 1.943970565867616,-2.2171895244363924 0.8840640075922437,-2.329081123856696 -0.4254846406205104,-1.269844026096834 -1.5304686832377854,0.38333139356043944 -2.4074188502164446,1.853184678129125 -3.1082645372723334,2.6588615041000168 -3.4743721567929953,2.7578562295133224 -3.218511921413281,2.4243909268162156 -2.160228336727272,1.9844839161838763 -0.41685710997302294,1.5248403172917904 1.501123492409576,0.8281354737992217 2.7813501144138684,-0.24611823209214378 2.7646777975011503,-1.308342726089947 1.496254695692798,-1.6706617681050204 -0.3614320004344478,-1.1132504996158872 -2.1624744314652418,-0.12912522401241233 -3.5782844057092973,0.6030659085927823 -4.428716418680452,0.7829471676241297 -4.555440770447646,0.6061846119732479 -3.8774130212036795,0.5139986240189529 -2.449909112594895,0.8066574898761019 -0.4796333959097012,1.3306330840776752 1.5881592403726188,1.5227543173516267 2.9968691756931207,0.954832979060825 3.0304931404881046,-0.11060539580057593 1.64438073526172,-0.9591586214393715 -0.4812320843441711,-1.244759434962674 -2.5238324480431515,-1.2577012444586586 -3.94241554117653,-1.4063693484551294 -4.517574730309747,-1.7148160883436248 -4.286306539754889,-1.8217455061041363 -3.4433296641339695,-1.3101924601112955 -2.1727978556097156,-0.07810928270772877 -0.5524219496669502,1.441725157801784 1.2283679107695775,2.4194867217194513 2.558176406461797,2.221247097393075 2.683772379677265,1.0018012060554753 1.465114687262414,-0.5021342652981104 -0.4328156946231445,-1.7689718467483715 -2.117505365626073,-2.7723498359748504 -3.0384740563219026,-3.572361094178376 -3.148695297440696,-3.9877864463522315 -2.7637714669326527,-3.6906785381733016 -2.2577101087596674,-2.4760811316867546 -1.7298944674644332,-0.4800472060541665 -0.9319864491858141,1.7124464627592886 0.29595254799406234,3.173101075940181 1.5082911661138212,3.1508942124080335 1.9201314564775913,1.7003451372404186 1.2823654338765493,-0.42010145947938327 0.15910970021450055,-2.472820475182175 -0.6754187176240833,-4.083581274171664 -0.879709256211143,-5.048118551893069 -0.6777284648885171,-5.187477480914922 -0.5722763458939255,-4.411044044094297 -0.9046469955206788,-2.7834228851047556 -1.4994943349791754,-0.5411679589312826 -1.7164658432055262,1.8087095465958214 -1.069999272775732,3.406813850613247 0.1403065758601656,3.4418159984891474 1.1028596497190932,1.8659475167284398 1.4256582656054348,-0.5464069973185417 1.438948035678095,-2.8613763033974635 1.6060225657483898,-4.466177345386043 1.953849341475987,-5.1136208072892515 2.0730974879736834,-4.84730930041971 1.4923449661406494,-3.8891963489790555 0.09738831974388518,-2.4487756016231117 -1.6210758352876553,-0.6147239038892423 -2.724721984269067,1.3982304510592343 -2.4985236289185195,2.8991632884871734 -1.119538404518707,3.0384636354979335 0.5787838899756821,1.6603853484279654 2.0074750102589434,-0.4822999956858638 3.1372808217332135,-2.3818260531229782 4.036457651084504,-3.418086608543831 4.501200735911468,-3.539534365368084 4.162845154933308,-3.1031520070490473 2.791933926646223,-2.530936301335487 0.5432373021353243,-1.934948617637076 -1.9237694331089727,-1.0358374245723923 -3.5648520374665082,0.3457868638959809 -3.5371106273149593,1.7082396061376812 -1.9044355787879965,2.169601144850162 0.47877091852434717,1.4514803681371973 2.7831665188990513,0.18909417641660298 4.588878142634044,-0.7477715266553986 5.6675206851057,-0.9764713447981563 5.819514191382197,-0.7492723178037721 4.9446750669849,-0.6305540677688981 3.1169366576146302,-1.0026365011652558 0.6027025219528639,-1.6683555858806471 -2.0292598528191235,-1.910177369059511 -3.8167585255332597,-1.1851655664905678 -3.8531388564902045,0.17000775591974104 -2.087514298195188,1.246560677998815 0.6115819102929834,1.606557096248224 3.198920158751619,1.6201948268974462 4.989939149595685,1.805675783041707 5.709666884268714,2.1928825946083492 5.40831206108453,2.3244494698432305 4.3350630338240705,1.6744974721700032 2.724753347636593,0.1166673567800558 0.6770258581115485,-1.8004265127735408 -1.568092991348891,-3.0299572468186398 -3.2401501705126776,-2.7758001604440636 -3.39315489131846,-1.23727560298191 -1.8556560095935453,0.6554335146532964 0.5317842967485973,2.245978173769487 2.6461467406199546,3.5022118074917046 3.797699160765717,4.500554207990561 3.930373433295415,5.014615025470633 3.4425325471654276,4.6350117716933 2.804162493911349,3.1077867216057626 2.140002767809733,0.606427398216411 1.139688399958942,-2.1350924034586285 -0.39562117979787104,-3.9566029989927642 -1.9081880461615697,-3.9233270422219277 -2.4190708332227757,-2.1085260203356597 -1.6205953023978168,0.5374403775693537 -0.2190786526186912,3.093512562615942 0.8201243356866996,5.094175011096439 1.0732334333851838,6.286922818318388 0.8208161707190129,6.4515509018494015 0.6888317896438707,5.478306089875446 1.100626006809847,3.450450430124576 1.5871685920913023,0.7505770195764825 1.8852975973398713,-1.5240024418721845 1.4807223667432083,-3.324274133662655 0.43397672190494063,-3.976712105239443 -0.7032063132387805,-3.1810848508535514 -1.391655593245929,-1.2575958444073052 -1.5668165153769564,1.100710737006807 -1.5690354815192507,3.246503086266486 -1.7263405670035468,4.771502484520113 -2.057035983590822,5.499006906614511 -2.280283541551057,5.440957824944007 -2.0222675933809313,4.743172360705046 -1.0621055637770667,3.5850428774111265 0.4744749945567577,2.0711675942960426 2.06489153045068,0.2523395642404864 2.9886252047356408,-1.653559828418608 2.7693931980240905,-3.091737511733143 1.543924583195576,-3.4171910890398607 -0.07709910828623379,-2.4188313538508908 -1.5541505650184888,-0.5254171649360018 -2.7448940867393787,1.508867888290652 -3.7340881575650116,3.0453812747294506 -4.514107236391567,3.791005745972413 -4.883240991431592,3.8071356474066675 -4.5661130864779835,3.3844967526150924 -3.3902897593676897,2.840481984977856 -1.422786499324829,2.300455473381561 0.9517269380832829,1.6053686024819456 3.0419738196746238,0.5138801316460899 4.068346736427671,-0.8919431281431969 3.6098945682609695,-2.0538283799770056 1.9090293975639128,-2.347070748045752 -0.3565740850606858,-1.6550163353584821 -2.57633678798895,-0.46081413295789275 -4.422542498542967,0.569164213662134 -5.722636149376825,1.0348707144364653 -6.324091758878495,0.9673031095312581 -6.105542176406146,0.7162850581192686 -5.0386600785014934,0.6972594586646039 -3.2104679459852434,1.1108746622154229 -0.8304689862147541,1.7524467021387693 1.6958866144361764,2.0826050001770113 3.6935883319195,1.6323613838240476 4.415693584997825,0.46975556363497617 3.5304689247626726,-0.7922463183284947 1.3948533379731316,-1.5554493994015104 -1.221237380344789,-1.7488088209138084 -3.5996129923319415,-1.7502798904110648 -5.288010103642577,-1.9236546631625515 -6.091371719373441,-2.2890343729151255 -6.02387063529774,-2.535101083273645 -5.247920536138778,-2.2479714979791936 -3.9628884370737154,-1.1836328222805719 -2.2850807944828944,0.5179377811077188 -0.27110357082041503,2.277766945968665 1.8376508849225672,3.2986378440312194 3.427443754495897,3.0545005175662823 3.7855606402860076,1.6978441799010966 2.6798892203739797,-0.0950760468120393 0.5857942859600485,-1.727511988787029 -1.6623809414689816,-3.04235792001262 -3.358982048722467,-4.133575119546293 -4.180840925452955,-4.992972238135536 -4.196620633393522,-5.3980633374415135 -3.7280479054496496,-5.0453126769290435 -3.1258784927057235,-3.7451594734836675 -2.5285603700518493,-1.5724627513479845 -1.7606392604168164,1.0476174128651934 -0.5561171645184828,3.352306696292402 0.9941096964434024,4.48235717949882 2.2743352984990253,3.9748868332942635 2.59637532188853,2.098601786684114 1.832614075473046,-0.39856221523619695 0.5162715594271603,-2.843468400034496 -0.6182891890099285,-4.875279085773414 -1.1307886445324726,-6.304408779180434 -1.0559300067395796,-6.9635336056100385 -0.7792386491695638,-6.719805965367996 -0.757990164601388,-5.542889252189937 -1.2126632349776258,-3.52935676055354 -1.9177248121862576,-0.9103609528530257 -2.27991240301413,1.8677707870001115 -1.7840004009049153,4.062902530176373 -0.5055344053650188,4.854675064756094 0.8812863234182657,3.8798529986719927 1.7192432055570777,1.532110831538887 1.9308011264506604,-1.3417640236827566 1.9315242993029074,-3.9527228983974965 2.1209687593214994,-5.804517722764913 2.521032762239443,-6.683736532132443 2.7899186249962398,-6.606783445651445 2.47367540257747,-5.752668711572497 1.3051600807840913,-4.340733996736333 -0.5614005676586942,-2.4989939946697177 -2.490642361486678,-0.2898675774003294 -3.608650483326805,2.0217419414264555 -3.3396078371083746,3.76314999725858 -1.8517637766067097,4.153930191532325 0.1130529853378448,2.94094708689704 1.9008734125555407,0.6461714069840809 3.3398217532858965,-1.8158939946473396 4.5330620815275395,-3.6725828227154125 5.471837239879733,-4.570676104933696 5.91288568345125,-4.586105619380241 5.524512267380075,-4.071599058284171 4.1000291875996595,-3.411275000433619 1.7221390033711543,-2.7566652667220737 -1.1435078876472176,-1.9159099183517512 -3.6626395729099244,-0.5983541973909041 -4.89636762257004,1.0962762647436008 -4.339879098327643,2.4948422170211018 -2.2881741758043006,2.84567989573128 0.44055034541175075,2.0102118155876454 3.1106000120800417,0.5717289858963994 5.3280156730039465,-0.6674141643577443 6.886181408983774,-1.2267065746284374 7.60297545234161,-1.1445569039479082 7.334069754330002,-0.8421922402198732 6.0471184258782245,-0.818720870538165 3.8482455751219504,-1.3144518077398217 0.9902529194912972,-2.08300292223381 -2.039654959564203,-2.477219805851277 -4.432216728433161,-1.935639417985712 -5.293656544514505,-0.5413132470950259 -4.229237072580986,0.9703263285079515 -1.669368325104756,1.883037011712645 1.46229066702071,2.112793431987569 4.3058328044629235,2.112768708194679 6.321025341887378,2.3182828554805255 7.276101344891529,2.7530311515638033 7.189696256005192,3.0447361667188204 6.25741688700613,2.6993793071757253 4.718579556398936,1.426687339287568 2.712907194856541,-0.6048633542096269 0.30863158398025803,-2.7035177770046914 -2.2058329979303437,-3.9186631226223483 -4.098856240021291,-3.6247151566505167 -4.522299742778685,-2.0056833733123582 -3.2020049534200155,0.13102992386365742 -0.706548528008156,2.0742348363241305 1.9694070478256975,3.637285586559109 3.9861835967084147,4.93254904350885 4.960511284414224,5.950702241623645 4.975590605367074,6.427708029461186 4.415150211118686,6.003711857831064 3.696671508161529,4.454898901715708 2.9847701633923975,1.8718152553942673 2.0711805762865936,-1.239398362429057 0.6405912302633112,-3.972972449527674 -1.198442833043714,-5.310378065641075 -2.715349135543221,-4.704871363361107 -3.094984469574115,-2.4777465649245585 -2.187809555702131,0.4825384755873472 -0.6271864123656599,3.377731624125545 0.7165391397055316,5.780752260234422 1.3226245047244447,7.4679540387874255 1.2331838011562297,8.242417299073196 0.9051458312701754,7.948333543291881 0.8794515764749349,6.551347599566483 1.416240380502046,4.167134389690361 1.974174780509486,1.1197723438908582 2.387573671178359,-1.498882271450924 2.122227756601319,-3.753935102662652 1.1124933917313058,-5.008736180533461 -0.24449997309525884,-4.825889129027473 -1.3685280203268348,-3.2516575698256673 -1.9300722110689037,-0.7879327390838569 -2.0338469233597323,1.906497222102999 -2.033457743322174,4.288432983470884 -2.2095115026247925,6.0185499864721805 -2.577117176012706,6.94115033311725 -2.899962961656115,7.053143274560213 -2.8344703464407814,6.46916959011719 -2.107981727316485,5.357547469718895 -0.6766906996609521,3.853118463922442 1.1809463869799686,2.0110655308985486 2.896080403372764,-0.10949185304571074 3.8192561606422544,-2.254894546575656 3.5647304835629257,-3.891763059304907 2.2615580530157047,-4.426350623246066 0.4505700635983487,-3.601714700093879 -1.3165459202091654,-1.6957151488899171 -2.7943109536706174,0.6508422524455 -4.018401273069742,2.77228810888775 -5.064297680871704,4.222217120068478 -5.865444819262308,4.854355715529977 -6.209883181365953,4.787609682910016 -5.85071969057033,4.300823273172227 -4.6318608564222075,3.684103207338694 -2.5837918209621336,3.0800430828888636 0.01705751837563696,2.3946423804694916 2.6337932945441196,1.3881766339608816 4.557923222563801,-0.04727135823870299 5.172117903063565,-1.6350803146877126 4.286391480298562,-2.780418366121836 2.25037089290214,-2.976773975025253 -0.30194293839548436,-2.188152777784751 -2.8227323080837294,-0.8589046127355289 -5.001742501270044,0.4001521562466337 -6.676865074447633,1.1530149896648823 -7.713833043511357,1.3038196944455933 -7.985260128974673,1.0673699937909475 -7.414866658432118,0.818663264171505 -6.01295846983551,0.8959850707258283 -3.8800579695980133,1.4104713925522958 -1.213937247048463,2.136437450225145 1.630824240892352,2.584852480244024 4.079401916206649,2.295921242963061 5.4407203888810045,1.1988100968108881 5.240555078833353,-0.2748258105439447 3.530069238141536,-1.4949006457043197 0.8549128310809238,-2.103914937646806 -2.069409759722234,-2.2158755904678173 -4.653351729381811,-2.2147651052584365 -6.528988407181728,-2.4050826465322643 -7.527852668624504,-2.8031047286106343 -7.647113049341712,-3.1524093211126285 -7.011606990884701,-3.0804400447272826 -5.804277248352491,-2.2918092397281384 -4.171637467195197,-0.739442041475769 -2.173746064035761,1.274387529460796 0.1251175458744882,3.1328998483726025 2.449910332012699,4.132412539075489 4.222714005227857,3.8554750471066086 4.8006247885866316,2.4426280822969773 3.906012590254136,0.4803339938364388 1.8406429733961858,-1.433608091690246 -0.7009143150647077,-3.033408672412804 -2.9976633321956854,-4.35787742735522 -4.566484187516721,-5.4888864700974125 -5.2494610662399595,-6.354506948504849 -5.175779417222714,-6.725493029138974 -4.647602993056459,-6.334954398231403 -3.9790687880565514,-5.014425041402021 -3.3245129604037302,-2.797395578731667 -2.5822484261079666,0.016639654954076377 -1.493054109519285,2.846697796438505 0.0595817933494871,4.926632494362622 1.7763199594916586,5.589385554066155 3.014014286646308,4.630339808190357 3.2254217131030174,2.4282961576849402 2.372195041262927,-0.3308578404671323 0.9350897938585234,-3.054833037810994 -0.4255947478721609,-5.408425086514242 -1.2388646211485934,-7.2167032858033195 -1.4014599007103499,-8.334925946819396 -1.1457299207994822,-8.625876222743798 -0.8768659572779072,-8.007616076602702 -0.9601506643796682,-6.491751562965206 -1.5153866380554746,-4.1872791889276755 -2.2987001199408112,-1.3081021502060821 -2.782131289309568,1.7627662103337656 -2.4696147293248956,4.404868729750632 -1.2851268018904705,5.872704597228761 0.30515164799268746,5.655221028639062 1.621273271081776,3.808480906457376 2.2777576642247226,0.9218929230780049 2.3979042575758527,-2.232322297341412 2.396072467194763,-5.018270475292923 2.6006537904396794,-7.03942682789112 3.0290922812085483,-8.114555004131688 3.404855680569149,-8.241082824123325 3.3264097430137696,-7.55404439165207 2.475636752139849,-6.251007026986258 0.8021933832905646,-4.4901564704679515 -1.3678286719415738,-2.336426597172945 -3.369719293372526,0.14074323870334382 -4.445568917508652,2.6449261174496357 -4.14621961065027,4.553664951150743 -2.6236981115783493,5.174898953927361 -0.5100979240745147,4.210310480414364 1.5506702631713338,1.985570797902426 3.272506391155055,-0.7509863776839154 4.697353581640549,-3.2230385555035355 5.913475259323306,-4.910751254965113 6.843569077747432,-5.644566416950006 7.241102876911874,-5.563949151535304 6.81918910589232,-4.994382712940542 5.3969892263819474,-4.274034368774515 3.0109993365012144,-3.568982837918618 -0.016221791532487373,-2.7698544717464415 -3.0596022983329334,-1.5979315850777027 -5.295341766161485,0.07189222846029963 -6.00665320506846,1.917559604295505 -4.974288136082336,3.2476102071708866 -2.606221422467769,3.4740694511807533 0.3597727425388513,2.5562373047410745 3.2869337675382866,1.0112749749815961 5.815107671758199,-0.4510373394977094 7.7565414971593185,-1.32471425263234 8.956018850127052,-1.4991001069750567 9.26649231651298,-1.224089847808031 8.600365494773655,-0.935068650384359 6.970544656094759,-1.024316258033501 4.494500408257281,-1.6203018835586107 1.4022670533637154,-2.460962789656442 -1.8947081797751792,-2.9794100983751974 -4.730335543294757,-2.643308215686716 -6.304688805576248,-1.3714435069700386 -6.069886978444771,0.33547748544137335 -4.0868925747734295,1.7476458964593178 -0.9888730150749865,2.451600390802554 2.3952348349606183,2.57993292468403 5.383189221203764,2.577379829130919 7.5498652486007245,2.7962249343471868 8.701257339639085,3.255079833806519 8.835052598904582,3.6573020400255487 8.09648179241978,3.5723794413003915 6.6977368056197975,2.6594642645514597 4.808675473740664,0.8649447251054241 2.4991071303101933,-1.4612698144225291 -0.1563689315321426,-3.6065387383723646 -2.8399419028865793,-4.758725295941694 -4.884615897073786,-4.436964174194074 -5.549173119267778,-2.804768140859551 -4.514608370574734,-0.5398618543126688 -2.1304986224086804,1.6677324346524145 0.8010584403030521,3.511604109897341 3.448413778811414,5.036829735925785 5.2550183224133775,6.3380640485491 6.039671767660167,7.332631206990143 5.952118885847881,7.756712724684746 5.34116243282466,7.303423813553323 4.568999949492564,5.779553411361903 3.813452715433357,3.2246030942707335 2.9574605173849307,-0.015803928110884158 1.7028090606361843,-3.2725068002274185 -0.08420266357109085,-5.664051037960121 -2.0587992490995077,-6.423920856071248 -3.481206127695259,-5.3182364639739745 -3.7227171892587023,-2.7841466872507894 -2.7402795682191936,0.3886876446106129 -1.0874601561045267,3.5190344972655154 0.4764799311232366,6.221790257002539 1.4105638841160442,8.296379708514976 1.596740313239792,9.577111753434849 1.30244977481658,9.907108410282277 0.9932713434907612,9.193114912944239 1.0884818516873054,7.449337749224398 1.725217129061832,4.8017216275870425 2.334837020250319,1.509562203785194 2.844431303137412,-1.3580570559755216 2.7270897103956315,-3.960018391566507 1.839253584176305,-5.728656876875377 0.42586605273635314,-6.182643730495755 -1.0054921139871453,-5.174313606103809 -2.001979712933121,-2.976420663617205 -2.427048022224483,-0.13430648354081143 -2.475843571124443,2.7769933407403897 -2.478469744419357,5.312432459589942 -2.6680974931434775,7.192290327849776 -3.0570890037914182,8.281153390039805 -3.4506894433606305,8.565736233359033 -3.5479824443104064,8.132160978650887 -3.0700132960780877,7.125292401510478 -1.880724445706477,5.687265042751903 -0.07796223433024352,3.9013959610865925 1.9768033183833325,1.7972702241489458 3.7281144485169477,-0.5458325377140625 4.616274013475618,-2.856162743828264 4.33545337283519,-4.639429145033603 3.0032478654878503,-5.362656146482976 1.0850365213869964,-4.751727569310333 -0.8953068195252172,-2.9642397385974277 -2.6277923430826604,-0.5078611847509364 -4.072076370882542,1.9993961124976067 -5.3127001837738135,4.048607191594556 -6.379872570927489,5.35216272277836 -7.169595461591598,5.860813497533314 -7.477656896786698,5.719721125087403 -7.0882139150385655,5.1852746544348065 -5.862773217084722,4.516432515296231 -3.808013161537758,3.859530571192863 -1.1201048292288078,3.172396715201103 1.795682852729385,2.256889155492871 4.356005247573421,0.9294284843588798 5.9344555552962674,-0.7550140313651355 6.102449947969006,-2.4089436185903708 4.841841211799476,-3.4775843386413783 2.544978526285746,-3.5724705751156307 -0.21678000094888716,-2.7123096668831295 -2.9606597554154632,-1.2957508479244666 -5.399420193240758,0.132765123056231 -7.3805607108507445,1.1390418347280047 -8.787872236100256,1.546432499625979 -9.504314344634992,1.4494427144217923 -9.434916016553075,1.1309509613509476 -8.541610890355201,0.9321191810942935 -6.858529406114457,1.1091323829124633 -4.489229441745152,1.7061311643687134 -1.6151264108550265,2.4945590866795726 1.45703998765525,3.039994210038884 4.243780983155403,2.9137504758305965 6.137226853524382,1.9623275202905575 6.62225229257416,0.4483505924758049 5.541265336250461,-1.0844422448081161 3.1868963674773028,-2.151179461414131 0.14347334501172782,-2.6058452508857215 -2.973162621634742,-2.6575775882027415 -5.686601201583898,-2.659876776470327 -7.697604718126456,-2.8623295229048438 -8.86151346055378,-3.27809225753154 -9.164425086516545,-3.6986744859800638 -8.698810419425165,-3.802086086316791 -7.619946418874093,-3.289981742705976 -6.0801164400420475,-2.0170275579603185 -4.168613945715798,-0.08816950726281902 -1.9172170070844317,2.109714001135387 0.5891611812862791,3.9824433998936115 3.0598106277041026,4.931574243109623 4.966178310868443,4.6304045976268355 5.738585162374498,3.2051240517519375 5.08436711509043,1.1536978811260212 3.172515098428498,-0.963599174931403 0.5461565743584558,-2.8153780660295524 -2.133882342231054,-4.358613925708255 -4.323659558185575,-5.683774348688985 -5.71598936385562,-6.823222108133507 -6.258528870374178,-7.665893483652184 -6.106683005643212,-7.993695296539727 -5.534621969609411,-7.576202758174844 -4.819139391143807,-6.26572379166349 -4.116602370701116,-4.069703294197879 -3.3819605632124876,-1.1979818871194539 -2.403603335910546,1.9163706087348515 -0.9855632328233384,4.650299993022259 0.8133085845059611,6.33503785284158 2.579135041995414,6.513328390553141 3.719618323826964,5.166316144649329 3.820261646589401,2.7133830751606354 2.9013913894304437,-0.23518346214072494 1.3888674702115225,-3.163911169169211 -0.136030777745745,-5.766240273298422 -1.2099248338720656,-7.87953587924207 -1.644466864201732,-9.379958311774587 -1.5407135964380672,-10.142831966254548 -1.2006594211215287,-10.067078950559505 -0.9883503602065957,-9.112370639631635 -1.17703004764914,-7.315409858047005 -1.8136476874299063,-4.786938214847822 -2.654281153108741,-1.7206906179249017 -3.2355571169403703,1.5560229193349642 -3.100411241265647,4.527543574744342 -2.0854014564047674,6.5457968301734155 -0.47083513221525664,7.061860854652281 1.1633923756290727,5.908217066397327 2.300379209895169,3.3973720713373865 2.784642479547017,0.15264020648267262 2.8393116052810257,-3.1693319025291373 2.8412838085212826,-6.060769943577938 3.056561552666196,-8.202919108403023 3.4990955112716335,-9.441873531067671 3.94665952859944,-9.763113939673971 4.056189728323211,-9.265459860199492 3.509950189333857,-8.114600436237758 2.153330670214153,-6.472967837332121 0.09837678019536611,-4.43583193034511 -2.2426246838873,-2.0371637900199104 -4.23677235127041,0.6324898248584887 -5.246874472743542,3.2634585115798913 -4.925355822418524,5.292927476703376 -3.407000238015968,6.114514178265921 -1.222359240865046,5.417006660870605 1.0318915303375036,3.380790458259554 3.002963788976416,0.584451963965968 4.645151480534182,-2.2683685719645723 6.054848513603993,-4.598711924776545 7.266571645339802,-6.079816004933001 8.16219150571245,-6.656244243214864 8.50973369629282,-6.4936448861990925 8.064191601310938,-5.883969284783859 6.668674366242669,-5.121846266991682 4.331393426857858,-4.373674170209256 1.275858945010043,-3.591524411223844 -2.0370583647405027,-2.550317516328221 -4.944594738470997,-1.0416979812877827 -6.735620150387064,0.871603137646872 -6.924206833136928,2.7493264654003724 -5.490791077499175,3.9616523090124645 -2.8817876240356597,4.068052718063242 0.25358692333248456,3.0904731119776727 3.3671625829229086,1.4819840924986636 6.133060353355852,-0.13929643243520218 8.378511047633921,-1.280807833016155 9.97204438744852,-1.7425012287774706 10.781349587874658,-1.6319844784543989 10.699241884565424,-1.2703678808920387 9.683130388908367,-1.0445815393189406 7.7722903099793825,-1.244927712385845 5.084646987950592,-1.9211642104910425 1.8262548249947343,-2.814003219537966 -1.6550058510146073,-3.431120023841757 -4.811306166333509,-3.2870720067007966 -6.954366806822065,-2.2084753925189204 -7.5014694167310125,-0.4933196719547226 -6.27516879654371,1.2423425064500009 -3.6078477751976408,2.4495789583762644 -0.16180706795360322,2.9634397082082273 3.365501183423561,3.02104562235931 6.434938685571751,3.0226908405721815 8.708233498679874,3.250793582427619 10.022233601581704,3.7200987650118265 10.361802792831384,4.194644571218845 9.832109300973542,4.310293370329504 8.609254453601636,3.7299186359618446 6.865819234622279,2.2896337824679236 4.70304991497423,0.10858405312803399 2.157110572955389,-2.3755353666394683 -0.675818468430748,-4.491101302647202 -3.4671063954555166,-5.562174702377277 -5.619676642538423,-5.220307047210298 -6.490443194157308,-3.608876424279984 -5.74964620665088,-1.291020600604071 -3.5890658180903756,1.1001838857436042 -0.6227473535736578,3.190549511923379 2.402854801698112,4.931689035359881 4.873764291367479,6.425922678519129 6.443642646010318,7.709921182545926 7.053959616055522,8.658489527772758 6.880606766755051,9.02577209604599 6.2333165999585844,8.552180444447323 5.424553142839329,7.071624940821536 4.630745969717253,4.593083559517808 3.8010882592353994,1.3537360029007317 2.697031696745796,-2.157746120745955 1.0978327297522696,-5.238889483919934 -0.9298976907876977,-7.136202447932305 -2.919517888805558,-7.335085275721241 -4.20368629419778,-5.8152660103486795 -4.3158437895372685,-3.0501921729108616 -3.279554834524788,0.2719903845244289 -1.5751007147857194,3.5704139966766206 0.14256208712464513,6.499880433413466 1.351690832160216,8.877486216025225 1.840535593353252,10.56413046312305 1.7232553604706595,11.419867209494129 1.3400763406626197,11.331404818572025 1.1008127184312002,10.253890138184644 1.312825377122607,8.229170761911988 2.028680733552193,5.382355761053276 2.676769459596983,1.9113370462767136 3.265367726395908,-1.141151636874838 3.2866147797936094,-4.007304396259613 2.555245782307111,-6.193390749943461 1.19568188251165,-7.226676398614629 -0.39548591438992275,-6.847695736570699 -1.7531318203871251,-5.135231377553296 -2.5847824592952406,-2.469611289134633 -2.890065156276762,0.6313890478196953 -2.9004881364865582,3.6826628865024276 -2.909535437591529,6.3204989883465 -3.1093328878658895,8.31329501142929 -3.5100446067171163,9.54343630666449 -3.951873749353126,9.991304590514147 -4.176676631078777,9.720003814115728 -3.920783270843657,8.849089242186835 -3.0061358270662026,7.512818766870936 -1.4169012928186646,5.812763175397436 0.6545479293059486,3.793858225679287 2.814496220994755,1.4798870078082302 4.549633276532774,-1.0284030990070505 5.387283966465532,-3.454790171337322 5.086324644038996,-5.349155822897728 3.7523718016507246,-6.237543812909223 1.781882264837293,-5.845799706591919 -0.34659674640812455,-4.244014998179097 -2.2935828003093093,-1.8172600391916092 -3.948891312344074,0.8964937920359546 -5.36357665382846,3.3867905060717476 -6.609692773279477,5.289248908308309 -7.673999244189417,6.430751192320372 -8.434274132026388,6.822098191331747 -8.701940388116753,6.616657777567752 -8.289845785189868,6.04581704493296 -7.075892311338208,5.338842712177154 -5.051894250951918,4.638408234159726 -2.356800886424196,3.938993229398932 0.7049883412962856,3.0912875702724705 3.6709542126372696,1.9015024768502542 5.985106645243363,0.2971619376911292 7.144637401397802,-1.5389087218030966 6.888003640060276,-3.1805617581671015 5.309943453002887,-4.144749222720861 2.807660480017148,-4.142867908332306 -0.11196860599244474,-3.2282334403087702 -3.025489469731639,-1.75520876553324 -5.6696647948077725,-0.20379108887095754 -7.90055985713235,1.0129565282924204 -9.616265155164413,1.6734810762273469 -10.714838807715765,1.7810017254876982 -11.10019626972398,1.5229868744116573 -10.708899892208365,1.1876908907977395 -9.530648235354406,1.063079657710091 -7.612762407448997,1.3341372857637452 -5.056459695691899,1.998434531355315 -2.0262073863528656,2.834336573456767 1.2126633569467202,3.458475605717126 4.253229602849771,3.480589073487181 6.571774915648078,2.70429392174276 7.667020721607017,1.2617752034195178 7.2640614447084175,-0.42613256640851205 5.446836037000551,-1.8660378235918529 2.619065822830848,-2.747815084893716 -0.6698926302949388,-3.071210524540618 -3.905499495310238,-3.081865343404189 -6.702101033360407,-3.0910606655266974 -8.814239794578725,-3.3025092224997934 -10.117388627241596,-3.7269370332102483 -10.590951496398453,-4.194878668178916 -10.302032319438567,-4.432663133136572 -9.37755403739321,-4.160846074411268 -7.959983882979266,-3.1908161497013907 -6.157098893070938,-1.5059636851392497 -4.016617834898042,0.6896507513504844 -1.5638271211559953,2.9786500760813226 1.0944345775176032,4.817049053817499 3.6654195088730717,5.704087982786916 5.67221078574299,5.38450854035375 6.612779760088756,3.9705083233722576 6.196931439996661,1.882382897296111 4.499249947102662,-0.3727347174951774 1.9279620942186284,-2.4351813507085467 -0.9468670223835147,-4.188290262593654 -3.584489433740437,-5.686214458632577 -5.599033657770143,-7.0053317726644195 -6.807306141698177,-8.131663568924864 -7.220939594622358,-8.935822351806252 -7.002533580040065,-9.218192303122322 -6.3972517425874855,-8.780725422903203 -5.647938952401788,-7.494312911257595 -4.905686003474685,-5.350489279801664 -4.164646259332457,-2.4965620571025084 -3.2667539079758683,0.7450543879591152 -2.006905861610548,3.8846602921332902 -0.30847007093730383,6.333760566903663 1.6349401236671781,7.560323080491969 3.3722395020654403,7.287822834831843 4.392256187258155,5.616875109409875 4.389740883229479,2.968152065632978 3.4213512388131164,-0.12174218746841348 1.8622773117019022,-3.2046331361365503 0.22053005815600102,-6.001998910575281 -1.0668447709088014,-8.36162241192551 -1.765536941236988,-10.175791004248623 -1.879088668370315,-11.336788340160211 -1.6059455410640169,-11.743124520722816 -1.2511041830466496,-11.32787104523969 -1.1191682443931086,-10.080320560019516 -1.405735298410704,-8.050712441564599 -2.108140557072673,-5.346270934818023 -2.9919036873164373,-2.141077726428989 -3.651583485038344,1.2841750770185456 -3.6745633671807525,4.499154809439901 -2.8533420611784095,6.950159081352709 -1.3278685243273998,8.107365044599348 0.4567792184270587,7.68042715284615 1.9789438267965807,5.758440696447806 2.91084771049222,2.7685203565271337 3.252355892804445,-0.7083962127702108 3.26324255032182,-4.128336104117935 3.272585893461965,-7.083703078374597 3.4956855571335836,-9.315184577727905 3.943829459703437,-10.69134094781883 4.437883587004677,-11.190598402282653 4.6886496351943805,-10.88406082476147 4.40090887797875,-9.906018832599493 3.3754964723367067,-8.407148999087717 1.595026077459778,-6.501434610744255 -0.7247535733949206,-4.23937744411684 -3.1428039311681033,-1.6477672345038457 -5.084464831102139,1.16046605602817 -6.020891999108201,3.876048846408736 -5.682692436668361,5.995265748588153 -4.188644845094089,6.988015707268666 -1.982883529754801,6.548063173401211 0.39887268858221603,4.754484896026177 2.57677990110777,2.038664149245598 4.4276892128432195,-0.9972402527310535 6.0088522634366655,-3.782188361409041 7.400970772049362,-5.908818407231962 8.589327893660126,-7.183861091075819 9.43737057158662,-7.619780997913395 9.734444218127663,-7.388409382512194 9.271605060616452,-6.74868644024194 7.912733511176789,-5.957035192626336 5.649084308651737,-5.172963772789885 2.6363232277806787,-4.390299289265897 -0.7851204346219447,-3.4422202456792803 -4.098366371629481,-2.112309246370799 -6.682414488563666,-0.3197782041834074 -7.976008759586215,1.730971525531217 -7.687642029603133,3.56391724596358 -5.923806765817218,4.639763151795691 -3.1286436512487086,4.636613858126566 0.1315157689444746,3.6144690373175905 3.383776802541469,1.9693458578705219 6.334333026342506,0.2372690274410445 8.822684966718626,-1.1207330135252107 10.73531685333279,-1.8575928062466147 11.958737872604544,-1.9771756112529602 12.386052771722106,-1.6889042077163765 11.946842198270673,-1.3145174752955455 10.629992884684839,-1.1752568310761546 8.488662475680016,-1.4773333110576203 5.636082173944416,-2.2178465827900453 2.255948066505084,-3.1494708011762924 -1.3556867970904136,-3.8446913643594485 -4.7450800160302435,-3.8685376608744093 -7.328543247057098,-3.0023902006139735 -8.547709367592034,-1.3939618452353102 -8.096792860983683,0.48742587044570485 -6.070045355895104,2.091849830001337 -2.917974890223249,3.07388033609071 0.7468997952454686,3.4335012610681446 4.351172712925759,3.4446197572395363 7.465305123388376,3.4541111213970765 9.816129360877454,3.68886189176753 11.265293268396277,4.160721886196711 11.790245308166476,4.680888505830296 11.466089330084714,4.944636137252303 10.434483627805378,4.6409716815461195 8.854314115196246,3.5601767949720653 6.845770328417814,1.6840884697803773 4.462137053335596,-0.7598563954394564 1.731707347851625,-3.3069577862547703 -1.226497534538737,-5.351880608386821 -4.0866781839442865,-6.3376960154294295 -6.318320711433557,-5.980876332983186 -7.363251654448078,-4.40678136681565 -6.899194906806116,-2.083384162213619 -5.009719844949899,0.42501065966925466 -2.149366204272525,2.7183784515070357 1.047613483078635,4.667088163092828 3.9798872890777375,6.331490068240754 6.218603156693661,7.796609771434049 7.560416040453703,9.046992218395673 8.018622401204311,9.938918791366888 7.774285184984308,10.250696133132884 7.100121137896423,9.762484698329772 6.266131432850813,8.331154111096005 5.4402415421050705,5.947679337501725 4.615952319199323,2.7760843984590906 3.6176865833827208,-0.82518648128476 2.217712631131093,-4.3120724511254735 0.3310863374295252,-7.031068410224378 -1.8270029273951707,-8.391694438679856 -3.755594989862061,-8.08746122437509 -4.887270116333127,-6.230738422224313 -4.883486833023653,-3.2891352368644817 -3.8075868358220077,0.14128935042062096 -2.0764144040390704,3.5629204689464515 -0.2540079967260169,6.666667142110072 1.17462125614162,9.283747521511842 1.9496486712562842,11.29484270241695 2.07526255413552,12.580687405048877 1.7718628743687646,13.028981022721254 1.3779307675444556,12.565813351301657 1.2313454177592007,11.179665209349992 1.548931323704494,8.926612509795504 -20.718530885808065,-5.957906894532059"
    />
  </g>
</svg>
