<?xml version="1.0" encoding="UTF-8" standalone="no"?>
<svg
  xmlns:svg="http://www.w3.org/2000/svg"
  xmlns="http://www.w3.org/2000/svg"
  version="1.1"
  viewBox="-8.055916044727269 -13.356266003269582 227.10734621056463 215.7842329177051"
  width="227.10734621056463mm"
  height="215.7842329177051mm"
>
  <defs id="defs4215" />
  <g id="layer1">
    <path
       id="path3"
       style="fill:none;fill-rule:evenodd;stroke:#000000;stroke-width:1px;stroke-linecap:butt;stroke-linejoin:miter;stroke-opacity:1"
       d="m 100,100 0.0,0.0 0.8982240555854446,0.056511467576385144 0.8875824067806093,0.16908835283936696 0.8663691146014116,0.28032972896571096 0.8347238030956134,0.38935404441201626 0.7928549432651124,0.49529288089378554 0.7410387004683656,0.5972961098100029 0.6796174067393679,0.6945369523626965 0.6089976657798957,0.7862169166723874 0.5296481002504976,0.8715705857975138 -6.030039202191375,-3.7524117870373885 0.6549581668990498,0.6233203282300366 0.5771369955059527,0.7056263160778116 0.49171213515620593,0.7804520248589029 0.39932606090782485,0.8471769953093968 0.3006685347646254,0.9052325522935831 0.19647260025698188,0.95410525415069 0.0875103330769349,0.9933400411073023 -0.02541163010891978,1.0225430659011607 -0.14145676140303465,1.041384191361729 -2.731899440680664,-6.558852988992783 0.10316668402818152,0.9067781346827246 -0.00915167735232103,0.92380038549598 -0.12298279767352938,0.9302475434090383 -0.2374392883880745,0.9260105830202718 -0.35162690936415686,0.911050320801678 -0.46464984451691294,0.8853977903692112 -0.5756159940668084,0.849154230540961 -0.6836422556049513,0.8024906857937708 -0.7878597661763536,0.7456472206952327 1.584716877240183,-6.929520378513715 -0.5086347723454026,0.7729587460787144 -0.6080548440421012,0.7170415568727151 -0.7022553428674314,0.6517782244131354 -0.7904609044816056,0.5776162320632778 -0.8719325453321574,0.4950631494988045 -0.9459721216954478,0.40468378150451656 -1.0119265712478125,0.3070969957025085 -1.0691919145615998,0.2029722454534948 -1.1172169951128552,0.09302580573782393 5.31662901731147,-4.724265277040558 -0.9011388574600829,0.27441028622719443 -0.9453719092945363,0.16862001439285734 -0.979762507267921,0.058549943696036166 -1.0039600412283818,-0.05497465308242511 -1.0176790957580977,-0.17110214821650516 -1.0207013261003226,-0.2889595128374225 -1.0128769678963607,-0.4076573991166583 -0.9941259722166649,-0.5262953243127555 -0.9644387592599344,-0.6439669296155159 7.0761234139820886,-0.7597652863046989 -0.8883576977268035,-0.37046406522294717 -0.8580222712116523,-0.48180192301431646 -0.8172318616724539,-0.59057013407282 -0.766203355095314,-0.6958969073076702 -0.7052217190977359,-0.7969284169442545 -0.6346385484338555,-0.8928339013586424 -0.5548702396282152,-0.982810646764662 -0.4663958036691156,-1.066088829355607 -0.3697543275412585,-1.1419361901839409 6.206593857826718,3.4926195004700276 -0.46243940890326485,-0.8715140155111243 -0.36941391873405394,-0.9412418969778145 -0.2696045276925929,-1.0025596323225017 -0.16371048000782196,-1.0549000720813098 -0.05247484748355191,-1.0977513102893681 0.06331968631040752,-1.1306599097860328 0.18285527130946377,-1.1532338138165414 0.30528354279215364,-1.1651449280119408 0.4297304558049859,-1.1661313584728816 3.0274372322293317,6.4524528369582725 0.19846885202227327,-0.9944113588501153 0.31569454024797494,-0.9923208334962652 0.4332232027806242,-0.9793847963379818 0.5501528585630382,-0.955570718589243 0.6655795070107189,-0.9209166786603191 0.778602442163475,-0.8755314325105701 0.8883295642417721,-0.8195940949719898 0.9938826607120319,-0.7533534328648273 1.094402629072036,-0.6771267726949475 -1.2830813411897424,7.017153602681105 0.8041725638940704,-0.6665585940442043 0.8963285384440667,-0.5922943897615625 0.9821272555506368,-0.5091763623023411 1.0608265088680042,-0.41772245935403873 1.131724831899561,-0.3185084938634617 1.1941658089765212,-0.21216502350874578 1.2475421521478154,-0.09937391893059555 1.2912995220251986,0.019135362010104018 1.3249400718847681,0.14258977516216476 -5.124110259315685,4.972458964321646 1.0776935130954257,-0.014617999659805037 1.1052656820037754,0.10174558999354133 1.122364369378701,0.22132196898718348 1.1287072083395344,0.3432483474843906 1.1240792477926078,0.46663993976515883 1.1083345502677133,0.5905950488878773 1.081397415896646,0.7142002620123264 1.0432632251456084,0.8365357294198503 0.9939988948289056,0.9566804997904796 -7.0662570561234475,1.0737178839512609 0.8850619288248538,0.5704619230480859 0.8502964365207788,0.6629739435102238 0.8082835602126153,0.753281839452626 0.7591654444215123,0.8408812891105981 0.7031171112117249,0.9252771588650148 0.6403458697538866,1.0059855593876392 0.5710906009590246,1.0825358642142078 0.49562091954834386,1.1544726833153618 0.414236216356727,1.221357784382036 -6.600938646180637,-2.7172280452857933 0.45390031692171817,0.9812045166788153 0.3752377694487734,1.042446712664841 0.29148214396117567,1.0980381280391214 0.20301478000945394,1.147617495456558 0.11024065642153857,1.1908482555521545 0.01358683589378984,1.2274200294377806 -0.0864991791230807,1.2570499953763203 -0.1895511734391846,1.2794841644184487 -0.2950860229359904,1.2944985501335537 -4.402605568787024,-5.626303002344329 -0.1435225533598441,1.101679316616682 -0.24351177219411113,1.1129431534379393 -0.34495681613013573,1.1167049540409835 -0.44734374606673555,1.1128493846955223 -0.5501508680575853,1.1012944795652402 -0.6528508239625808,1.0819921189985848 -0.7549127099927802,1.0549283801228029 -0.8558042154972867,1.0201237581798352 -0.9549937742557688,0.9776332574960804 -1.0519527204831718,-7.072453648566935 -0.727469791776926,0.8809505330885798 -0.8195514645843502,0.8379735183618635 -0.9089998447703493,0.7877828958932156 -0.9953129664431799,0.7305432248375183 -1.0779992217193097,0.66645178787752 -1.1565794072049158,0.5957379397721354 -1.2305887297252696,0.5186623315651673 -1.2995787639068652,0.4355160129845501 -1.3631193543732678,0.346619415994013 2.5791995445044336,-6.675882007392417 -1.115121621723901,0.3718358094046721 -1.1718853644971716,0.2862770487373467 -1.222643544311211,0.19586904520726023 -1.2670481413836114,0.10101137207071531 -1.3047767800352261,0.0021265235489948964 -1.3355341623103243,-0.10034168858929604 -1.359053403315059,-0.20592982505013424 -1.3750972631723783,-0.31415658971127414 -1.3834592708449804,-0.4245246747683211 5.544238494827283,-4.53652267383211 -1.176622677828476,-0.28155105414120385 -1.180559953800639,-0.38527334218535714 -1.1768098606047772,-0.49006289672161074 -1.1652776540893797,-0.5953966115778115 -1.1459024095469772,-0.7007447158748619 -1.118657442332804,-0.8055728868168615 -1.083550599706797,-0.9093443873253761 -1.040624422499235,-1.01152222081501 -0.9899561756549957,-1.1115712953298953 7.068342252830661,-1.2089605892120119 -0.8768391373523059,-0.8844776605057518 -0.8256506002029624,-0.9761289856584767 -0.7672822315738159,-1.064717850088087 -0.7019210052535101,-1.1497446437757617 -0.6297864645433009,-1.2307212845735904 -0.5511300097903984,-1.3071732550222208 -0.4662340621713099,-1.3786415952363171 -0.37541110642074216,-1.4446848444983544 -0.27900261563132744,-1.5048809243645138 6.750825368604211,2.441171043723074 -0.289771301887626,-1.2490387267689869 -0.19731632802592003,-1.3013240163295023 -0.10025594645333058,-1.3472489605833147 0.0009920358680233221,-1.3864787873106792 0.10598760932353457,-1.4187053045182836 0.2142702130723535,-1.4436482951828538 0.3253604709772162,-1.4610568112538118 0.4387620059833637,-1.4707103619262938 0.553963326600666,-1.4724199915564213 4.670439778877181,5.462173987310251 0.4195795549225636,-1.2515660390402559 0.5270349121765889,-1.248176754163353 0.6351689773131284,-1.236914767168571 0.7434494770888449,-1.217705923483237 0.8513385636921527,-1.1905103395287284 0.9582949496711421,-1.1553227656670089 1.063776064657958,-1.112172819290791 1.1672402261327335,-1.0611250868186488 1.2681488164040644,-1.0022790938138826 1.3659684579408236,7.064230857094373 1.0414855292345635,-0.8727277416160177 1.1327065067326316,-0.8133276820440756 1.2204358554058103,-0.746781567254402 1.3041763211083577,-0.6732987856695161 1.3834433474278711,-0.593121141209096 1.4577671028394832,-0.5065220798086472 1.526694460747379,-0.41380579277745255 1.5897909250898579,-0.3153061998569484 1.6466424943557598,-0.21138581526862765 -2.303142542941714,6.825768729816019 1.3829558318140585,-0.20770679437060835 1.4307626681618615,-0.10835560731449334 1.4718543768553758,-0.004642847699386721 1.5059094332377612,0.10299544380674774 1.5326338290013553,0.21410174219609246 1.5517624280553832,0.32819873755539675 1.5630602191925504,0.4447911169042982 1.5663234606802234,0.563367422255439 1.561380712267848,0.6834019784330252 -5.380109479793205,4.804356883922239 1.3265094002520357,0.5576080557039376 1.315793554526067,0.6687964821678349 1.2970196737323647,0.7802750579046176 1.2701341928770944,0.8915023425999067 1.2351182695104654,1.0019324115094435 1.191988089001228,1.1110170125254086 1.1407950388747992,1.218207741990554 1.0816257511380343,1.3229582314504569 1.014602011972812,1.424726337478205 -7.060119461358113,1.5229763266696494 0.8769412237961092,1.0274046150267964 0.8272469732905847,1.1060109368749238 0.7722709185812988,1.1821461137943743 0.7121383524569325,1.2554948411490017 0.6469922046934045,1.3257482429972356 0.5769927102480494,1.3926048186845605 0.5023170280864662,1.4557713722841186 0.423158811527486,1.5149639223642026 0.3397277311183302,1.5699085896078913 -6.955501992043025,-1.8507274530792728 0.32394924962039795,1.3461350334008415 0.24329686995025668,1.394441046561795 0.15900253931118868,1.4381503436525662 0.07131942973612126,1.4770352876607546 -0.019486282502782615,1.510881840135383 -0.11313613336827189,1.5394902655726668 -0.20934012435996863,1.5626757986272963 -0.3077975107392632,1.5802692722720906 -0.40819762267824444,1.5921177051250766 -5.498139132115469,-4.656567013479588 -0.32790246252702104,1.3805675807034845 -0.4227106606183355,1.3874667860734178 -0.5187314147265454,1.388592843160211 -0.6156356224829267,1.3838538900761392 -0.7130885194043657,1.3731760559729764 -0.8107506342250446,1.356503777793705 -0.9082787609606697,1.3338000673713992 -1.0053269451663311,1.3050467280247346 -1.1015474818080833,1.2702445199280987 -2.976759393782416,-6.570010023791298 -0.9383997736231748,1.1105785401589259 -1.0271720513715223,1.0736772706761428 -1.1144426672880599,1.0310343282874754 -1.199874708600376,0.9827137594134854 -1.283134148024729,0.9287982969183872 -1.3638908426556497,0.8693892228559719 -1.441819526021817,0.8046061791950194 -1.516600790651026,0.734586926876517 -1.5879220585063791,0.659487053687144 0.12468893497069189,-7.219943665887243 -1.3708468628793753,0.5824752359910548 -1.434281297879977,0.5087702002868184 -1.4937850075110077,0.43056963435518014 -1.5490834858215976,0.3480812801624751 -1.599913106129378,0.26152840350084716 -1.6460219585666493,0.17114922927778764 -1.6871706585585997,0.07719633303871376 -1.723133123999034,-0.0200640097930318 -1.7536973189635319,-0.1203525153615459 3.2092524529875277,-6.4780294815489015 -1.5222658035321786,-0.09875612513606313 -1.546113837103718,-0.19420182327186808 -1.564403164851825,-0.2919314033189977 -1.5769794040369618,-0.3916356611546661 -1.583704838032446,-0.4929962552050995 -1.5844589200053747,-0.5956865842739774 -1.5791387311710707,-0.6993726919211127 -1.5676593922644457,-0.8037141950730273 -1.5499544269876822,-0.9083652344797457 5.68177486690378,-4.484045357510624 -1.347224325469199,-0.7903212804932309 -1.3254465183272544,-0.8874536571743761 -1.2976359051970405,-0.9841480303131362 -1.2637913477277465,-1.0800574074039417 -1.2239307479203063,-1.174833966326716 -1.1780911132849639,-1.268130067305762 -1.1263285694459313,-1.3595992687288714 -1.0687183199922572,-1.4488973441447257 -1.0053545535090365,-1.5356832977472692 7.063649702141461,-1.6196203756535965 -0.8698926895853134,-1.34145842748039 -0.8061155654680618,-1.419432286745348 -0.7370991929901578,-1.4943038121939338 -0.6629971402717985,-1.5657602440158769 -0.5839804697757529,-1.6334965171009799 -0.5002373498462873,-1.697216199957083 -0.411972617281549,-1.756632413942043 -0.3194072919395694,-1.8114687303089454 -0.22277804450033045,-1.8614600426159598 7.085414324586253,1.5647165008338249 -0.1813358973006416,-1.6260294968889326 -0.08826970216614427,-1.6676553510921508 0.008126239852742856,-1.7041342719759314 0.10757438568836619,-1.7352531835433496 0.20978486585120493,-1.760813687099187 0.3144562486192086,-1.7806327341395445 0.4212763395935184,-1.7945432599573508 0.5299230146229377,-1.8023947761557793 0.6400650840082989,-1.804053920358598 5.739281600682332,4.455246898228637 0.5778343094908536,-1.5708661640518926 0.6809285565009162,-1.5663606014979052 0.7847153430499247,-1.555721622324171 0.8888499270132826,-1.5388810578602374 0.9929829828924426,-1.515789408292747 1.0967615864704925,-1.4864161103369327 1.1998302139687382,-1.450749753989399 1.3018317531111023,-1.4087982476126584 1.4024085234659935,-1.3605889307330017 3.281370775054924,6.493254663389514 1.2461480477269191,-1.1735902750765632 1.3374374542383975,-1.122818482861291 1.4266003656876052,-1.0662060538786022 1.5132960584708144,-1.003845167235994 1.5971879604783368,-0.9358468311291972 1.6779446551092576,-0.8623406886451761 1.755240875892241,-0.7834747713724823 1.8287584890505855,-0.6994152012853903 1.8981874613732401,-0.6103458415020029 0.18305933913303818,7.282955400804873 1.675458244151912,-0.50571987558925 1.7351423395378873,-0.41842578948192966 1.7902898154557647,-0.3268181147672635 1.8406349388296661,-0.23113159354447532 1.885924058374826,-0.13161607095763372 1.9259164220547262,-0.02853587695801707 1.9603849630889556,0.07783083474539865 1.9891170523224133,0.18719278895697755 2.011915214846127,0.29924633078601914 -2.9593206060237094,6.668328064897338 1.7634082720990278,0.30007624038698566 1.7779812984337866,0.40613803850540364 1.7865286687355137,0.5140569072026864 1.7889156192705116,0.6235031224847347 1.7850249532833686,0.734138723771963 1.7747575033537828,0.8456184312377957 1.7580325465955866,0.9575905878037076 1.734788171428363,1.0696981233963925 1.7049815947717946,1.1815795390100874 -5.539161514584009,4.763939820998715 1.4771366580124266,1.0763322327386788 1.4423962049452541,1.1790051101824446 1.4013874247849571,1.2806528382578932 1.3541357585326352,1.380918449061852 1.300686108322111,1.4794453475992384 1.2411028482026154,1.5758783414095063 1.175469781631051,1.6698646715957466 1.1038900455833698,1.7610550425442852 1.0264859613315878,1.8491046476176933 -7.0566011679306655,1.9336741881072044 0.871551437282676,1.4486872015096282 0.8119237778295769,1.5170666170029108 0.74827406904339,1.582943463105778 0.6807090034118062,1.6461075339748277 0.6093455687633877,1.7063532260600454 0.534310848132975,1.7634800219812945 0.4557417975254623,1.8172929656581545 0.3737850019613518,1.8676031277050953 0.2885964102309231,1.9142280601197115 -7.190695211263943,-1.104475219609128 0.235083585052962,1.707917055160209 0.1524268505381201,1.747627337225893 0.0670383422813643,1.7834318975346974 -0.020900808013919914,1.8151784400384088 -0.11120176222050304,1.8427229428459668 -0.2036683490578639,1.8659300268873693 -0.29809745436151047,1.8846733079149516 -0.3942794276148902,1.8988357310783073 -0.4919985039719279,1.9083098873415452 -6.247887490460627,-3.7438559384468704 -0.4647086838573813,1.695087931959364 -0.5573166776901246,1.6990118138330672 -0.6509085866310471,1.6982416559650915 -0.7452572415433707,1.6927078791514987 -0.8401315920337851,1.6823515568603682 -0.9352971946609188,1.6671246101094255 -1.0305167103570767,1.64698998035729 -1.125550410087584,1.6219217799893215 -1.2201566877520804,1.591905420022016 -4.375560038236941,-5.834098545396046 -1.1145832848465318,1.4025325353669302 -1.2021772068941061,1.3692715615351574 -1.2888266111242643,1.3312774952748043 -1.3742942591120197,1.2885752488239461 -1.4583434925599903,1.241201088599496 -1.5407387599153282,1.1892026248835919 -1.6212461429462053,1.1326387776340425 -1.699633882213618,1.0715797184123517 -1.7756729003743033,1.006106788467548 -1.8491373222521332,-7.0636876069380605 -1.6057264645458957,0.8684675822455574 -1.673863736878019,0.8026769677991865 -1.7392566700257532,0.7328785619306188 -1.8016958043044013,0.6591885379726534 -1.8609766539636325,0.5817333279957211 -1.9169001893403959,0.500649408110803 -1.9692733096948416,0.4160830617493332 -2.017909305744581,0.328190121327367 -2.0626283109299095,0.2371356887402385 0.9582097184587468,-7.247942424908729 -1.8518222758495426,0.1721381503081716 -1.8889503860343808,0.08388025199121785 -1.921954864564313,-0.007003726180897729 -1.9506877329144032,-0.10032417888871237 -1.9750096160605608,-0.19588397042670636 -1.9947901039788718,-0.29347882076825726 -2.0099080959844002,-0.3928977083383245 -2.0202521271596936,-0.49392328873773295 -2.025720676152602,-0.5963323286293303 3.630631795832457,-6.35675040345717 -1.8039508449559065,-0.5779328264717947 -1.8033456384904554,-0.6747274665011673 -1.7978855170879342,-0.7723249827124619 -1.7875081331283127,-0.8704920296127909 -1.7721620285707544,-0.9689916691252876 -1.7518068183156146,-1.067583867875527 -1.7264133512321322,-1.166026003233057 -1.6959638484515906,-1.2640733771172137 -1.6604520185688898,-1.3614797365605682 5.771153110651255,-4.5194652589262745 -1.459779749011716,-1.260848785996913 -1.4207322830258349,-1.3505774577043042 -1.3768723759087962,-1.439132789163736 -1.328233984600061,-1.526274603148721 -1.2748625286217106,-1.6117636599190917 -1.216814865651223,-1.6953621878189153 -1.1541592430732024,-1.7768344132757932 -1.0869752255251512,-1.855947089133565 -1.0153535984979243,-1.9324700202494256 7.060603751900949,-2.006176585288401 -0.8653837272084601,-1.7627657275821633 -0.7934301577688103,-1.8306608567531129 -0.7174830548177908,-1.8955698769457427 -0.6376680725335078,-1.9572840746339608 -0.5541210872281042,-2.015600081867248 -0.46698796808856,-2.070320356699497 -0.3764243259732325,-2.1212536537315003 -0.28259524069338937,-2.1682154837840955 -0.18567496724957522,-2.211028561740079 7.305189638553529,0.8119442173083655 -0.10919271556333854,-1.9957274965389047 -0.015333653444393747,-2.030273434842826 0.08104579464320949,-2.0604778315939853 0.17974754976353324,-2.0861970257903693 0.28056617863288835,-2.107296289275169 0.3832892924786435,-2.12365018107036 0.4876979623151314,-2.1351428840538205 0.5935671498606254,-2.1416685232411368 0.70066615328669,-2.1431314649636093 6.4656133164537195,3.5174076532180223 0.6911569690862223,-1.9128137579524491 0.7921382553121674,-1.9076794631478151 0.893741378793905,-1.897529378210841 0.9957268176822254,-1.8823083871050983 1.0978517462167616,-1.8619725002811407 1.1998705410901067,-1.8364890265217895 1.3015352961090372,-1.8058367221069602 1.4025963441468718,-1.770005916913881 1.5028027853690418,-1.7289986171157423 4.663370479615608,5.7082076759064435 1.4071142871473086,-1.5170269626565158 1.4989777085145022,-1.4721930045165124 1.5894389672032503,-1.422467256542781 1.6782549471853798,-1.3678927203761688 1.7651838272781788,-1.308523968643918 1.8499856157225167,-1.2444271064188541 1.9324226836053242,-1.1756797085123551 2.012260296053597,-1.102370732637965 2.089267140124491,-1.0246004085283005 2.1632158483246826,7.0575198968638375 1.9198049906184735,-0.8622998721713486 1.9874579766281926,-0.7841833477384341 2.0518830838657465,-0.7020875477049842 2.112872344963506,-0.6161476070943479 2.1702235097708353,-0.5265088464604801 2.2237405240585844,-0.4333265280663525 2.2732339977681875,-0.3367655901971105 2.3185216618235813,-0.23700036005942593 2.359428812550277,-0.13421424575888352 -0.6656787161579558,7.3624368521983214 2.139632717228224,-0.0462472808185197 2.171596483651328,0.05321294510246588 2.199000798623601,0.15508786310548572 2.2217063186663495,0.2591709206383612 2.239582962489777,0.36524838683906324 2.252510258161834,0.4730997641890369 2.2603776721232407,0.5824982162919241 2.2630849193225515,0.6932110109834966 2.260542253774645,0.804999977944064 -3.4041835106035876,6.5744762294502905 2.021676670949006,0.8043811117006499 2.012013287805189,0.9095490441231959 1.997173239333705,1.0151577748752914 1.9771086410819123,1.120961605751674 1.9517829719915198,1.22671182330825 1.9211712347279786,1.332157214304715 1.885260092981781,1.4370445889850174 1.8440479853761644,1.5411193111764874 1.797545215662609,1.6441258341775153 -5.645262241161646,4.80727570030497 1.5742741763013157,1.553379788297704 1.5236537260072112,1.6473779593246718 1.4680621371767302,1.7397451452427504 1.407551456152305,1.8302352912220528 1.3421854086661256,1.9186039946372944 1.2720393471864782,2.004609043626104 1.1972001739515008,2.0880109539348837 1.1177662397507788,2.1685735029735866 1.0338472185586909,2.246064259999585 -7.054436041826733,2.3202551113609786 0.867774749310172,1.8461833755623047 0.8011711546683671,1.9067149118716316 0.731401772666004,1.9648086533067044 0.6585569453867777,2.020317472638993 0.5827334231584302,2.0730976248019317 0.5040342369306927,2.1230090147578267 0.4225685597701556,2.1699154605212385 0.3384515576578906,2.2136849509057157 0.2518042297902525,2.254189897567997 -7.35478772768559,-0.4448537656738978 0.17150085949668892,2.0642277888572096 0.08708131766468341,2.0978726554361913 0.0005373000490749291,2.1281048355977674 -0.08799462304833128,2.154817577529812 -0.17837303821005435,2.177909546318574 -0.2704519020699365,2.1972850312191667 -0.3640807630212919,2.212854144596122 -0.45910499114214076,2.2245330121915856 -0.5553660160011304,2.232243954390839 -6.781057116945902,-2.9063852193245907 -0.5677490097158682,2.0247393660282 -0.6594900598122138,2.0266667825107447 -0.7520312538715643,2.0246296075894463 -0.84520667875492,2.018575268296388 -0.9388477596076825,2.0084579749623117 -1.0327835323184331,1.9942388417790653 -1.1268409211079984,1.9758859965700424 -1.2208450208264026,1.9533746795592322 -1.3146193835277131,1.926687330945498 -5.407986308882016,-5.032389563169943 -1.2565396402686986,1.7253732326699094 -1.3439792221116988,1.6947313889786813 -1.4307768321459235,1.6600710761853747 -1.5167579313012283,1.6214009716356657 -1.6017478462951544,1.5787370591478123 -1.68557206763046,1.5321026474657344 -1.768056548664788,1.4815283767916583 -1.8490280052827188,1.4270522133480483 -1.9283142156987196,1.3687194319361708 -3.3949297412525112,-6.571879437619515 -1.8053485047203708,1.1970189427117077 -1.8772042677573637,1.13711244089086 -1.9470401680902114,1.07364419796545 -2.014695005311083,1.006683540086442 -2.08001000346907,0.936306709661892 -2.14282909753355,0.8625967789724882 -2.202999216725459,0.7856435522145659 -2.2603705642566894,0.7055434560878382 -2.3147968930244787,0.622399419059775 -0.9769503554748553,-7.342141284638814 -2.140140771333222,0.5007041607914857 -2.186920562912192,0.41864262254125606 -2.2305426810143985,0.33393454248906096 -2.270879716846963,0.24670163996864858 -2.307808955406813,0.15707129084705684 -2.341212614624297,0.06517634663418903 -2.3709780775452316,-0.02884505619090305 -2.3969981171606207,-0.12484969637012 -2.419171113502699,-0.22268947729037336 1.5625987373614834,-7.250414875618702 -2.212244663335767,-0.27944055588395145 -2.227490964214894,-0.37358602482200354 -2.2388291866024588,-0.46911528023218807 -2.2461820659074405,-0.5658691363852313 -2.2494787253481547,-0.6636847272379498 -2.2486548377428974,-0.7623957596693174 -2.2436527773619304,-0.8618327734915567 -2.234421761566516,-0.9618234078486125 -2.220917981975731,-1.0621926736061198 3.9252508200360765,-6.30506410881469 -2.005221997022943,-1.0463465994988894 -1.9863891169541574,-1.1407790326245504 -1.9633849686492724,-1.2351411952373041 -1.9361925927462025,-1.329256203146457 -1.9048023209195861,-1.4229459409986305 -1.869211839803043,-1.516031356588627 -1.8294262432206878,-1.6083327580846003 -1.785458072604598,-1.6996701137088053 -1.737327345491245,-1.7898633534102544 5.8324793942769375,-4.614893818667582 -1.5377845952203515,-1.7020736421058302 -1.4866309666132622,-1.7847463679437396 -1.4315692285168709,-1.8658857353914016 -1.3726453691650704,-1.9453193180896733 -1.3099126626173643,-2.0228760764924516 -1.2434316264112866,-2.0983866567287635 -1.17326996721782,-2.171683688142835 -1.0995025145436728,-2.2426020790401964 -1.022211142540229,-2.3109793101649103 7.058515320000424,-2.3766557254403153 -0.8622921924820233,-2.160278845884818 -0.7847301638349506,-2.2204277052462373 -0.704022378642037,-2.277756559018485 -0.6202725057464349,-2.3321192118707046 -0.5335905815941828,-2.383373315163709 -0.4440928664250805,-2.4313806331152676 -0.3519016896498499,-2.4760073035584185 -0.25714528461880093,-2.5171240928616783 -0.15995761300175104,-2.554606644589583 7.457062787268789,0.14782542511743202 -0.05892196352460388,-2.3575058396694146 0.035664254652971294,-2.3870431023751593 0.13222540204183986,-2.4128153690172667 0.23061270401048972,-2.434721321501115 0.3306727398804554,-2.452665481245589 0.43224767072204884,-2.4665584093179973 0.5351754754337676,-2.4763168977340015 0.6392901947629852,-2.481864151587139 0.7444221829151303,-2.4831299616894853 6.978753911335616,2.6622500100766473 0.7738455684901311,-2.261826336079068 0.8737352860608993,-2.2564166594119826 0.9741641227884443,-2.2467624765063405 1.0749565556561649,-2.2328204945450807 1.1759347296585574,-2.2145545337365604 1.2769187415663978,-2.191935636168779 1.3777269284066307,-2.1649421634840635 1.4781761602219277,-2.1335598831800553 1.5780821366655857,-2.097782043357981 5.677259686980854,4.870593794517831 1.5312955751957134,-1.8776729343403105 1.623882966083002,-1.8373494699408042 1.715487365565437,-1.792833778276318 1.8059283782401963,-1.7441465439533417 1.895025897107331,-1.691315955119883 1.9826004081869826,-1.634377707048941 2.0684732956863456,-1.573374993580174 2.152467147238667,-1.5083584863871238 2.234406058735871,-1.439386302056434 3.703301359610009,6.51193806711386 2.115624195082134,-1.2461617842759551 2.1890060069890325,-1.1753968805311672 2.259988073802006,-1.1010235919894598 2.3284077986857454,-1.0231245309198727 2.394105473791541,-0.9417892664900194 2.456924567856035,-0.8571142221443466 2.5167120101001075,-0.7692025613811211 2.573318469968484,-0.6781640620638711 2.626598632256176,-0.5841149794194678 1.28722604583659,7.391284126203075 2.448512389690734,-0.4407627902858735 2.4930124059493437,-0.34797575242096457 2.533981822970347,-0.2526282694499429 2.5712964638685207,-0.15485502318018973 2.6048372959633355,-0.05479623126383615 2.6344906654364593,0.04740254933791732 2.660148524484214,0.15159062850855776 2.681708650580134,0.2576123984610348 2.6990748574740167,0.3653075582525247 -1.2878428024344828,7.402714577289117 2.481518041434583,0.44123632453604245 2.490953717352795,0.5446807372344793 2.4961603259979768,0.6493004838530183 2.497068073206094,0.7549253032992382 2.4936139345961124,0.8613815216276706 2.4857418077938007,0.9684923184436087 2.4734026542631398,1.0760779997401997 2.456554630483396,1.1839562767655067 2.435163208224367,1.291942550507322 -3.719154261261764,6.542151078865608 2.2029187914126567,1.29048180874684 2.1754452838681573,1.3916650399232182 2.143570172270131,1.4924723346327937 2.10728730515865,1.592718956284358 2.0665980895716984,1.6922193190974468 2.021511541473444,1.7907872915156489 1.9720443241828605,1.8882365020559178 1.9182207746954987,1.9843806471282903 1.8600729178089352,2.079033800349251 -5.719900498304867,4.9081718694797445 1.640059654803565,1.9991019826623386 1.5784775834017637,2.0851631149653116 1.5128755015559534,2.16932487734735 1.4433122392853477,2.2514111611268106 1.3698540331229765,2.331247694849992 1.2925744679755553,2.408662347090484 1.2115544068581414,2.483485427374532 1.1268819085676398,2.555549984751991 1.038652133373688,2.6246921035395587 -7.053032763172297,2.6907511957628145 0.8650151299303843,2.2270228186392984 0.7933039712195296,2.281336483565397 0.7190357254939954,2.333315076051292 0.6422871901016833,2.3828516120768057 0.5631393575921777,2.4298416551644095 0.481677330605379,2.4741834742664395 0.39799023098328234,2.5157781987925603 0.3121711032038945,2.5545299705705844 0.22431681223892497,2.5903460925370183 -7.473924194413371,0.151001218957461 0.12431463085295036,2.4150498650151775 0.03840088485588922,2.444210969808111 -0.04921225975530774,2.470332104338766 -0.1384177989443458,2.4933356109711156 -0.229105537743294,2.5131475795813287 -0.3211622208705762,2.52969797103529 -0.4144716679463727,2.542920736132629 -0.5089149131472368,2.55275392985385 -0.6043703491397423,2.5591398207459974 -7.172849830121635,-2.1402570230454785 -0.646923192808373,2.3603860462439172 -0.7384230853346025,2.360966232151327 -0.8305804154579164,2.358105896223492 -0.9232686683365898,2.351764868532058 -1.0163594722878315,2.34190755256202 -1.1097227618903673,2.3285030016463963 -1.2032269440385903,2.3115249896477224 -1.2967390667457153,2.2909520757775113 -1.3901249904927795,2.2667676634503096 -6.185531580252899,-4.233175901921641 -1.370361794078093,2.063013849518967 -1.4581173588435092,2.034474388660584 -1.5454090921258228,2.002442616647812 -1.6321037361117305,1.9669202471614256 -1.7180677063765017,1.9279139332385284 -1.8031672711131819,1.8854352887374546 -1.887268731363605,1.8395009034037741 -1.9702386020269103,1.7901323514980447 -2.0519437934180473,1.7373561939499211 -4.604387748147033,-5.927248156346309 -1.970823741407827,1.5478148513616645 -2.0457403952422766,1.492606556347198 -2.1191068319811848,1.4342120271516876 -2.1907966032625836,1.3726750158443224 -2.26068450619411,1.308044080172067 -2.3286467606523615,1.2403725476512477 -2.3945611855290565,1.169718473257774 -2.4583073736964565,1.096144590748338 -2.519766865465911,1.0197182576509078 -2.578823320314342,-7.0594886060265765 -2.3840766140299365,0.8625479317590248 -2.438235285821335,0.785904811532248 -2.489904044997303,0.7067119063680423 -2.5389762133057445,0.6250508736586369 -2.5853478125440432,0.5410075539954846 -2.628917721993915,0.4546718812731285 -2.6695878328466165,0.3661377870335798 -2.7072631994121537,0.27550309915335447 -2.7418521869089005,0.18286943498048913 -0.30113066063604776,-7.520110041322312 -2.563654494366915,0.07343589414824692 -2.5911441320050272,-0.017120530473960116 -2.615448794089289,-0.10932156077663535 -2.636492615622572,-0.20305566503415662 -2.654203620453714,-0.2982081791315636 -2.6685138428461244,-0.3946614415931151 -2.679359444375919,-0.49229493314592787 -2.68668082599698,-0.5909854206569207 -2.6904227351116248,-0.6906071052769676 2.0117476508437377,-7.263167729619738 -2.4859950530464303,-0.7412331028046424 -2.4835509126298874,-0.8366319333341039 -2.4775452740983113,-0.9325912811845569 -2.467941071557263,-1.0289808793818622 -2.454705928851304,-1.1256687034621393 -2.4378122328206757,-1.2225211381796726 -2.4172372006929876,-1.319403147063781 -2.392962941504173,-1.4161784446204706 -2.364976511449811,-1.512709670971418 4.138865991925371,-6.311140587055377 -2.153331749017042,-1.4988711662798266 -2.120711144797852,-1.5894002732091224 -2.0845131241574677,-1.6793359882689742 -2.044743512361009,-1.7685424443550062 -2.0014131539610815,-1.8568835781873645 -1.9545379301256673,-1.9442233119855246 -1.9041387694935992,-2.030425736015104 -1.850241652519415,-2.115355291777405 -1.7928776092797847,-2.198876955614992 5.876369419641691,-4.752992377498742 -1.5940006982706336,-2.120953183086442 -1.5340539336056338,-2.1972464896141446 -1.4708800312022845,-2.271840060822754 -1.4045274597940107,-2.3446062373166257 -1.3350495295043032,-2.4154187539215997 -1.2625043512479408,-2.484152918031981 -1.186954789700792,-2.550685786758038 -1.1084684098743054,-2.6148963426424388 -1.0271174173382036,-2.6766656677218634 7.057021407855231,-2.7358771157049517 -0.8600807335876937,-2.5411304094205747 -0.7785056518449238,-2.5951340880772733 -0.6943880872421175,-2.646493013943285 -0.6078145572156188,-2.695100814534726 -0.5188757503987915,-2.7408539699236485 -0.42766643194086384,-2.7836519697214044 -0.33428534308389146,-2.8233974669007154 -0.23883509510274337,-2.8599964282537513 -0.1414220577220533,-2.89335828128074 7.5662958882312665,-0.45126010231466296 -0.02255715744364295,-2.71225912371861 0.0726419458038805,-2.738077294201986 0.16943086179793454,-2.760565483839727 0.26769353112398164,-2.7796496202740286 0.3673108205198048,-2.7952596613260923 0.4681606623156398,-2.807329714656966 0.5701181983455399,-2.8157981526192017 0.6730559281665336,-2.8206077221401173 0.7768438614142781,-2.821705649477316 7.353485629117785,1.8832382786420254 0.8355430128009544,-2.6116040598489505 0.9348407813336053,-2.606135593108455 1.0346021469111903,-2.5969846519731163 1.1346930904271133,-2.5841172745824537 1.2349779346364613,-2.567504305140595 1.3353195144689565,-2.5471214639949977 1.4355793500889504,-2.5229494117382103 1.5356178224953396,-2.4949738072308634 1.6352943514499358,-2.463185359449284 6.436749593857911,4.0445560819290876 1.6273805384814892,-2.2436496485151025 1.720683187574899,-2.2069479009351625 1.8132628844120688,-2.166583631667109 1.9049811525982676,-2.1225667775605928 1.9956994499981988,-2.074912374683592 2.085279352857974,-2.0236405715139654 2.1735827406664967,-1.9687766355833674 2.2604719815278713,-1.9103509535407568 2.3458101178118937,-1.8483990246096482 4.901597006850523,5.82549068293703 2.2710826247650147,-1.6401865451795743 2.3487525839859984,-1.5755013108640696 2.4245732896642807,-1.5075480352528672 2.498415871370824,-1.4363799037437417 2.5701530016490324,-1.3620549788365395 2.6396590754116147,-1.284636154844634 2.7068103879869483,-1.20419110614381 2.7714853115885205,-1.1207922290002585 2.8335644699777447,-1.0345165770254994 2.892930911095604,7.054554209683886 2.6981842048111986,-0.8576135354163483 2.752032890333169,-0.7711064921576138 2.803081982889367,-0.6820642681161644 2.8512254157636363,-0.590578240772615 2.8963601273032964,-0.4967439468020842 2.938386217448823,-0.4006609826086418 2.9772071009548853,-0.3024328991341605 3.012729657095278,-0.2021670910521749 3.044864375652608,-0.09997468046360325 0.6013895439932213,7.612481735140193 2.86086375307039,0.02832157926103207 2.885010456398902,0.12816336113372984 2.905682173590236,0.22954016281927636 2.9228066249254425,0.33233139721377825 2.9363157021985273,0.4364134619080886 2.946145586467793,0.5416598830381503 2.952236860862456,0.6479414635451377 2.954534618283219,0.7551264356761607 2.952988563843064,0.8630806175515886 -1.7547289064403628,7.443803528615831 2.7372130666514636,0.9298529227972239 2.7287202735870153,1.0330496293331066 2.7164240298479854,1.1366130126378806 2.7002934776076017,1.240405301472336 2.6803026814299074,1.3442871658107833 2.6564306951693197,1.4481178907582475 2.6286616227833974,1.5517555531141056 2.5969846729575465,1.6550572003701802 2.561394207448785,1.7578790319285105 -3.9502461719327755,6.562358600660417 2.333967548013163,1.7558899106832087 2.2931846570724304,1.8519661019405689 2.2486541391767503,1.9471897805551919 2.200390042760205,2.0414198608415504 2.1484115954060883,2.134515321809033 2.092743212902235,2.226335393730345 2.033414501673178,2.3167397453179674 1.9704602545620844,2.405588671278373 1.903920439939526,2.492743280008824 -5.7746119462323975,5.050201636202246 1.686372392088515,2.4212120664436014 1.616948688122534,2.5002586783578664 1.5442160393034214,2.57730651850585 1.4682323476934585,2.652225505424923 1.38906042816879,2.7248872493764935 1.306767958441327,2.7951652327912484 1.221427422586828,2.862934989215887 1.133116048126226,2.9280742805345312 1.041915736712781,2.9904632722336686 -7.052087011512526,3.0499847064862706 0.8629303280824274,2.595745017146996 0.7873534123368131,2.645007820055099 0.7096677105522531,2.692050448786347 0.629938977652813,2.736792679766168 0.5482358291238256,2.7791562510708303 0.4646296821217959,2.8190649603268696 0.3791946933275767,2.8564447608329715 0.29200769359732703,2.8912238557990264 0.20314811946718692,2.92333279059676 -7.563245847342756,0.6988440881890341 0.08823324860534854,2.7609991104875604 0.001063098223283987,2.786721907334254 -0.08749740863478905,2.8096983009631344 -0.17736195244827968,2.829870066270189 -0.2684420283083,2.8471816840549025 -0.36064703050956837,2.8615804181663975 -0.4538843397596395,2.8730163900115144 -0.5480594129251699,2.881442650340233 -0.6430758752296697,2.886815248222831 -7.468863877463804,-1.4360332425061415 -0.7089857926269758,2.697819826807887 -0.8005451554716387,2.69748163231111 -0.8926513835305911,2.6940975364420297 -0.9852047117431937,2.687636382652016 -1.0781040519103442,2.6780702415919677 -1.171247096024075,2.6653744609695025 -1.2645304213557438,2.6495277121258596 -1.3578495972009819,2.6305120332738454 -1.4510992931757585,2.6083128693389313 -6.783059260517831,-3.4630774864821205 -1.4621788442586023,2.4071868240638423 -1.550450423213391,2.3804356744218182 -1.6383703450498501,2.3505934482508053 -1.7258337018597842,2.3176588849215136 -1.8127352406091575,2.281634204436159 -1.8989694766468972,2.242525125716213 -1.9844308079653956,2.2003408812375085 -2.0690136300959523,2.155094227987121 -2.1526124515228275,2.1068014547153666 -5.558442113512342,-5.221573577371629 -2.1072781326568872,1.909227117274554 -2.1847549169290517,1.8579393178578414 -2.261001848659305,1.803775965484931 -2.335917672937228,1.7467660264649396 -2.4094018021140613,1.686941910621016 -2.481354430048185,1.6243394563465472 -2.55167664602844,1.5589979119415034 -2.620270548254723,1.4909599132341782 -2.687039356758561,1.4202714574992115 -3.8904062318287913,-6.571589661360861 -2.5881334274592547,1.241861441237404 -2.6481153877511616,1.1700131275825356 -2.7060839994592385,1.095749906074957 -2.761950213033998,1.0191287592759863 -2.815626608258455,0.9402097871405317 -2.8670274996870972,0.8590561599501996 -2.9160690407113066,0.7757340677673312 -2.962669326138993,0.6903126664495574 -3.0067484931773265,0.6028640202684414 -1.9097101145206352,-7.405108493865981 -2.8613759918658843,0.4579282730719001 -2.898547171852641,0.37128778119461003 -2.933083306969081,0.28290172737229113 -2.9649151407483174,0.1928505261066107 -2.9939758768924065,0.10121711994202087 -3.020201267055967,0.00808690407160384 -3.0435296963188563,-0.08645235200521029 -3.0639022662476307,-0.18231058570148662 -3.081262875454307,-0.27939552536599876 0.22776180645747957,-7.654668739867589 -2.90028955052842,-0.3789973805043303 -2.9111857229851736,-0.4733325862999038 -2.919041052470149,-0.5685896937422683 -2.923812053712851,-0.6646714455319227 -2.925458330863556,-0.7614788609449761 -2.9239426402140225,-0.8589113333768239 -2.9192309498553186,-0.9568667300560207 -2.911292496200211,-1.0552414938309767 -2.9000998372995923,-1.1539307469334972 2.35325696867433,-7.29882499145026 -2.697345710462571,-1.1997597507408386 -2.680671714697766,-1.2939444210319095 -2.660803387429354,-1.3881409513565188 -2.6377268690151396,-1.4822432957477076 -2.611431763068694,-1.5761446384486248 -2.581911168769679,-1.669737505554508 -2.5491617096121217,-1.7629138778609956 -2.513183558551219,-1.8555653048080387 -2.473980459505853,-1.9475830194039645 4.298468517463377,-6.363984593660064 -2.2651683718467837,-1.9353345103718596 -2.22193645153979,-2.0214276134554154 -2.175624508804205,-2.1066120322258257 -2.126249701255631,-2.190781784496494 -2.073832735459291,-2.2738311418593184 -2.0183978659976987,-2.3556547461595585 -1.9599728907755747,-2.4361477261131768 -1.8985891425516002,-2.515205813943794 -1.8342814766934197,-2.5927254619218445 5.908855533761226,-4.922464413413849 -1.6358202779777429,-2.5226257640201624 -1.5692955053020796,-2.5932589961800403 -1.500065879459271,-2.6621299994247636 -1.4281783696321781,-2.729141767778202 -1.353683282736469,-2.794198557181545 -1.2766342291797343,-2.857205997095292 -1.197088084966893,-2.91807120116232 -1.1151049501776669,-2.976702876811956 -1.0307481038455109,-3.0330114336901914 7.055916044727269,-3.086909090798528 -0.8584444491924899,-2.9098615758776276 -0.7738994344142469,-2.9588681808149033 -0.6872566068543762,-3.0053986225631633 -0.5985890269972458,-3.0493730952948823 -0.5079726009800538,-3.0907139632810043 -0.4154860157561444,-3.1293458582795495 -0.3212106710192444,-3.1651957749773914 -0.22523060794671323,-3.198193164379177 -0.12763243482301334,-3.2282700250417378 7.647438539304787,-1.0015005373163746 0.004567781907454105,-3.0611279233563238 0.10027058098862085,-3.084078294579527 0.1972810873435833,-3.1040397344504456 0.2955060895108801,-3.1209564769044036 0.39485026367199794,-3.134775657584413 0.49521626380430916,-3.1454473888210828 0.5965048143886094,-3.152924831818467 0.6986148055835883,-3.1571642659594517 0.8014433907797098,-3.1581251551497402 7.634914349088319,1.1693563285231008 0.8825837871794278,-2.9596462423307486 0.9815490839377503,-2.9542439999938708 1.0809136165099744,-2.945586437214608 1.1805716998583335,-2.9336466985598264 1.2804164510434077,-2.9184013230925387 1.3803398972804501,-2.899830290585541 1.4802330856475976,-2.877917064319874 1.579986194341373,-2.8526486304142225 1.6794886453698012,-2.8240155336308135 7.017515090133898,3.2539846852257455 1.7025099257591023,-2.6094992231968774 1.796460739121244,-2.575802662537015 1.8898592458224002,-2.53885568123016 1.982596069542538,-2.4986628133875826 2.074561656131962,-2.455232198988625 2.1656463906299948,-2.408575597340743 2.2557407148922763,-2.3587083967875486 2.344735245715192,-2.3056496206455535 2.43252089332983,-2.2494219293443223 5.842309084166963,5.087004344076888 2.394872106186412,-2.035635352638252 2.475841327563238,-1.976083454920456 2.5553432821466373,-1.9135596441937253 2.6332740601825506,-1.8480997056768587 2.709530614982768,-1.779742941133776 2.7840108791755966,-1.7085321483086204 2.8566138804733043,-1.6345135965856201 2.9272398568349445,-1.5577369988848488 2.995790370902924,-1.4782554798075438 4.200687129781542,6.522445994995223 2.899691139669443,-1.2821246693811617 2.9606958032797905,-1.2013630782380886 3.0194321732361686,-1.118161009772848 3.0758105737936887,-1.032582737198581 3.1297431669891296,-0.9446956660304551 3.1811440584177717,-0.8545702810602904 3.229929401470997,-0.7622800898447508 3.2760174999159375,-0.6679015627516378 3.319328908705941,-0.5715140696129026 2.221267826730852,7.445371722009767 3.171656889818607,-0.4087846067062628 3.2072981859970184,-0.31330375888632034 3.24005261554926,-0.21612464172160628 3.2698523751932385,-0.11733484146247974 3.296632326019761,-0.017024427979990264 3.3203300799247017,0.0847141264411988 3.3408860835641576,0.18778603121712933 3.3582436997349987,0.29209426441028086 3.372349286088479,0.39753966242858496 0.059832167072073617,7.781076975231315 3.1841565211829845,0.5135666137990142 3.19109416479219,0.6159530609289305 3.194762668089396,0.7191450864006583 3.1951219606397387,0.823038961081977 3.1921352448466678,0.9275293325695202 3.1857690557368414,1.0325093279292616 3.175993317538058,1.137870658522104 3.162781396972747,1.2435037268103173 3.1461101532074736,1.349297735048708 -2.1129258871737875,7.501137390583338 2.9318015400785953,1.4088525519971853 2.909061066891809,1.5096470853237633 2.882939984569731,1.6102775484968816 2.8534295333069792,1.710632647941722 2.820524564325069,1.8106004680646777 2.7842235679027283,1.910068587055079 2.744528697727361,2.0089241937688485 2.7014457915305456,2.1070542055805817 2.654984387971922,2.2043453870867182 -4.124870522910953,6.6258110091828755 2.431218843471356,2.202011424354943 2.3803039670898443,2.2927375203823175 2.326179901462581,2.38233364784508 2.268870175884672,2.4706902263035104 2.208401968753975,2.5576981125138687 2.144806101361411,2.643248719689126 2.078117027838175,2.727234136747356 2.008372821260423,2.8095472474311407 1.9356151559053387,2.890081849167146 -5.816054503248438,5.222593226282619 1.720012969939802,2.825282213147517 1.6448111899461821,2.8981962306248903 1.5668429651099416,2.969099308004971 1.4861623919404963,3.0378927819225936 1.4028269491020922,3.1044794551342676 1.3168974573235062,3.168763709305523 1.228438035622446,3.230651616690949 1.1375160538755722,3.2900510505888434 1.0442020817681055,3.346871794449868 -21.999343154324833,0.35104094304300304"
    />
  </g>
</svg>
