<?xml version="1.0" encoding="UTF-8" standalone="no"?>
<svg
  xmlns:svg="http://www.w3.org/2000/svg"
  xmlns="http://www.w3.org/2000/svg"
  version="1.1"
  viewBox="4.947068030435645 -0.2945358055289944 197.79433919343253 190.59875820806317"
  width="197.79433919343253mm"
  height="190.59875820806317mm"
>
  <defs id="defs4215" />
  <g id="layer1">
    <path
       id="path7"
       style="fill:none;fill-rule:evenodd;stroke:#000000;stroke-width:1px;stroke-linecap:butt;stroke-linejoin:miter;stroke-opacity:1"
       d="m 100,100 0.0,0.0 0.08298451467919676,0.0280283511264372 0.10089110764161546,0.026124703866386767 0.14822944717707287,0.01570709396419545 0.1436165403088978,-0.010762772204643056 0.09701082786709492,-0.01810346621000747 0.1211616883833102,0.014187125642095566 0.12860190041234887,0.07830414458037183 -0.1342784952495748,0.08805365464576198 0.04743488583383737,0.18925219464114207 0.14097197410501394,0.35965712472767564 -0.3282096819102236,-0.0652157466500114 0.013552238713842257,0.2622147101124881 0.06332535909849923,0.28388920992911437 0.04754057857709881,0.06519649438854458 0.02547080014069536,-0.1399122893939051 0.0482951805584122,-0.13458352395801398 0.17939179293053087,0.071088408880982 0.13651415864784155,0.10134733924199679 -0.08285768827867912,0.010375924057328234 -0.059331468162795886,0.25335646908146714 0.009294972789533062,0.8555967885201881 -0.605172928687324,-0.4398854538306409 -0.404135453187493,0.376756471391559 -0.48841672468357444,0.5310581810865074 -0.18585368077792452,-0.36435706969560044 -0.04526373440793918,-0.07106040219903775 -0.003037117489753882,0.3577748012367721 0.11899610732994859,0.5240923134042816 0.26658866662668856,0.1060407443652025 0.1872228146413022,-0.14837961768540708 -0.03798422596386786,0.1572511605704392 -0.3464067072528536,0.4192827398023127 -0.3910843596750908,-0.6605075363476942 -0.41582215792236354,-0.5775461748515482 -1.3490560854976508,0.6072038454596651 0.31501249052809044,-1.2425810846144572 -0.2783729496654246,-0.32130847317434075 -0.6109419600939816,0.08341784787035067 0.0005310154536317668,0.037733288023162004 0.453587505530777,0.006376199186490794 0.18042903936104437,0.22618935360421233 -0.28943035125676886,0.5534656538446825 -0.19017451290429221,0.2952919925445485 0.13491403305319238,-0.34728025573409127 -0.06102207220942546,-0.5032867730359953 -1.8306902852356188,0.030558836863605165 0.5103161892387504,-1.2102515359015342 0.12527128977552593,-0.9111400688790354 -1.4380697293427573,-1.014340477981861 0.45297304033341845,-0.4724550510645713 0.20299570740135664,-0.08192303993432404 -0.5632437191304831,0.054343292366297646 -0.5640938789199623,0.3572897522012397 0.3438329151963444,0.5784189773824266 0.5066169461671706,0.3456371668324749 -0.19736709152316223,-0.0583694728277635 -0.9683274687509851,-0.6179066642108637 0.5433762408608374,-0.8681452749433873 1.8235395851084775,-0.3987721640444164 -1.182052426481377,-2.3746796000691717 1.8110358533025703,0.15100615294410602 1.0230150637832338,0.21953143528577357 -0.004399977648716913,-0.7124850364755986 -0.03558194705784956,0.042544255870467396 -0.10775176549833532,0.5130240417642113 -0.6633032850813549,-0.15523031486284822 -1.0494610164324456,-0.6173352490490913 -0.448185943702029,-0.25378906077202146 0.6164901089492076,0.2532452370519138 1.2465148624722815,0.5044021646859136 0.11331213652945848,-2.393978994937285 1.5710017498302022,-0.3063082392156531 1.490399565744866,1.3923891879988304 1.4929491808685214,-2.347344624094873 0.8940451877278122,0.007833620021941101 0.16160910831965225,0.22866680216054647 -0.17996765854417163,-0.5894654333488205 -0.7035877785765194,-0.1619133094585834 -0.8977263709684138,1.0369790875328135 -0.47143544725661,0.7823661220498224 0.07344916568187898,-0.21322664949217085 0.8500765070983789,-1.5040767227415017 1.5130615893521622,-0.32447836463492763 0.34240837002950286,3.2620488382377886 3.079506337579147,-1.3569611535164938 0.6825253445263542,1.762568590021246 -1.0049633519746948,1.9708816222622545 0.48254524283545663,0.24957050479343934 -0.035548572516830745,-0.05601362958145728 -0.23208055737465827,-0.39730907894821144 0.7487457767972359,-1.3063958497912438 0.8377228948701116,-1.5056910248891882 0.2228319219419177,-0.5322239500928418 -0.22022711680760665,0.7817903058872986 -1.162305488886119,2.114613795846452 2.166404088611799,0.636621723350828 1.9806367021536886,1.6704907222777194 -2.989298982186881,2.1311675732920463 2.7123687941988948,1.8652714350042174 -1.6913508509611006,0.6017557253346411 -0.4980635367766979,0.09023168672578663 0.5455473240974271,-0.0221426751054139 1.5014585652641586,-0.15364150813343258 1.6051564917148369,-0.49345950325856336 0.43034487800197496,-0.7656396135041774 -0.3077900851555029,-0.5286281069975587 0.1399548772246959,0.03002692279032715 0.5648916059546707,0.7208388386895876 -1.2728234843136619,1.0721331294571002 -3.2628446473734414,0.5659596849924498 1.3511928384635183,2.5944246142264973 0.15589431233667028,2.7765652398753815 -3.745786233793794,-1.2622056507287027 -0.8408350733222107,0.9095748909002168 0.27594954086760026,2.164578437716216 0.07121455267012777,0.8480816496398376 0.034558790261598915,-0.5053168426218804 -0.11997242953600562,-1.5276502908654521 -0.008755092481550264,-1.3638570493500737 0.6860403888940994,-0.16087897158806186 0.8574263735215197,0.3803285976265016 0.02003028522801742,0.049808279638511976 -0.9295294273042884,-0.27724299145675957 -0.4125777548448042,1.2806325404704495 0.13597819670400213,4.21037390401537 -2.749101934657304,-0.7803637833578847 -2.429535409497774,-2.305387091694598 -2.039418351822377,3.998120464627732 -1.943577862805114,0.43982376844247995 -0.6009361350387366,-2.053094041648066 -0.10786839957798122,-0.7744858678192799 0.027929676198908737,0.7871733554189859 0.2941485710397558,1.8415485481118452 0.8584027105582521,1.2948484281983923 1.118205213711164,-0.4154422101288304 0.6895915364928697,-0.8748374283898528 -0.03490502182089017,0.15337394517960945 -0.941204143260407,1.3038486249315753 -1.6409362071959066,-0.2667579515580769 -0.7495488490849027,-4.4819905531611255 -2.3526186434250036,-0.08191076236450101 -4.478096998548281,1.6264776817399138 1.0960290318234485,-4.4266268900963865 0.2830512555583482,-2.1279554824743343 -2.1149856070994417,0.08427945150393157 -1.0388854669924115,0.114443847517677 0.6801902827539266,-0.011041011293784209 1.6391397064012807,-0.0731851183569745 0.8585504507064883,0.48817481673276575 -0.5630283024382976,1.4642400127552264 -0.7209076362462099,1.3345539554937602 -0.046123597350430146,0.008329314775977537 0.7439855802720245,-1.5545983869132698 -0.24067048189071727,-1.449255955487743 -4.961142471606863,0.1858505953606624 -1.2837153517566549,-2.6719052671334254 4.347668109228721,-3.3419364154803333 -3.734906208704871,-2.3788561807253217 -2.3096306013054146,-2.623968162174478 1.6573731871596635,-1.0486048290657521 0.8971341304440301,-0.19105571036458002 -0.9106952956991847,0.08525072181289772 -1.733060254096273,0.5790684978332195 -0.38310240233170134,1.3352948601270072 1.5059369811335728,1.4608471725709222 1.3635822085454805,0.8125222175898159 -0.1585790951362469,-0.038011043913400044 -1.9748398458347651,-1.114555564365105 -1.371195934838667,-2.272067726261241 4.779199199659757,-1.268575113349243 2.510022203281906,-1.6703323555178713 -2.9161143032943073,-5.956131232021079 4.213198055130263,-0.015668333954394598 3.6641452277041537,1.693643551567888 0.47748647922364285,-1.4353983501725196 -0.06650864201215256,-1.0270815162456302 -0.014467655393858081,0.6945797186469065 -0.23155328947690634,1.2777624913049408 -1.31275069588645,-0.09460411237712663 -2.3297244389976726,-1.3174629573223484 -1.7099734956893542,-0.8936392074925266 -0.0034301900038684607,-0.05186517456651529 2.071874901336102,1.0174839445914898 2.7935684493674415,1.1270209150504797 0.30448936239042723,-4.622851575601601 2.258877210478076,-4.137845740016573 4.218150870193227,5.6928279656318495 2.7030863783038086,-2.0694211033859204 3.2253394417800223,-4.20504506313965 1.661795925211237,0.5553066852279045 0.3606671889403543,0.770972613463158 -0.2129932957072782,-0.83472910373888 -1.0108125898630504,-1.078420544487102 -1.8599526686195702,0.9700385324208014 -1.73359755653739,2.494506500606036 -0.8831822362267303,1.5547740987773295 0.03932331266648248,-0.14959892960976617 1.2179748712759704,-2.2916539769889397 2.8630680399104875,-3.217555918006397 2.1999187652858296,3.7710254783943356 0.8264573946797356,5.445456991633435 6.738405957024156,-3.3598720260515478 2.105388523604219,3.008594131593526 -2.787566406329816,5.074723759143609 0.20746333721717747,1.402216186767788 0.7606333029048074,0.11247160462210104 -0.5010737570273989,-0.14559967528610684 -0.44950136546620456,-0.8213687896365229 1.251681233392631,-2.337515981585682 1.7932573002265286,-3.0533447277950785 0.7525036659904316,-1.8477115335716832 0.07007930926245365,-0.008769909245771146 -0.8988688159783749,2.3023851118778396 -2.3733686816247257,4.1532425877452965 3.0342361641021256,1.473564249253755 7.075452080620337,1.7227529939841446 -5.606405701211955,4.920025156769043 -0.860619271975537,3.0628404464599583 5.440904963898376,3.6411115330878374 -4.642218586159572,0.5904843914206737 -1.1652073180581084,0.1612363369607266 0.5517885878109041,-0.024813630172062062 2.1455866748173094,-0.19347450411885347 3.1849553614176926,-0.5652464323254236 2.279134935701208,-1.1983971381451823 0.1950159222519261,-1.4258786251283055 -0.6928243849349087,-0.9254738407448286 0.05969211652187312,-0.03773634962742278 1.0045727846366361,1.0325359140392294 -0.4982113994909696,1.937729511757965 -5.327526424191333,1.4606994515775682 -4.206209351860721,1.3660395867872808 4.057695887147418,5.898340176378397 -0.5790555300408329,4.509754992301978 -7.016080378494536,-2.343266199659439 -2.6826369767294835,0.28652626462010744 0.38013732189708094,3.916904751564118 0.2507125756435187,2.7671302125341555 0.05005374667089768,0.5141284398160764 -0.004431823452307526,-1.4258277915637905 -0.2713526671397801,-2.839712599621606 -0.12382088443246175,-2.5775438381135984 0.8997117132370818,-0.7577727883458607 1.5924623046244335,0.5302861347141175 0.8904150893233265,0.43848745685514245 -0.7042435116078423,-0.27453033737957355 -1.782985527820017,-0.43182080454988636 -0.5790375325581039,2.498268143112213 0.46560496829143005,7.260761850137186 -3.7372951785382185,1.5732826522997954 -5.257645590093759,-6.596958988495459 -3.0579297542821564,2.747897492150969 -3.877691680463826,6.267495647471179 -2.779321287564798,-1.1698328674862353 -0.8581108409687204,-3.5511741588956482 -0.1790043184537069,-1.5638100863471465 0.019094721517376456,0.7390566228952054 0.28425505930808015,2.596099194519283 0.9445931299007952,3.0074654439813173 1.7393027260231406,1.0731497920243385 1.8047558784480344,-1.2317391653701861 1.0735149282784988,-1.4837513063530707 0.043888135963428,0.017741631523705337 -1.1913531671424948,1.851466481080422 -2.4940183198381476,1.422152281876265 -2.257879477686842,-4.448340658561392 -0.8935576317928167,-7.1764445372207035 -5.417309102361344,2.51287023650427 -7.073813751452974,2.0445965283405343 1.5098110804243277,-7.202845595839108 1.8200648850456957,-4.859630632423716 -2.8482789826626913,-0.4482563062053089 -2.9178715555685955,0.27392730721373937 -0.5870954363483065,0.07658541732067192 1.6525226280292031,-0.08732765561362044 2.7178616602858625,-0.1395508253334441 1.6008914772976652,0.6291686645228793 -0.5172283917114271,2.064983750046679 -1.2828093449955844,2.4693986304754105 -0.6369256898391171,1.1912761864293202 0.4390633776121291,-0.9645145546379581 1.374527410676066,-2.861777700695143 -0.6281936190176935,-2.1655898742733797 -7.47586713649973,0.3654889533959249 -5.3365243426781035,-2.8524780834577967 7.137208455677353,-6.169267990244791 0.8968286283784437,-3.724605922370799 -7.619811107366942,-4.199619970512828 -1.5572680081806567,-3.6842066377387255 2.833303543387757,-1.433775831117373 1.6585742817924825,-0.3134844674247006 -0.8155275332158993,0.05849344407471335 -2.532102348991671,0.5504515190801413 -2.0186915798810787,1.5157100047011767 0.7159770990761984,2.331809433057657 2.669820593354629,2.1181832100311624 2.0411254137704873,1.1644079029606047 0.009891234164513207,0.04742840261891956 -2.4365330906108795,-1.287547188633539 -3.482063231920222,-2.982128209055304 2.1622558874263973,-3.3431390863532897 9.270331406860194,-0.8590202131473887 0.6575197685751846,-4.12216003407535 -4.294488442677405,-9.202551610936993 6.029178296676108,-0.6716047905315605 6.894232643088188,3.5471016009083627 1.8480849179181718,-0.9682624277645857 0.024793472902715052,-2.453378594580329 -0.0595348813762655,-0.5645165586911247 0.0019521113715370575,1.5291224781179977 -0.376679536527476,1.929891073822759 -1.7891226087327254,0.08856385411513656 -3.3287461723097067,-1.7980991817544663 -3.1562348187077447,-1.719477833284742 -1.3540148316113232,-0.6515666265935351 1.0969578209549837,0.4344670296058837 3.721767408815211,1.944494377256106 4.0998873073739475,1.5660688344524232 0.5976462578245503,-6.090358392079224 1.8451283979606927,-9.04623648702438 6.644700119231487,5.585164883967657 4.5628956125399895,5.211366617844746 4.3457092963867865,-7.191232007348887 4.511834568022991,-4.50284319172831 2.2133942647493825,1.2254623698251237 0.5796418913725176,1.3512096233876818 -0.15240397279488604,-0.7338586651600707 -0.9946351627322372,-1.8562480568957582 -2.2117332252786497,-0.3311682882554763 -2.873682412760914,2.6781464106109496 -2.3111615029073533,3.67851280042683 -1.1907680602162145,2.1352935358964373 -0.048359032924437884,0.011585707451970961 1.3136839496696098,-2.5150616951094236 3.3148744957248653,-5.085182880670153 4.571650875010334,-1.1642883470239695 1.5125299365084004,9.69286072849004 2.339448635984027,4.975603576388011 10.278955047402107,-5.310852902247333 3.9794836676401815,3.6181136653959953 -4.214047361743695,8.240358080241023 -1.3143915062707237,3.613887995616693 1.3848522046881158,0.675793667491476 0.43281505636066697,0.013583346111587957 -1.021317105734397,-0.2899282046732452 -0.576311808968569,-1.2603522029324807 1.604468956773104,-3.1626485961674007 2.6711416337599587,-4.390492245993741 1.6079142456784155,-3.441176987622839 0.42297669479640376,-1.312584200688491 -0.21089761485851,1.044957515796753 -1.851652924979902,4.1025173592186945 -3.463518471393087,5.973059696360835 3.1963270031335185,2.453317013399456 11.656222786648726,1.1189094790945404 -1.8760683738535704,6.595415387989078 -9.081143762906919,5.517191049295505 4.686492737867525,4.363720816760733 6.840745033245554,5.103476054575893 -8.35326828798486,0.18910259274899488 -1.874330743706139,0.23585128181520076 0.3329136639540309,-0.0008520342351090449 2.314641842415398,-0.2051286819192768 4.11542720683596,-0.5132598178200425 4.346983912623955,-1.2037052663889227 2.284473912988574,-1.9352592778719213 -0.2368496963575808,-1.9789204588349634 -1.0451392355008409,-1.2540361744042912 -0.07271757048744121,-0.1465225166498385 1.275052549982405,1.1599320485167652 0.6096084048940043,2.4636261478337644 -4.464962246275292,2.6934268486920274 -9.16040770385493,1.3461534620979592 -2.181160935307446,3.3148545432324 6.587272901669479,9.367774165854698 -1.7847157058469918,5.75245410421023 -10.083606535647178,-3.243612975098685 -5.247916384868674,-1.0951082422618441 -0.026010498625566925,4.780286786160076 0.5952227254614684,5.090170457916429 0.12641834651967088,2.4111455872327383 0.04855597360561603,-0.21065630844617544 -0.07430317740906389,-2.4964257663048386 -0.42286320067211136,-4.083164509863337 -0.25988324269077623,-3.756244209860668 0.9278322576561919,-1.5867355519045958 2.0979602689336048,0.3938822073271808 1.8936914944408016,0.8385999421921326 0.3122690233823846,0.18302173173540837 -1.681262907826138,-0.6878136089992353 -2.49926567540318,-0.3674959161167095 -0.6297286095373238,3.834120705786262 0.8397330199642994,9.98552909513515 -3.8324650158317013,5.208043497480617 -7.901114120162305,-8.249366647127658 -5.0761047098029195,-3.83324732853265 -4.488796621884887,9.227813645161405 -5.375244460755653,5.7485754332404895 -3.2248143405600302,-3.1770020532092076 -1.0428711650218219,-4.885181504285896 -0.25502365198114774,-2.388886927509276 -0.005902754716814229,0.42656423694546675 0.24215493705339952,2.848629341627287 0.8236490051219363,4.2476390916392575 1.8284242020936716,3.276829298225067 2.56931772137537,0.2708273371716814 2.351457869782706,-2.071962453810926 1.3887378577688594,-2.0081750752913194 0.15891554433761712,-0.1831845205738034 -1.270369255008589,2.1073746107573754 -2.9115076532277016,2.838121529830403 -3.6966182615720555,-1.7565154117373822 -1.9128219065368057,-9.873443537772062 -1.9126853954227698,-6.9117854074171134 -9.022198302554031,5.631520979945719 -9.23326865925489,2.006598727927212 1.6228771985148,-9.624492154918045 3.677800007196666,-8.063630179404527 -2.401377709312854,-1.8004507652930783 -4.659759404186616,0.3247325912342802 -2.644105548806543,0.236453613311582 0.2679724085118522,0.021589397864602233 2.712682880422399,-0.1777403587626054 3.7111514996944237,-0.1938636297838059 2.362658675290575,0.7095627787253704 -0.22636749234989395,2.4377109908988075 -1.670283885233033,3.4110835815221208 -1.3463715916729484,2.565250971697438 -0.23327832633783885,0.3883985149121827 1.0987566695240503,-2.257735715951938 1.9030198932076559,-4.088430622166044 -1.16086018547729,-2.7269564948812786 -9.537562629730353,0.49376444205293524 -9.832829737328552,-2.326944533970334 5.776582946814742,-8.13364722581727 8.625023865367815,-6.404591626532749 -6.525827712814582,-4.674018734770357 -8.978723717092699,-5.919945528287187 -0.15095364444667325,-4.3443633907712496 3.930761243110247,-1.7250173673504605 2.441450801747692,-0.4437494858950828 -0.46237409833040033,0.010236704691223508 -2.857524869492643,0.4658022501966741 -3.437388350086806,1.3935200326810104 -1.2550436420581903,2.611853332170668 2.140482234676206,3.178304987323145 3.68772666853787,2.6170624872758026 2.606920899448383,1.4516657011391203 0.23964578126637548,0.16322575659809502 -2.579586000799786,-1.3162505000887847 -4.7731262135530415,-3.2275684557675532 -1.8674124620005799,-4.750668017017517 8.43860229879872,-3.1113196577347253 11.304977460098684,-0.8433464405925264 -2.3800021197315004,-7.405673423599495 -5.308665980924765,-12.114607150358083 7.415856098271256,-1.6474441375074562 10.193671627078245,5.178262703270029 4.153704936681308,0.6322119541825515 0.5445236336769881,-3.2208770101840827 -0.10135342434922734,-2.3790298884546672 -0.025846864557422577,0.25819918215614734 0.0015817740938501856,2.3742606551756893 -0.5366400073805551,2.4995830511537207 -2.169130283864419,0.3356071558093987 -4.089006861660096,-2.064568566734323 -4.486435254113445,-2.5210281379306707 -2.940939150229866,-1.4522932236599289 -0.42158137619773584,-0.2294158179835577 2.547609767011707,1.130026641753588 5.371538993765398,2.9027904607547725 5.232787618463405,1.8627254027846476 0.9890214990724928,-7.0959031676722475 1.0800766136046036,-13.37867700617111 7.636115050545513,0.941525501985609 7.71069271506974,11.971064015142268 4.973709273964786,-1.6350041262257733 6.152153464305954,-10.462347886818343 5.416929746214933,-3.95995862132915 2.6517174430000807,1.9069501150838803 0.8090764007399969,1.935892733202273 -0.052637483176127375,-0.420893170331162 -0.8791431666381442,-2.2469602477149806 -2.1639865462082355,-1.7375273402059932 -3.4277980527559464,1.337273535028423 -3.6489520669367153,4.359389385789186 -2.730917940209139,4.596923321540281 -1.4413631537539686,2.6067708405354892 -0.16037782505659948,0.21645076845773303 1.2994408545994958,-2.4929185781034064 3.3592513419012846,-5.827810599651251 5.666990498956764,-5.582734075630206 4.846542764860132,4.869836124186875 0.5812290465821235,14.160451281015263 4.83937634367814,2.7918492024409716 13.618955643816491,-7.051230471139249 6.08796196900488,3.8193446094637054 -4.918591395928644,11.024466821731657 -3.577050888254803,6.633557046746745 1.0013612013995328,1.9408023585477707 1.6063866713111565,0.3118390334750387 -0.17360370255255475,-0.06895506583788347 -1.4835739248458992,-0.4840762016719964 -0.643193291431686,-1.706023203767785 1.8660680380569659,-3.865308781132768 3.4058130395650608,-5.511206356674222 2.6106372499535837,-5.029545470456242 1.0359877219726172,-2.8883727283202987 0.16053005561195732,-0.3980452858312802 -0.6868824449456667,2.4410140004783756 -2.966582658141647,5.995318093708406 -4.443357488634973,7.624280785625203 3.005977695431824,3.5173174764540107 14.754414004061601,0.5926056920663854 5.428676460356542,6.545465421462268 -12.701361122941279,8.781619166799885 -4.534561213347871,5.459443664059279 9.479217086966628,6.065874018064889 7.305258893205149,6.234159088999988 -12.674989591287641,-0.5001164799809033 -2.6054612494817775,0.31196180309440535 -0.0174120210395472,0.03975727868234458 2.223177122103124,-0.2015508615655648 4.475814850429771,-0.46242586498058813 5.797704426307803,-1.0411706094865565 4.817041643669711,-1.965293871818048 1.8961049562103653,-2.620789781970686 -0.7233540979692066,-2.4443201807267627 -1.3679487403420296,-1.539235419458123 -0.23350607965070935,-0.2772830252632872 1.4007682761879892,1.1841448871503388 1.5199038060154066,2.735670419104082 -2.5280968643806148,3.6353392079312528 -9.856767883035303,2.6297414781911783 -10.47519565061961,1.6011019474475319 1.6379446615275413,6.369033406852779 8.373695957344012,12.576912128511339 -3.2714458849410732,6.6582945418251995 -12.957534960910323,-3.975492047903117 -8.245217982528757,-2.8148673538493654 -1.132618390732091,4.616794449814904 0.878481886553999,7.138388508354353 0.39733154574301466,4.862220103367292 0.05951364258034175,1.6645910580404575 0.0447328208962432,-1.1339585569032522 -0.17013716193453376,-3.629717791611398 -0.5721359026143062,-5.270640320335417 -0.40265076059127125,-4.898848518721053 0.851464475386507,-2.5480243183020264 2.3683301562755332,-0.025222367022649905 2.74610375061269,1.0682560595863322 1.5459632982199025,0.7358903488976694 -0.626645311642676,-0.24521966665349737 -2.7014010863627504,-1.0671786988686165 -3.053026412697065,-0.07614510771850291 -0.608170461620432,5.243166675744533 1.2063745200780431,12.447563864924405 -3.4168940476524057,9.179061762507644 -9.652876099333838,-6.843434620446573 -8.174699635121328,-10.802121259134367 -5.1402740949131385,5.004593566156416 -6.448434655094502,12.651794984923669 -6.344595116227964,3.6038518752377797 -3.462172780465181,-5.153426685395317 -1.1908837396919125,-6.097332736347198 -0.33418234783434286,-3.2284533517228056 -0.04042077462243299,-0.04152901553359811 0.19969601981763674,2.7780143410864753 0.6755417407879918,4.903847885879202 1.6313282574297148,5.154168719364918 2.7717437119207773,2.7760013020485417 3.287096766527256,-0.7612268986504205 2.797144066147652,-2.853562976224879 1.6613710526760457,-2.4734721199137084 0.292937491638412,-0.41854489430190256 -1.2597372794549955,2.1750303434681655 -3.0734534004543406,3.7633695453742746 -4.563196056089225,1.1078018841142523 -3.883819463128404,-7.661336172766482 -1.3791923771470067,-13.732320059372341 -4.119601226340208,-4.206489610910978 -12.694568487344995,8.47257631368393 -11.066210789798738,1.6568886577301782 1.5139058323897672,-11.765623182159118 5.476912563142754,-11.409733347483382 -0.9720486020430315,-3.9608763390639723 -5.631500702047312,-0.02197224383947116 -4.894631808544553,0.44360009060272887 -1.850364472340857,0.16073159827870143 1.3024412536522405,-0.04571321683872043 3.7810156698683244,-0.273179847340117 4.639490626853721,-0.23822829996888117 3.1258147292740617,0.757529276170473 0.22957934050099738,2.6626317458981816 -1.8267230233630514,4.112880942891962 -2.0118589372753988,3.8494351945643075 -1.0167508755123151,1.9585171882196732 0.3484093220207143,-0.7941048342407555 1.828418370781982,-3.664350191513364 2.2827837997872464,-5.1798090382074236 -1.794021102373641,-3.1834698177598284 -11.288856261103533,0.5639813869432118 -14.000446563090499,-1.5375389321288822 1.4388859538231173,-8.856389507455347 13.7403492400273,-9.709826924601302 1.554545895202729,-5.956837350633521 -12.433237999645627,-6.435956574563377 -8.386417728192235,-7.2252915848665396 1.4224673871779316,-4.764642203849888 4.954158482300855,-1.9658140182638135 3.227776302547376,-0.579107646558441 0.0413594299239648,-0.05046171585360071 -2.836665717605058,0.3788606846204061 -4.338124816160615,1.1905522622142968 -3.2879927739221557,2.488863333613935 0.1499670829158788,3.660069057058138 3.5627555245400515,3.858450963254114 4.555257768047156,3.0123561517325044 3.100683723320188,1.6997195587933192 0.5007533289518236,0.29454461752126804 -2.548839324039186,-1.273991521641463 -5.420628835373634,-3.2570150017627952 -4.973543270458336,-5.3699573441193 3.4326993562872588,-5.502420397604027 14.545442167804694,-2.08477355597509 10.606016949167618,-1.8726309812540478 -5.675746449930415,-11.075925986460788 -6.035104004563166,-14.748772711064646 8.497791355936009,-2.8255411059913413 13.286640182159928,6.360821539353061 7.1614850025412125,2.883087722577642 1.7396607113101652,-2.9087425230419797 0.02499817457402287,-3.9702973101868366 -0.10394290769295367,-1.7063087414803348 0.012498975485129904,1.211113388367444 -0.019632734018770748,3.1739163700332185 -0.7067863367352203,3.010229407047568 -2.492004948522819,0.6168854580407483 -4.677512536512168,-2.1637099170214285 -5.6130199818821325,-3.1899659443428874 -4.530775670184937,-2.356876368137506 -2.1204092874340645,-0.9806741181127521 0.8448466164606714,0.3066642991238737 4.17790846719808,1.982658143242368 6.941782592191409,3.817679141850469 6.241797320989107,2.0524530962319147 1.4509314927108363,-7.822985410285014 0.3529012256293669,-16.778510454278873 7.308724897348938,-5.696360765462359 10.744443517234814,13.442933720774171 7.053662148379544,8.654393655416499 6.315843702650611,-9.081018226462682 7.720317382537473,-11.720512671426093 6.066232980251328,-3.0651774439759834 3.026003708800573,2.5691838560315716 1.0445284395744494,2.513424509878263 0.06988321885329185,0.013246033696589166 -0.7419255754701055,-2.3132618194322276 -1.9603034956500522,-2.780162778693935 -3.4850166562933396,-0.500674763365538 -4.469782323122146,3.3358254221721495 -4.2259664051532155,5.803260061815436 -3.0562245902082026,5.3201468730297705 -1.658002461405971,3.01228365143961 -0.2844676959053203,0.4429048307532284 1.2339295146684606,-2.3628211155116148 3.2622139443369917,-5.971832155415761 5.90266657339545,-8.10379109885092 7.221678535665461,-2.038400036133666 3.789872965495988,12.367360340821136 0.32045480960340456,16.063335267971432 7.984488253414469,-0.18379696376888432 16.760185726056534,-8.577469057601036 8.311657995598352,3.7598689414598354 -4.898612159844674,13.285992146190864 -5.945324936485179,10.049211542343087 -0.4865639752331674,4.018035008396637 2.1981379068043623,1.0027005102812723 1.2249452692511227,0.1326855548482797 -0.8490826640490639,-0.16403327762773756 -1.8634168100766715,-0.7208414066993356 -0.6705565128711157,-2.1540846476799373 2.0705829549835073,-4.491224360702105 4.002059741796302,-6.458876570569892 3.6145662097960383,-6.4889163098556395 1.9034198328045875,-4.580923333796775 0.5790017207771712,-1.9654114599717971 -0.10398542332950456,0.753845100300282 -1.3787179243356604,4.06995953600353 -4.154593219685182,7.884481056009285 -5.331706900553826,9.14885703948812 2.6385987650257334,4.623479286185287 16.554378328331268,0.3787469308504825 13.047945197098983,5.4175488169669705 -9.482691590095811,11.074961021712653 -14.566979602791122,8.32413556518452 2.97740691189,6.221242714248717 12.534604542813412,7.747546595060371 7.267721967099135,7.1139377296407105 -17.54965964121277,-1.4251129266895077 -3.3485884409997766,0.3886666329232469 -0.4532005449814278,0.09078149143849146 1.9862584375536017,-0.18357017095476635 4.482831314573701,-0.4304569623338921 6.557553349462665,-0.8769949718696921 6.87362061544809,-1.7444586643850073 4.730918463436694,-2.749665391546287 1.3164134505274774,-3.230520644502903 -1.2077617631499322,-2.843581297939295 -1.6669570229605313,-1.7955190902145546 -0.410280182462202,-0.4205989847226306 1.4243769915577786,1.1476133149290035 2.1619023783251805,2.8510577263224377 -0.6094106372194688,4.216281084468079 -7.97372557650101,4.0435014979609605 -14.325400079204229,2.1687358332746953 -8.894538875106832,2.848594258723139 5.987784880322522,10.09567548059998 9.353101491553588,15.367380805315292 -4.924860377521782,7.332890830231236 -15.66488796629966,-4.56801661340279 -11.456120917363705,-4.615359742585753 -2.927038734538712,3.6019960482271074 0.8364306485012207,8.47842263090405 0.8159914643486559,7.454178213413002 0.19883972085875712,4.058833415645722 0.04478323219748859,0.7477857416060374 0.02235644203918241,-2.1704000648292663 -0.28479168226772344,-4.783858249417079 -0.7184056630117652,-6.413649242951152 -0.5464341932999162,-6.009409632697697 0.719219620325589,-3.57959647678166 2.4585038788615634,-0.6701370746264104 3.3656064510653607,1.0577707784979111 2.7099418539439455,1.2125654110757011 0.7536911248619163,0.3850493468776506 -1.7347967129764754,-0.7416287414921499 -3.6582878005758346,-1.3411114776713475 -3.459248250900913,0.4200554284166742 -0.5406292046642136,6.697833725041164 1.5505782490884883,14.710436060243921 -2.7560153129814466,13.056975216687249 -10.43672549344548,-3.3772915282973486 -11.437623601349443,-15.034898272444366 -7.080893508784342,-3.689176243592584 -6.475978925240398,13.289147921195394 -8.231863694906124,12.82426051126805 -6.889391573442268,0.8475762239255573 -3.594178193867805,-6.978465637904549 -1.3186320117928432,-7.220932780206937 -0.4155158553825373,-4.072857581008492 -0.08168491341479012,-0.6072922788390542 0.15970899921856585,2.506497640377461 0.5524315562905571,5.125122925756671 1.3638752266751766,6.401583929908725 2.591861342502071,5.226604395915018 3.6642499159945316,1.8048413765174587 3.8928546269036133,-1.8333115586125928 3.1721375499828923,-3.5608630318124312 1.9061035953090624,-2.896886210843519 0.4375821857911717,-0.6729552227393185 -1.1985460718915277,2.1252909170363523 -3.0995979709107786,4.303807479135571 -4.982140441328426,3.3334175834998803 -5.472418331772133,-3.7677823529773775 -3.1985695277385275,-14.071255332780083 -1.476305499894167,-14.821698964396802 -7.289417382368896,-0.1717395785617839 -16.18373578231337,10.763421109514184 -12.659757588525359,1.0984034339887216 1.245058605177796,-13.690766408289278 7.048995332082562,-14.706542373830018 1.0710607740511833,-6.7538561271927335 -5.604260583336547,-0.9707690203202048 -6.820899029067867,0.5456958526567064 -4.294422997918538,0.36735377701478455 -0.8222290840282227,0.08904860578618923 2.412364779852666,-0.1256147563447314 4.826612668204284,-0.36777773000613934 5.518670900878945,-0.2746500165372936 3.883368831610653,0.7871521104700889 0.7915211359901377,2.794913973340101 -1.7668849524878354,4.607457270874278 -2.5343637947237383,4.934733685205373 -1.8195197238693126,3.509279035945781 -0.49429030161120124,0.9213998950482107 1.0421052766185355,-2.1827412580701377 2.554009611851903,-5.069014391285492 2.5059286957321376,-6.131382416534819 -2.4974159584212856,-3.5677234193258585 -12.827794048641422,0.5851740907820044 -17.63843970274816,-0.7149149783805342 -4.2331969201633655,-8.590086788353858 14.455662043124676,-12.493307691858746 11.34249337303509,-8.737275255092925 -7.888765863859241,-6.608233588312956 -15.372797685071617,-8.355538694895756 -6.764342216275509,-8.11869400672957 2.9727066766383246,-5.048804050202932 5.91727775453964,-2.1774397509194614 4.010416811291435,-0.7179675579050695 0.6354519784643458,-0.12064211920855428 -2.586346044943795,0.2989799510095281 -4.778097736098815,0.9952499558035726 -4.867773547695535,2.2032499076484697 -2.2742044994744077,3.653315093179927 1.8064740195052167,4.571924586985034 4.859555900447731,4.402944912982861 5.299860936191422,3.33983770099114 3.5461387457115876,1.922498532870165 0.7788110523436416,0.43430796102639135 -2.4203215522923216,-1.1933202129597902 -5.679345907106239,-3.190796864799239 -6.928273267046691,-5.536263232279381 -1.7275634969712854,-6.963021197313651 10.75601596965548,-5.026318431151822 18.570899862335025,-1.1454197793843832 7.937047790224476,-3.9887791224284115 -8.782226519704373,-14.829342371447396 -6.548278935542271,-17.164369670246117 9.36318650830227,-4.131331148537171 16.06452717066381,7.065527216024456 10.569258945695239,5.322569066948027 3.6819964347441996,-1.5625590458102394 0.5233549274686027,-4.834104988365233 -0.13011978081567577,-3.731083402814704 -0.06901639372560453,-0.7614826629898062 0.046271214212112,2.1876175639816324 -0.06181713454259352,3.9143460706583113 -0.8839709178141675,3.4781908228457468 -2.7790888143320913,0.9169188344008745 -5.147885529696602,-2.1413607641340136 -6.537909525226965,-3.6944400440644287 -5.998838138191097,-3.2548907291210725 -3.8662336531636186,-1.8526187071296505 -0.9713726563758698,-0.4591542138528979 2.3271560678366825,0.9639726447062742 5.879889810536866,2.93444474120016 8.406798074970276,4.6532361084287075 7.161285826809653,2.1621522116054948 1.9601180879566016,-8.378116670058581 -0.19917226501524965,-19.342411973062852 6.212393309345174,-12.482590294126268 12.593294048680335,9.871218027887565 10.439149116394944,17.05055429059773 7.003294194330323,0.07910816917802777 8.134886486329975,-14.465645752292332 8.945918787454659,-11.647719366621217 6.555739223988311,-2.0562353101402238 3.3616232765469363,3.206054981103165 1.2836298803926809,3.0803442464809336 0.20881046348580412,0.515285507643199 -0.6034435045128532,-2.152808903465697 -1.7228824263642366,-3.4069057764959183 -3.2772417303867627,-2.166803023158053 -4.745059091773896,1.4115266211012738 -5.299857428609229,5.287825218926727 -4.6634644282631115,6.988703140850461 -3.3234646889531376,5.908753275910286 -1.8530330101440455,3.375621450307193 -0.41487906057341206,0.6807393235918369 1.141563953601647,-2.1820467459355086 3.120205158137395,-5.844181832333277 5.7753388795312475,-9.232061627092037 8.236773376345141,-7.305406693640279 7.402798362345635,4.827577187807492 2.183137174267614,18.972729197912656 1.0593644276132466,15.653766982524097 11.468178339333576,-3.3883923037265404 19.729145168953607,-9.923270219767772 10.587289394183642,3.531676512880452 -4.276524579016154,15.033700693832436 -7.993953469627627,13.505553764663546 -2.7614489450225506,6.806778730846041 1.8337610751619877,2.2745539167170534 2.4170692428592133,0.5308504264667846 0.5649441429487467,0.02289016917661968 -1.4990334827253093,-0.2839509568729568 -2.1651898447225335,-0.9925204072143003 -0.6713679648918571,-2.602339584767442 2.2380718368968644,-5.066690973461881 4.48398156370132,-7.277773943963773 4.5427626658946565,-7.785720020415688 2.920667350816757,-6.2621534660412195 1.2147628763191847,-3.6554867366780073 0.2662007912704212,-0.8809371675971107 -0.46801977567452013,2.105667365736764 -2.258538110533607,5.845021616355638 -5.357657958540983,9.724500407239063 -6.146558283927021,10.578174778253533 2.181433312443403,5.747742286913329 17.434852045687876,0.48705973343642484 19.464086706464542,3.9409945568736475 -1.875048748904078,11.720155586087998 -19.150839910480812,11.902386087931433 -8.97765174701641,7.7192346786224135 9.88319923731629,7.690298782261834 14.153939919132682,9.209167404267575 6.98535516865573,7.822221115151891 -23.134829291875064,-6.617363102832712"
    />
  </g>
</svg>
