<?xml version="1.0" encoding="UTF-8" standalone="no"?>
<svg
  xmlns:svg="http://www.w3.org/2000/svg"
  xmlns="http://www.w3.org/2000/svg"
  version="1.1"
  viewBox="-165.19551710882106 -155.73121813495413 321.07495473903424 307.27523589900545"
  width="321.07495473903424mm"
  height="307.27523589900545mm"
>
  <defs id="defs4215" />
  <g id="layer1">
    <path
       id="path1"
       style="fill:none;fill-rule:evenodd;stroke:#000000;stroke-width:1px;stroke-linecap:butt;stroke-linejoin:miter;stroke-opacity:1"
       d="m 0,0 0.0,0.0 0.1618033988749895,0.11755705045849463 -0.038196601125010526,0.2628655560595668 -0.14721359549995788,0.30776835371752537 -0.5,0.16245984811645325 -0.5,-0.16245984811645314 -0.47082039324993685,-0.5428824546345146 0.03819660112501028,-0.7885966681787002 0.45623058987490533,-0.7330937578935457 1.0,-0.3249196962329062 0.6666666666666667,0.3249196962329062 0.9210465736048041,0.5917469704337603 0.07895342639519609,1.1403038371351168 -0.07895342639519595,1.0263628295315497 -1.0877132402714704,0.994363112632141 -1.0773502691896264,0.2556368873678587 -1.5893163974770401,-0.2556368873678584 -0.8644222465788693,-1.1610297792988087 -0.635577753421132,-1.4370464320545064 0.6355777534211314,-1.72962023461216 1.0310889132455352,-1.1571311113359686 1.9999999999999991,-0.592868888664033 1.1428571428571437,0.592868888664033 1.8174691373936618,0.832749111293658 0.3202101832648534,1.8478159714538722 0.47450743800769823,1.634069429195498 -1.3010137641311514,1.9870913874798468 -1.1038754716096775,1.0285443306111257 -2.4999999999999987,0.7069906258591072 -1.6428571428571446,-0.7069906258591067 -2.2184380052960804,-1.1525111132161419 -0.5427311172211691,-2.3098854519994183 -0.47450743800769746,-2.146927860831775 1.5235346980874644,-2.4491608680253933 1.5048443395120974,-1.3483063325336087 2.999999999999998,-0.8211123630541826 1.5000000000000022,0.8211123630541826 2.7729428378646985,0.9487985116343576 0.5858143727714022,2.4099586990017428 1.2797673600084107,2.0939540219907804 -1.2797673600084105,2.9060459780092196 -0.6814852308626744,1.828836626111125 -3.0308253703667,1.8834739751182497 -1.9350271168814661,0.17344947384410814 -3.564972883118534,-0.17344947384410747 -1.6318494872574538,-1.9791448332095218 -2.4340145045651953,-2.0867191586131266 0.1857493394202896,-3.3410730948906817 -0.1857493394202907,-2.6589269051093183 2.5296853626564673,-2.9998352315223125 1.889732019759454,-1.4195821508936106 3.9999999999999973,-1.0200247304338408 1.7777777777777803,1.0200247304338408 3.7559676557392363,0.994093891372875 0.8402990029746329,2.8626317667463606 2.2152565525809234,2.4297457008252086 -1.1347790026533564,3.6979469845840858 0.03500721076279789,2.539168784493232 -3.257229432985019,3.041883817673152 -1.7646174719060577,1.1719460680497176 -4.499999999999998,1.108188220788075 -2.2777777777777795,-1.1081882207880742 -4.195660276525146,-1.24795054434431 -1.166650825307701,-3.2515627234614644 -2.3889047302478574,-2.9068401478945414 1.1347790026533606,-4.205660290526961 0.13864096690412575,-3.016263231562565 3.5835812553180966,-3.4308147743882556 2.204310092691958,-1.4258027210211548 5.000000000000005,-1.1963517111423108 1.9999999999999947,1.1963517111423108 4.752501265695595,0.9976689489198156 1.072421093804027,3.234384867585991 3.2184112479310274,2.6714391913511246 -0.9316854895564162,4.366379029233012 0.9316854895564166,3.133620970766988 -3.2802146468060163,4.094408553076179 -1.2457317958460261,2.135022303610916 -5.064600760278562,2.449702664270375 -2.448745718453151,-0.008468408708289576 -5.551254281546849,0.008468408708290557 -2.1523035004438933,-2.511506063145367 -4.481635853430675,-2.308333005652911 -0.3969817405968534,-4.406508047659153 -2.198761012152706,-3.5823666892201373 2.1987610121527044,-4.917633310779863 0.45878513947184185,-3.2614527293584583 4.654946555472672,-3.7769951217035853 2.464402995026865,-1.39551509847018 6.000000000000001,-1.3547361514668537 2.1818181818181808,1.3547361514668537 5.755805508992662,0.9759604551304282 1.2801331292317624,3.5457627454072966 4.256416712305649,2.843756383224159 -0.7065066011986194,4.9294624861689975 1.9355892953769929,3.618995420984513 -3.177609702125662,5.019446253612719 -0.48559541252733585,3.0018540690589433 -5.348618398985202,3.7311875933699037 -2.222663396495429,1.1345797637304722 -6.500000000000002,1.4266252984643466 -2.68181818181818,-1.4266252984643455 -6.21529848260716,-1.1858038649743643 -1.661893688448445,-3.876560153018958 -4.5295168870342515,-3.268708549966756 0.5641917629253288,-5.414142314780915 -1.9355892953769867,-4.124137034253528 3.3199245403989392,-5.504126082224636 0.75869558725595,-3.426806235801542 5.730378958201876,-4.0619850009815615 2.682156370109932,-1.3444231735744205 6.999999999999997,-1.4985144454618253 2.3333333333333366,1.4985144454618253 6.76246819755539,0.9386982292535779 1.4647731383967786,3.811301770746421 5.311666847974303,2.9651382156246595 -0.47833351464096907,5.406440687624913 3.0018192043905465,4.011336118693503 -3.001819204390546,5.821997214639831 0.4351970071238811,3.7567672293934287 -5.435197007123879,4.90348680845096 -1.6947963698404749,2.226506568513395 -7.109795235301318,2.856826764819937 -2.7909444841616313,-0.20393155251909656 -7.542388849171703,0.20393155251909784 -2.5193385080060935,-2.899963272337018 -6.5739282317305126,-2.350036727662983 -0.9096185358271178,-5.133510039894645 -4.42371479750622,-4.104094267139363 1.6414100626541228,-6.279608365468121 -1.6414100626541248,-4.553724967865213 4.4668513050233045,-5.990965302457116 1.0331486949766955,-3.5353141391717084 6.803951463174206,-4.301786018979196 2.8666655457520225,-1.2815473143541425 7.9999999999999964,-1.6301669430492152 2.4615384615384652,1.6301669430492152 7.770694537489929,0.8918519805965857 1.6287617348287604,4.041363230329573 6.37454549561609,3.048948269322006 -0.25692514620364193,5.813954901840448 4.10302430566499,4.327375114978283 -2.786392875183769,6.516060279015845 1.4604893923752174,4.403737336062749 -5.388420448846381,5.95336565983723 -0.9476863416165076,3.2260697674381706 -7.458665137843551,4.221307778958452 -2.5537991522350536,1.0336388587672403 -8.5,1.6908779346603393 -2.9615384615384617,-1.690877934660338 -8.241636354915986,-1.0704566532730175 -2.0432759430559155,-4.327481729696904 -6.7085420355600345,-3.4259524281954707 0.022856939416429967,-6.25993460886064 -4.223560985920317,-4.816411650643504 2.7863928751837665,-7.019732617448678 -1.339952712119888,-4.89277387172797 5.622488655633586,-6.399345366857425 1.2816828815604584,-3.603073926311632 7.873179346070698,-4.50742627832579 3.024740969661119,-1.2122435314436668 8.999999999999988,-1.7515889262714723 2.5714285714285836,1.7515889262714723 8.779517834688363,0.8391905190770452 1.7746889035971183,4.243447567728635 7.43975356834752,3.1048250970350093 -0.046945917736820775,6.165462480800199 5.222559091496265,4.581809014892944 -2.552307884020492,7.11732593128894 2.5523078840204927,4.954102640139631 -5.254347796347167,6.884307722068227 -0.045232160017292244,4.120383450168463 -7.614785405675718,5.484974763010191 -2.0464179133935065,2.2195777885298744 -9.151338016250845,3.172977254788349 -3.03526088602195,-0.3914655803344176 -9.536167685406621,0.39146558033441914 -2.7897066328921483,-3.20476595963925 -8.665468973295752,-2.3117558662839874 -1.3308049811169198,-5.660006600338385 -6.685492471352514,-4.392112459964854 1.075995558475511,-7.2561279036307065 -3.9687676999076005,-5.417934954732998 3.9687676999075983,-7.653493616695573 -1.0442068536246119,-5.159844657694108 6.777670549106627,-6.745815382445003 1.5058368184451165,-3.6413743132016814 8.937197983092137,-4.686668040197119 3.161526814454634,-1.1397707422386638 9.999999999999984,-1.8642618661715837 2.666666666666682,1.8642618661715837 9.78841278267711,0.7831469969078846 1.9049690751481823,4.423082034462357 8.50438291914281,3.139754878367464 0.14970625643175772,6.471584864473501 6.350293743568244,4.786745384724201 -2.3124716837355974,7.640393094865805 3.685278834650779,5.420994464304183 -5.065054549783802,7.706694554557025 0.9654290910761674,4.910655228292015 -7.632095757742832,6.636350155500503 -1.3342543674658653,3.3217905058965833 -9.560507823450092,4.5937175583087235 -2.8028073699797744,0.9107850113171034 -10.499999999999982,1.9168139838044227 -3.166666666666684,-1.916813983804421 -10.266560383410914,-0.9385065700928035 -2.340366932056982,-4.674459104353234 -8.878002056608956,-3.476163060769059 -0.445217725324472,-6.878321507549298 -6.554782274675534,-5.246034145432839 2.2079432204679383,-8.13216085045232 -3.6852788346507848,-5.923748604085942 5.1695830130514695,-8.198462310143539 -0.7609405599688888,-5.369943989000655 7.927607226635556,-7.043086798576299 1.7078735049320057,-3.6581986882981745 9.995905680358899,-4.845094628199606 3.2809549707135695,-1.0661445845020232 10.999999999999991,-1.969366101437271 2.750000000000009,1.969366101437271 10.797096685569612,0.7253189714105006 2.0217318280244925,4.584413652655121 9.566875893442232,3.1588464700555843 0.3326190431694336,6.740648466556079 7.480087358668723,4.951892956448461 -2.0746838765118296,8.097905440273465 4.8425278201156505,5.816985725447367 -4.84252782011565,8.433014274552633 2.050297586259815,5.604475051218602 -7.551371926507979,7.676293228631145 -0.46967331271252455,4.328049298986855 -9.783375014492414,5.924999028218085 -2.3249012146634023,2.1654924901298713 -11.186836948314166,3.431252708209567 -3.2184468576082814,-0.5658636035976787 -11.531553142391719,0.5658636035976805 -2.9963288235811323,-3.455638998461582 -10.746379222524258,-2.236777057969127 -1.6736981112450149,-6.062053297761178 -8.9329036065532,-4.544548420037033 0.5646269716954428,-7.979462615270053 -6.352713886217434,-5.994215313963155 3.38977962059748,-8.901461132160906 -3.3897796205974826,-6.348538867839094 6.3771001764694475,-8.66973573833537 -0.49334240385618866,-5.5349120740256605 9.069957876096293,-7.300900065894886 1.8901972322951934,-3.6592550424966035 11.049548609163168,-4.986806708870956 3.3860690863256835,-0.9926219218335808 11.999999999999993,-2.0678575047944383 2.8235294117647136,2.0678575047944383 11.805423189413354,0.6667676721227558 2.126808944039963,4.730607810908824 10.62644809190425,3.165874632251512 0.5021567791833235,6.979189177955467 8.608260959020729,5.084953610928153 -1.8435259125297359,8.500465751989852 6.012862055392647,6.1532308116430965 -4.601698910659793,9.075644825810372 3.1851082153702754,6.21180341024869 -7.402737827069435,8.611627090414757 0.5069032641735784,5.237075593490031 -9.865464676180853,7.155662524273689 -1.6543802099058897,3.346063685510881 -11.64901732562807,4.8910513336289245 -2.996281806781516,0.7825677764869541 -12.499999999999995,2.1141893279154496 -3.323529411764712,-2.114189327915448 -12.288396289097259,-0.8041853668183134 -2.576308073760412,-4.954431782400421 -11.027166097913414,-3.468482823637272 -0.8404476903948179,-7.350276630216264 -8.872604684188493,-5.511883385947593 1.662131281920967,-8.968699268325475 -6.105130414855963,-6.646822938480293 4.601698910659808,-9.577786875268211 -3.0928398559069943,-6.705395537085883 7.584132457678235,-9.079860606750382 -0.2425595390058497,-5.664005368509471 10.20375558739238,-7.526749976534493 2.0550982159150184,-3.6486718768966426 12.098516455348557,-5.114875305120522 3.4792549064653873,-0.9199854711825042 13.000000000000023,-2.160521151036479 2.888888888888866,2.160521151036479 12.81332361747245,0.6082025706529102 2.2217583151020843,4.864119722557789 11.682760667881405,3.1636580552199876 0.6590664712576864,7.1923645452853675 9.732666552008034,5.192020618471445 -1.6215554408969215,8.856835931809446 7.188883329475864,6.439271728761174 -4.352629760916001,9.645921570438222 4.352629760916002,6.742967318450667 -7.208177571438855,9.451649064416753 1.5648452065653213,6.053279178550737 -9.842622984343096,8.284252506324973 -0.8347934210055268,4.440596854373608 -11.932613964310773,6.272529973735384 -2.5492552878623407,2.0885811373757246 -13.216698683101233,3.6497568228660535 -3.3608984926042655,-0.7266791654727203 -13.527990396284624,0.7266791654727224 -3.1590298630888984,-3.669051064829044 -12.815744690271545,-2.145291371707323 -1.9547996964963819,-6.382486406070457 -11.153071885761689,-4.616323804121436 0.11855125280942502,-8.534105802754352 -8.729662363920543,-6.380776151310975 2.820314332015923,-9.85502413004555 -5.8302160782427155,-7.214976922166056 5.830216078242712,-10.173911966722834 -2.801020090052934,-7.005512169156795 8.786372598252143,-9.439108694596602 -0.00859482047436444,-5.764448394063544 11.328798835509527,-7.726445409754014 2.20465299292575,-3.6294690280415196 13.143241663031796,-5.231642083069598 3.562404928717685,-0.8487160204978581 14.000000000000023,-2.2480098145624003 2.947368421052607,2.2480098145624003 13.820773736793674,0.5500982202100757 2.307899226943464,4.986882202017158 12.735730727904375,3.154323205195942 0.8042590648969075,7.384273865163623 10.852113246767162,5.277921860631851 -1.410060832864211,9.174215237794957 8.36573423869721,6.6831228921794565 -4.102038935725433,10.153829095187861 5.540658059480277,7.207721809296755 -6.983623464575768,10.206280910609264 2.681167295213341,6.7837342766432105 -9.742550023323432,9.314596834029905 0.09899039327011927,5.445970019546261 -12.076180291493749,7.564726506041755 -1.9206803225370184,3.3294673979802507 -13.724694830504733,5.137386225521377 -3.1506759556276425,0.6559358829200832 -14.50000000000002,2.289440995787789 -3.4473684210526105,-2.289440995787787 -14.307135040196394,-0.6732616292654217 -2.767355165241378,-5.188418262166502 -13.155748540812949,-3.4287345380836705 -1.1733817613847268,-7.724075244965562 -11.16027212190509,-5.673844391503039 1.1712715498797142,-9.615459185186298 -8.528640380365687,-7.157652271443171 4.0194595902531125,-10.648699981863478 -5.540658059480295,-7.70943541562781 7.06620281004812,-10.701151797284878 -2.5182611535449,-7.258263655906932 9.981339306307966,-9.75584078142124 0.20916848186777237,-5.8418925504174535 12.445302987981602,-7.90452788584369 2.3406981354455585,-3.6038787308679847 14.184150768802679,-5.338922285670725 3.637037259030331,-0.7790992919754212 15.000000000000055,-2.3308721770131795 2.999999999999945,2.3308721770131795 14.827774547742292,0.4927699169629878 2.3863483971999866,5.100437681223561 13.785420016818888,3.1394898890492122 0.9386892808051552,7.558201702673799 11.966009475849338,5.346497053980693 -1.2095393588970769,9.458513943080844 9.540265029117762,6.891455775775706 -3.8543523326187294,10.607984124055116 6.74056821261099,7.614865759925175 -6.740568212610989,10.885134240074825 3.838708886114703,7.43648447796498 -9.586424981488724,10.25316672512488 1.119502161346178,6.36410495098818 -12.111086379215424,8.764512843823336 -1.147165768032341,4.49373930342443 -14.062353726216669,6.556623439674068 -2.7331192547340653,2.001097480416391 -15.241848903244334,3.839323713270117 -3.4748451510335254,-0.8748906007577402 -15.525154848966475,0.8748906007577425 -3.2903080393709008,-3.8549671597741386 -14.874871421866532,-2.047257432787364 -2.1879035163407163,-6.646660637224947 -13.345222775658273,-4.638816206790535 -0.2665827621827699,-8.972989331050503 -11.077672607061965,-6.641038660385982 2.292956437101731,-10.599937582658937 -8.287886127975714,-7.850558833467039 5.24523578294322,-11.359979391108388 -5.245235782943223,-8.140020608891612 8.303529574479732,-11.16928644974333 -2.2467964847307664,-7.471421269641683 11.167709804612858,-10.036856930659747 0.41165966554885713,-5.90077785852672 13.553699262885456,-8.064581069907597 2.4648372257385027,-3.573566925483375 15.221642279400598,-5.438144494346632 3.7043823948729546,-0.7112936937148246 16.000000000000043,-2.409573883837786 3.047619047619005,2.409573883837786 15.83434101506083,0.4364236750501158 2.4580526957024382,5.206032520815763 14.831968912139224,3.1204030441545187 1.0632913175589618,7.7168018824027795 13.074137639159117,5.400815203179236 -1.0200014698902677,9.714593457869338 10.71047766036646,7.069803653571924 -3.612423472676496,11.015743462944041 7.946283567349477,7.972138255263854 -6.4872674544716675,11.497078737321093 5.024692765708792,8.019624150367719 -9.390341565232674,11.107532983866157 2.2053014193602367,7.19965073946986 -12.06244427650309,9.87342150656622 -0.25890180784807093,5.577057789825799 -14.262506700780865,7.896840253636229 -2.1442346749224583,3.2890866136271253 -15.789336124278073,5.3472659078557 -3.276616524502547,0.533801619676149 -16.500000000000025,2.4470437038473447 -3.5476190476190226,-2.447043703847342 -16.32317184128594,-0.5479961212167352 -2.9247946752634633,-5.389215249060053 -15.266195800480617,-3.3711040550277858 -1.455303203533564,-8.029420929593137 -13.415177625014339,-5.768368893759801 0.7375516538867544,-10.128871249756802 -10.928027844362953,-7.521551265468894 3.464632632306601,-11.494869599691278 -8.0210136609359,-8.46794003069844 6.487267454471677,-11.998480759067686 -4.949962672122394,-8.515425925802308 9.538132405602587,-11.58665912061339 -1.9877512353637652,-7.651398351366836 12.344894092506623,-10.287699298453678 0.5999417937032714,-5.9446114804063726 14.65451858675549,-8.209459300826579 2.578461563263833,-3.539787624500393 16.25607810383912,-5.530448636099992 3.765447350727637,-0.6453740658427733 17.00000000000006,-2.4845135238569074 3.0909090909090295,2.4845135238569074 16.840495397875205,0.3811898104642437 2.5238173423446533,5.304685427608247 15.87555710914447,3.0980273353844545 1.1789463291603859,7.862236509397205 14.176510931582953,5.443342948491084 -0.8411650766971448,9.94646656563199 11.875152669313662,7.222753263513479 -3.3780274033659854,11.383355732374394 9.153544818615291,8.286250226722803 -6.229621777727792,12.05008121555818 6.229621777727793,8.54082787535091 -9.166482531185583,11.885487334373796 3.339741014692378,7.95857189265331 -11.95016128418602,10.895618556513071 0.7195770306765681,6.579511648207379 -14.3525868555375,9.153820399713089 -1.4150974457627044,4.508955822145362 -16.17474914979836,6.795352179198947 -2.8861758437667753,1.9094805932496701 -17.263176602137666,4.006903100420361 -3.568065561083781,-1.0118226403962232 -17.52284352982531,1.0118226403962258 -3.3983824008398607,-4.019840812990658 -16.925423312994496,-1.947766981923257 -2.383583133849143,-6.870360794071333 -15.512173837286895,-4.630543868165924 -0.5990329978107027,-9.32989632366765 -13.39117359102039,-6.815662764809684 1.816545180948264,-11.19481059716696 -10.729085459897842,-8.320930394075425 4.671835487807104,-12.308168538636266 -7.738073366967886,-9.017984345525647 7.738073366967883,-12.572924745383443 -4.6588977752368095,-8.843211906222194 10.767371848571438,-11.96034029441941 -1.7415365660758972,-7.803482150101484 13.512761637040962,-10.512901587450138 0.7751089217652609,-5.9761800348245835 15.748324953889194,-8.341456920979159 2.682775174503041,-3.5034918978207656 17.287781814416604,-5.616755887629758 3.8210636051023386,-0.5813603628816963 18.000000000000043,-2.55603493541573 3.1304347826086527,2.55603493541573 17.84626329216061,0.327145851970013 2.5843295872187824,5.397237814318153 16.916380257831936,3.073115791543241 1.2864679259845602,7.996281404863822 15.27328180166197,5.4760742761836525 -0.6725797815064123,10.157460264026652 13.033597120751175,7.354111790501518 -3.1522002233951234,11.716118552575585 10.359391876640258,8.562975206068595 -5.9718187255921515,12.551185989167584 7.446448266559173,9.00713480594972 -8.92404486897683,12.594562892175864 4.509933977095779,8.647304923192793 -11.789925546030261,11.836628166346783 1.7685088545821213,7.5038281127658255 -14.355183711176174,10.327427812940345 -0.5719567687796054,5.6556369710551575 -16.426238471004204,8.17342059156791 -2.3338397592556532,3.234835702688347 -17.84480887386431,5.529988273928971 -3.3812374168023958,0.41727098592370293 -18.50000000000004,2.5902358723760055 -3.6304347826086563,-2.590235872376003 -18.33694923819694,-0.4291115641059835 -3.056560928530253,-5.565068873339202 -17.361360218025922,-3.3036858223684273 -1.6959073703370642,-8.285295324074072 -15.639553648013884,-5.818148301299457 0.35629848463967306,-10.54622220318897 -13.293996145999305,-7.782319744349641 2.9525342109120913,-12.175795817129833 -10.49460547632822,-9.045558863633163 5.903576312227466,-13.047686419285336 -7.446448266559166,-9.508303145022508 8.992287282341495,-13.091063322293616 -4.374720377407798,-9.129888580757362 11.989591558513265,-12.296305430901034 -1.508109829333966,-7.932036066613948 14.671465008042883,-10.716189752102666 0.9382286151315391,-5.997710996170964 16.835677915356683,-8.462434510778166 2.7788197194496504,-3.4654057335135438 18.317040215175773,-5.697819332950001 3.871923362838732,-0.5192366980596921 19.000000000000032,-2.624436809336256 3.166666666666636,2.624436809336256 18.8516712963434,0.27433237621738904 2.6401783385883704,5.484391377313697 17.954636240309064,3.046260135824763 1.3865977775434004,8.120406530841901 16.364683211472986,5.500630443228223 -0.5137061998745445,10.350346568370217 14.185473293028728,7.467047199003773 -2.9354732930287266,12.018524386146098 11.56179566425846,8.80726007587916 -5.7167988956932,13.006564834482297 8.66995399467187,9.424875154100164 -8.669953994671868,13.241791512566504 5.705921713008202,9.27226888113044 -11.594054989090552,12.702543666945864 2.8720617597695473,8.354210678207213 -14.288728426436208,11.420036041537472 0.3633107378617222,6.727921617624531 -16.56784114005344,9.476608784567183 -1.6462292974661636,4.499539023091366 -18.272354989575927,7.000460976908633 -3.0153692387049738,1.8172031105036464 -19.281418584801017,4.15720318061288 -3.645743834468348,-1.1387849855241883 -19.52092283219832,1.1387849855241912 -3.488859992185528,-4.168080363297893 -18.968915469035313,-1.8494624353357052 -2.5497786423734077,-7.063872510167843 -17.65748077926349,-4.602794156498825 -0.8871535500441361,-9.627004246580011 -15.670930242740855,-6.931079546204977 1.3904017205779446,-11.679667561460242 -13.140401720577955,-8.671929427474058 4.13139591698312,-13.077734567062478 -10.235211730650898,-9.702016169588049 7.151530439452178,-13.72086868036822 -7.151530439452182,-9.945797986298448 10.246088913335896,-13.559707268772307 -4.099136592151039,-9.381031105593067 13.20381325383714,-12.599602772071297 -1.287146587170474,-8.040669351457822 15.821325704753677,-10.900641647995418 1.0903114786245833,-6.01099553538285 17.91711229918625,-8.57391370128442 2.8674973916402706,-3.4260862987155907 19.34410636915191,-5.774261221061792 3.918607280643151,-0.4589641151572472 20.000000000000025,-2.6899802721515 3.1999999999999744,2.6899802721515 19.85674565854849,0.2227640758829308 2.691870332526044,5.566736497314889 18.99051731838798,3.0179280712917995 1.480006727436674,8.235837755724269 17.450990940937096,5.518337147919601 -0.36396631417920844,10.527447015048862 15.330681593478442,7.564203925326671 -2.728035375572441,12.294388882480723 12.759395484845552,9.023336473618697 -5.4665944175967915,13.421597310946927 9.896288694403324,9.799673296279272 -8.40940919194918,13.833599632902198 6.920018068713866,9.839594365416401 -11.372198103270687,13.49955071189724 4.01759363714694,9.135594375927417 -14.168171948058276,12.435482554862487 1.3726280839598335,7.727068306125629 -16.61980991874849,10.70360846107125 -0.846278394268527,5.698140196980136 -18.57012947073021,8.408705858039221 -2.4962831175242677,3.172652467366021 -19.89273466266482,5.691786761281028 -3.4694911837577607,0.3066133171352696 -20.50000000000002,2.721437605778328 -3.699999999999978,-2.7214376057783247 -20.348860359862964,-0.3166399758204115 -3.168338792340201,-5.721550484542268 -19.44382534446207,-3.2312386367491097 -1.903005381406448,-8.504280864368667 -17.83700928134227,-5.8376792915676745 0.021016027162968243,-10.892651977329479 -15.62515529621089,-7.969512205821847 2.4866822833258997,-12.733408527487569 -12.943821684164071,-9.489143881077876 5.342003622540361,-13.906846419782902 -9.959079213932615,-10.29671143817199 8.409409191949166,-14.334588219437752 -6.857227549184553,-10.336632507309119 11.496788898327086,-13.984799820733215 -3.8331674378283944,-9.601401783386596 14.409525040304779,-12.87450219986934 -1.0781543812273586,-8.132376586620804 16.962760205764695,-11.068813423351873 1.2322967346737315,-6.017482340628202 18.99312812469995,-8.677148966683628 2.9495911435983935,-3.385963032823323 20.369203122478943,-5.846600748508417 3.9616058850722666,-0.4004892170727503 20.999999999999993,-2.7528949394051554 3.230769230769237,2.7528949394051554 20.86151152137969,0.17243756986826186 2.7398434252843415,5.644773962044681 20.02420586778749,2.988491172490898 1.5672987577561663,8.343604638114842 18.532499505415824,5.5302843685883865 -0.2227750501535084,10.69071604068645 16.469280177052994,7.647797289505526 -2.529845238034632,12.546960650500349 13.951310889418021,9.214823979976618 -5.222575208370991,13.800960455356673 11.122626777921935,10.136489735800993 -8.146297980848189,14.375783232312497 8.14629798084819,10.354985998456733 -11.131898830249266,14.233649190741218 5.195029466192551,9.853176664635843 -14.005597044249399,13.378380749778696 2.4411396476217746,8.655851888591563 -16.599061027690574,11.855438307527262 0.04649928929534752,6.828541521820611 -18.759267993572877,9.749524934199268 -1.846981879379829,4.473942378184672 -20.35753076392374,7.1798848592206035 -3.125761792752254,1.7261532653477012 -21.297159307118438,4.293556136347018 -3.711468098044076,-1.2569589991456094 -21.519301132725154,1.2569589991456125 -3.565688493521826,-4.302828188674358 -21.00660827056826,-1.7536990075261345 -2.6924572651889846,-7.23417101405198 -19.784503386007888,-4.562647968597516 -1.1382787430577643,-9.879305784836863 -17.919956460375655,-7.004817282678772 1.0103286752353675,-12.0822067956843 -15.51782836098489,-8.935535010215233 3.6316395375577386,-13.711705645914947 -12.714980105647312,-10.239095032103755 6.575612871808811,-14.669296976479963 -9.672478349137894,-10.83568486573158 9.672478349137888,-14.89508436503765 -6.566340819481482,-10.686259698258358 12.742525847825751,-14.371507974544755 -3.57735338272637,-9.795065682555197 15.606533951397749,-13.124622981468278 -0.8805478245977927,-8.209651080544205 18.09623222123382,-11.222839496974764 1.3650472312148025,-6.018349617285921 20.064186507631558,-8.773182441829178 3.0257821613252283,-3.3453679676198576 21.39252663803618,-5.915275043990986 4.001336279260563,-0.3437500219912941 22.000000000000004,-2.8133837954654517 3.259259259259256,2.8133837954654517 21.865992531027675,0.12333695814685353 2.7844775236611916,5.7189317673282964 21.0558722999813,2.958245942971077 1.649016265272806,8.444577672492516 19.609506936234133,5.537372991753548 -0.08955964490609958,10.841807580999747 17.601429589037856,7.719690161364346 -2.340710023299984,12.779013653486773 15.137006319596283,9.384821680403858 -4.985628612222335,14.148717058897978 12.34691158514032,10.439680423866237 -7.8835102777014425,14.873526264669776 9.38020124410073,10.82366521675731 -10.879045722681884,14.910500640902049 6.396350173280017,10.512129131301988 -13.810744855959307,14.253673816705836 3.55667980183447,9.517920950305703 -16.519642764797428,12.93458951817975 1.0156363654028748,7.8909052270530555 -18.857918949989944,11.020809453846217 -1.0876085875152945,5.71547534651072 -20.696962495251636,8.612462452076226 -2.636778668748569,3.1061828087136227 -21.93444319328296,5.837010568616831 -3.544916936344279,0.20170871341669905 -22.500000000000004,2.8425054792004527 -3.759259259259256,-2.8425054792004496 -22.359230888769616,-0.21030818853708322 -3.2642840364990775,-5.862576407680517 -21.515758407929322,-3.1566214459445225 -2.082762797648197,-8.695001349719533 -20.011248215271685,-5.8364582925973245 -0.2747435191753276,-11.18550988984251 -17.923368062825165,-8.103361494094631 2.06548990538451,-13.197465513511531 -15.361786201680818,-9.832395224163534 4.814328728267718,-14.619359622018578 -12.462414933896802,-10.927027373061122 7.825365448790996,-15.370987068487096 -9.380201244100768,-11.324512571211258 10.9371905515924,-15.40796144471937 -6.280846824523611,-10.999476080496876 13.982044739913999,-14.724316379826437 -3.331899919750013,-9.965494494065378 16.794862882712977,-13.353041378204505 -0.693697891615642,-8.274576559783345 19.222222114071435,-11.364511762688984 1.4893498665527822,-6.014560647354493 21.13070902762709,-8.86288612930325 3.096664776696528,-3.304558311687064 22.414249706120906,-5.980655208969072 4.03815529408616,-0.2886799438069021 23.000000000000068,-2.8716271629354715 3.285714285714217,2.8716271629354715 22.870210667547205,0.07543779735516765 2.8261035892451467,5.789578247636261 22.08567430710784,2.9274298518233257 1.7256457731703776,8.539497539140708 20.682305356406715,5.540351342925879 0.03622892899607422,10.982128406330558 18.727354586061242,7.781455108726755 -2.1603398509577474,12.992924282566607 16.31619331538367,9.535987446900238 -4.756290837465871,14.468397390785642 13.567664383198364,10.713061457084022 -7.623176576079678,15.331441339773269 10.618226311843165,11.25036027487097 -10.618226311843163,15.535354010843315 7.615179113500871,11.11742704736473 -13.591455625470456,15.066351165518535 4.70930799503329,10.31736839598864 -16.393177255556104,13.94443611824079 2.0473123352318527,8.886877110950449 -18.881536985417654,12.222572915686358 -0.2355999202329322,6.894563989964231 -20.929695212294444,9.98419564606863 -2.022578616786543,4.437673856614962 -22.432290654850544,7.339170490861617 -3.2211098581733033,1.6373425858484616 -23.310856894774897,4.4184056882483835 -3.7678008248159642,-1.3673737144332412 -23.51791346089832,1.3673737144332445 -3.631723702256341,-4.4264031508272 -23.039518466717833,-1.6611338281205406 -2.8161427599435207,-7.386153333294212 -21.89614618823712,-4.514657796787379 -1.3585291405682618,-10.09722316179454 -20.141836627302567,-7.048746389320618 0.6711463310587007,-12.421943906923241 -17.86165086802093,-9.13426696683815 3.1737653270796677,-14.241368961856976 -15.167551544115028,-10.663984743731321 6.025898936427366,-15.461357434446706 -12.192907677502369,-11.558073274592404 9.085893465635571,-16.01744054994508 -9.085893465635577,-11.768273735769206 12.200905140081172,-15.878219532332082 -6.002107694155277,-11.280486592733006 15.214534386547612,-15.047116299082532 -3.096781386907244,-10.115657083049317 17.974678383746827,-13.562380345370208 -0.5169639317022927,-8.328901163734628 20.341207618539425,-11.495342523102511 1.60591899645598,-6.006906914789084 22.19307903185329,-8.946994664409846 3.1627591076862167,-3.263733422184293 23.434524735645994,-6.043058716480955 4.072369929484029,-0.2352104915722082 24.000000000000075,-2.927785958346246 3.310344827586132,2.927785958346246 23.87418620770377,0.028709959246368655 2.865011076220675,5.857032438255463 23.113756892411324,2.8962336465067464 1.7976235923501171,8.628998244595689 21.75117535266949,5.539843968165908 0.15510969674787844,11.112880987855629 19.84731782209976,7.8344247922783445 -1.9883858281183073,13.190735349173693 17.488759598989628,9.670605599918353 -4.5348434113609475,14.763072318899248 14.783841298876514,10.959972716027767 -7.366848741031904,15.753620180022413 11.857693817755205,11.63932294569926 -10.353005530863943,16.113019522025077 8.846450385055945,11.673755132383782 -13.354031530388148,15.821273495669775 5.890913396935062,11.05844870943545 -16.229254977118877,14.888832085447344 3.129970652721301,9.819039226474192 -18.843208482868004,13.356252721918743 0.6940688439843541,8.010566271831895 -21.0720112724474,11.29244612495041 -1.3009490223836195,5.715036129632988 -22.809239107021643,8.791582748175632 -2.7593511643980726,3.037706768194587 -23.97100380206856,5.968798461158233 -3.610107754019751,0.1022632813531077 -24.50000000000007,2.9548951706342157 -3.8103448275861354,-2.954895170634212 -24.368324164858127,-0.10971976538234163 -3.3474936747764055,-5.990993072330501 -23.578927465038397,-3.0815745425676893 -2.240028439393999,-8.863546450095011 -22.1656276817932,-5.820849619843598 -0.5367504333298179,-11.437049551371699 -20.19167257744095,-8.197955687615702 1.6853542986776766,-13.589366508963979 -17.746915134911387,-10.099663438284955 4.3245905065829255,-15.217526524978672 -14.943726549438402,-11.434495229765139 7.259205653064562,-16.24264765880426 -11.911832726340624,-12.13712198945894 10.35300553086396,-16.613753892116524 -8.79231147647057,-12.171554176143463 13.461674618355527,-16.31030097445162 -5.731028146373211,-11.532971223172822 16.439507881896933,-15.343286291526766 -2.8718151167995796,-10.248097064840799 19.14624001230866,-13.75488388170903 -0.3497140886431964,-8.374097167169257 21.45365200902938,-11.616614688466463 1.7154013515072783,-5.996041781310716 23.25164395406558,-9.026130953674917 3.2245217370250927,-3.2230476642555708 24.453486400624346,-6.102759095233221 4.104245711174052,-0.18327308748914817 25.000000000000128,-2.9820043829221334 3.3333333333332043,2.9820043829221334 24.877937765280148,-0.016880308229696883 2.901454095559931,5.9215723274540615 24.140252851098936,2.864810879273609 1.8653411764604328,8.713625560284168 22.81638283139607,5.53637443971583 0.2675687414357668,11.235098092362739 20.961601773035127,7.879732895955312 -1.8244664311717784,13.374209112698162 18.654717488479594,9.790644159571164 -4.321384155146257,15.035417415582744 15.994725811421727,11.1833372187599 -7.115637506381569,16.14368668278751 13.09656381223911,11.994359298321633 -10.08614407013069,16.647871288284637 10.086144070130691,12.185462045048695 -13.10353237645695,16.523070001248797 7.094884511823712,11.745395659958184 -16.035776215738856,15.771839544848262 4.253971454643182,10.690527211532412 -18.753971454643175,14.424209498216314 1.6886062964183743,9.064250571802994 -21.138002587915842,12.536492355406605 -0.48751183347633287,6.935208289636165 -23.081849935980465,10.18893539381789 -2.1772243410656635,4.394397939515443 -24.498303022098284,7.482312038297918 -3.304249137596706,1.551284763929715 -25.32287064387934,4.533597387336707 -3.816620890411066,-1.4709134135944524 -25.516712442922266,1.470913413594456 -3.6890805510593587,-4.540565951554546 -25.068458910514526,-1.5720377584875695 -2.924304552439491,-7.523362442615058 -23.994834932762487,-4.461810640018509 -1.5529144788784528,-10.288189359981494 -22.34005408832833,-7.071068424389544 0.3677387483800416,-12.712893170287366 -20.174004696602253,-9.2841936638435 2.755968387001964,-14.689676602800773 -17.58930172033531,-11.002410376137565 5.509223420984048,-16.129889715847682 -14.697328720399156,-12.148190701994885 8.508490723723838,-16.96800287984806 -11.623438929099935,-12.668749602126482 11.62343892909993,-17.16458373120685 -8.501522159506,-12.538470210458911 14.718081714957007,-16.708143051481873 -5.4681730166669205,-11.760148669619728 17.656714420838384,-15.61576354440355 -2.6567144208383837,-10.364998569129607 20.309864831355654,-13.932478495264654 -0.19133793349930883,-8.411409257422328 22.55999718036886,-11.729421993979322 1.8183815834628874,-5.982506941767205 24.30671809736767,-9.100826391566143 3.2823547234388784,-3.182620229323021 25.471253952551265,-6.159993567279562 4.134013429658584,-0.1328002748046364 26.000000000000096,-3.034412162205289 3.354838709677324,3.034412162205289 25.881482374516757,-0.06136889347784669 2.935656542330822,5.983441484473264 25.165283492935135,2.8332853308388586 1.929150049674245,8.79385181669576 23.878177491367452,5.530383528979696 0.3740583843056129,11.34967082672449 22.070496406316625,7.918347452510281 -1.6681857059462928,13.544871214468172 19.814166285343134,9.897803051523605 -4.115879527252636,15.28776846122384 17.199847707400416,11.385714795055295 -6.8703172840802775,16.50484861912561 14.333294292944764,12.318866887761697 -9.819769569905123,17.143866392211685 11.331075414286069,12.656545515311667 -12.844015102823098,17.17608305373333 8.315836078734637,12.382308451175035 -15.81924091538279,16.597548526497143 5.411286725291244,11.504765369136337 -18.623111272020274,15.429370817985912 2.737127607039575,10.057332528066134 -21.13979779202092,13.71695736954468 0.4041160017752574,8.096967484802708 -23.264763956454832,11.528255059150698 -1.490520479958171,5.701931428385787 -24.909106381697597,8.951056859649434 -2.8671345695332455,2.968666890066036 -26.003272607990812,6.089481798611699 -3.6670052899476495,0.007915309880297094 -26.500000000000142,3.0597692923192623 -3.854838709677278,-3.0597692923192588 -26.376351697908696,-0.014442298395611175 -3.4203171601913773,-6.108928812688464 -25.634762131474634,-3.0071611255970003 -2.3786292227549737,-9.014331877050946 -24.303044934431302,-5.795205431155598 -0.7699543824490362,-11.656117139643381 -22.433358530865995,-8.263273622313601 1.3420809114199699,-13.924737831893967 -20.100167473364476,-10.308712171035506 3.8729167049470057,-15.725503599206686 -17.397279036652442,-11.84578419664318 6.720443360487499,-16.982531349684816 -14.434072901610701,-12.809261276068696 9.769120401066473,-17.6419403282328 -11.33107541428613,-13.157188086461602 12.89466427166186,-17.67415698975445 -8.215057470068814,-12.872702839482024 15.969114838975672,-17.075231257056362 -5.213855396039328,-11.964834770724202 18.866074094326002,-15.867105955968782 -2.4511264190183297,-10.468241647578008 21.465902586547326,-14.09682398697051 -0.04125387722598006,-8.441893654605998 23.66065995459833,-11.834701372069642 1.9153879230219566,-5.96675333056163 25.35858555477839,-9.171536920004689 3.3366132080726807,-3.142542684824102 26.487933225851428,-6.214969126826983 4.161874613339528,-0.08372650175367724 27.000000000000156,-3.0851264224333046 3.3749999999998437,3.0851264224333046 26.884835595376643,-0.1047927492876024 2.967816376896682,6.042854425653506 26.188959477444055,2.8017568344433927 1.989366264150192,8.870087852691846 24.936792337985523,5.522243768526895 0.4749976880110154,11.457371478134696 23.174290869555218,7.951098059246831 -1.5191456957171994,13.704047114591184 20.96726481335896,9.993554596310219 -3.918203287569913,15.522169131224135 18.398921796943533,11.569349707976894 -6.631406251717021,16.839945916745172 15.566731473455938,12.615873792511884 -9.555510926333984,17.60457265991265 12.578727098373873,13.090656253382917 -12.578727098373871,17.784343746617083 9.549384855063387,12.973084212095504 -15.584991692437352,17.369960400379437 6.595238093713226,12.26528562182741 -18.458424497031007,16.37497988602248 3.830394507399266,10.992139348287413 -21.08779487057065,14.835385483860406 1.362128691107305,9.200408300387199 -23.370827255538593,12.808290264044093 -0.7132796820441811,6.957025495679488 -25.21817885164145,10.369821146619355 -2.3143006197337535,4.346595731167264"
    />
  </g>
</svg>
