<?xml version="1.0" encoding="UTF-8" standalone="no"?>
<svg
  xmlns:svg="http://www.w3.org/2000/svg"
  xmlns="http://www.w3.org/2000/svg"
  version="1.1"
  viewBox="-11.854366377474378 -13.88404628099397 212.71321863383866 216.77606703618272"
  width="212.71321863383866mm"
  height="216.77606703618272mm"
>
  <defs id="defs4215" />
  <g id="layer1">
    <path
       id="path5"
       style="fill:none;fill-rule:evenodd;stroke:#000000;stroke-width:1px;stroke-linecap:butt;stroke-linejoin:miter;stroke-opacity:1"
       d="m 100,100 1.6666666666666714,-2.8867513459481273 0.31537583210331377,0.5905330104711339 0.16005295125397367,0.5984144027162728 0.01433325943865782,0.5704502473023894 -0.11414711472754391,0.5107525186434572 -0.21899145322656466,0.42496565082417703 -0.2953344239925997,0.3199415424335825 -0.3400552184654657,0.2033617523159421 -0.35190285616032213,0.08332505514709965 0.19790653287962812,0.12551920706724218 0.488671586967925,0.13738236415316862 0.5082018811614262,0.07734503073758958 0.5220743495197411,0.01551202265466145 0.5301478656794956,-0.04764036983485198 0.5323189434935216,-0.11162568405802631 0.5285224281092837,-0.1759501410104889 0.5187319764268636,-0.24011554621229436 0.22775776217052623,0.11225382829071862 -0.43484842810683233,0.8362999352646909 -0.564726215587811,0.6868774727714708 -0.6546883481041021,0.5202900554400856 -0.7032436855636348,0.3460429122893345 -0.7110131890075593,0.17353102524762676 -0.6806249896060876,0.011592159546722769 -0.6165184324824793,-0.1319028042132544 -0.5246676808400252,-0.25040430204032305 0.18837155858794574,0.49408018528481534 0.25029475888712227,0.47832126931585606 0.3108589408678313,0.45674754831408393 0.3695792338989463,0.4294752221640863 0.42598047963289787,0.3966583563969266 0.47960006789098486,0.3584880909096171 0.5299907096247125,0.31519164241072417 0.5767231322707147,0.26703110548899645 -0.625464755937557,0.2653882933205409 -1.2238120323474106,0.07052849091948588 -1.1592598967271641,-0.16653019480604314 -1.0512082200353348,-0.3766687366932757 -0.9074667591752501,-0.5523594617018546 -0.7370546973249787,-0.6880426525267751 -0.5497420164548004,-0.7802999732360121 -0.35557114569765247,-0.8279263839954609 -0.22839781865653208,-0.3952990942821515 -0.2623093834507131,0.513665203191195 -0.21081059492490795,0.5543392510095657 -0.15531304288032288,0.5904737089423548 -0.09618967463318029,0.621731767247752 -0.033839637347739426,0.6478059092792421 0.031313951608311186,0.6684198518904338 0.0988263732512138,0.6833303200516809 0.168233802406192,0.6923286459745412 -1.0824788520538533,-1.1356847511345478 -0.8114172179326431,-1.2776507795835101 -0.5268838689655411,-1.3597089730946408 -0.24143247677670843,-1.382073709520398 0.032979464045553186,-1.3474823192082823 0.28547960458644184,-1.2609730754334123 0.5067066807246903,-1.1295716387306953 0.689156888951544,-0.9619018479954065 -0.15036562783863872,-0.2188234867419112 -0.6253809790248397,0.14541459606714113 -0.626884540407886,0.21347794803233455 -0.6222618897206331,0.2821892292320598 -0.6114448923849523,0.3510450040039217 -0.59440461448024,0.41953630103080286 -0.5711517195981202,0.4871515582527337 -0.5417366500797982,0.553379593904566 -0.22227725381759456,-0.21682815729130311 0.5820662646050323,-1.7657967734424176 0.8835067589008645,-1.5723244947725306 1.133738638559464,-1.3303198590770933 1.3255931277949315,-1.051959787934024 1.4546147437560393,-0.750327515650639 1.5191362010776714,-0.4388349614779088 1.5202346229772417,-0.1306510199889459 1.4615742537686316,0.16184055568378142 -0.5023241562344936,-0.48421382742617425 -0.563008329062086,-0.44876113374688487 -0.6210993459749403,-0.4076102953851404 -0.6761220967946002,-0.36095477416378685 -0.7276160156833527,-0.3090251322295501 -0.7751378594396527,-0.25208793887509273 -0.8182644040266638,-0.19044447529958575 -0.8565950449539343,-0.12442924337821637 1.0966551941856153,-0.4931706510437124 2.1218315105191436,-0.3519507366460175 2.094106251399154,0.05836478110083476 1.9897640530326441,0.44559196871499296 1.8164832622038176,0.7959296995949074 1.5843295075815718,1.0976312991837176 1.3052600013834308,1.341397146651559 0.9925677040243528,1.5206549370705886 0.5225695293380568,0.8281596217283322 0.09123412831669953,-0.7770979947476917 0.023531835885592045,-0.8065103139789471 -0.04743011636190886,-0.8303878393451072 -0.12121775018695757,-0.8484421336174677 -0.1973740452685746,-0.8604177893740115 -0.27542139724694437,-0.8660941637526349 -0.35486420134638763,-0.865286933481201 -0.10185821528956751,-1.4351997305358566 1.6216893573827775,1.4774559810216488 1.3364513040143038,1.6805495467517915 1.028443778687972,1.8315787665118535 0.7067974177402334,1.9285423273266105 0.38069097078806635,1.9709909675887332 0.05909429487958562,1.9599908119161427 -0.2494756599135144,1.898045131156394 -0.5371792950672756,1.7889777341949866 -0.7970533490937726,1.6377822163758822 -1.0231793777895462,1.4504421701381034 0.7202955865374037,-0.2791092529952124 0.7159704635449771,-0.3400510300951822 0.7072098395038182,-0.40124034759335814 0.6939793806219683,-0.46237844244193127 0.6762639430654218,-0.5231638179902802 0.6540677553708605,-0.5832934374354011 0.627414528356212,-0.642463928365288 0.5963474918946048,-0.7003727940685422 0.5609293581718049,-0.7567196272491685 0.5212422113040986,-0.8112073217656359 -0.49329305265634105,2.4560211011316255 -0.8604365963982872,2.302840612242562 -1.1920718357010145,2.0963948326929795 -1.4807469984951354,1.8439651878614427 -1.7204031895442853,1.5538265932763267 -1.9064977446518299,1.2349929929193166 -2.036082636173404,0.8969493660940628 -2.107836822880415,0.5493779353957677 -2.1220527384642196,0.20188630830125476 -2.080578385035068,-0.1362549299153386 0.706535409279752,0.4814987191867459 0.7568630764673969,0.441807815969085 0.804901257336212,0.39817440347366073 0.8503756191830263,0.35073307237759366 0.8930198368226883,0.2996362964734658 0.9325767109100838,0.24505395324190715 0.9687992574983042,0.18717277648136132 1.0014517647911418,0.12619574272039813 1.0303108131534628,0.06234139337222189 1.055166254557932,-0.004156905176543546 -2.6568872930482,0.9359162808805763 -2.7254492867227924,0.49539470376774375 -2.7227185684746615,0.05679679153499251 -2.651023034650919,-0.36859720211622005 -2.5144360612950294,-0.7701917084173573 -2.3186193736363805,-1.1383397199595038 -2.0706270389109562,-1.4645743834778813 -1.778676802459259,-1.7418027528848938 -1.4518957510934598,-1.9644572943848289 -1.1000478464749222,-2.1286019830625236 -0.009012746387483617,0.9419050427329267 0.055121893154918666,0.9626589939466612 0.12136354595912735,0.979222415642738 0.1894463309243264,0.9914338557782685 0.25909336235110914,0.9991483626639877 0.3300177563051392,1.0022381878285245 0.4019236800374557,1.0005934283608582 0.47450744086499697,0.9941226061700377 0.5474586107639681,0.9827531818117734 0.6204611827930222,0.9664320007529881 -2.397611703681804,-2.0107326349864394 -2.019397910579656,-2.328641677340485 -1.6015982334961478,-2.5785281945748295 -1.156046755923299,-2.755956678961965 -0.6949731826668568,-2.8584965554284025 -0.23067070935482548,-2.8857343029253855 0.22482982359571224,-2.8392316482199647 0.6600708991918935,-2.72243214164385 1.0644563945133854,-2.5405197687411203 1.4285095140661355,-2.3002344728663076 -0.8701823089609917,0.5551662545579319 -0.8512040642703624,0.62357417007766 -0.8274196526314199,0.6914525087763508 -0.798835919409683,0.7584841734640548 -0.76547980302891,0.8243515136248476 -0.7273984020392845,0.8887375631439625 -0.6846589675242143,0.9513272830304658 -0.6373488205334183,1.0118088047040033 -0.5855751944895928,1.0698746693974357 -0.5294650027766608,1.1252230592232735 0.5671630090855047,-3.394627891373034 1.080227542198216,-3.2183357882508687 1.5523717883417163,-2.966235864880531 1.972684177375669,-2.6467337031790237 2.331864468674695,-2.2697557666407846 2.622426918016231,-1.846454272049698 2.8388511514909993,-1.3888865449745822 2.9776778550679808,-0.9096778880364838 3.037547914472583,-0.4216772541011551 3.019185175276391,0.06238497348616079 -1.0205511467374038,-0.4732759277141838 -1.0700181186156783,-0.4171619796512829 -1.1163372679716588,-0.35717307483484717 -1.1592389738482183,-0.2934886332096056 -1.1984639625312354,-0.22630564980504175 -1.2337644065446511,-0.1558380932784047 -1.2649049885204278,-0.08231623769366081 -1.2916639259741345,-0.005985929592782213 -1.3138339531359549,0.0728922073531777 -1.3312232561205946,0.15404362760008894 3.5066795957763475,-1.3412464171571372 3.628186839088059,-0.7627977491873708 3.656172975923525,-0.17968839565961048 3.592209551714589,0.3932430384340364 3.4401795523041727,0.9417681228925971 3.2061249614760214,1.45262193183828 2.898041390546396,1.9138237216609753 2.5256262305222066,2.3149572076930554 2.0999878816821536,2.647403900950195 1.6333245004397128,2.9045243293615073 -0.15511626864660855,-1.2097392528230841 -0.23304333457777204,-1.2215362976113369 -0.31258974346698665,-1.2284332481869171 -0.39345314680178944,-1.230295147632404 -0.4753216280962107,-1.227005411630131 -0.5578748052712541,-1.2184664535735834 -0.6407849718915912,-1.2046002442383354 -0.723718273409176,-1.1853488036778828 -0.8063359144286579,-1.160674623234641 -0.5549620595498226,-1.7079112849767029 2.7957973533323326,2.2361044871461644 2.4401395738660483,2.564374278596162 2.0475041598903516,2.8381211820507986 1.6260210886274962,3.053428758294018 1.1841938318295746,3.2075662816102835 0.7307296113368267,3.2990170540289085 0.274368943997942,3.3274828115833515 -0.17628220613423196,3.2938645599860905 -0.6129144557126125,3.200220631205383 -1.0276681640950756,3.049703184141947 -1.41327490720289,2.846474773775441 -0.8224234820027476,1.5407253346017171 0.9364702016480067,-0.7021092012459889 0.9136112532555956,-0.7637050533447791 0.8870919553611145,-0.8246228764123202 0.8569289649144309,-0.8846574495858306 0.823150016945803,-0.943603765107909 0.7857939351875274,-1.0012576105636413 0.7449106126981349,-1.05741615232742 0.700560962409881,-1.1118785186985747 0.6528168375967596,-1.1644463811990846 0.6017609223355436,-1.2149245325070552 0.5474865921104026,-1.2631214595025284 -0.14604726846667404,2.150282527478794 -0.8986141698809149,3.7602345213360735 -1.3836221451413735,3.566923421338899 -1.8332080132376092,3.3121656439028015 -2.2397462940544415,3.001937280275598 -2.5965692622607577,2.6431373540691396 -2.898075132301983,2.2434397092954015 -3.139813943448118,1.8111327625330205 -3.3185498710740973,1.3549504061884647 -3.432299166373369,0.8838974688034824 -3.48034341119471,0.40707318945094073 -3.4632182580954947,-0.0665038536127156 1.1664855891133783,0.4738197300741831 1.208956096827606,0.4194990607996516 1.2488564911356974,0.36232477686040454 1.2860164298858194,0.3024201187280795 1.3202715438143002,0.23991785462874304 1.3514639478734267,0.1749599887407527 1.379442738223247,0.10769744272764115 1.4040644735261338,0.03828971131278536 1.4251936392180937,-0.03309550732872424 1.442703093467813,-0.10628270551973173 1.4564744935774314,-0.1810889834649032 -0.30252933425488493,0.4238013223500303 -3.952658259365876,1.3979585588017045 -4.065712814324854,0.8437001337682943 -4.102215289929148,0.28459367868356367 -4.062930928937405,-0.2689376171381639 -3.9500245323052496,-0.8067656311042413 -3.766994961955163,-1.3192426030980045 -3.5185854698524963,-1.7973741864761195 -3.2106719532390002,-2.2329771505681038 -2.850131627271651,-2.618818972489535 -2.4446949441385613,-2.9487369459622386 -2.0027838661581683,-3.2177348648596933 -0.42081640512388674,-0.23116769313713803 0.2753103198015481,1.3417488148279517 0.348283046731666,1.3462969305736436 0.4221920266637227,1.3469625769204896 0.49683422176173053,1.3436721198409174 0.5720019287268201,1.336362396616849 0.6474833126475943,1.3249809835871815 0.7230629553599925,1.3094864369421941 0.7985224169676144,1.2898485058071998 0.8736408091340451,1.266048316925776 0.948195378724364,1.2380785303208768 1.021962100340943,1.2059434653837826 -3.577867447137379,-2.7607850710428465 -3.1447021587204063,-3.189286201002588 -2.6618063173093987,-3.5519532394233693 -2.1389436568689604,-3.8432602502788455 -1.586452668019092,-4.059100881876077 -1.015043638877458,-4.196841580585158 -0.4355919435257931,-4.255346212718351 0.14106844772761917,-4.234972066045401 0.7043473242324865,-4.137537747925563 1.2440926810567419,-3.966264025112295 1.7507736857308487,-3.7256891510661347 1.060076939657847,-2.0071465072652614 -1.0832546509924441,0.9798389338671285 -1.0477876030894322,1.0477405900235937 -1.0083899923723436,1.1143922073781738 -0.965104410999146,1.1795770179693932 -0.9179850211518783,1.2430796421470944 -0.8670975124373967,1.3046866916971709 -0.8125190284072517,1.3641873717670308 -0.7543380622265659,1.4213740800342265 -0.6926543215987806,1.476043001558736 -0.6275785631317774,1.5279946977653793 -0.5592323964081629,1.57703468801094 0.17344392317191648,-2.6730418406960155 1.045938842574813,-4.6904058967062525 1.6544734359359836,-4.468900652214103 2.222683384718607,-4.169622512644381 2.740796056426973,-3.799353409011914 3.2001241760936523,-3.366079130929876 3.593210566082604,-2.8788215436635625 3.9139476146178964,-2.347453940469876 4.157669591337992,-1.782503258835547 4.321216468984105,-1.1949430858143018 4.402968469437852,-0.5959814969555026 4.402851118819044,0.003152185988255951 -1.4805394015670004,-0.4667711958633731 -1.5223774466980302,-0.39836765297712873 -1.5610141895352712,-0.32715305126927774 -1.5962818327526662,-0.2532789065429313 -1.6280198179180445,-0.1769061197111057 -1.6560753291459633,-0.09820462833896215 -1.680303779881143,-0.017353031922752393 -1.700569281470905,0.06546180827513126 -1.716745092226148,0.1500451939467382 -1.7287140457132608,0.23619503806295938 -1.7363689570655225,0.3237023357846738 0.3951128184114907,-0.47273312238476706 4.8158455008404815,-1.7745633023961318 4.971640890280355,-1.1010280722786163 5.034486470548501,-0.41798705381517465 5.004670661657599,0.2618932890322583 4.884186879258891,0.9261978557191881 4.676671139567503,1.5629896002630588 4.387309905880699,2.1610240194059287 4.022720321474935,2.709947584020483 3.590805465338292,3.2004766143597294 3.1005877026624376,3.6245535157934086 2.5620235737005714,3.975477760735501 0.4765301543569933,0.31983561709839137 -0.44639935940097075,-1.6052028325997725 -0.5310196308651882,-1.60180978694369 -0.6162081481699602,-1.5940197030003418 -0.7017391579921792,-1.5817759754576883 -0.7873830284091667,-1.5650334722927681 -0.8729068269105653,-1.543758766208029 -0.9580749112458307,-1.5179303371692754 -1.0426495316731774,-1.4875387453657254 -1.1263914431393687,-1.4525867739824037 -1.2090605258893135,-1.4130895412481266 -0.9570830796423735,-1.9464248504862098 3.884586110082708,2.9176019090002825 3.4877236065095474,3.3311987348560024 3.047861693577971,3.692265732485538 2.5718073833728,3.996470374811892 2.0667854108423853,4.2403471115462 1.5403294101253664,4.421334992015147 1.0001700934398627,4.53780180103152 0.45412208505413787,4.589054530789582 -0.09002893772898801,4.575336212126913 -0.6246371692797368,4.497809326195707 -1.142304086815841,4.3585262097673905 -1.6359808393524702,4.160387051306628 -2.0990641974612174,3.907086247994002 -0.025925985432508014,0.5434764256085742 1.1285317248969022,-1.0922949597533602 1.0931147270163137,-1.153534811094275 1.054616458636474,-1.213650563129022 1.0130716591727094,-1.2724942195290083 0.9685219557072458,-1.3299188214208186 0.9210158333917775,-1.3857787606829248 0.8706085918450128,-1.4399300924507088 0.8173622875643218,-1.4922308462123226 0.7613456623979857,-1.5425413348780808 0.7026340581502382,-1.5907244612081826 0.6413093174200526,-1.636646020985367 0.5774596707996125,-1.6801750023240487 0.21445150036839777,0.5804458357126663 -0.8029430410197165,5.097036763930959 -1.3888999115050922,4.932828803403638 -1.9474918404575874,4.702016112541145 -2.4712403959769063,4.408739420221124 -2.953258940510665,4.057967685280872 -3.387342914255413,3.6554166897360005 -3.7680492270406774,3.2074579751444503 -4.090763749888183,2.7210195484743167 -4.351756081044172,2.203479886005141 -4.548220954799859,1.6625568426688346 -4.678305861919711,1.1061931289160611 -4.741124654998899,0.542440047137859 -4.736757117550837,-0.0206588152835252 1.5900225382422661,0.46877596774928065 1.6268003865993705,0.4048347153089651 1.660979069658623,0.33873028057121246 1.6924455371894425,0.2705693413663255 1.7210911539957436,0.2004641121415034 1.7468119601184782,0.1285321599628162 1.7695089233267964,0.054896208633550714 1.7890881833669567,-0.020316068746893734 1.8054612874507683,-0.0969722684362182 1.818545416480589,-0.17493548554264748 1.828263601523929,-0.2540645539666855 1.834544930066187,-0.334214296376274 1.8373247415892422,-0.41523578377987747 -2.7164720979163093,1.3690652172384716 -5.164626983529459,1.776478098900526 -5.30357242932142,1.1477623086331619 -5.366792461745561,0.511141246161543 -5.354366950498729,-0.12435628925854303 -5.267441708800334,-0.7498308832357168 -5.108199112375871,-1.356637119746125 -4.8798142962737785,-1.9365030784940132 -4.58639772458703,-2.4816430644470984 -4.232925115189502,-2.9848620337277794 -3.8251558724354737,-3.439650316825407 -3.3695413331108313,-3.840267395597806 -2.8731242627545157,-4.1818136623084285 -1.4836986737151392,-2.3795601692107624 0.46885001501052415,1.7006376636841196 0.5462697763814575,1.6971726459809133 0.6241234150088246,1.6902258560878494 0.7022559482846589,1.6797585694096142 0.7805100496515536,1.665738899472018 0.8587263480118708,1.64814192114207 0.9367437331527384,1.6269497808256688 1.014399666624044,1.6021517933627933 1.0915304974942615,1.573744525364532 1.1679717823957958,1.5417318647591003 1.2435586092629052,1.5061250763416751 1.3181259241545717,1.4669428431465974 1.3915088605456702,1.4242112934882698 -4.671182914647986,-3.435774637747272 -4.207963407494248,-3.9382342682861804 -3.6917597446156947,-4.379748684739241 -3.1304372703484873,-4.7548701105363165 -2.5324027995405274,-5.059149869914435 -1.9064794066012851,-5.289189639896975 -1.2617767287705135,-5.442677194729626 -0.6075586839322256,-5.5184063048204735 0.04688948008310234,-5.516280682838854 0.6923928988813159,-5.437302099385349 1.3200157001522825,-5.283543016238866 1.9211847050288995,-5.058104303437091 2.4878065097345186,-4.76505881423256 0.07529018384107644,-0.6358303450844858 -1.2729767558626648,1.3712555200782077 -1.2264964558956066,1.437951188239893 -1.17672922047106,1.503084207656741 -1.1237271649347491,1.5664988457375415 -1.067549582627322,1.6280410954864237 -1.008262888046815,1.6875589996672886 -0.945940545600557,1.7449029730988883 -0.8806629840078699,1.7999261224471184 -0.8125174964437107,1.852484562885877 -0.7415981265390599,1.902437730996354 -0.668005540382687,1.949648693285468 -0.5918468846952436,1.9939844497021681 -0.21102519048973534,-0.685108775322206 0.8952686061844162,-6.034433958180287 1.5907647446370063,-5.852876682002432 2.256097471996469,-5.591959972541176 2.8823085994848157,-5.256241893276069 3.4610910420934857,-4.8512797716450535 3.984898793769524,-4.383540635659756 4.447044915884732,-3.8602997356811812 4.841786272372772,-3.2895287220943743 5.164393947284637,-2.6797751810917276 5.411208496096194,-2.0400353365417416 5.579679407692566,-1.379621804717658 5.668388386183352,-0.7080283395958347 5.677056297213497,-0.03479352907704936 -1.9041010643148297,-0.46260825767505764 -1.9403946263495442,-0.3863410952482127 -1.9736054834986163,-0.3079392663455707 -2.003622077848547,-0.22752841048803418 -2.0303380098029464,-0.14523963060624823 -2.0536522948366667,-0.06120927991837277 -2.0734696114001565,0.02442126291867197 -2.089700539445957,0.11150583001485614 -2.1022617890711217,0.19989371141757317 -2.111076418781394,0.28942991283222597 -2.1160740429026106,0.37995542345633737 -2.117191027683134,0.47130749346999323 -2.11437067564853,0.5633199207044299 3.1813532554257193,-1.609779435455053 6.037200035570464,-2.1312368600624296 6.2117946252046465,-1.3975020785427859 6.298073038980277,-0.6523998608883659 6.295795486269142,0.09353711005135068 6.20596709826664,0.8298783884828183 6.030810497266671,1.5464416039909423 5.773721435532366,2.233433265831181 5.439208306585087,2.8815825861267257 5.032816553410655,3.4822664937301795 4.561039203008363,4.027624154299623 4.031214942071784,4.510659478616411 3.4514153118988133,4.925330287710267 1.7659404567506556,2.820465375993038 -0.6347367634587613,-1.967405255187927 -0.7225018786514283,-1.9572218861585498 -0.8104291339723488,-1.9431557678597358 -0.8983480140268796,-1.92517915318453 -0.9860861024200744,-1.9032717344982188 -1.0734694044338369,-1.8774207490046848 -1.160322674999918,-1.8476210701905273 -1.2464697513734961,-1.813875285096266 -1.3317338898961282,-1.776193757188473 -1.415938106229163,-1.7345946746318077 -1.4989055184296092,-1.689104083789367 -1.5804596922282883,-1.6397559078022397 -1.3270916545372415,-2.163942219321605 4.915209057275717,3.549192844062972 4.492887747722762,4.023767593032041 4.025472729760736,4.449155359311618 3.518595745737798,4.8211552928783235 2.9782700333237813,5.136202330212498 2.41081940569336,5.391400659140018 1.8228045413849259,5.58454935530041 1.2209473399005333,5.714159976092148 0.6120542130659032,5.77946599076617 0.002939186134483407,5.78042401870124 -0.5996523233554569,5.717706940740641 -1.1891181967255022,5.592689039745466 -1.7590719483512203,5.407423415198551 -2.30341191039588,5.164612001793401 -2.816386518704462,4.867568602521942 1.346810911914588,-1.398535609561904 1.3051055089225372,-1.4602368904333787 1.2607246470384723,-1.5207121308357046 1.2137037581136383,-1.5798494345858956 1.1640828355541544,-1.6375379083456636 1.1119064066652982,-1.693667844052925 1.0572234978080246,-1.7481309006155783 1.0000875923856256,-1.800820284588056 0.9405565816909132,-1.8516309295508506 0.8786927086534604,-1.9004596739146251 0.8145625045384577,-1.9472054368715561 0.748236718659598,-1.9917693922184867 0.6797902411772156,-2.0340551397778626 0.6093020190658365,-2.0739688741462174 0.5368549653447019,-2.111419550501296 -0.632520951145807,6.344877720346574 -1.2873639645323465,6.212988405046104 -1.9216184549831041,6.014055236541651 -2.5284782623111823,5.750929893998517 -3.1015068418534497,5.4271487440671535 -3.6347054581772227,5.0468869357144115 -4.122575846378368,4.6149057788223615 -4.56017668798944,4.1364940584385295 -4.9431733239779305,3.6174039990841607 -5.26788020865115,3.0637826474379892 -5.531295694526335,2.482099486480621 -5.7311288283517,1.8790711293637514 -5.865817931427941,1.2615839665584758 -5.934540832091315,0.6366156550176356 -5.9372167136026945,0.011156343082063813 1.989271312042547,0.46527714008846033 2.0217259282446634,0.39465574985143803 2.0516536292366823,0.32233704141995645 2.0789755366399163,0.2484120900220148 2.103616076185091,0.17297540633839503 2.125503121307773,0.09612481594118094 2.1445681323233856,0.01796133289835211 2.1607462909483957,-0.0614109722914975 2.17397662994334,-0.14188511026392803 2.1842021576568413,-0.2233513156710103 2.1913699772579207,-0.30569719519255045 2.195431400450957,-0.38880788047825376 2.196342055474375,-0.4725661858150261 2.194061989192164,-0.5568527703056816 2.188555763095934,-0.641546304337794 -6.0908758360715325,2.767219809629637 -6.317446720556816,2.1041374812790536 -6.472449752771055,1.4241304731904165 -6.554840197391982,0.7348614228243946 -6.564387493208656,0.04402497087244228 -6.501670415247972,-0.6407381080933874 -6.368063246371349,-1.3119254064840504 -6.165713191877387,-1.9622550816411035 -5.897509367049878,-2.5847448502900363 -5.567043779453371,-3.1727869226406824 -5.1785648141531055,-3.7202180722914306 -4.736923809921954,-4.221384099724702 -4.247515387116344,-4.671198016667233 -3.7162122524304806,-5.065191355077502 -3.1492952615522043,-5.399558087089844 0.6456257557885579,2.045155853992327 0.7261126298055274,2.036014805987861 0.8067364827082386,2.0237297298606904 0.8873753100583812,2.008280342687101 0.9679058734367558,1.989651068037432 1.0482038810395125,1.9678310968632218 1.1281441710021056,1.9428144414881956 1.207600897188712,1.9145999825875322 1.2864477171793922,1.8831915090488565 1.3645579821851257,1.8485977506208258 1.4418049286140189,1.8108324032628786 1.5180618710107794,1.7699141471221083 1.593202396087726,1.7258666570737091 1.6671005575611417,1.6787186057695749 1.7396310715081142,1.6285036591550295 -5.705276327907995,-4.062268528748405 -5.224995934320177,-4.616617113109953 -4.691600701827639,-5.115283331378521 -4.111445265815767,-5.553263479475788 -3.4913457180091996,-5.92626960084479 -2.8384998904168057,-6.23077087145775 -2.1604040692578863,-6.464026193608063 -1.4647670998483662,-6.624107708106763 -0.7594228647761625,-6.709915038717341 -0.05224212782000137,-6.72118018811004 0.6489552650409891,-6.658463110149512 1.3364868484357189,-6.523138087696353 2.002891708299096,-6.317371147213265 2.6410114382688405,-6.044088840101054 3.244067003427915,-5.706938814839731 -1.4991106135849677,1.6732915444888619 -1.447723589884717,1.7401406344047246 -1.3934873491293445,1.8054226642551896 -1.3364493304313214,1.8690198815248493 -1.2766617315262607,1.930815959157897 -1.214181466248526,1.9906961846094475 -1.1490701145964763,2.048547647637079 -1.0813938654247082,2.1042594265440187 -1.011223451811233,2.157722772588059 -0.9386340791590584,2.208831292272052 -0.8637053461027335,2.257481127233376 -0.7865211582999336,2.3035711314501697 -0.7071696352011543,2.3470030454895863 -0.6257430098992813,2.387681667520866 -0.5423375221728435,2.425515020823795 0.6818238928313605,-7.285633889755559 1.4347326162425276,-7.143437452996963 2.1654382149310436,-6.924002968556465 2.8660777901841286,-6.630406732306113 3.529187326576867,-6.266518956384871 4.147781142862684,-5.836954206346753 4.715425366456422,-5.347013965419883 5.226304660056208,-4.802622030505297 5.675281510575303,-4.210253519162073 6.057947479283527,-3.5768583321234644 6.370665906844053,-2.9097799712040597 6.610605666659296,-2.2166706572366905 6.775765663442712,-1.5054037265063727 6.864989880042387,-0.7839843067278593 6.8779728830114095,-0.06045928476758888 -2.303366782365032,-0.45979458326033296 -2.3354387216193118,-0.37821475901797896 -2.364601534948477,-0.2949576473959894 -2.3907772758716135,-0.21012765038167913 -2.4138917665468114,-0.12383256477416182 -2.433874739665299,-0.03618344543554031 -2.450659975360523,0.05270553722193938 -2.464185432904344,0.14271724533060137 -2.4743933769648976,0.2337317270524153 -2.481230498213364,0.3256263752542168 -2.4846480280700973,0.41827609116461417 -2.484601847389925,0.5115534527959511 -2.4810525888938884,0.6053288879059551 -2.4739657331634817,0.6994708512678187 -2.4633116980227854,0.7938460060081027 6.930246048389257,-3.194900294353026 7.196923558864583,-2.441737009152064 7.382397484785656,-1.667950233138228 7.485289245342855,-0.8822300745346467 7.505143662617627,-0.09332791255796735 7.442426584657028,0.6900410497789551 7.298512294322123,1.4592940581942315 7.075660923892073,2.206074841588972 6.776986205357389,2.922344378162947 6.4064139917713305,3.6004674073641922 5.968632084785469,4.233293756976927 5.4690319965193055,4.8142336198026285 4.9136433591831405,5.337325988734008 4.3090617725085,5.797299541675017 3.6623709462376155,6.189625357722093 -0.807421524440656,-2.314429232091179 -0.897207342217996,-2.2994775591257337 -0.9869216863291115,-2.281060869256244 -1.0764314769724024,-2.2591663499857617 -1.1656026678264197,-2.233786277285361 -1.2543004398137896,-2.2049180669141037 -1.3423893972508267,-2.172564318389462 -1.429733766105585,-2.1367328515043766 -1.5161975940806087,-2.0974367352975634 -1.6016449522360574,-2.054694309395117 -1.6859401378619054,-2.0085291976525355 -1.768947878309433,-1.9589703140361294 -1.8505335354832653,-1.9060518606945607 -1.9305633106990854,-1.8498133181820506 -1.6755711162735452,-2.36764969699675 5.904438861235917,4.146688289669704 5.465755082278093,4.666502100560315 4.981839338738553,5.140709426329124 4.4573662972708235,5.565428655244666 3.8973381110409946,5.937251686373614 3.307036941212573,6.25327096932255 2.691975308888317,6.511101825543292 2.0578447427162416,6.708899884020951 1.4104631994718488,6.845373509700053 0.7557217426094383,6.9197911493255475 0.09953096698691866,6.931983566055237 -0.5522323432859366,6.882340980809758 -1.1937778426019463,6.771805184440495 -1.8194530659582142,6.60185672999792 -2.423793228388888,6.37449735826624 -3.0015689430089196,6.092227851904283 -1.789626403738879,3.3088047572641415 1.5198667989242551,-1.7515064276842907 1.4711582860685724,-1.8124148027187914 1.4201163766643106,-1.8719779120591795 1.366777951347217,-1.9301090654618491 1.3111830404259877,-1.9867225758418954 1.253374796820026,-2.0417338717827107 1.1933994650317459,-2.0950596093220213 1.1313063461719537,-2.1466177828757225 1.0671477590635448,-2.1963278351610995 1.0009789974510852,-2.244110765983862 0.9328582833500718,-2.2898892397509485 0.8628467165749782,-2.333587691575204 0.7910082204873845,-2.375132431837173 0.7174094840133591,-2.414451749071233 0.6421198999813384,-2.4514760110451306 0.565211499837261,-2.4861377639028888 -0.1864230924372805,4.174686026492338 -1.1213098512626516,7.425856512259102 -1.809436715925841,7.259699092758154 -2.4762936908992117,7.030182843896995 -3.1160863466592446,6.739830409661195 -3.723305609420322,6.391690536239366 -4.292775153162921,5.9893068255588275 -4.819695450959159,5.536682256834837 -5.299684111406208,5.038239826769484 -5.728812162236039,4.498779691748496 -6.1036359822575434,3.9234332243890435 -6.421224624311634,3.3176144218553816 -6.679182315502857,2.6869691242746114 -6.875665966194944,2.0373225181951966 -7.00939756569673,1.3746254122088999 -7.079671389796658,0.7048997795230889 -7.0863559928841084,0.03418406538804675 2.3715123103986997,0.46274530761274946 2.400567173829131,0.3872860529359059 2.427206484638532,0.3104589315869646 2.451373015585091,0.23234170907917928 2.4730120561664677,0.1530143949083822 2.492071497068622,0.07255916071454749 2.508501911942048,-0.008939744646056624 2.5222566363949284,-0.09139608302982083 2.533291844095203,-0.174721717844875 2.5415666198770737,-0.2588267077046851 2.5470430297501707,-0.3436194027971453 2.5496861877129504,-0.42900654386679093 2.5494643192756996,-0.5148933637038908 2.546348821601356,-0.601183691030883 2.540314320176634,-0.6877800566732333 2.531338721929785,-0.7745838018996949 -0.6535796211748561,0.6203695499022217 -7.194016026173244,3.0993600448635164 -7.427221836332976,2.3988751079886015 -7.592674922765838,1.6820933140216994 -7.689384965230644,0.9555267443358275 -7.716983793631854,0.225728657924833 -7.675724304559807,-0.5007656006989691 -7.566473797473023,-1.2174971209914247 -7.390701828887288,-1.9181408492872833 -7.150462731863044,-2.5965614046193366 -6.848372995322933,-3.2468667949110284 -6.487583742919092,-3.863459563339461 -6.071748593869749,-4.441084921110814 -5.604987228040841,-4.974875453179095 -5.091845014226948,-5.460392017287035 -4.537249093741963,-5.89366049375522 -3.946461340831334,-6.271204083374926 -0.6287382460235023,-0.5794414894365332 0.8939018369471654,2.365798868003452 0.9765329680276267,2.3495906201700905 1.0590193998307313,2.330513250883797 1.1412620368699322,2.308560132706816 1.2231612334393205,2.2837280444769874 1.304616910191271,2.2560171990460844 1.3855286719050852,2.2254312670449963 1.4657959263105411,2.1919773966266405 1.5453180038303032,2.1556662291462203 1.6239942781024013,2.1165119107389785 1.7017242871442235,2.0745320997648093 1.7784078550135618,2.0297479700868735 1.8539452138295758,1.9821842101665652 1.9282371260049942,1.9318690179499924 2.001185006549477,1.8788340915362767 2.0726910452969847,1.8231146156165323 -6.697250584662669,-4.655664370228521 -6.207149398752463,-5.24782950132834 -5.665235579821086,-5.789228244142606 -5.076698589545593,-6.275382591165652 -4.4471092172368145,-6.702339139006426 -3.7823670540705194,-7.06670096827429 -3.088645364676111,-7.365654308557197 -2.3723338699369805,-7.596989782760929 -1.6399799703683442,-7.75911807535347 -0.8982289500749658,-7.851079920440398 -0.1537637069593245,-7.872550357569267 0.5867554444460552,-7.823837255295402 1.3167503554045226,-7.705874154312909 2.029783477674087,-7.520207532954828 2.7196146313934406,-7.268978647566556 3.380255605586811,-6.954900148300588 2.0346058949311185,-3.771490501566312 -1.6697644800345444,2.027583612637123 -1.6123102077783358,2.093064160194139 -1.5523832390683623,2.1569224750244445 -1.4900292230211676,2.2190676280351624 -1.4252970872449566,2.279409970808473 -1.3582390019970063,2.337861252020133 -1.2889103402565496,2.394334732858013 -1.2173696337419386,2.4487453012952045 -1.1436785249044874,2.5010095850797285 -1.0679017149366672,2.551046063299225 -0.9901069078379265,2.5987751763811673 -0.910364750584364,2.6441194343931897 -0.8287487694556717,2.6870035235036624 -0.7453353025752136,2.7273544104714205 -0.6602034287253105,2.765101445029515 -0.5734348925038404,2.8001764600324037 0.2056075018097232,-4.697873380623108 1.2246937295939802,-8.362295967368269 2.0004885105909693,-8.182253314004583 2.753317612643258,-7.930663174701294 3.476623511541206,-7.610244122858774 4.164155864041092,-7.224311778092307 4.810025479452946,-6.776745190980002 5.408754698404039,-6.271948387146615 5.955323748423886,-5.714807447747056 6.445212684993081,-5.110643541291239 6.874438568997512,-4.465162355652382 7.239587576706079,-3.7844004087188807 7.537841786051523,-3.0746687412734417 7.767000432649397,-2.3424945160821125 7.925495480231945,-1.5945610627263989 8.012401402468711,-0.837646918266941 8.027439126069083,-0.07856441935724945 -2.6856199011799617,-0.4578109112700446 -2.714364778340965,-0.37248773356131437 -2.740384422530596,-0.28581129333504407 -2.7636222180429684,-0.1978690761931574 -2.784024370925721,-0.10875078771498181 -2.8015399925235442,-0.01854826205004656 -2.8161211800503168,0.07264463254547593 -2.8277230940780385,0.16473209113097198 -2.8363040328389246,0.2576164723617609 -2.841825503234233,0.35119840152259485 -2.8442522884536743,0.4453768762064385 -2.843552512106797,0.540049374526518 -2.8396976987766394,0.6351119657465745 -2.8326628309042476,0.7304594232104762 -2.8224264019214473,0.8259853394498009 -2.8089704655514396,0.9215822433447016 0.7456087135014045,-0.6703372701134924 8.04436781034265,-3.5049570400985175 8.311969778293467,-2.722646877266527 8.503965937149005,-1.9211660361969223 8.619130368479574,-1.107778393001766 8.656931099726833,-0.28980783666933974 8.617530474669934,0.5254276632028763 8.5017792933576,1.330681522530952 8.31120481275147,2.1188429571016343 8.047992754055997,2.88299977259112 7.714963515827975,3.616498975807957 7.315542842927329,4.31300467575646 6.853727249794474,4.966552770804654 6.334044541973242,5.571601950316321 5.761509821835659,6.12308057523429 5.141577402786794,6.6164290419583125 4.480089090457938,7.047637277031839 0.683453917759806,0.6687293506718035 -1.0608387590979476,-2.631919124422346 -1.1517465561448716,-2.61033594686419 -1.2423367392566433,-2.585626323695621 -1.3325022155226236,-2.5577891858337125 -1.4221355203512474,-2.5268271189333475 -1.5111289417637863,-2.4927463853952148 -1.5993746456954057,-2.4555569421604844 -1.6867648021605248,-2.415272454250598 -1.7731917121373044,-2.371910304015472 -1.8585479350280423,-2.325491596059308 -1.9427264165468614,-2.2760411578168913 -2.025620616888176,-2.223587535759151 -2.1071246390265514,-2.1681629872101382 -2.1871333569984017,-2.109803467765488 -2.2655425440160855,-2.0485486143038827 -2.008915666930392,-2.5617919927818917 6.8631808800898,4.71987865960935 6.413677987583526,5.2742874179839845 5.919789851785964,5.786505726701634 5.38542923362786,6.253016894226029 4.814784118403338,6.670663435924553 4.2122850269913386,7.036668294214508 3.5825707213389535,7.348653106802843 2.930452568942144,7.604653404441699 2.260877839524369,7.803130643218282 1.5788922134946688,7.94298100056379 0.8896017860146799,8.023540888730338 0.19813485260849006,8.044589164247995 -0.4903962377939308,8.006346036660375 -1.1709328786797926,7.9094687044542695 -1.8385073712293263,7.755043770364196 -2.4882791859968165,7.544576511969922 -3.1155700563102755,7.279977106533266 -3.715897649002301,6.963543931178208 -0.21518154284612478,0.8809429352207587 1.6838394168096613,-2.0930039846206228 1.6297461401025544,-2.153018495640339 1.5735934837315142,-2.211640282999724 1.5154171696895276,-2.2688005359863723 1.4552551742217759,-2.3244313567423376 1.3931477045776717,-2.378465832996625 1.3291371734453605,-2.430838110207276 1.2632681710822737,-2.481483463039922 1.195587435159922,-2.5303383661102714 1.1261438183415748,-2.577340563917815 1.05498825361596,-2.622429139899282 0.9821737174089549,-2.665544584530224 0.9077551905023142,-2.70662886240477 0.8317896167848176,-2.745625478222763 0.7543358598695136,-2.782479541616496 0.6754546576079861,-2.817137830747626 0.5952085745369686,-2.84954885460796 0.21043187366268512,0.964732478013758 -0.9145896803001392,8.586230309904408 -1.6419816984970907,8.45108796957993 -2.3529835161173196,8.254631879574674 -3.0424536490679372,7.998672539315919 -3.7054399004607887,7.68544924011735 -4.337214913988532,7.317610984844919 -4.9333098536876605,6.898194478075197 -5.489545970350434,6.430599367114269 -6.002063831944554,5.9185609337195615 -6.467350014061367,5.366120454235954 -6.882261066491793,4.7775934620005955 -7.244044593379414,4.15753616018759 -7.5503573068342575,3.5107102456339305 -7.79927993725093,2.842046414553778 -7.989328907679933,2.15660682932662 -8.11946470425697,1.459546831694638 -8.189096899722358,0.7560761916825527 -8.19808581227278,0.051420183354139226 2.741380876194839,0.4608505115061803 2.7676893720622786,0.38176801736591415 2.791705574190317,0.3015593648089805 2.813386641880271,0.22029130280256481 2.8326916864542255,0.13803210784777775 2.8495818235315227,0.0548515266663685 2.864020223615327,-0.029179282850833488 2.8759721609347935,-0.11398781238474953 2.8854050604851125,-0.1995002655664848 2.8922885432150025,-0.285641621938737 2.8965944693059953,-0.3723357024464633 2.898296979496479,-0.45950523639876906 2.89737253439921,-0.5470719298435824 2.8937999517672495,-0.6349565352960553 2.8875604416616625,-0.7230789227567413 2.878637639479166,-0.8113581519598085 2.867017636796618,-0.8997125457829043 2.8526890099955438,-0.9880597647559739 -4.402814088430262,2.3122125587817095 -8.2684374057512,3.3998154047091305 -8.504803248590036,2.671252511376366 -8.677315103668235,1.927240982113915 -8.785067740284376,1.1733488491144044 -8.82763909001001,0.41518539007654454 -8.805090639969109,-0.3416405990666078 -8.717964239237375,-1.0915622944484937 -8.56727536191687,-1.829095790698517 -8.354502896565336,-2.5488802023246535 -8.081575557150458,-3.2457166268085587 -7.750855035315382,-3.914605686252173 -7.365116037355179,-4.550783376556012 -6.927523371701199,-5.149754967199641 -6.441606273768841,-5.7073267106340495 -5.911230174549303,-6.2196351379379 -5.340566137233708,-6.683173736608609 -4.7340582022669935,-7.0948168269931955 -2.4711235109350156,-4.03166723594245 1.0533116068122297,2.6886429396663516 1.1374362460461924,2.6694438527305806 1.2213171379660253,2.6476233589810647 1.3048729054437302,2.6231799054070564 1.388021889251462,2.596114456376199 1.4706822256816423,2.5664305083201384 1.552771924773296,2.5341341020366883 1.6342089490680678,2.499233832582263 1.7149112928244108,2.461740856735929 1.7947970616127122,2.421668898016094 1.8737845522193766,2.3790342492365824 1.9517923327807125,2.333855772585622 2.0287393230727275,2.2861548972192622 2.1045448748781723,2.235955614359227 2.1791288523557526,2.183284469890168 2.2524117123312664,2.128170554450321 2.3243145844360527,2.0706454910171033 2.3947593510127376,2.01074341998563 -7.658216843823752,-5.225486163112038 -7.162530179029552,-5.8460754264235675 -6.6169642881793465,-6.420279295469186 -6.02581106803197,-6.944126319276791 -5.39367516497957,-7.414038366509573 -4.725438229419808,-7.826854931703423 -4.026221311509389,-8.179854216685612 -3.301345687318957,-8.470770847961546 -2.556292414548963,-8.697810116600692 -1.7966609248304337,-8.859658653608506 -1.0281269651759004,-8.955491480750908 -0.25640020431627875,-8.98497540405522 0.5128181795225117,-8.9482687446135 1.273877614410992,-8.846017428554447 2.0212196429693847,-8.67934748505148 2.7494185181708133,-8.449854027663562 3.4532205902126663,-8.15958682009034 4.127582198567666,-7.811032552268593 0.2653681898590463,-0.9728529170060369 -1.8317631631095992,2.3701463683493884 -1.7696954700509337,2.4342719767302015 -1.7054542526475274,2.4967754670775406 -1.6390818300387764,2.5575848627060225 -1.5706228633333694,2.6166292894647825 -1.5001243269096136,2.6738390508967314 -1.4276354773300426,2.7291457026517207 -1.3532078198902298,2.7824821260776815 -1.276895072823507,2.8337826009142617 -1.1987531291853202,2.8829828770176675 -1.1188400164443806,2.930020245040353 -1.0372158538085188,2.9748336059951725 -0.9539428073169631,3.0173635396315888 -0.8690850427318395,3.0575523715512816 -0.7827086762645763,3.0953442389986634 -0.6948817231750013,3.1306851552484147 -0.6056740442826793,3.1635230725324277 -0.20793979401398133,-1.069422180607674 0.981804712576178,-9.526019259969772 1.7893726153148322,-9.38167759388719 2.5794689783741234,-9.169194871726987 3.3463720375015527,-8.890499172917593 4.0845615061817,-8.547996594935455 4.78875829682606,-8.14455094919812 5.453962248330754,-7.683460175263868 6.075487590577978,-7.168429665295207 6.648995894633288,-6.603542712670134 7.170526277371877,-5.9932283189171045 7.636522650854893,-5.342226611561202 8.043857829812296,-4.65555214191464 8.389854334915206,-3.9384553462161307 8.672301754901959,-3.196382465688842 8.889470556921104,-2.4349342310133153 9.040122261426816,-1.6598236242978004 9.123515925413699,-0.876833036847458 9.139410905539947,-0.09177114386456253 -3.0554974349255133,-0.4563646326162569 -3.0815497328219834,-0.36831403944331953 -3.105053747967247,-0.27914826111108937 -3.125967057408886,-0.18894135214704022 -3.144249398664442,-0.0977688797039491 -3.159862721484245,-0.005707860300717016 -3.1727712377597186,0.08716330515912318 -3.1829414695149865,0.18076489803542017 -3.190342294929991,0.27501595021060155 -3.1949449923423856,0.369834313900796 -3.196723282174702,0.46513673295926594 -3.1956533667418014,0.5608389156106881 -3.191713967886564,0.6568556085524051 -3.1848863624014285,0.7531006723585989 -3.1751544151912157,0.8494871581204535 -3.1625046101337233,0.9459273852545209 -3.1469260786036415,1.0423330204119026 -3.1284106256147837,1.1386151574143923 4.8646901532071425,-2.5587372400982815 9.127336499812742,-3.787131138251965 9.39369621679397,-2.9836471693103874 9.589680548732275,-2.1624226690748287 9.714212058199791,-1.329592145654189 9.766745577926798,-0.4913440112701153 9.747269507193579,0.34612539385875607 9.656303154448835,1.1766576023575936 9.494890165749666,1.9941773067411646 9.264588107506881,2.7927367996399397 8.967454300217497,3.5665592421367904 8.606028027202626,4.310080445465772 8.183309268676453,5.017988863947494 7.702734136499117,5.685263511828836 7.168147208595656,6.307209533566237 6.5837709840294,6.879491175882961 5.954172699976652,7.398161930488001 5.284228770240361,7.859691638557479 2.7478575757733665,4.476101905010758 -1.2168158339817694,-2.956888542194868 -1.3085338300703029,-2.9329110277626356 -1.3998685292008304,-2.9060972189093164 -1.490732474813825,-2.876449635244427 -1.5810380470257996,-2.843973485697674 -1.6706975451135975,-2.8086766797465117 -1.7596232704993042,-2.7705698361158113 -1.84772761016373,-2.7296662889381196 -1.9349231204068644,-2.6859820913517325 -2.0211226108796723,-2.6395360165245023 -2.1062392288066576,-2.5903495560908567 -2.1901865433197827,-2.5384469159904057 -2.2728786298260104,-2.483855009703362 -2.354230154325336,-2.4266034488752695 -2.4341564576012615,-2.366724531329538 -2.512573639202543,-2.304253226467992 -2.589398641133613,-2.239227158059876 -11.65563366424746,19.44266429161162"
    />
  </g>
</svg>
