<?xml version="1.0" encoding="UTF-8" standalone="no"?>
<svg
   xmlns:dc="http://purl.org/dc/elements/1.1/"
   xmlns:cc="http://creativecommons.org/ns#"
   xmlns:rdf="http://www.w3.org/1999/02/22-rdf-syntax-ns#"
   xmlns:svg="http://www.w3.org/2000/svg"
   xmlns="http://www.w3.org/2000/svg"
   xmlns:sodipodi="http://sodipodi.sourceforge.net/DTD/sodipodi-0.dtd"
   xmlns:inkscape="http://www.inkscape.org/namespaces/inkscape"
   version="1.1"
   viewBox="-20 -20 250 240"
   width="250mm"
   height="240mm"
   id="svg4253"
   inkscape:version="0.91 r13725"
   sodipodi:docname="spiral-spiky copy.svg">
  <metadata
     id="metadata4260">
    <rdf:RDF>
      <cc:Work
         rdf:about="">
        <dc:format>image/svg+xml</dc:format>
        <dc:type
           rdf:resource="http://purl.org/dc/dcmitype/StillImage" />
      </cc:Work>
    </rdf:RDF>
  </metadata>
  <sodipodi:namedview
     pagecolor="#ffffff"
     bordercolor="#666666"
     borderopacity="1"
     objecttolerance="10"
     gridtolerance="10"
     guidetolerance="10"
     inkscape:pageopacity="0"
     inkscape:pageshadow="2"
     inkscape:window-width="1267"
     inkscape:window-height="816"
     id="namedview4258"
     showgrid="false"
     inkscape:zoom="0.67729149"
     inkscape:cx="296.56328"
     inkscape:cy="435.69713"
     inkscape:window-x="-4"
     inkscape:window-y="1"
     inkscape:window-maximized="0"
     inkscape:current-layer="svg4253" />
  <defs
     id="defs4215" />
  <g
     id="layer1">
    <path
       id="path9"
       style="fill:none;fill-rule:evenodd;stroke:#ff0000;stroke-width:1px;stroke-linecap:butt;stroke-linejoin:miter;stroke-opacity:1"
       d="m 100,100 0.0,0.0 0.1181788103782111,0.03417771106227008 0.08420633837941693,-0.004727619166843056 0.03529155677992435,-0.03009934016174043 0.050585713694943024,-0.012708868506820181 0.08697523305721688,0.040216135872881864 0.15606988413723855,0.14966978675005294 0.15008269862192947,0.290207745245354 0.03436527774113074,0.26031972340689435 0.05118965883208659,0.10882251069354254 0.06584362726466964,-0.10395588124866606 -0.03923594116336915,-0.23061923716292654 -0.01398639111913269,-0.1003447830636901 0.03602300119410984,0.08558452368336589 0.05694411683724354,0.32942875115665515 -0.02375422412961825,0.6141963230631688 -0.24779573770369723,0.4949422151638174 -0.1446256995376416,0.194352668074103 0.1286723230781348,-0.07784989436326839 0.1592054665997722,-0.432476743933762 0.05108654399263912,-0.331694185906926 -0.004791502643229251,0.014956008501201268 -0.14447665196391313,0.32641530822159837 -0.39528192022308417,0.7197211951853717 -0.7090876339132279,0.5781988643145297 -0.4870623523212174,0.1394165170206776 0.05675731651032834,0.016499635932646584 0.49104424703094196,-0.3404495616054817 0.4036358910737903,-0.5138835898775511 0.09078669611960777,-0.12841337891484272 -0.2579944612037224,0.16152337430270336 -0.750912215625462,0.4936630244675797 -1.2215879033538641,0.3698378505889792 -0.8654547737431244,-0.16243529853609573 -0.15865751452905386,-0.05514306413088832 0.5960338580357529,0.0174123699757871 0.921099754339366,-0.3176787162816197 0.4043401013372687,-0.1934188077922272 -0.18591407504231938,-0.019632520003796117 -0.8508616299523766,0.046598519458910914 -1.5407174378636483,-0.16721764346894474 -1.1193136470214995,-0.7233910945850823 -0.3032251857577961,-0.41254801712997846 0.35913343758525684,0.27009973885130023 1.150765768883005,0.325920974820022 0.8521761108277275,0.06598184813195473 0.04327740641744526,-0.057836282988446897 -0.6274068625232587,-0.3514323037785374 -1.4220459697257866,-0.8568558504224626 -1.0745774796528025,-1.4590780216899475 -0.15730249583799605,-0.9550282274837372 0.08517953851291793,0.14769234408291254 0.7651054615903945,0.9773608748950551 1.0630587365350124,0.7771724419858117 0.3074124715246285,0.16886452373240957 -0.23607151554818984,-0.4757727865345487 -0.8312561647979351,-1.352154644500871 -0.5895930025560148,-2.1529680614623743 0.3592358748133222,-1.4705898240793545 0.16147578709384902,-0.2084925183645936 0.031018887313123855,1.0881118348228682 0.5961214913998703,1.6115802715157912 0.3728512244653217,0.7083354196108615 0.07528804120170207,-0.2862436264013013 -0.0362529220805925,-1.3722945087481122 0.31068106280827124,-2.4672385526641136 1.1989864514664816,-1.7436850788791816 0.6804703347223011,-0.412097703441475 -0.41152715462446565,0.6404169808072453 -0.49263648304025764,1.869054793832234 -0.08087715227127035,1.3726580357485432 0.11088106333365033,0.101510821336106 0.5583879555931617,-0.9283984168249475 1.3184297806218694,-2.1243707442662014 2.2090684094666386,-1.5709560949910468 1.4229941026462711,-0.17518847465532872 -0.23862737165549675,0.18685871295848244 -1.463677502759154,1.189761361575279 -1.1507089928978615,1.6122338831924736 -0.24694235134521136,0.48641156413444264 0.693551111865375,-0.3106196567936621 1.9533970733763084,-1.1688493051283046 3.084348219570842,-0.8093481545230503 2.075724874415613,0.5560364510905345 0.2583275222001049,0.2678085100568097 -1.5801898116099409,0.0794501446020206 -2.3020607886922306,0.8745642665181492 -1.0123307378844544,0.5522836411384162 0.386573177760269,0.13094356239960803 1.8937273875438336,-0.02590732470225987 3.393759667464579,0.4541444821475693 2.368056510736892,1.6745818083479094 0.5209702211251397,0.9483926523146096 -0.921700524029248,-0.5529545703976311 -2.5873438187814912,-0.6593519912605075 -1.8931399606693304,-0.09577245641060017 -0.15974423625473833,0.1639258436788964 1.2293899711266079,0.7653436074077717 2.826695518806588,1.7800037108212479 2.067334710329334,2.959058797243358 0.1930744534726614,1.890959977808805 -0.1683556313007415,-0.11717078929947888 -0.9670345847779771,-1.4461610850168256 -1.9279775622666335,-1.6276134197310768 -1.3406485937202461,-0.8508181660066043 -0.2620228918753753,-0.02862985171664434 0.396479756879657,0.8582721001675395 1.2264443064008361,2.0094008417455314 1.2595847154256603,3.283245324935095 -0.1632266385598058,3.042785732987369 -0.7121783718074823,1.4210801060193745 -0.10445995048578993,-0.21332619400530461 -0.1339677419837102,-1.915050492391174 -0.9470504211461304,-2.6110904900206577 -0.813490846915812,-1.547211357914648 -0.2391728936721762,-0.1740187114699836 -0.09987753468233507,1.027177664348926 0.056975826183986555,2.569417937691327 -0.6075543746520822,3.7888504885975465 -1.820488582314141,2.779036783850387 -1.4516788128113376,0.9433937187160524 0.01510118794334403,-0.2695661088619232 0.9141166115000487,-1.8903754346007275 0.5251852553718095,-2.9861075563070045 0.07169803066133795,-1.9068947061587096 -0.13402362511899923,-0.2993487368103729 -0.6551250652887717,0.9067487767421198 -1.343762889800388,2.440505893601525 -2.6275840333182288,3.222472149636232 -3.2154724406977095,1.612909872490988 -1.8709945202473648,0.08855154854765601 0.16320620557610255,-0.2546729408027488 1.8821733448127418,-1.2865649725673762 2.108009616632202,-2.5211897806296406 1.0979004205467788,-1.7530310669571065 0.03609483065895347,-0.35837168890442683 -1.101957956266844,0.4883175358572913 -2.5712781981732746,1.5492658323661317 -4.188563234907562,1.585633734157767 -3.865310766093998,-0.23475962585550292 -1.7863667857146055,-0.9321248684017007 0.296352688725662,-0.15619522516254847 2.452413379630599,-0.19268304519246726 3.3237319095999283,-1.220589173633229 1.9673821037892338,-1.0470834175443144 0.22865797138726407,-0.3188809100522576 -1.2841346957627167,-0.1421866131102263 -3.217428765151652,0.05560879034453592 -4.735903306500745,-0.7778465965373442 -3.455597864121515,-2.2937004830741046 -1.1497680146991058,-1.8248014061829423 0.3673367998153054,0.011810373161665666 2.385102997605401,1.131949110950103 3.7400425056952145,0.6446144565881013 2.387569531327401,0.07948630329904915 0.3865217321327634,-0.1757331622307845 -1.108125554413533,-0.8202443177249279 -3.001016214189818,-1.6689521912954035 -3.9574978377234515,-3.2485878324893633 -1.9622230048376395,-3.963566508264506 -0.0807156348712823,-2.2973153128246366 0.34099025030474195,0.209241621852712 1.6060953603567896,2.318185604608658 3.114401998992605,2.5884058135333134 2.1654135401939953,1.344982675086996 0.45472048593349257,0.04355980960124839 -0.5801553148349399,-1.345643812366177 -1.8720873583314273,-3.1331555546010037 -1.9116827528898312,-5.093881144880015 0.3062926131511716,-4.687835799200613 1.1520713649959333,-2.151653465409865 0.2079304998392928,0.3793791834460336 0.2513983484012243,2.9897762668700096 1.494127926120342,4.036373329179227 1.2806759881728027,2.3875528496638196 0.398588926432339,0.28329723130453033 0.1844956915381033,-1.5410917271764788 -0.05424175450505686,-3.8654395926119776 0.9481388184225921,-5.682956124403987 2.7669123838340823,-4.132158944392671 2.1979239995545186,-1.3561423106821024 -0.008519558380015724,0.4651074907686734 -1.3497816104001288,2.8798305606101167 -0.764043657804379,4.493977455083382 -0.08727457593676036,2.868244356496092 0.21744269934256977,0.47369472745515395 0.9853635701610557,-1.3095023320849322 1.9941414927904049,-3.561526534778068 3.8695916316604695,-4.692523525810657 4.711660575831431,-2.311536137184362 2.7236361054018516,-0.07287972119492281 -0.25527703812933566,0.4273075598067635 -2.754197864404617,1.9256257481462171 -3.0688020104344247,3.707614217355598 -1.5920649296271705,2.5777960134308557 -0.0510247885435291,0.5510692829625299 1.5893296684654672,-0.6719930938125458 3.695032911028747,-2.1949088842967512 5.999199054852426,-2.237731771621924 5.510360832307313,0.37782560044686875 2.516940145105096,1.3720178615901517 -0.4624056781663626,0.2596657745160371 -3.527139154109392,0.31011365160995297 -4.749014748758583,1.767666678607469 -2.807723595538377,1.5142685588013194 -0.3379364912218108,0.4782969428124062 1.7980487585902125,0.22680476996599452 4.513450420072374,-0.052874718665606224 6.630008942307157,1.1184310403078257 4.808720024663813,3.2401242845940885 1.5625166066651417,2.571046592926109 -0.5628781817220414,-0.00522874359833736 -3.3745581236147473,-1.5676141098501546 -5.247912404471734,-0.8834728590207419 -3.3489191816647406,-0.09506284857444314 -0.5608677227775019,0.25915223645436924 1.5108791097563739,1.150482822597212 4.12203685536636,2.3193307942854346 5.427549213897834,4.490595430831576 2.6608492695310417,5.459754643398284 0.06504380751853489,3.149956897979095 -0.37059985914631,-0.04441737797326084 -1.4275640188020873,-2.3479978569102826 -3.3168455949132465,-3.2747173931766866 -3.506818112487082,-2.391785448527017 -1.7466143338340032,-1.0193221568393085 -0.24005112007355933,0.27813973748993703 0.7501674348821297,1.700129886726117 2.08680078694573,3.4832055587539372 2.550097907017985,5.611649030646902 0.609184618949655,6.132192538567153 -1.3056690983354855,4.07953401355465 -1.0566892496990477,1.4188544979176498 -0.05452620461717572,-1.1042321011778569 -0.37773028026464317,-3.713585053032972 -1.7062742635350219,-4.793439450065634 -1.7477096138118071,-3.3491868696773537 -0.7359778577764047,-1.1411627569278266 -0.3042906338408642,0.7143691365357796 -0.12419682784050678,2.6382145214710846 0.03233983981091626,5.1251997715096 -1.264093478160163,6.657057299546935 -3.1723233049651043,5.034679687700134 -2.9840110961703203,2.1148104521381583 -0.9333844036620889,0.17298005257794102 1.086550746559979,-1.8050401076461355 1.5370180219926084,-4.397936364660268 0.6225682362968286,-5.144955372467379 0.06852272714823471,-3.112287448240778 -0.20431595631995947,-0.7088062560973611 -0.9310354452390044,1.046126556254137 -1.8055212325777177,3.094109502187976 -3.262682383426693,5.250075731278784 -5.197645628655522,4.825010690808966 -5.200467412153557,1.8670459977785754 -2.903181529744586,-0.04111310057496098 0.057440623017782855,-0.44865236718965207 2.7240808779580306,-1.6715518447367401 3.7928767269025485,-3.85516920341297 2.7673602432788584,-4.070018466067609 1.1780642191530433,-2.030998985369976 -0.3217368363538782,-0.28860178141181336 -1.9625924526629177,0.8547214023814718 -4.017083578151727,2.3956225587750026 -6.466172314138333,2.9270321489732964 -7.058498327320478,0.6874848019210731 -4.686810971342837,-1.5181761901299637 -1.6195006929348494,-1.2298027687096322 1.284312615853267,-0.07561425746517614 4.282414252689492,-0.44698058329194623 5.518256928432066,-1.9728034551087745 3.853671825711899,-2.018125156557332 1.315310945627786,-0.8546995501137786 -0.8145567152670452,-0.3585312496134634 -3.0192983902243924,-0.15160997733042336 -5.865793290320568,0.027983397265913368 -7.613973749659536,-1.4566924652856557 -5.74904634725543,-3.6393142175613633 -2.4027402534063356,-3.420035304515494 -0.18000852766925846,-1.0716873716200723 2.0806433164651423,1.2379389467395043 5.040206901031496,1.7512662963175814 5.887878233537023,0.7055038019254738 3.5623505388666103,0.07259755103710575 0.8174156603526228,-0.2386246809016228 -1.184076620962145,-1.0668104284726923 -3.5165356743790994,-2.062154592665536 -5.968589068842121,-3.719662463988854 -5.4790406169431805,-5.918695880845689 -2.1083325219114926,-5.916228931737649 0.06362320973866531,-3.2980154849228427 0.5267048752330368,0.07046386806233329 1.915539670671322,3.100163899005679 4.393492811912793,4.311036060628524 4.633218819648079,3.1429350380306715 2.315383636905949,1.3368062814667496 0.3371524427500674,-0.3653339352177909 -0.9592753698808281,-2.2250550185997753 -2.7044443306042183,-4.550961597549403 -3.3039663909286503,-7.320695597629836 -0.7657849848924911,-7.984804116073789 1.7306832819244562,-5.2940879291310665 1.4029162877202168,-1.8201468879520064 0.09670231031313392,1.464393130528677 0.5162308863192919,4.851243452345983 2.239332646682456,6.243074406798428 2.288540699302928,4.358156781746587 0.9734212424511384,1.4894591343276886 0.4127718653860484,-0.9147442939982824 0.17902312682036836,-3.4003822589776718 -0.023626954720924687,-6.606386809131607 1.6492914524111768,-8.570890199772123 4.106305130157608,-6.463413006810747 3.8560595128606394,-2.690670054674463 1.20999033957807,-0.1870370027605972 -1.3893271469190154,2.3562465252841136 -1.9655145706425685,5.682477437402753 -0.788439367554119,6.6308010946066815 -0.07667237492596257,4.012413629492414 0.27293340548328615,0.9260250646078987 1.202585411706366,-1.3220266856701386 2.318787952753354,-3.938961846570237 4.176642544551015,-6.687102406405458 6.639746133035871,-6.133070543077409 6.631990451321727,-2.3496190460443955 3.6928494401011136,0.08613331890238385 -0.08348711310686951,0.6047573832763788 -3.476246920053484,2.159527496606003 -4.8291953943543575,4.931816420412517 -3.5185098327824846,5.196419173228591 -1.4955483437804844,2.5997682884418936 0.40893103408174625,0.3857031040883072 2.487517584536505,-1.063829337380099 5.084839616947221,-3.0132661024335192 8.175218881121282,-3.6809006328839757 8.911109904827114,-0.8440851678639092 5.901364886919225,1.9431903737189202 2.0207930829692486,1.5760298067308156 -1.644473645204073,0.11779036316113434 -5.420072652002418,0.5854811893465666 -6.967891885165045,2.5058618382562514 -4.862641737781061,2.558956242048424 -1.6636073230276338,1.0921429347885123 1.0149318727295196,0.4670124811586618 3.7814661277310506,0.20643627631028494 7.34698032794266,-0.019270512175921795 9.527806649884582,1.8418904395366553 7.177779666366007,4.5732960427538245 2.97859985594269,4.292083721205884 0.1940654778518649,1.3482933075360108 -2.6318497341030707,-1.5407153470985264 -6.324747973773867,-2.1797628449675273 -7.373723955676439,-0.8713749331827643 -4.462476720118303,-0.08074719881486203 -1.0346344688630893,0.3072421300649921 1.4599767503781038,1.3383603949400253 4.361388018761389,2.575421312841172 7.405615743968909,4.633622625113247 6.787100469211509,7.360796385225996 2.5909055701773127,7.347751970905719 -0.10864342806610239,4.087683395279484 -0.5385608767304859,0.14706099073866596 -1.626408531275132,-2.8585032371285877 -4.0302626050350625,-4.615657304194869 -5.437711054141971,-4.19929232616829 -4.0950059633125875,-2.53342399578527 -1.696067397259739,-0.8758983938689084 -0.09230336979283038,0.7547991435955623 1.1252591578990376,2.544224949089241 2.813219006235755,4.739758556194531 3.7528324881585036,7.442778235572021 1.9494143350659385,8.90742555565734 -1.056289995847294,7.3240557817406255 -2.0995407943520945,4.03005021302107 -1.0319076487015195,0.8685447003018396 0.02322935100787049,-2.2955639168971516 -0.6555891119481885,-5.473535742927382 -2.3610936229200377,-6.822560241241661 -2.6887722197729857,-5.291320421926443 -1.4736089297294797,-2.5377194210837786 -0.5767080083015088,-0.09668254220378003 -0.3842896985361506,2.079928182427196 -0.04983357778195341,4.6777317588477985 -0.08736876835511964,7.782708318409888 -1.9624323837914517,9.299938307927547 -4.369035539995437,7.242899529124259 -4.518133368918143,3.564890900829937 -2.328469315890132,0.9072717751053005 0.4534920589942715,-1.178887613403134 2.1347096957527043,-4.15238202014001 1.823338703341605,-6.964778333137588 0.6050311860783495,-6.889915906459805 0.05863118761320152,-4.103531664594229 -0.24738992111804237,-1.1667596849518134 -1.0801919288276451,0.981795431881892 -2.1024013495244986,3.2376157925814795 -3.4335911509096064,6.1090629273925 -5.755777411643066,7.617821452768766 -7.610829690237637,5.496087692222773 -6.750597374818682,1.7774750232884173 -3.7335822749222274,-0.19256188965670162 -0.1591657972288374,-0.6117804727511214 3.1785718525380844,-1.819427759864169 5.127588248672822,-4.487105868040686 4.662656070069261,-6.0467088540658835 2.8116878473488356,-4.553521025611786 0.9714913389304058,-1.8898978345132775 -0.8374598426449893,-0.11028034117936159 -2.820939210154009,1.2397236404539171 -5.252971233958746,3.1100397624176424 -8.2454351344701,4.1496286437040055 -9.863668920877885,2.1496328128896494 -8.104903239200212,-1.1803419755294726 -4.453466255832609,-2.334804377199987 -0.9515675543583342,-1.1517277743522811 2.550488770563476,0.016596212662847165 6.065186722481798,-0.7344016977441186 7.5542050615744785,-2.620443490592095 5.857058145927724,-2.9814248497168307 2.80985420186164,-1.6364677948670021 0.11043378425334538,-0.644299098209018 -2.2947646870163254,-0.4313245822220608 -5.163464781886276,-0.06160062220729401 -8.590184412822737,-0.10299449041509945 -10.261253588256857,-2.1732958484903406 -7.985502649160594,-4.828840301626215 -3.9225055458095923,-4.99100627467746 -0.9883489670644963,-2.572576568076798 1.3132963233105528,0.4974432333533514 4.591857462308944,2.3513107496019217 7.690450958987263,2.0068934961544187 7.604218091596394,0.6630120395659844 4.529864528187844,0.06056111853560253 1.2920148261207345,-0.27661699836636444 -1.075303526641079,-1.1938190724563924 -3.5590879335139505,-2.318968043888944 -6.718956636786238,-3.7835276903920345 -8.37665862210249,-6.337924473418511 -6.03787203552514,-8.376488804827758 -1.9437504055783563,-7.426179770496759 0.22412157557278078,-4.10408524863216 0.6850000687717994,-0.1712706037189946 2.012446988453135,3.498640467947496 4.943949131046338,5.639519193150818 6.655706653989718,5.126019813970117 5.012036087911106,3.0899516989125857 2.083728271766759,1.0670842839918322 0.1282573125659212,-0.9201205416943878 -1.3541881230088393,-3.097653471218848 -3.40686051859948,-5.766183911722862 -4.5464247992495075,-9.048092033368263 -2.349851290713353,-10.819912286098372 1.3043939552115802,-8.88575069665977 2.5700679600479432,-4.876882298644219 1.271547900003064,-1.0345904084147861 -0.009963074317859366,2.805413624229857 0.81321428354007,6.656837702036128 2.8797933582640383,8.28584988190714 3.274077479660832,6.42279586992926 1.7993266600044535,3.08198898263943 0.7118901881165272,0.12418502630289652 0.47835946590797107,-2.509601191605455 0.07336766663263461,-5.64919780492464 0.11862021247510768,-9.397660507236054 2.3841593131892154,-11.222568868585803 5.288645063256951,-8.728105769196894 5.463879180436791,-4.2801201907893045 2.8166838202634636,-1.0694261590236707 -0.5413944077124881,1.4477050332180639 -2.5679118034509543,5.031332904477587 -2.190448288967332,8.416123584836967 -0.7209928930536478,8.318520276733203 -0.062491049457989334,4.9561973917814015 0.3058440756146865,1.4172699672896698 1.3074462160851539,-1.168811621400323 2.535534738253432,-3.880560074446521 4.133464229874306,-7.328850346179628 6.920071535193927,-9.135495791436277 9.142147919418065,-6.579656378827657 8.101762166174638,-2.110025787868267 4.474588222342248,0.25568126148884573 0.1833754102091092,0.7582196647924775 -3.818709083357078,2.205466217042172 -6.151450137628686,5.4007923940520115 -5.589383557871102,7.264704453913616 -3.3682155504760516,5.470551150210163 -1.1626772290533438,2.27755870902034 1.0027812407437864,0.14623428395248084 3.3743677322835595,-1.4686526055636904 6.279396589487092,-3.7036812747813954 9.850748932266583,-4.943220954795088 11.776155651318916,-2.550069768537014 9.666598154119185,1.4284459348937801 5.300298341455772,2.805331542895857 1.1176132624712807,1.391368025653847 -3.060338477896238,-0.0033299359728573563 -7.248488681590345,0.8920268693359432 -9.01749470223993,3.1391432259360172 -6.988533593930882,3.5667301096048263 -3.3541237634171495,1.962185525141905 -0.13793626835246187,0.7794812780240647 2.724437696194599,0.5253943495938813 6.134930827963103,0.085134711057961 10.205136601648832,0.13424593453513012 12.183884148915155,2.5950227778880475 9.470708889233123,5.7484498248876434 4.637734835769066,5.936752086196179 1.1505033509828593,3.060791072450101 -1.5821137431254328,-0.585345582071497 -5.47080834664655,-2.784512857300143 -9.141796210686408,-2.3740030817801028 -9.032822461870069,-0.778973746541368 -5.3825302553750305,-0.06442098038041877 -1.542525108458534,0.3350711528630512 1.26231971615951,1.421073359713887 4.202032215379006,2.752101432617877 7.938744055573409,4.483400769356763 9.894332960770072,7.502218596969442 7.121440722130018,9.907807034008243 2.2763011701580638,8.777344561852459 -0.2872409474049107,4.845091196052337 -0.6904115227917771,0.4061630313131275 -1.7201665858856927,-3.107859332349122 -4.297962148701316,-5.588556181999849 -6.721325364207331,-5.92396012497106 -6.5442836164203015,-4.3799486766851174 -4.0396647830843335,-2.385972811393131 -1.4802927634634102,-0.5545823326500283 0.11442466087129333,1.3288696908301034 1.511917510797673,3.3835668327660926 3.452679383089418,5.863972160231285 4.809792376519539,8.944380974446801 3.4693084910653056,11.226024400945391 -0.020958223380716845,10.57521518197953 -2.504558826413131,7.2891990846906936 -2.3825041003993306,3.4810622830628404 -0.8265603854543144,0.0040274396498318765 0.06361726349234686,-3.6563176400095756 -0.9569222106635209,-7.191743873405613 -2.943079938470248,-8.73611974529635 -3.579118826963139,-7.268778258433059 -2.3732327884186475,-4.203904808771242 -1.0351653933429077,-1.2561743268956036 -0.5832288846476104,1.241427880026194 -0.3950588671728781,3.789737391311405 0.05800352518159002,6.99608042218577 -0.3172143019862119,10.436155699484999 -2.683787891169004,11.777618143912974 -5.4566681672446435,9.40268896484153 -5.97822166523828,5.199341590506322 -3.9114866878280026,1.871151505636476 -0.7387187581892647,-0.4247522532097605 1.9351041323568268,-3.225673029321854 2.843455435907458,-6.896965498144965 1.868918484001881,-9.291664623339443 0.5485575907354132,-8.311521879788444 0.04686436517850723,-4.963170776772586 -0.27692073544457685,-1.6516608461671467 -1.1579873605351878,0.803457768941314 -2.2997033440563825,3.1678164527616275 -3.5436062032528355,6.253476133251354 -5.644422030675315,9.12114473300332 -8.438707058965718,9.098123638933032 -9.68503136078155,5.559809610504203 -7.9890142598169405,1.5517141620255757 -4.440104762596022,-0.3477792773715578 -0.43797811070209036,-0.7606026696375636 3.3790991122007057,-1.8788607893321512 6.072202995646052,-4.677848344346216 6.4345647321408705,-7.307874865780548 4.756264285022311,-7.11342363674882 2.590270273048091,-4.392367298582371 0.6017238807058334,-1.613114546676968 -1.4424281885180648,0.11801940731965033 -3.671481198869458,1.6343780204857126 -6.361400509360578,3.739459446048727 -9.70098736489706,5.210501864296958 -12.172782560966112,3.7551247573746593 -11.463474409217092,-0.030889864543553358 -7.897220029470276,-2.72374545606678 -3.766499680248515,-2.5906050554177114 0.0035154667987669086,-0.9032552414379893 3.970565281601118,0.06180394180017856 7.800537398305124,-1.0440898998159014 9.471591057181548,-3.195744403824932 7.879247145257793,-3.883850738709384 4.557182858242101,-2.5765333959911345 1.3634109966924655,-1.1266216577539012 -1.3415697970637552,-0.6368949917471411 -4.100308801315478,-0.4329621378743127 -7.57025604057381,0.057648170438596935 -11.291750798169254,-0.34849290125865195 -12.740442894885959,-2.9096428237406258 -10.166978200193746,-5.909398834411718 -5.616309859891629,-6.4720533270781 -2.0142970652802177,-4.2344261000184815 0.4696320298044867,-0.8013669985864453 3.4987261308655633,2.0906575705019748 7.46778000094362,3.0723627651620404 10.054933695864037,2.017840294313757 8.992569399871691,0.5898864572316853 5.370768846000111,0.04743989915135671 1.790258658633924,-0.30250584886127285 -0.8633501595297233,-1.254534531124392 -3.4178275481635723,-2.487814244372373 -6.750549127637527,-3.8310017586816514 -9.846472524181308,-6.099307641582243 -9.819026866382089,-9.115715543629179 -5.995338170574627,-10.459252237296425 -1.6659034449654513,-8.625169158856167 0.38528129237641906,-4.7913512772580304 0.8307938164833502,-0.4697931900910959 2.03755499277851,3.650338892052261 5.0577345399911735,6.555849809292241 7.89442436735397,6.945169339310908 7.682563657077189,5.132579893359363 4.745069814080367,2.7945677347030085 1.7459363298905117,0.6488654287616669 -0.12161415376799312,-1.5559866862060119 -1.756838530173816,-3.959395564972951 -4.026239509007958,-6.85882885848973 -5.611211352074321,-10.457593755347204 -4.0409410236841055,-13.119540720987018 0.04082150570633303,-12.351733636454405 2.9429320857205425,-8.505240974250135 2.798706010436028,-4.051937077434161 0.9799500974217352,0.011058373247351483 -0.05999062010809553,4.284812923192774 1.1312575889683671,8.409330923204543 3.4484088691794526,10.207062369066541 4.18858265045575,8.489716032082782 2.779834003563643,4.9104609077129595 1.218077922164838,1.4706476664892847 0.6905610988466861,-1.4417117141013165 0.47086540857576153,-4.410880211319437 -0.057292815695596744,-8.144431658962077 0.3797715005310991,-12.147345896853665 3.1354977563122617,-13.703267645858666 6.362129501578572,-10.931267435545756 6.96588498891802,-6.033278129277136 4.557365512209017,-2.157442624923945 0.8640152389836402,0.5145118063991845 -2.246211008647137,3.771779232409301 -3.301270094416637,8.03859450374243 -2.166762104625505,10.818202768388176 -0.6312153237280569,9.67361691995525 -0.048015433124191986,5.778366915227579 0.3280909622779973,1.9288564711007083 1.351081701713582,-0.9232425501181538 2.6759251446882644,-3.667838643565368 4.118397314110624,-7.247622122024019 6.554193252488901,-10.571800315358807 9.792724028292639,-10.539930093831266 11.233473113811755,-6.430866730645306 9.261324057895209,-1.7800927279052559 5.1425977919199966,0.42278330738129455 0.5016082694801156,0.9009849633290941 -3.921578671903873,2.1962491962249686 -7.0394966229386,5.437620735636202 -7.455773946480647,8.480973868927144 -5.508895501696401,8.251703677405509 -2.9988651963581106,5.097772329578611 -0.6960069768174151,1.8787581131039914 1.669545183893959,-0.12520890021635012 4.247309931076231,-1.879299039861813 7.35625720761908,-4.313019571967267 11.214200145797633,-6.011920839851868 14.06629888100737,-4.326757289993353 13.239992863692294,0.05075314686914112 9.11326191902964,3.1621187153741914 4.337374474619821,3.006806965454409 -0.018601279696014217,1.0566449534053746 -4.5990605647843665,-0.05817729841587038 -9.018124448103748,1.218425278120705 -10.942533680951897,3.7010733345341222 -9.100184918907388,4.493314562201967 -5.263738957183961,2.983134611136215 -1.5778843362861323,1.3095341865758172 1.5418536311388635,0.7442272059462169 4.7214516213233395,0.5087686792771962 8.718607277350145,-0.056937460952575236 13.002940995538324,0.4110500998034894 14.666092396831345,3.3613526888838834 11.695556670897815,6.8148601687455255 6.450246398662699,7.45971665075804 2.3005881845676015,4.880304924399439 -0.5593915829938396,0.9266634793808635 -4.044832333953082,-2.401764446792356 -8.609409006540858,-3.5301774236711196 -11.58147184091311,-2.315683914937466 -10.354664440038249,-0.672544190224329 -6.185964984455325,-0.0485909670970841 -2.0674542835674288,0.3536760756947359 0.9831349407065773,1.4476288723027722 3.9178497389673907,2.864036045004326 7.744695116410213,4.4057928695394395 11.297128106536405,7.009078863395644 11.260833321280614,10.469732512956242 6.8663952907157295,12.007693990326615 1.8942820108451315,9.897478956934364 -0.4602853223861416,5.493844306582133 -0.8336549563579752,0.7061031382186371 -1.7770043073614943,-3.1839284881267247 -4.326648792750831,-6.244782741490354 -7.395303730067468,-7.381538077038087 -8.534066344560586,-6.324209285618693 -6.77225464828868,-4.195012820242056 -3.696110043278736,-2.0937731957274224 -1.2146931224055777,-0.1178237144443699 0.3560912561836176,1.9620017836408152 1.9052071648042954,4.216223597368199 4.033794002539395,6.902302948376146 5.730953694985033,10.231824633635426 4.9567728022864515,13.137489612578747 1.4965368500345733,13.521570304950473 -2.082941246148465,10.805337657805126 -3.358744334131501,6.659083198422991 -2.307329441278057,2.682710059994008 -0.5676074840208116,-1.0696849312124073 0.049610920540288816,-5.114220081933581 -1.2739988701000584,-8.87187503060261 -3.4734870352602343,-10.562265544846412 -4.401382550377804,-9.232427410419234 -3.3475962759707443,-6.03202111505577 -1.7044841731140536,-2.6805373627322098 -0.8386062703129085,0.17646960522455402 -0.647702320840267,2.803926880193444 -0.31255017542036967,5.778072748095809 0.1367616825016853,9.480905360497701 -0.6471120314099323,13.03836153224907 -3.417372158350304,14.13262232829058 -6.4661668006205275,11.518778678739523 -7.346094667465906,6.9535058436032955 -5.542246406216208,3.0380837896342996 -2.2488298854443656,0.3990520416570291 1.0704441448749975,-2.1961630698905026 3.1468681429298613,-5.835475929051512 3.2026435554707007,-9.675861356889214 1.7838016078958816,-11.301184829557599 0.484610173757801,-9.499341280747387 0.0346314301283428,-5.737540988848679 -0.2993078401610205,-2.152413545156179 -1.1955290147916173,0.551789944436365 -2.4218132924333275,3.002352655809119 -3.6618982623038363,6.078241481080852 -5.434403620309453,9.594790071937553 -8.280230265719922,11.509746005564892 -11.001560938839148,9.760473146671103 -11.41634518673473,5.2945258114290255 -9.010994183534592,1.2806617202035113 -5.066175025658765,-0.5010212792768982 -0.7537699018458568,-0.9018361927141711 3.413465306899184,-1.9121814198964557 6.691365988471276,-4.6427816236988235 7.907588085785335,-7.9284826990892725 6.773779096368102,-9.146496055123691 4.492516111316718,-7.2581752310404966 2.241832373919678,-3.9631069040842988 0.1259201914776895,-1.305694446819615 -2.100601312049406,0.37612127391108174 -4.5131807196212606,2.0342734295678326 -7.387319217332305,4.312186862742067 -10.949293222430185,6.1277471154431 -14.056708989268913,5.2981628125399425 -14.46511124447727,1.5946571437151533 -11.556292983015261,-2.2354085684071094 -7.118397973885301,-3.599878164427338 -2.863451214155887,-2.474470227915191 1.1507560777032637,-0.6131321433095991 5.476326854631651,0.04713489761678602 9.493924211478735,-1.368385361754349 11.299814624960128,-3.7201420917892563 9.87583936465846,-4.71161304408534 6.452324993670004,-3.5840926414516616 2.868224120665076,-1.826852640979297 -0.18633556717270494,-0.9009214525563323 -2.994720020963186,-0.6966981809926267 -6.17289024528047,-0.33836089253108526 -10.128953620904397,0.14188120485573563 -13.928627504681849,-0.6957701835967782 -15.095398585458888,-3.6556408448420825 -12.300135325795978,-6.912319474445553 -7.420892060262162,-7.851132707403593 -3.2371127414478167,-5.922860859329603 -0.4177681252109551,-2.404060067515701 2.354043160138545,1.1414373123003116 6.240162925247461,3.3587298070508638 10.339991904508992,3.4177142389929145 12.073632331836222,1.9021619408141532 10.147787331815032,0.5147481895275234 6.1300587876227155,0.03428402263722319 2.3019604832256277,-0.3221873241696187 -0.5848700526685207,-1.2787390914734544 -3.2002537268302476,-2.58732188019016 -6.48232351866303,-3.9103009781762097 -10.233797298067152,-5.801099574394726 -12.275388328515902,-8.836682172033278 -10.406979020371566,-11.738673661542904 -5.640777168405322,-12.179213239584556 -1.358040303781621,-9.611254377551731 0.5426279052203427,-5.401846581966666 0.9700174290704098,-0.8014366654731191 2.047358532431332,3.6430021256716003 4.958914454646845,7.137949235452268 8.461661668111162,8.433638094532625 9.758925765686499,7.223348907117256 7.744095813792541,4.790019402391579 4.230103764889918,2.3898915521119335 1.3966957712335741,0.13401666851100913 -0.3961512916385601,-2.2392008404580395 -2.1633396943313343,-4.810137841874393 -4.590579722944696,-7.872335486288378 -6.524540535901124,-11.666761811224802 -5.639552822793419,-14.975928365958929 -1.6927774373957902,-15.40865218400414 2.387875890665711,-12.307248308225518 3.8410119947231323,-7.577712749347555 2.6416110145523675,-3.044192368317823 0.658656802598415,1.2318272241939638 -0.044658874693283224,5.838433627329877 1.4627718534086256,10.11597339235476 3.9667971483183067,12.037363705073965 5.0218435377927975,10.519251318897496 3.8205890069326287,6.872628872284366 1.949221108844533,3.055910878597956 0.9632366347997845,-0.19620152912087008 0.7456940411450006,-3.1855131617330272 0.364171609641744,-6.567707742465075 -0.14700072720975044,-10.77700188131142 0.7444283357836028,-14.818893477114166 3.893909531333911,-16.058174842627302 7.358472148270344,-13.081491972852191 8.356170747341771,-7.88827827692144 6.303475312442814,-3.436141693261206 2.5592902495869794,-0.43648420876481 -1.2124304797258247,2.511923250386701 -3.5705914711717526,6.644849921443409 -3.6327849225152136,11.004122452128925 -2.0205222737322686,12.846079834114391 -0.5448862052972885,10.796233382882583 -0.033936615146132,6.522576586396987 0.3450668081782169,2.4515074212950694 1.361949168155249,-0.6179501609005982 2.7528304679469073,-3.39815479785117 4.158703694048825,-6.886405556245634 6.167795528479758,-10.872804524196262 9.393134078347089,-13.041030651467665 12.475786384246106,-11.053484894071417 12.942081292434764,-5.987028525381845 10.211514571568628,-1.4354188873597025 5.737518138274709,0.5842345311638155 0.8491034291003245,1.0381986654265916 -3.872538944443903,2.182535644966208 -7.584532482433559,5.275047285595022 -8.959688103279447,8.994840637132654 -7.672918717867006,10.371355476249931 -5.087522693466013,8.230016396544102 -2.537950730304317,4.497100625695715 -0.14211314554432875,1.4876970956475049 2.377800368866673,-0.41618130936601716 5.107094964127327,-2.292405959094779 8.357351755244679,-4.868972583147368 12.384230400019675,-6.921333956359348 15.895147742648987,-5.980942833046797 16.352193123530554,-1.7908977310763845 13.058203633436051,2.5403432129243697 8.037027524809872,4.082145825018941 3.2249335224796596,2.80875180118953 -1.3128983706848771,0.704181461887103 -6.20054040002816,-0.042182851769723584 -10.738022573230353,1.5571583450628594 -12.774912785188064,4.213452204847414 -11.16266327313653,5.332074031500277 -7.292932750898785,4.0570853724136455 -3.2435976365306374,2.071589576709684 0.20606749106892153,1.025551817043258 3.3763063025027975,0.7946899012973887 6.962525239649693,0.3899823267523672 11.425050141718259,-0.15212024956376524 15.709159449546405,0.7930864879704274 17.02095109979598,4.1321782178256825 13.862848619908846,7.804624822095491 8.35566449358032,8.861208787279566 3.63517064507451,6.684089765555967 0.45520029231877857,2.7145204316584 -2.669803340634701,-1.283423647151153 -7.049536917639557,-3.7824531352927977 -11.668252999748546,-3.8478556060373847 -13.618527336393328,-2.1388826066506113 -11.444679433949602,-0.5750242210669256 -6.915094385171443,-0.033589207655126074 -2.601054359364383,0.36794629218690034 0.6510302691327183,1.4451592448370718 3.596055868872213,2.9183390557037256 7.290487593827777,4.40710640992117 11.511811750326103,6.534491482565144 13.806672974418547,9.94958598466036 11.69999076777205,13.212899106950076 6.333279882357999,13.70494934528439 1.5127974709378122,10.81177476558581 -24.614751305927882,-6.9836770450351935" />
  </g>
  <g
     id="g4810">
    <path
       style="fill:none;fill-rule:evenodd;stroke:#000000;stroke-width:1px;stroke-linecap:butt;stroke-linejoin:miter;stroke-opacity:1"
       d="M 77.273438,-5.9492188 C 68.827284,-4.2638452 61.791945,2.4529105 57.179625,9.4174714 51.670595,17.029013 49.332877,25.888462 47.556477,34.97001 c 0.486635,5.488712 -4.841448,4.152129 -6.505696,9.500693 -1.757593,8.497653 -4.020445,9.018114 -5.699554,0.164473 -3.368949,-7.166094 -2.067455,-15.556092 -3.952789,-22.78166 -2.476171,-5.53672 -7.283765,5.414603 -8.901389,8.434171 -3.879796,8.621333 -4.161145,18.367198 -2.410917,27.583872 0.147326,5.966207 3.923371,11.347112 5.187306,16.851097 -4.353471,2.796448 -1.32896,9.931876 -0.864123,14.253873 C 22.071601,90.037115 15.567539,81.832765 12.158113,78.875403 8.5202697,75.682908 6.2462955,67.753293 2.97447,66.518892 -2.9901511,70.739319 0.75193124,79.537561 1.2050781,85.601562 4.3430023,93.799419 8.5979025,101.26524 15.12381,107.24574 c 1.251153,4.23605 10.796341,5.31032 8.372284,9.53942 0.440669,4.3589 7.703658,9.98385 7.115688,11.63741 -11.195863,-0.77122 -21.2429716,-5.75647 -30.9945945,-10.87765 0.85065884,12.6025 11.5460295,21.83655 22.3221105,26.81251 6.424194,3.68687 15.325202,4.13806 21.61539,6.07616 1.817362,4.47277 8.495902,5.3561 12.732421,7.11329 -8.939957,4.10353 -18.822009,6.16075 -28.55664,6.13281 -7.771807,2.0824 2.780502,7.18397 6.213756,8.89528 9.69923,4.75603 20.960043,3.94793 31.220063,1.71696 4.970574,-1.20857 9.892722,-5.55546 14.311175,-3.15136 4.341083,1.71092 15.717123,-4.48436 8.708592,2.76006 -5.582978,6.78797 -12.492229,12.39368 -20.381321,16.31617 3.812194,6.63364 12.689345,3.10074 18.753907,2.50195 8.366559,-2.98082 15.497639,-7.84771 21.628519,-14.24111 3.66984,-2.67782 4.53571,-8.58869 9.18572,-8.47747 4.56639,-0.74706 11.40585,-11.67559 8.64165,-1.98138 -0.86159,9.49663 -5.68137,17.78731 -9.82894,26.15113 12.22396,-0.78893 21.03568,-11.2184 25.7858,-21.66294 2.79538,-6.28265 4.29917,-13.42085 4.91928,-20.28823 4.21581,-1.34618 4.8375,-11.08032 6.84222,-11.21441 3.8156,8.33627 5.6948,17.5504 5.68708,26.6148 2.03561,7.64599 7.02013,-2.74948 8.67845,-6.11126 4.34841,-9.35254 3.70898,-20.26953 1.07459,-29.99829 -0.72925,-3.83232 -7.02841,-12.82212 -1.56191,-12.96553 5.70008,1.51905 12.70903,1.46309 14.63118,8.25902 3.84695,9.20086 4.29636,-5.91993 8.46801,-2.42153 7.44816,2.11365 14.8962,4.22775 22.34444,6.34111 -0.73641,-8.91845 -2.44664,-17.55071 -7.13587,-25.30699 -3.30474,-6.759486 -9.46377,-11.88036 -14.45668,-17.392874 -7.7365,-2.398059 -2.55101,-6.201237 -5.46005,-11.025477 -1.03298,-4.382051 -11.70609,-11.157115 -2.02168,-8.377423 10.43219,1.25703 19.56955,6.589687 28.84382,11.122292 -0.47429,-10.279017 -7.99977,-18.646232 -15.81897,-24.455762 -7.7361,-5.1008 -16.05432,-8.722715 -25.26118,-10.09232 -5.60404,-0.255397 -6.45274,-1.964207 -8.53087,-5.671865 -1.87867,-3.709388 -15.47915,-4.383103 -9.65959,-6.52967 8.89552,-3.629135 18.5395,-5.160423 28.01084,-5.197649 7.79469,-1.919118 -1.98701,-7.088221 -5.5195,-8.869946 -6.47964,-3.515841 -14.34052,-5.006677 -21.63259,-4.69017 -9.42315,0.26802 -18.35855,2.576095 -26.91041,6.491756 -2.26965,-5.764891 -10.49382,-2.371863 -15.12402,-1.863495 -2.02402,-1.723475 6.79321,-8.519255 9.48029,-11.7662371 4.28912,-3.7086829 9.21594,-6.67121123 14.19061,-9.3937049 -4.24944,-7.1589372 -14.02327,-3.1413254 -20.69336,-2.5761719 -8.01878,3.3128943 -15.813485,6.9686328 -21.661532,13.6007919 -4.788375,1.505454 -6.491115,11.076516 -10.822501,9.699781 -5.034473,-0.628557 -9.416012,4.867882 -13.236675,7.853724 0.837103,-11.864818 6.016063,-22.5497952 11.466797,-32.8847656 -1.27539,0.2180989 -2.550781,0.4361979 -3.826171,0.6542968 z M 95.535156,35.697266 c -3.267005,6.877978 4.457597,4.481534 8.166014,2.365234 -3.17956,6.945635 -9.883691,10.378106 -13.693983,16.863185 -2.502605,2.22204 -5.615447,10.436733 -6.628099,9.066311 0.277603,-11.75073 4.921261,-23.451676 13.841615,-31.279105 -0.561849,0.994791 -1.123698,1.989583 -1.685547,2.984375 z m 35.939454,3.705078 c -5.52773,0.985457 -5.68713,8.008064 0.39712,7.478768 6.50322,-0.181495 -3.70999,3.60919 -6.23463,4.31167 -8.28179,0.591752 -14.81559,6.02611 -22.3578,8.75253 6.37528,-11.021545 17.11633,-18.84678 29.55273,-21.298828 l -0.87368,0.486497 -0.48374,0.269363 z m -21.53125,4.708984 c -4.75386,3.164249 -12.244811,6.808209 -3.50586,0.90625 1.1476,-0.295522 2.44053,-0.641199 3.50586,-0.90625 z m -45.347657,2.22461 c -1.285104,7.6211 5.448141,4.500017 7.780053,-0.0023 0.766966,-0.0067 0.271844,6.691182 -0.588647,9.010075 -2.36925,7.507718 -2.45518,15.324422 -2.878906,23.019531 -4.415328,-7.706946 -6.339264,-16.581363 -5.671875,-25.429687 -1.169703,2.081267 1.947809,-10.198282 1.359375,-6.597656 z m 12.384766,8.658203 c -0.990628,-0.08333 7.432642,-12.421201 0.943663,-1.660489 l -0.49409,0.869411 -0.449573,0.791078 z m 62.582031,0.541015 c -1.46745,-0.219601 -14.11273,1.296324 -10.52957,-0.98422 3.43656,-0.732438 7.0519,0.784602 10.52957,0.98422 z m 10.53516,4.503906 c 3.60621,1.038796 16.56302,3.09994 6.46679,2.587891 -8.15228,-1.215984 -3.58187,6.15442 0.77539,8.353516 -9.56266,-0.09472 -19.17678,-5.423915 -29.30664,-4.197266 -8.56596,-1.770181 5.76846,-4.58864 8.54038,-6.067294 4.48109,-0.838124 8.97724,-1.004725 13.52408,-0.676847 z m -47.62696,6.527344 c -3.167435,3.369322 -4.28477,8.812482 -7.220084,8.403022 -5.87449,4.564789 2.711414,-6.828529 4.56688,-7.730099 1.438314,-1.41322 6.810224,-3.776356 2.653204,-0.672923 z m -48.925778,7.050782 c 2.686481,5.886599 3.160299,12.637284 7.133247,18.103087 5.232651,7.531818 0.09332,3.759341 -4.580819,-0.187642 -4.435028,-3.676853 -7.196119,-9.127925 -10.333678,-12.942789 -3.397031,-9.821277 -1.418586,-2.132229 3.55292,-5.587235 1.39268,-7.855469 0.882078,-5.75017 4.22833,0.614579 z m 32.71289,-5.021485 c -1.183565,3.610558 -0.08904,10.131138 -1.526587,12.114074 -3.726924,8.493522 -1.434924,-6.09382 -0.526147,-9.141418 0.706926,-0.760475 1.662477,-2.606688 2.052734,-2.972656 z m -27.761718,4.568359 c -0.916738,-1.405151 0.439641,-6.617634 0,0 z m 60.654296,-2.533203 c 6.30315,-0.213628 -5.7215,2.460363 -7.1875,4.478516 -1.91353,1.529171 -8.68622,-1.175048 0.38597,-3.313113 2.15003,-1.122449 4.37025,-2.151646 6.80153,-1.165403 z m 30.12695,3.931641 c 3.23796,0.938978 13.01684,9.378867 5.55459,4.796625 -1.27034,-1.227714 -12.00729,-5.526426 -5.55459,-4.796625 z m -51.765621,2.650391 c 0.627983,3.806727 -2.861728,2.797869 0,0 z m 11.867191,2.021484 c -5.1735,3.282015 -3.82034,-0.692033 0,0 z m -34.339848,5.433594 c 2.160316,1.972824 5.208502,12.535977 2.445132,9.442749 -2.542122,-3.294586 -5.31143,-12.778068 -3.945573,-13.628359 0.500147,1.395203 1.000294,2.790407 1.500441,4.18561 z m 55.173828,-2.746094 c 7.04517,4.660992 -0.65585,1.874505 -5.16765,2.085213 -3.68761,-0.354324 -12.69574,3.035668 -7.82055,0.963713 9.22005,-0.363288 -1.13368,-5.77469 6.05265,-4.390723 2.31185,0.447266 4.6237,0.894531 6.93555,1.341797 z m 16.56445,0.539063 c 12.58236,1.871521 23.01402,10.690071 30.39949,20.473352 2.37979,4.22813 7.71102,11.84579 5.33414,15.12534 -5.94902,-4.01588 -10.58844,-11.00748 -17.31058,-14.65794 -4.43292,-2.17075 -7.29045,-5.813003 -10.33123,-9.466797 -5.38855,-4.140565 -10.87122,-8.01849 -16.02932,-12.157549 2.64584,0.227864 5.29167,0.455729 7.9375,0.683594 z m -59.267574,2.908203 c -0.497418,-1.955611 0.834147,-2.511727 0,0 z m -5.625,6.214843 c 1.699956,3.190208 -1.584586,-0.593476 0,0 z m 51.564454,4.785157 c 2.46927,1.450573 7.28552,11.517879 1.39433,5.098579 -1.72407,-2.413313 -12.981,-6.081528 -5.65417,-5.405463 -2.3997,-4.640033 -0.0194,-2.292251 4.25984,0.306884 z m -11.7832,-1.972657 c 8.10725,3.626756 -1.24379,2.213524 0,0 z m -19.48438,1.81836 c 3.59928,3.100825 -0.47667,0.656745 -3.02539,2.083984 -5.411936,1.628123 7.99678,-6.616694 3.02539,-2.083984 z m -32.197265,1.728515 c 3.611625,3.166391 8.940406,4.354791 10.763672,9.212891 -4.926628,-2.84214 -10.352957,-5.99813 -12.878906,-11.287109 0.705078,0.691406 1.410156,1.382812 2.115234,2.074218 z m 23.273437,-1.294921 c 1.412579,4.577902 -3.836663,1.938938 0,0 z m -45.435546,3.761722 c 5.996479,4.69906 11.543827,10.58425 18.770944,13.88169 2.496161,2.08352 -10.112673,-0.60651 -12.749228,-1.58073 -4.869604,-2.77868 -10.848156,-3.60475 -14.390857,-8.36932 6.71942,3.1172 4.296593,-4.405784 2.257813,-8.013675 2.037109,1.360677 4.074218,2.721354 6.111328,4.082035 z m 58.060544,-3.845707 c 3.76111,2.597457 -5.33665,-0.228811 0,0 z m -5.49609,1.503906 c -1.57904,0.592051 -0.400725,-0.227679 0,0 z m 4.72851,1.119141 c -2.22341,0.706293 0.0268,-2.858774 0,0 z m 49.76563,2.36133 c 3.79021,0.76269 7.53696,11.56957 5.38014,10.33084 -1.56375,-3.26589 -5.57709,-8.53534 -5.38014,-10.33084 z m -73.998048,-0.0644 c 3.131958,1.48993 -3.197586,0.77084 0,0 z m 68.033208,5.55273 c 9.9602,5.33196 -4.56904,4.60628 -4.24222,-1.95011 -1.77756,-3.29971 3.62248,2.18553 4.24222,1.95011 z m -49.314458,-2.66406 c 0.219642,0.81347 -0.456714,-0.41145 0,0 z m 18.083988,1.99804 c 3.38654,7.5137 1.78527,4.94688 -1.13867,-0.27734 l 0.97159,0.23665 0.16708,0.0407 z m -4.23633,0.70313 c -1.3571,5.10238 0.29128,10.88034 -2.11719,15.81055 1.61179,-4.21958 -0.88762,-8.77659 0.47065,-12.55849 1.21651,-0.79256 -0.45783,-5.68927 1.64654,-3.25206 z m -28.66797,2.9668 c 2.923263,1.35556 -1.651356,-0.59631 0,0 z m 55.19727,1.76562 c 1.94325,5.01485 7.02919,3.618 7.26757,10.29688 -5.72946,-0.45948 -2.2248,12.54786 -6.0276,2.704 -2.80613,-4.63116 -4.6281,-9.39612 -6.64818,-14.31924 1.80274,0.43945 3.60547,0.87891 5.40821,1.31836 z m -31.24219,1.35156 c -4.04477,4.64945 -5.99332,10.95219 -11.382814,14.46094 2.860304,-2.83526 5.617184,-7.71786 6.039784,-10.2537 2.4183,0.0608 4.43133,-5.84339 5.34303,-4.20724 z m -30.613283,0.01 c 4.209004,-0.69233 7.385329,0.63221 11.144531,1.98047 -5.622788,-0.29266 -11.839689,0.48169 -16.779297,-2.65625 1.878255,0.22526 3.756511,0.45052 5.634766,0.67578 z m 14.265625,2.16992 c 2.727851,1.63863 -4.588773,-0.74178 0,0 z m 66.480468,0.84766 c -1.41167,0.22386 1.62495,-1.48931 0,0 z m -57.57226,0.60547 c -5.901395,0.93575 -11.197019,7.17776 -17.943364,6.64843 5.530854,-1.47443 9.730325,-5.89006 15.392039,-6.29769 0.681109,0.0879 3.318445,-2.57854 2.551325,-0.35074 z m 25.80859,4.6875 c 2.57535,5.7124 3.1998,11.94911 2.79492,18.14843 4.02136,-1.55081 0.8602,4.86841 -3.52539,4.78125 -4.60079,7.7472 -1.91459,-2.16238 -2.29361,-5.91202 -0.006,-6.59246 2.63393,-12.90912 1.70572,-19.61337 0.43945,0.86524 0.87891,1.73047 1.31836,2.59571 z m -70.994142,4.36914 c 7.998072,0.58962 15.749463,3.44312 23.925781,2.43945 -7.078069,4.07833 -15.262768,5.66662 -23.375,5.04492 0.744049,2.30394 -8.720856,-0.36042 -2.301893,-1.53865 -0.71681,-4.49267 -9.990284,-7.84904 -0.51355,-6.09451 0.754888,0.0496 1.509775,0.0992 2.264662,0.14879 z m 56.835942,9.83593 c -0.86018,5.80158 -4.14617,10.64928 -5.92383,16.15235 -1.4468,5.2843 -1.70879,-0.80471 -7.416018,1.34179 -6.955848,3.91635 2.571628,-5.76228 3.335938,-8.87109 4.454,-3.91269 7.66549,-9.25473 10.51562,-14.44726 -0.17057,1.9414 -0.34114,3.88281 -0.51171,5.82421 z m -16.910161,-0.89062 c -3.538203,5.14191 -7.932519,9.80507 -13.640625,12.51758 -1.02476,4.60267 -7.531993,4.84423 -7.992187,0.12304 -7.307257,-0.67951 -4.070876,-1.78305 1.259765,-4.2207 5.9945,-3.32782 13.0333,-4.12832 18.770608,-8.2732 0.864973,-0.20905 3.808842,-2.98098 1.602439,-0.14672 z"
       id="path4812"
       inkscape:connector-curvature="0" />
  </g>
  <g
     id="g4814">
    <path
       style="fill:none;fill-rule:evenodd;stroke:#0000ff;stroke-width:1px;stroke-linecap:butt;stroke-linejoin:miter;stroke-opacity:1"
       d="M 116.76172,-1.1191406 C 107.95214,2.0819374 100.38174,7.177702 93.878292,13.904834 86.153204,23.482233 76.734405,33.840013 76.757812,46.925781 79.789755,42.19335 86.082495,41.223456 88.55368,36.16386 c 4.626649,-4.816558 8.67287,-10.455353 14.74124,-13.400188 6.68143,-9.709969 14.47414,-18.9364313 24.67188,-25.0878908 -3.71647,-0.2960069 -7.49278,0.8982653 -11.20508,1.2050782 z M 69.935547,1.5253906 C 60.041712,9.277521 54.059879,20.96414 52.085108,33.263338 c -1.509444,7.962625 -2.32275,16.593608 -0.990368,24.567158 1.784002,5.547455 3.866689,12.835019 4.980878,3.427425 4.017939,-5.692433 2.775707,-12.989511 5.248499,-19.457481 0.822717,-5.001756 4.848536,-8.685292 4.030386,-14.06956 1.199103,-9.745714 3.227778,-19.6346003 8.235341,-28.19767688 -1.218099,0.66406251 -2.436198,1.328125 -3.654297,1.99218748 z M 141.72266,19.648438 c -12.58661,5.039484 -27.64428,8.791664 -35.05274,21.175781 5.15828,-2.684241 10.97308,-0.305991 15.83472,-3.186543 6.85061,-2.28768 13.78421,-4.613308 20.93292,-4.527551 10.48397,-5.225873 21.98637,-8.998126 33.78119,-9.100359 C 166.8851,17.428875 154.2856,17.47162 142.61452,19.550774 l -0.89186,0.09766 z m -30.65235,3.541015 c -5.58222,1.863445 -7.85609,7.241408 -10.6289,11.953125 7.59806,-2.616274 13.70913,-9.261833 19.29297,-13.621094 -2.88803,0.55599 -5.77605,1.11198 -8.66407,1.667969 z m -32.683591,0.800781 c -6.435527,4.244831 -11.178604,10.898764 -9.771935,18.902301 0.502627,2.884047 5.713931,-6.815247 6.41549,-9.994056 0.656111,-3.029762 2.64838,-6.273354 3.356445,-8.908245 z M 25.0625,34.072266 c -3.709763,12.563091 -1.811956,26.033125 3.584433,37.825835 3.473949,8.857448 8.435004,17.517196 17.024942,22.264008 C 43.334234,89.481344 45.257232,84.13412 41.996094,79.947266 40.042827,73.499981 37.449962,67.065405 37.452122,60.380704 c -5.137303,-10.120429 -8.965476,-21.1957 -9.18845,-32.626798 -1.067057,2.10612 -2.134115,4.21224 -3.201172,6.31836 z m 115.59375,4.800781 c -8.50131,3.487376 -7.67189,5.238542 1.11895,4.531145 4.96701,-0.652873 11.94532,-2.226872 15.86542,-2.874895 -5.41821,-1.827467 -11.4952,-5.014662 -16.98437,-1.65625 z m -98.75,15.355469 c -1.911989,3.845329 3.644032,15.45648 4.421819,12.118332 1.014754,-6.824968 -0.991801,-13.295419 -1.683538,-20.030442 -0.91276,2.63737 -1.825521,5.27474 -2.738281,7.91211 z m 103.5332,-6.873047 c -5.66359,1.826038 -12.81792,3.740416 -3.42678,4.952307 4.29128,3.178022 8.45693,4.038408 13.66761,4.906877 6.15155,0.796966 11.84241,3.062057 17.1251,5.878504 11.73224,0.994749 23.72506,3.224518 34.00907,9.233015 C 201.5401,61.883189 191.01236,55.076173 180.25074,51.376043 168.92656,47.778704 157.25114,47.096457 145.43945,47.355469 Z M 100.12695,53.875 c -7.237177,-0.159955 -7.837254,5.352496 -5.702305,6.231229 -2.559637,2.620572 -6.267544,14.667081 -3.718677,12.177922 4.783721,-6.455555 8.15749,-13.727482 13.196372,-20.079073 -1.25846,0.556641 -2.51692,1.113281 -3.77539,1.669922 z m 14.33594,5.244141 c -0.59166,5.566342 -8.46891,6.862159 -10.5293,12.365234 8.16415,-3.73737 15.56988,-8.025299 23.69141,-11.888672 -5.27142,0.627269 -8.49047,-4.910961 -13.16211,-0.476562 z m -36.857421,1.802734 c -6.907252,5.650371 -2.991507,6.520949 -1.689098,8.085409 0.145418,4.883705 0.745078,9.729266 2.851207,14.195841 -0.01608,-5.923774 1.23106,-11.468226 0.51334,-17.376635 -0.49849,-2.885355 2.66564,-12.297772 -1.675449,-4.904615 z m 82.037111,6.777344 c 6.43868,5.405103 14.79335,5.821868 22.06445,9.572265 -4.065,-6.122464 -10.00702,-11.96816 -18.01172,-10.628906 -0.9533,0.466279 -8.1466,-1.120663 -4.05273,1.056641 z m -22.43555,4.984375 c -6.65421,0.398398 -13.48963,0.638588 -19.48047,3.912109 7.30992,-0.301235 14.2115,1.829188 21.52561,1.202984 9.76022,2.532104 1.24613,-2.86323 -1.48227,-6.461697 -3.16763,-0.823049 -3.40089,-0.641704 -0.56287,1.346604 z m -75.193358,5.201172 c -3.177461,3.495684 -0.739284,10.072507 4.263672,9.361328 0.744922,2.623876 9.789737,12.126764 6.083741,5.606646 -2.153183,-6.605958 -6.873285,-10.594366 -9.34546,-17.286334 -1.107823,-4.687926 -0.544013,1.606185 -1.001953,2.31836 z M 3.6738281,75.109375 c 0.5716587,13.614337 8.9202709,25.481235 19.1749129,33.828985 8.402292,6.58593 17.629837,13.0495 28.815321,12.60852 C 47.391181,118.35581 45.4859,112.99134 40.431134,110.71032 35.90732,106.58955 31.087611,102.54231 27.922701,97.441205 18.580301,91.155721 9.6917468,83.750473 3.7832031,74.025391 l -0.1003911,0.994948 -0.00898,0.08904 z M 158.56055,75.521484 c 3.94147,2.962868 5.01139,8.403443 8.42797,11.333744 6.95193,5.996917 13.9243,12.054096 17.48017,20.773612 3.83482,4.28395 0.2627,13.37299 8.10699,13.12489 4.45209,0.0442 14.59432,6.62108 15.38773,2.46474 -1.30741,-11.01232 -7.70273,-20.72404 -15.47338,-28.403117 -7.64883,-7.722114 -17.2222,-13.897406 -26.98626,-18.567988 -1.28555,-0.109492 -8.40342,-2.076498 -6.94322,-0.725881 z M 28.611328,89.644531 c 0.276731,3.944674 10.179759,11.448319 9.22745,7.827915 -2.626255,-5.889603 -6.840135,-10.584528 -10.735262,-15.636508 0.502604,2.602864 1.005208,5.205729 1.507812,7.808593 z M 105.61523,84.90625 c -2.67035,1.221965 -10.118712,7.274011 -8.144527,0.873047 -0.423535,-1.451362 -4.987246,10.640049 -5.970703,4.6875 -1.501768,-2.538864 0.756059,9.245298 -2.459723,5.069695 2.069306,2.613546 -2.3376,-0.571126 1.781989,6.123668 -1.090441,-0.0853 -2.21943,0.47568 1.722085,3.27416 0.06646,3.72564 4.013262,1.04404 5.477133,3.69068 3.034116,-1.16888 8.528336,-3.28269 6.374066,-5.4943 -2.07734,-1.24347 -9.267231,5.87096 -7.838909,1.77555 -6.946617,-2.40831 -2.997907,-1.61401 -5.411914,-7.010224 0.514939,-4.107281 0.950223,-3.850397 5.312705,-8.553585 2.47871,-0.152462 8.586448,-3.154899 6.898008,-0.834135 -0.12768,-0.702735 4.41321,-5.064961 2.25979,-3.602056 z m 22.73633,3.554688 c 6.74469,3.818593 12.01329,8.971921 18.84693,12.615472 7.16777,7.24274 -0.89706,-6.731136 2.39932,-6.116308 -4.89612,-4.229967 -4.5916,0.289394 -11.62141,-4.692027 -2.48563,-1.280579 -8.81604,-2.285999 -9.62484,-1.807137 z m -19.64062,0.703124 c -3.84618,0.892275 4.3617,4.43366 3.99023,6.453126 1.35511,4.868342 5.02926,-0.335659 8.40625,4.15625 -2.62658,-3.473918 -11.01529,-5.701415 -10.9463,-8.862069 6.10224,-2.627412 6.96998,-1.304671 -1.45018,-1.747307 z m -9.42969,5.308594 c -0.108923,1.83661 0.288372,-1.386957 0,0 z m -42.150391,5.34961 c -1.506032,3.926094 9.191107,12.015934 5.589175,4.049104 1.839104,1.31777 13.985613,6.97568 11.408904,3.9339 -4.10796,-3.11936 -6.827206,-3.91121 -11.358915,-6.60653 -3.032467,-1.0979 -9.69096,-8.385556 -5.665535,-1.435834 l 0.02637,0.05936 z m 42.896481,0.01563 c -1.841263,3.119839 1.6295,0.212839 0,0 z m 10.62305,3.902339 c 1.17819,1.55682 2.84602,-3.00092 0,0 z m 21.5,1.95508 c 7.01532,3.58852 -5.14896,-5.976546 0,0 z m 33.54883,8.26367 c 9.55668,3.71655 8.22407,0.24116 1.02236,-4.44962 -5.4281,-5.40429 -0.87269,2.12973 -1.02236,4.44962 z m -42.20703,-4.4707 c 2.9975,1.94899 5.59424,6.26855 7.30469,10.42578 1.30316,7.90899 2.59329,-4.29033 1.03795,-5.97294 -1.59723,-7.54065 -5.09189,-0.98608 -9.21178,-6.3669 0.28971,0.63802 0.57942,1.27604 0.86914,1.91406 z m 20.39453,0.48438 c 3.33678,1.47378 -0.0755,0.46474 0,0 z m 5.83789,6.73046 c 3.13175,7.87484 3.39294,16.22716 8.03829,23.46423 2.90072,7.05234 5.12911,14.45274 5.46562,22.11585 7.95814,-14.57888 2.86599,-32.31881 -5,-45.8457 -2.11356,0.0871 -14.02135,-5.88052 -8.50391,0.26562 z m -32.82422,-0.39453 c -1.70258,4.39017 1.72142,7.74244 0.62109,13.00782 -2.26835,8.42283 1.0438,7.0486 3.4892,1.0099 2.33464,-7.96747 -0.3891,-6.7022 -2.86284,-3.71571 -0.2669,-3.08178 -0.0873,-8.99303 -1.24745,-10.30201 z m -42.781249,2.54883 c -4.432862,0.88713 -9.008247,-0.14742 -13.46875,-0.36133 2.738485,3.12312 10.13634,7.64851 11.676547,5.10383 -7.241629,-4.49195 6.34272,-1.42807 9.417658,-3.83374 5.977172,-0.60932 -7.573446,-1.87741 -7.625455,-0.90876 z m -39.4375,7.17188 c 1.667007,3.20911 16.063876,5.18176 10.518008,1.8086 -4.763197,-3.33988 -10.0689,-5.39673 -15.449649,-7.49415 1.64388,1.89518 3.28776,3.79036 4.931641,5.68555 z m 70.675779,-0.45118 c -2.28639,2.21275 -1.76066,6.31804 -5.26265,10.25564 -3.877515,5.24701 -4.574871,5.43304 1.77242,3.49632 7.01122,-5.56136 3.95928,-6.95121 1.70332,-7.96156 1.70248,-1.61461 6.56782,-14.39697 1.78691,-5.7904 z m -9.957029,-1.69726 c -5.086079,1.51567 -7.804726,3.99232 -11.431641,6.89062 -2.444218,2.05629 -12.733584,4.52531 -4.5,4.37305 3.731756,2.18518 11.083098,-0.80881 8.904297,-4.22461 0.68992,-2.969 5.460725,-4.06111 7.027344,-7.03906 z m -87.8554691,4.31055 c 7.5784251,9.90094 19.4059331,15.14765 31.4647021,17.12879 9.982603,1.52663 20.657625,2.24827 29.7048,-3.13851 1.218242,-0.62748 -8.433343,-4.36419 -12.208152,-3.76518 -6.295502,-1.29256 -12.902586,-2.35698 -18.510855,-5.30881 -11.043609,-0.58597 -22.36831,-2.50478 -32.1165108,-7.96512 0.5553386,1.01627 1.1106771,2.03255 1.6660157,3.04883 z m 129.5117181,2.48437 c -2.39762,5.55754 -0.71619,12.1787 -3.2497,17.94271 -1.32466,5.14943 -3.33699,9.70174 -3.08016,15.18372 -1.0503,8.25858 -2.69567,16.66645 -6.85178,23.97513 14.46777,-8.60494 19.29448,-26.66951 19.35584,-42.57761 0.21037,-6.5719 -2.81924,-12.78216 -5.58631,-18.59231 -0.19596,1.35612 -0.39193,2.71224 -0.58789,4.06836 z M 147.23633,133 c 0.3712,3.03508 -0.76143,16.29931 1.58228,7.83988 C 151.3412,137.966 146.98655,122.2883 147.23633,133 Z m -28.16406,11.88867 c -6.37972,4.4098 -9.14816,12.07642 -15.21886,17.00903 -3.73679,3.08543 -7.007995,6.15033 -9.551712,10.46225 -4.89489,6.98738 -11.003342,13.2377 -18.27826,17.74747 16.639648,-0.26469 29.826122,-12.78707 38.211812,-26.16169 4.34538,-5.82214 5.1178,-13.32004 5.61631,-20.35003 l -0.5162,0.85647 -0.26309,0.4365 z m -29.955082,6.13672 c -5.487732,0.88333 -10.471355,4.72328 -16.273719,5.56577 -5.47244,1.49138 -10.972453,1.60451 -15.865095,5.05704 -7.722868,3.14405 -15.848646,5.62955 -24.243999,5.83227 12.42885,7.18741 28.000472,5.13977 40.615588,-0.54708 9.101061,-3.06242 16.849383,-9.08449 21.648084,-17.45683 -1.960287,0.51628 -3.920573,1.03255 -5.880859,1.54883 z m 38.031252,-1.20508 c -2.18334,3.99364 -7.85336,12.02871 -7.1752,13.88861 4.43411,-3.28565 8.31677,-8.42464 7.43887,-14.21478 l -0.26367,0.32617 z m -69.164065,0.6211 c -8.494049,0.17598 -6.489188,2.20652 0.572262,3.3132 4.293512,1.71391 16.501859,-4.4851 6.201175,-3.40891 -2.257812,0.0319 -4.515624,0.0638 -6.773437,0.0957 z m 38.835937,8.38281 c -4.45329,2.63787 -9.101335,4.97741 -13.015624,8.41406 6.204057,-0.63257 12.855585,-3.17267 15.232421,-9.41406 -0.738932,0.33333 -1.477864,0.66667 -2.216797,1 z"
       id="path4816"
       inkscape:connector-curvature="0" />
  </g>
</svg>
