<?xml version="1.0" encoding="UTF-8" standalone="no"?>
<svg
   xmlns:dc="http://purl.org/dc/elements/1.1/"
   xmlns:cc="http://creativecommons.org/ns#"
   xmlns:rdf="http://www.w3.org/1999/02/22-rdf-syntax-ns#"
   xmlns:svg="http://www.w3.org/2000/svg"
   xmlns="http://www.w3.org/2000/svg"
   xmlns:sodipodi="http://sodipodi.sourceforge.net/DTD/sodipodi-0.dtd"
   xmlns:inkscape="http://www.inkscape.org/namespaces/inkscape"
   version="1.1"
   viewBox="1.6605902099527015 -4.493315283792455 208.98663056758488 196.67881958009463"
   width="208.98663056758488mm"
   height="196.67881958009463mm"
   id="svg4193"
   inkscape:version="0.91 r13725"
   sodipodi:docname="spiral-spiky-with-1.5mm-offsets.svg">
  <metadata
     id="metadata4200">
    <rdf:RDF>
      <cc:Work
         rdf:about="">
        <dc:format>image/svg+xml</dc:format>
        <dc:type
           rdf:resource="http://purl.org/dc/dcmitype/StillImage" />
        <dc:title></dc:title>
      </cc:Work>
    </rdf:RDF>
  </metadata>
  <sodipodi:namedview
     pagecolor="#ffffff"
     bordercolor="#666666"
     borderopacity="1"
     objecttolerance="10"
     gridtolerance="10"
     guidetolerance="10"
     inkscape:pageopacity="0"
     inkscape:pageshadow="2"
     inkscape:window-width="1445"
     inkscape:window-height="859"
     id="namedview4198"
     showgrid="false"
     inkscape:zoom="0.93701555"
     inkscape:cx="370.25191"
     inkscape:cy="348.44672"
     inkscape:window-x="0"
     inkscape:window-y="0"
     inkscape:window-maximized="0"
     inkscape:current-layer="layer1" />
  <defs
     id="defs4215" />
  <g
     id="layer1">
    <path
       id="path9"
       style="fill:none;fill-rule:evenodd;stroke:#000000;stroke-width:1px;stroke-linecap:butt;stroke-linejoin:miter;stroke-opacity:1"
       d="m 100,100 0.0,0.0 0.1181788103782111,0.03417771106227008 0.08420633837941693,-0.004727619166843056 0.03529155677992435,-0.03009934016174043 0.050585713694943024,-0.012708868506820181 0.08697523305721688,0.040216135872881864 0.15606988413723855,0.14966978675005294 0.15008269862192947,0.290207745245354 0.03436527774113074,0.26031972340689435 0.05118965883208659,0.10882251069354254 0.06584362726466964,-0.10395588124866606 -0.03923594116336915,-0.23061923716292654 -0.01398639111913269,-0.1003447830636901 0.03602300119410984,0.08558452368336589 0.05694411683724354,0.32942875115665515 -0.02375422412961825,0.6141963230631688 -0.24779573770369723,0.4949422151638174 -0.1446256995376416,0.194352668074103 0.1286723230781348,-0.07784989436326839 0.1592054665997722,-0.432476743933762 0.05108654399263912,-0.331694185906926 -0.004791502643229251,0.014956008501201268 -0.14447665196391313,0.32641530822159837 -0.39528192022308417,0.7197211951853717 -0.7090876339132279,0.5781988643145297 -0.4870623523212174,0.1394165170206776 0.05675731651032834,0.016499635932646584 0.49104424703094196,-0.3404495616054817 0.4036358910737903,-0.5138835898775511 0.09078669611960777,-0.12841337891484272 -0.2579944612037224,0.16152337430270336 -0.750912215625462,0.4936630244675797 -1.2215879033538641,0.3698378505889792 -0.8654547737431244,-0.16243529853609573 -0.15865751452905386,-0.05514306413088832 0.5960338580357529,0.0174123699757871 0.921099754339366,-0.3176787162816197 0.4043401013372687,-0.1934188077922272 -0.18591407504231938,-0.019632520003796117 -0.8508616299523766,0.046598519458910914 -1.5407174378636483,-0.16721764346894474 -1.1193136470214995,-0.7233910945850823 -0.3032251857577961,-0.41254801712997846 0.35913343758525684,0.27009973885130023 1.150765768883005,0.325920974820022 0.8521761108277275,0.06598184813195473 0.04327740641744526,-0.057836282988446897 -0.6274068625232587,-0.3514323037785374 -1.4220459697257866,-0.8568558504224626 -1.0745774796528025,-1.4590780216899475 -0.15730249583799605,-0.9550282274837372 0.08517953851291793,0.14769234408291254 0.7651054615903945,0.9773608748950551 1.0630587365350124,0.7771724419858117 0.3074124715246285,0.16886452373240957 -0.23607151554818984,-0.4757727865345487 -0.8312561647979351,-1.352154644500871 -0.5895930025560148,-2.1529680614623743 0.3592358748133222,-1.4705898240793545 0.16147578709384902,-0.2084925183645936 0.031018887313123855,1.0881118348228682 0.5961214913998703,1.6115802715157912 0.3728512244653217,0.7083354196108615 0.07528804120170207,-0.2862436264013013 -0.0362529220805925,-1.3722945087481122 0.31068106280827124,-2.4672385526641136 1.1989864514664816,-1.7436850788791816 0.6804703347223011,-0.412097703441475 -0.41152715462446565,0.6404169808072453 -0.49263648304025764,1.869054793832234 -0.08087715227127035,1.3726580357485432 0.11088106333365033,0.101510821336106 0.5583879555931617,-0.9283984168249475 1.3184297806218694,-2.1243707442662014 2.2090684094666386,-1.5709560949910468 1.4229941026462711,-0.17518847465532872 -0.23862737165549675,0.18685871295848244 -1.463677502759154,1.189761361575279 -1.1507089928978615,1.6122338831924736 -0.24694235134521136,0.48641156413444264 0.693551111865375,-0.3106196567936621 1.9533970733763084,-1.1688493051283046 3.084348219570842,-0.8093481545230503 2.075724874415613,0.5560364510905345 0.2583275222001049,0.2678085100568097 -1.5801898116099409,0.0794501446020206 -2.3020607886922306,0.8745642665181492 -1.0123307378844544,0.5522836411384162 0.386573177760269,0.13094356239960803 1.8937273875438336,-0.02590732470225987 3.393759667464579,0.4541444821475693 2.368056510736892,1.6745818083479094 0.5209702211251397,0.9483926523146096 -0.921700524029248,-0.5529545703976311 -2.5873438187814912,-0.6593519912605075 -1.8931399606693304,-0.09577245641060017 -0.15974423625473833,0.1639258436788964 1.2293899711266079,0.7653436074077717 2.826695518806588,1.7800037108212479 2.067334710329334,2.959058797243358 0.1930744534726614,1.890959977808805 -0.1683556313007415,-0.11717078929947888 -0.9670345847779771,-1.4461610850168256 -1.9279775622666335,-1.6276134197310768 -1.3406485937202461,-0.8508181660066043 -0.2620228918753753,-0.02862985171664434 0.396479756879657,0.8582721001675395 1.2264443064008361,2.0094008417455314 1.2595847154256603,3.283245324935095 -0.1632266385598058,3.042785732987369 -0.7121783718074823,1.4210801060193745 -0.10445995048578993,-0.21332619400530461 -0.1339677419837102,-1.915050492391174 -0.9470504211461304,-2.6110904900206577 -0.813490846915812,-1.547211357914648 -0.2391728936721762,-0.1740187114699836 -0.09987753468233507,1.027177664348926 0.056975826183986555,2.569417937691327 -0.6075543746520822,3.7888504885975465 -1.820488582314141,2.779036783850387 -1.4516788128113376,0.9433937187160524 0.01510118794334403,-0.2695661088619232 0.9141166115000487,-1.8903754346007275 0.5251852553718095,-2.9861075563070045 0.07169803066133795,-1.9068947061587096 -0.13402362511899923,-0.2993487368103729 -0.6551250652887717,0.9067487767421198 -1.343762889800388,2.440505893601525 -2.6275840333182288,3.222472149636232 -3.2154724406977095,1.612909872490988 -1.8709945202473648,0.08855154854765601 0.16320620557610255,-0.2546729408027488 1.8821733448127418,-1.2865649725673762 2.108009616632202,-2.5211897806296406 1.0979004205467788,-1.7530310669571065 0.03609483065895347,-0.35837168890442683 -1.101957956266844,0.4883175358572913 -2.5712781981732746,1.5492658323661317 -4.188563234907562,1.585633734157767 -3.865310766093998,-0.23475962585550292 -1.7863667857146055,-0.9321248684017007 0.296352688725662,-0.15619522516254847 2.452413379630599,-0.19268304519246726 3.3237319095999283,-1.220589173633229 1.9673821037892338,-1.0470834175443144 0.22865797138726407,-0.3188809100522576 -1.2841346957627167,-0.1421866131102263 -3.217428765151652,0.05560879034453592 -4.735903306500745,-0.7778465965373442 -3.455597864121515,-2.2937004830741046 -1.1497680146991058,-1.8248014061829423 0.3673367998153054,0.011810373161665666 2.385102997605401,1.131949110950103 3.7400425056952145,0.6446144565881013 2.387569531327401,0.07948630329904915 0.3865217321327634,-0.1757331622307845 -1.108125554413533,-0.8202443177249279 -3.001016214189818,-1.6689521912954035 -3.9574978377234515,-3.2485878324893633 -1.9622230048376395,-3.963566508264506 -0.0807156348712823,-2.2973153128246366 0.34099025030474195,0.209241621852712 1.6060953603567896,2.318185604608658 3.114401998992605,2.5884058135333134 2.1654135401939953,1.344982675086996 0.45472048593349257,0.04355980960124839 -0.5801553148349399,-1.345643812366177 -1.8720873583314273,-3.1331555546010037 -1.9116827528898312,-5.093881144880015 0.3062926131511716,-4.687835799200613 1.1520713649959333,-2.151653465409865 0.2079304998392928,0.3793791834460336 0.2513983484012243,2.9897762668700096 1.494127926120342,4.036373329179227 1.2806759881728027,2.3875528496638196 0.398588926432339,0.28329723130453033 0.1844956915381033,-1.5410917271764788 -0.05424175450505686,-3.8654395926119776 0.9481388184225921,-5.682956124403987 2.7669123838340823,-4.132158944392671 2.1979239995545186,-1.3561423106821024 -0.008519558380015724,0.4651074907686734 -1.3497816104001288,2.8798305606101167 -0.764043657804379,4.493977455083382 -0.08727457593676036,2.868244356496092 0.21744269934256977,0.47369472745515395 0.9853635701610557,-1.3095023320849322 1.9941414927904049,-3.561526534778068 3.8695916316604695,-4.692523525810657 4.711660575831431,-2.311536137184362 2.7236361054018516,-0.07287972119492281 -0.25527703812933566,0.4273075598067635 -2.754197864404617,1.9256257481462171 -3.0688020104344247,3.707614217355598 -1.5920649296271705,2.5777960134308557 -0.0510247885435291,0.5510692829625299 1.5893296684654672,-0.6719930938125458 3.695032911028747,-2.1949088842967512 5.999199054852426,-2.237731771621924 5.510360832307313,0.37782560044686875 2.516940145105096,1.3720178615901517 -0.4624056781663626,0.2596657745160371 -3.527139154109392,0.31011365160995297 -4.749014748758583,1.767666678607469 -2.807723595538377,1.5142685588013194 -0.3379364912218108,0.4782969428124062 1.7980487585902125,0.22680476996599452 4.513450420072374,-0.052874718665606224 6.630008942307157,1.1184310403078257 4.808720024663813,3.2401242845940885 1.5625166066651417,2.571046592926109 -0.5628781817220414,-0.00522874359833736 -3.3745581236147473,-1.5676141098501546 -5.247912404471734,-0.8834728590207419 -3.3489191816647406,-0.09506284857444314 -0.5608677227775019,0.25915223645436924 1.5108791097563739,1.150482822597212 4.12203685536636,2.3193307942854346 5.427549213897834,4.490595430831576 2.6608492695310417,5.459754643398284 0.06504380751853489,3.149956897979095 -0.37059985914631,-0.04441737797326084 -1.4275640188020873,-2.3479978569102826 -3.3168455949132465,-3.2747173931766866 -3.506818112487082,-2.391785448527017 -1.7466143338340032,-1.0193221568393085 -0.24005112007355933,0.27813973748993703 0.7501674348821297,1.700129886726117 2.08680078694573,3.4832055587539372 2.550097907017985,5.611649030646902 0.609184618949655,6.132192538567153 -1.3056690983354855,4.07953401355465 -1.0566892496990477,1.4188544979176498 -0.05452620461717572,-1.1042321011778569 -0.37773028026464317,-3.713585053032972 -1.7062742635350219,-4.793439450065634 -1.7477096138118071,-3.3491868696773537 -0.7359778577764047,-1.1411627569278266 -0.3042906338408642,0.7143691365357796 -0.12419682784050678,2.6382145214710846 0.03233983981091626,5.1251997715096 -1.264093478160163,6.657057299546935 -3.1723233049651043,5.034679687700134 -2.9840110961703203,2.1148104521381583 -0.9333844036620889,0.17298005257794102 1.086550746559979,-1.8050401076461355 1.5370180219926084,-4.397936364660268 0.6225682362968286,-5.144955372467379 0.06852272714823471,-3.112287448240778 -0.20431595631995947,-0.7088062560973611 -0.9310354452390044,1.046126556254137 -1.8055212325777177,3.094109502187976 -3.262682383426693,5.250075731278784 -5.197645628655522,4.825010690808966 -5.200467412153557,1.8670459977785754 -2.903181529744586,-0.04111310057496098 0.057440623017782855,-0.44865236718965207 2.7240808779580306,-1.6715518447367401 3.7928767269025485,-3.85516920341297 2.7673602432788584,-4.070018466067609 1.1780642191530433,-2.030998985369976 -0.3217368363538782,-0.28860178141181336 -1.9625924526629177,0.8547214023814718 -4.017083578151727,2.3956225587750026 -6.466172314138333,2.9270321489732964 -7.058498327320478,0.6874848019210731 -4.686810971342837,-1.5181761901299637 -1.6195006929348494,-1.2298027687096322 1.284312615853267,-0.07561425746517614 4.282414252689492,-0.44698058329194623 5.518256928432066,-1.9728034551087745 3.853671825711899,-2.018125156557332 1.315310945627786,-0.8546995501137786 -0.8145567152670452,-0.3585312496134634 -3.0192983902243924,-0.15160997733042336 -5.865793290320568,0.027983397265913368 -7.613973749659536,-1.4566924652856557 -5.74904634725543,-3.6393142175613633 -2.4027402534063356,-3.420035304515494 -0.18000852766925846,-1.0716873716200723 2.0806433164651423,1.2379389467395043 5.040206901031496,1.7512662963175814 5.887878233537023,0.7055038019254738 3.5623505388666103,0.07259755103710575 0.8174156603526228,-0.2386246809016228 -1.184076620962145,-1.0668104284726923 -3.5165356743790994,-2.062154592665536 -5.968589068842121,-3.719662463988854 -5.4790406169431805,-5.918695880845689 -2.1083325219114926,-5.916228931737649 0.06362320973866531,-3.2980154849228427 0.5267048752330368,0.07046386806233329 1.915539670671322,3.100163899005679 4.393492811912793,4.311036060628524 4.633218819648079,3.1429350380306715 2.315383636905949,1.3368062814667496 0.3371524427500674,-0.3653339352177909 -0.9592753698808281,-2.2250550185997753 -2.7044443306042183,-4.550961597549403 -3.3039663909286503,-7.320695597629836 -0.7657849848924911,-7.984804116073789 1.7306832819244562,-5.2940879291310665 1.4029162877202168,-1.8201468879520064 0.09670231031313392,1.464393130528677 0.5162308863192919,4.851243452345983 2.239332646682456,6.243074406798428 2.288540699302928,4.358156781746587 0.9734212424511384,1.4894591343276886 0.4127718653860484,-0.9147442939982824 0.17902312682036836,-3.4003822589776718 -0.023626954720924687,-6.606386809131607 1.6492914524111768,-8.570890199772123 4.106305130157608,-6.463413006810747 3.8560595128606394,-2.690670054674463 1.20999033957807,-0.1870370027605972 -1.3893271469190154,2.3562465252841136 -1.9655145706425685,5.682477437402753 -0.788439367554119,6.6308010946066815 -0.07667237492596257,4.012413629492414 0.27293340548328615,0.9260250646078987 1.202585411706366,-1.3220266856701386 2.318787952753354,-3.938961846570237 4.176642544551015,-6.687102406405458 6.639746133035871,-6.133070543077409 6.631990451321727,-2.3496190460443955 3.6928494401011136,0.08613331890238385 -0.08348711310686951,0.6047573832763788 -3.476246920053484,2.159527496606003 -4.8291953943543575,4.931816420412517 -3.5185098327824846,5.196419173228591 -1.4955483437804844,2.5997682884418936 0.40893103408174625,0.3857031040883072 2.487517584536505,-1.063829337380099 5.084839616947221,-3.0132661024335192 8.175218881121282,-3.6809006328839757 8.911109904827114,-0.8440851678639092 5.901364886919225,1.9431903737189202 2.0207930829692486,1.5760298067308156 -1.644473645204073,0.11779036316113434 -5.420072652002418,0.5854811893465666 -6.967891885165045,2.5058618382562514 -4.862641737781061,2.558956242048424 -1.6636073230276338,1.0921429347885123 1.0149318727295196,0.4670124811586618 3.7814661277310506,0.20643627631028494 7.34698032794266,-0.019270512175921795 9.527806649884582,1.8418904395366553 7.177779666366007,4.5732960427538245 2.97859985594269,4.292083721205884 0.1940654778518649,1.3482933075360108 -2.6318497341030707,-1.5407153470985264 -6.324747973773867,-2.1797628449675273 -7.373723955676439,-0.8713749331827643 -4.462476720118303,-0.08074719881486203 -1.0346344688630893,0.3072421300649921 1.4599767503781038,1.3383603949400253 4.361388018761389,2.575421312841172 7.405615743968909,4.633622625113247 6.787100469211509,7.360796385225996 2.5909055701773127,7.347751970905719 -0.10864342806610239,4.087683395279484 -0.5385608767304859,0.14706099073866596 -1.626408531275132,-2.8585032371285877 -4.0302626050350625,-4.615657304194869 -5.437711054141971,-4.19929232616829 -4.0950059633125875,-2.53342399578527 -1.696067397259739,-0.8758983938689084 -0.09230336979283038,0.7547991435955623 1.1252591578990376,2.544224949089241 2.813219006235755,4.739758556194531 3.7528324881585036,7.442778235572021 1.9494143350659385,8.90742555565734 -1.056289995847294,7.3240557817406255 -2.0995407943520945,4.03005021302107 -1.0319076487015195,0.8685447003018396 0.02322935100787049,-2.2955639168971516 -0.6555891119481885,-5.473535742927382 -2.3610936229200377,-6.822560241241661 -2.6887722197729857,-5.291320421926443 -1.4736089297294797,-2.5377194210837786 -0.5767080083015088,-0.09668254220378003 -0.3842896985361506,2.079928182427196 -0.04983357778195341,4.6777317588477985 -0.08736876835511964,7.782708318409888 -1.9624323837914517,9.299938307927547 -4.369035539995437,7.242899529124259 -4.518133368918143,3.564890900829937 -2.328469315890132,0.9072717751053005 0.4534920589942715,-1.178887613403134 2.1347096957527043,-4.15238202014001 1.823338703341605,-6.964778333137588 0.6050311860783495,-6.889915906459805 0.05863118761320152,-4.103531664594229 -0.24738992111804237,-1.1667596849518134 -1.0801919288276451,0.981795431881892 -2.1024013495244986,3.2376157925814795 -3.4335911509096064,6.1090629273925 -5.755777411643066,7.617821452768766 -7.610829690237637,5.496087692222773 -6.750597374818682,1.7774750232884173 -3.7335822749222274,-0.19256188965670162 -0.1591657972288374,-0.6117804727511214 3.1785718525380844,-1.819427759864169 5.127588248672822,-4.487105868040686 4.662656070069261,-6.0467088540658835 2.8116878473488356,-4.553521025611786 0.9714913389304058,-1.8898978345132775 -0.8374598426449893,-0.11028034117936159 -2.820939210154009,1.2397236404539171 -5.252971233958746,3.1100397624176424 -8.2454351344701,4.1496286437040055 -9.863668920877885,2.1496328128896494 -8.104903239200212,-1.1803419755294726 -4.453466255832609,-2.334804377199987 -0.9515675543583342,-1.1517277743522811 2.550488770563476,0.016596212662847165 6.065186722481798,-0.7344016977441186 7.5542050615744785,-2.620443490592095 5.857058145927724,-2.9814248497168307 2.80985420186164,-1.6364677948670021 0.11043378425334538,-0.644299098209018 -2.2947646870163254,-0.4313245822220608 -5.163464781886276,-0.06160062220729401 -8.590184412822737,-0.10299449041509945 -10.261253588256857,-2.1732958484903406 -7.985502649160594,-4.828840301626215 -3.9225055458095923,-4.99100627467746 -0.9883489670644963,-2.572576568076798 1.3132963233105528,0.4974432333533514 4.591857462308944,2.3513107496019217 7.690450958987263,2.0068934961544187 7.604218091596394,0.6630120395659844 4.529864528187844,0.06056111853560253 1.2920148261207345,-0.27661699836636444 -1.075303526641079,-1.1938190724563924 -3.5590879335139505,-2.318968043888944 -6.718956636786238,-3.7835276903920345 -8.37665862210249,-6.337924473418511 -6.03787203552514,-8.376488804827758 -1.9437504055783563,-7.426179770496759 0.22412157557278078,-4.10408524863216 0.6850000687717994,-0.1712706037189946 2.012446988453135,3.498640467947496 4.943949131046338,5.639519193150818 6.655706653989718,5.126019813970117 5.012036087911106,3.0899516989125857 2.083728271766759,1.0670842839918322 0.1282573125659212,-0.9201205416943878 -1.3541881230088393,-3.097653471218848 -3.40686051859948,-5.766183911722862 -4.5464247992495075,-9.048092033368263 -2.349851290713353,-10.819912286098372 1.3043939552115802,-8.88575069665977 2.5700679600479432,-4.876882298644219 1.271547900003064,-1.0345904084147861 -0.009963074317859366,2.805413624229857 0.81321428354007,6.656837702036128 2.8797933582640383,8.28584988190714 3.274077479660832,6.42279586992926 1.7993266600044535,3.08198898263943 0.7118901881165272,0.12418502630289652 0.47835946590797107,-2.509601191605455 0.07336766663263461,-5.64919780492464 0.11862021247510768,-9.397660507236054 2.3841593131892154,-11.222568868585803 5.288645063256951,-8.728105769196894 5.463879180436791,-4.2801201907893045 2.8166838202634636,-1.0694261590236707 -0.5413944077124881,1.4477050332180639 -2.5679118034509543,5.031332904477587 -2.190448288967332,8.416123584836967 -0.7209928930536478,8.318520276733203 -0.062491049457989334,4.9561973917814015 0.3058440756146865,1.4172699672896698 1.3074462160851539,-1.168811621400323 2.535534738253432,-3.880560074446521 4.133464229874306,-7.328850346179628 6.920071535193927,-9.135495791436277 9.142147919418065,-6.579656378827657 8.101762166174638,-2.110025787868267 4.474588222342248,0.25568126148884573 0.1833754102091092,0.7582196647924775 -3.818709083357078,2.205466217042172 -6.151450137628686,5.4007923940520115 -5.589383557871102,7.264704453913616 -3.3682155504760516,5.470551150210163 -1.1626772290533438,2.27755870902034 1.0027812407437864,0.14623428395248084 3.3743677322835595,-1.4686526055636904 6.279396589487092,-3.7036812747813954 9.850748932266583,-4.943220954795088 11.776155651318916,-2.550069768537014 9.666598154119185,1.4284459348937801 5.300298341455772,2.805331542895857 1.1176132624712807,1.391368025653847 -3.060338477896238,-0.0033299359728573563 -7.248488681590345,0.8920268693359432 -9.01749470223993,3.1391432259360172 -6.988533593930882,3.5667301096048263 -3.3541237634171495,1.962185525141905 -0.13793626835246187,0.7794812780240647 2.724437696194599,0.5253943495938813 6.134930827963103,0.085134711057961 10.205136601648832,0.13424593453513012 12.183884148915155,2.5950227778880475 9.470708889233123,5.7484498248876434 4.637734835769066,5.936752086196179 1.1505033509828593,3.060791072450101 -1.5821137431254328,-0.585345582071497 -5.47080834664655,-2.784512857300143 -9.141796210686408,-2.3740030817801028 -9.032822461870069,-0.778973746541368 -5.3825302553750305,-0.06442098038041877 -1.542525108458534,0.3350711528630512 1.26231971615951,1.421073359713887 4.202032215379006,2.752101432617877 7.938744055573409,4.483400769356763 9.894332960770072,7.502218596969442 7.121440722130018,9.907807034008243 2.2763011701580638,8.777344561852459 -0.2872409474049107,4.845091196052337 -0.6904115227917771,0.4061630313131275 -1.7201665858856927,-3.107859332349122 -4.297962148701316,-5.588556181999849 -6.721325364207331,-5.92396012497106 -6.5442836164203015,-4.3799486766851174 -4.0396647830843335,-2.385972811393131 -1.4802927634634102,-0.5545823326500283 0.11442466087129333,1.3288696908301034 1.511917510797673,3.3835668327660926 3.452679383089418,5.863972160231285 4.809792376519539,8.944380974446801 3.4693084910653056,11.226024400945391 -0.020958223380716845,10.57521518197953 -2.504558826413131,7.2891990846906936 -2.3825041003993306,3.4810622830628404 -0.8265603854543144,0.0040274396498318765 0.06361726349234686,-3.6563176400095756 -0.9569222106635209,-7.191743873405613 -2.943079938470248,-8.73611974529635 -3.579118826963139,-7.268778258433059 -2.3732327884186475,-4.203904808771242 -1.0351653933429077,-1.2561743268956036 -0.5832288846476104,1.241427880026194 -0.3950588671728781,3.789737391311405 0.05800352518159002,6.99608042218577 -0.3172143019862119,10.436155699484999 -2.683787891169004,11.777618143912974 -5.4566681672446435,9.40268896484153 -5.97822166523828,5.199341590506322 -3.9114866878280026,1.871151505636476 -0.7387187581892647,-0.4247522532097605 1.9351041323568268,-3.225673029321854 2.843455435907458,-6.896965498144965 1.868918484001881,-9.291664623339443 0.5485575907354132,-8.311521879788444 0.04686436517850723,-4.963170776772586 -0.27692073544457685,-1.6516608461671467 -1.1579873605351878,0.803457768941314 -2.2997033440563825,3.1678164527616275 -3.5436062032528355,6.253476133251354 -5.644422030675315,9.12114473300332 -8.438707058965718,9.098123638933032 -9.68503136078155,5.559809610504203 -7.9890142598169405,1.5517141620255757 -4.440104762596022,-0.3477792773715578 -0.43797811070209036,-0.7606026696375636 3.3790991122007057,-1.8788607893321512 6.072202995646052,-4.677848344346216 6.4345647321408705,-7.307874865780548 4.756264285022311,-7.11342363674882 2.590270273048091,-4.392367298582371 0.6017238807058334,-1.613114546676968 -1.4424281885180648,0.11801940731965033 -3.671481198869458,1.6343780204857126 -6.361400509360578,3.739459446048727 -9.70098736489706,5.210501864296958 -12.172782560966112,3.7551247573746593 -11.463474409217092,-0.030889864543553358 -7.897220029470276,-2.72374545606678 -3.766499680248515,-2.5906050554177114 0.0035154667987669086,-0.9032552414379893 3.970565281601118,0.06180394180017856 7.800537398305124,-1.0440898998159014 9.471591057181548,-3.195744403824932 7.879247145257793,-3.883850738709384 4.557182858242101,-2.5765333959911345 1.3634109966924655,-1.1266216577539012 -1.3415697970637552,-0.6368949917471411 -4.100308801315478,-0.4329621378743127 -7.57025604057381,0.057648170438596935 -11.291750798169254,-0.34849290125865195 -12.740442894885959,-2.9096428237406258 -10.166978200193746,-5.909398834411718 -5.616309859891629,-6.4720533270781 -2.0142970652802177,-4.2344261000184815 0.4696320298044867,-0.8013669985864453 3.4987261308655633,2.0906575705019748 7.46778000094362,3.0723627651620404 10.054933695864037,2.017840294313757 8.992569399871691,0.5898864572316853 5.370768846000111,0.04743989915135671 1.790258658633924,-0.30250584886127285 -0.8633501595297233,-1.254534531124392 -3.4178275481635723,-2.487814244372373 -6.750549127637527,-3.8310017586816514 -9.846472524181308,-6.099307641582243 -9.819026866382089,-9.115715543629179 -5.995338170574627,-10.459252237296425 -1.6659034449654513,-8.625169158856167 0.38528129237641906,-4.7913512772580304 0.8307938164833502,-0.4697931900910959 2.03755499277851,3.650338892052261 5.0577345399911735,6.555849809292241 7.89442436735397,6.945169339310908 7.682563657077189,5.132579893359363 4.745069814080367,2.7945677347030085 1.7459363298905117,0.6488654287616669 -0.12161415376799312,-1.5559866862060119 -1.756838530173816,-3.959395564972951 -4.026239509007958,-6.85882885848973 -5.611211352074321,-10.457593755347204 -4.0409410236841055,-13.119540720987018 0.04082150570633303,-12.351733636454405 2.9429320857205425,-8.505240974250135 2.798706010436028,-4.051937077434161 0.9799500974217352,0.011058373247351483 -0.05999062010809553,4.284812923192774 1.1312575889683671,8.409330923204543 3.4484088691794526,10.207062369066541 4.18858265045575,8.489716032082782 2.779834003563643,4.9104609077129595 1.218077922164838,1.4706476664892847 0.6905610988466861,-1.4417117141013165 0.47086540857576153,-4.410880211319437 -0.057292815695596744,-8.144431658962077 0.3797715005310991,-12.147345896853665 3.1354977563122617,-13.703267645858666 6.362129501578572,-10.931267435545756 6.96588498891802,-6.033278129277136 4.557365512209017,-2.157442624923945 0.8640152389836402,0.5145118063991845 -2.246211008647137,3.771779232409301 -3.301270094416637,8.03859450374243 -2.166762104625505,10.818202768388176 -0.6312153237280569,9.67361691995525 -0.048015433124191986,5.778366915227579 0.3280909622779973,1.9288564711007083 1.351081701713582,-0.9232425501181538 2.6759251446882644,-3.667838643565368 4.118397314110624,-7.247622122024019 6.554193252488901,-10.571800315358807 9.792724028292639,-10.539930093831266 11.233473113811755,-6.430866730645306 9.261324057895209,-1.7800927279052559 5.1425977919199966,0.42278330738129455 0.5016082694801156,0.9009849633290941 -3.921578671903873,2.1962491962249686 -7.0394966229386,5.437620735636202 -7.455773946480647,8.480973868927144 -5.508895501696401,8.251703677405509 -2.9988651963581106,5.097772329578611 -0.6960069768174151,1.8787581131039914 1.669545183893959,-0.12520890021635012 4.247309931076231,-1.879299039861813 7.35625720761908,-4.313019571967267 11.214200145797633,-6.011920839851868 14.06629888100737,-4.326757289993353 13.239992863692294,0.05075314686914112 9.11326191902964,3.1621187153741914 4.337374474619821,3.006806965454409 -0.018601279696014217,1.0566449534053746 -4.5990605647843665,-0.05817729841587038 -9.018124448103748,1.218425278120705 -10.942533680951897,3.7010733345341222 -9.100184918907388,4.493314562201967 -5.263738957183961,2.983134611136215 -1.5778843362861323,1.3095341865758172 1.5418536311388635,0.7442272059462169 4.7214516213233395,0.5087686792771962 8.718607277350145,-0.056937460952575236 13.002940995538324,0.4110500998034894 14.666092396831345,3.3613526888838834 11.695556670897815,6.8148601687455255 6.450246398662699,7.45971665075804 2.3005881845676015,4.880304924399439 -0.5593915829938396,0.9266634793808635 -4.044832333953082,-2.401764446792356 -8.609409006540858,-3.5301774236711196 -11.58147184091311,-2.315683914937466 -10.354664440038249,-0.672544190224329 -6.185964984455325,-0.0485909670970841 -2.0674542835674288,0.3536760756947359 0.9831349407065773,1.4476288723027722 3.9178497389673907,2.864036045004326 7.744695116410213,4.4057928695394395 11.297128106536405,7.009078863395644 11.260833321280614,10.469732512956242 6.8663952907157295,12.007693990326615 1.8942820108451315,9.897478956934364 -0.4602853223861416,5.493844306582133 -0.8336549563579752,0.7061031382186371 -1.7770043073614943,-3.1839284881267247 -4.326648792750831,-6.244782741490354 -7.395303730067468,-7.381538077038087 -8.534066344560586,-6.324209285618693 -6.77225464828868,-4.195012820242056 -3.696110043278736,-2.0937731957274224 -1.2146931224055777,-0.1178237144443699 0.3560912561836176,1.9620017836408152 1.9052071648042954,4.216223597368199 4.033794002539395,6.902302948376146 5.730953694985033,10.231824633635426 4.9567728022864515,13.137489612578747 1.4965368500345733,13.521570304950473 -2.082941246148465,10.805337657805126 -3.358744334131501,6.659083198422991 -2.307329441278057,2.682710059994008 -0.5676074840208116,-1.0696849312124073 0.049610920540288816,-5.114220081933581 -1.2739988701000584,-8.87187503060261 -3.4734870352602343,-10.562265544846412 -4.401382550377804,-9.232427410419234 -3.3475962759707443,-6.03202111505577 -1.7044841731140536,-2.6805373627322098 -0.8386062703129085,0.17646960522455402 -0.647702320840267,2.803926880193444 -0.31255017542036967,5.778072748095809 0.1367616825016853,9.480905360497701 -0.6471120314099323,13.03836153224907 -3.417372158350304,14.13262232829058 -6.4661668006205275,11.518778678739523 -7.346094667465906,6.9535058436032955 -5.542246406216208,3.0380837896342996 -2.2488298854443656,0.3990520416570291 1.0704441448749975,-2.1961630698905026 3.1468681429298613,-5.835475929051512 3.2026435554707007,-9.675861356889214 1.7838016078958816,-11.301184829557599 0.484610173757801,-9.499341280747387 0.0346314301283428,-5.737540988848679 -0.2993078401610205,-2.152413545156179 -1.1955290147916173,0.551789944436365 -2.4218132924333275,3.002352655809119 -3.6618982623038363,6.078241481080852 -5.434403620309453,9.594790071937553 -8.280230265719922,11.509746005564892 -11.001560938839148,9.760473146671103 -11.41634518673473,5.2945258114290255 -9.010994183534592,1.2806617202035113 -5.066175025658765,-0.5010212792768982 -0.7537699018458568,-0.9018361927141711 3.413465306899184,-1.9121814198964557 6.691365988471276,-4.6427816236988235 7.907588085785335,-7.9284826990892725 6.773779096368102,-9.146496055123691 4.492516111316718,-7.2581752310404966 2.241832373919678,-3.9631069040842988 0.1259201914776895,-1.305694446819615 -2.100601312049406,0.37612127391108174 -4.5131807196212606,2.0342734295678326 -7.387319217332305,4.312186862742067 -10.949293222430185,6.1277471154431 -14.056708989268913,5.2981628125399425 -14.46511124447727,1.5946571437151533 -11.556292983015261,-2.2354085684071094 -7.118397973885301,-3.599878164427338 -2.863451214155887,-2.474470227915191 1.1507560777032637,-0.6131321433095991 5.476326854631651,0.04713489761678602 9.493924211478735,-1.368385361754349 11.299814624960128,-3.7201420917892563 9.87583936465846,-4.71161304408534 6.452324993670004,-3.5840926414516616 2.868224120665076,-1.826852640979297 -0.18633556717270494,-0.9009214525563323 -2.994720020963186,-0.6966981809926267 -6.17289024528047,-0.33836089253108526 -10.128953620904397,0.14188120485573563 -13.928627504681849,-0.6957701835967782 -15.095398585458888,-3.6556408448420825 -12.300135325795978,-6.912319474445553 -7.420892060262162,-7.851132707403593 -3.2371127414478167,-5.922860859329603 -0.4177681252109551,-2.404060067515701 2.354043160138545,1.1414373123003116 6.240162925247461,3.3587298070508638 10.339991904508992,3.4177142389929145 12.073632331836222,1.9021619408141532 10.147787331815032,0.5147481895275234 6.1300587876227155,0.03428402263722319 2.3019604832256277,-0.3221873241696187 -0.5848700526685207,-1.2787390914734544 -3.2002537268302476,-2.58732188019016 -6.48232351866303,-3.9103009781762097 -10.233797298067152,-5.801099574394726 -12.275388328515902,-8.836682172033278 -10.406979020371566,-11.738673661542904 -5.640777168405322,-12.179213239584556 -1.358040303781621,-9.611254377551731 0.5426279052203427,-5.401846581966666 0.9700174290704098,-0.8014366654731191 2.047358532431332,3.6430021256716003 4.958914454646845,7.137949235452268 8.461661668111162,8.433638094532625 9.758925765686499,7.223348907117256 7.744095813792541,4.790019402391579 4.230103764889918,2.3898915521119335 1.3966957712335741,0.13401666851100913 -0.3961512916385601,-2.2392008404580395 -2.1633396943313343,-4.810137841874393 -4.590579722944696,-7.872335486288378 -6.524540535901124,-11.666761811224802 -5.639552822793419,-14.975928365958929 -1.6927774373957902,-15.40865218400414 2.387875890665711,-12.307248308225518 3.8410119947231323,-7.577712749347555 2.6416110145523675,-3.044192368317823 0.658656802598415,1.2318272241939638 -0.044658874693283224,5.838433627329877 1.4627718534086256,10.11597339235476 3.9667971483183067,12.037363705073965 5.0218435377927975,10.519251318897496 3.8205890069326287,6.872628872284366 1.949221108844533,3.055910878597956 0.9632366347997845,-0.19620152912087008 0.7456940411450006,-3.1855131617330272 0.364171609641744,-6.567707742465075 -0.14700072720975044,-10.77700188131142 0.7444283357836028,-14.818893477114166 3.893909531333911,-16.058174842627302 7.358472148270344,-13.081491972852191 8.356170747341771,-7.88827827692144 6.303475312442814,-3.436141693261206 2.5592902495869794,-0.43648420876481 -1.2124304797258247,2.511923250386701 -3.5705914711717526,6.644849921443409 -3.6327849225152136,11.004122452128925 -2.0205222737322686,12.846079834114391 -0.5448862052972885,10.796233382882583 -0.033936615146132,6.522576586396987 0.3450668081782169,2.4515074212950694 1.361949168155249,-0.6179501609005982 2.7528304679469073,-3.39815479785117 4.158703694048825,-6.886405556245634 6.167795528479758,-10.872804524196262 9.393134078347089,-13.041030651467665 12.475786384246106,-11.053484894071417 12.942081292434764,-5.987028525381845 10.211514571568628,-1.4354188873597025 5.737518138274709,0.5842345311638155 0.8491034291003245,1.0381986654265916 -3.872538944443903,2.182535644966208 -7.584532482433559,5.275047285595022 -8.959688103279447,8.994840637132654 -7.672918717867006,10.371355476249931 -5.087522693466013,8.230016396544102 -2.537950730304317,4.497100625695715 -0.14211314554432875,1.4876970956475049 2.377800368866673,-0.41618130936601716 5.107094964127327,-2.292405959094779 8.357351755244679,-4.868972583147368 12.384230400019675,-6.921333956359348 15.895147742648987,-5.980942833046797 16.352193123530554,-1.7908977310763845 13.058203633436051,2.5403432129243697 8.037027524809872,4.082145825018941 3.2249335224796596,2.80875180118953 -1.3128983706848771,0.704181461887103 -6.20054040002816,-0.042182851769723584 -10.738022573230353,1.5571583450628594 -12.774912785188064,4.213452204847414 -11.16266327313653,5.332074031500277 -7.292932750898785,4.0570853724136455 -3.2435976365306374,2.071589576709684 0.20606749106892153,1.025551817043258 3.3763063025027975,0.7946899012973887 6.962525239649693,0.3899823267523672 11.425050141718259,-0.15212024956376524 15.709159449546405,0.7930864879704274 17.02095109979598,4.1321782178256825 13.862848619908846,7.804624822095491 8.35566449358032,8.861208787279566 3.63517064507451,6.684089765555967 0.45520029231877857,2.7145204316584 -2.669803340634701,-1.283423647151153 -7.049536917639557,-3.7824531352927977 -11.668252999748546,-3.8478556060373847 -13.618527336393328,-2.1388826066506113 -11.444679433949602,-0.5750242210669256 -6.915094385171443,-0.033589207655126074 -2.601054359364383,0.36794629218690034 0.6510302691327183,1.4451592448370718 3.596055868872213,2.9183390557037256 7.290487593827777,4.40710640992117 11.511811750326103,6.534491482565144 13.806672974418547,9.94958598466036 11.69999076777205,13.212899106950076 6.333279882357999,13.70494934528439 1.5127974709378122,10.81177476558581 -24.614751305927882,-6.9836770450351935" />
    <path
       style="fill:none;fill-rule:evenodd;stroke:#ff0000;stroke-width:1px;stroke-linecap:butt;stroke-linejoin:miter;stroke-opacity:1"
       d="m 126.19727,-5.9804688 c -8.93714,0.2450996 -17.19906,3.9093831 -24.68798,8.4502141 C 95.474175,7.968847 88.672536,12.775305 84.574219,20.025391 79.079159,16.171089 73.726185,24.143373 69.497314,27.057776 68.633794,26.179818 70.401111,17.32117 71.60076,13.680567 73.232402,6.6039398 77.238969,0.57214757 80.228516,-5.9472656 70.35081,-5.1270805 62.053733,2.4178329 57.124917,10.533191 c -5.945765,8.311868 -8.111646,18.4042 -9.582279,28.310014 -3.539,1.220569 -7.205816,6.681585 -8.071529,11.719351 -1.599178,8.561285 -3.744316,-4.987528 -5.218672,-7.657564 -2.832677,-6.594225 -1.484966,-14.253104 -3.295406,-20.815148 -2.411016,-4.150092 -6.561836,5.830002 -8.014669,8.424406 -3.839153,8.535095 -4.091622,18.182528 -2.358183,27.302622 -0.120743,6.077015 4.853424,12.054546 4.935352,17.341331 -4.052464,3.840104 -0.892579,11.325362 0.09961,16.302735 C 16.38537,85.144686 8.6479458,76.667685 3.6035156,66.648438 c -6.1830795,4.001493 -2.3060354,12.783073 -1.9453125,18.74414 3.1179748,8.151693 7.34299,15.579942 13.8386539,21.521132 2.016048,4.57502 11.052994,5.62684 8.90744,10.61363 1.726706,4.68268 5.415708,8.80155 9.019531,11.84375 -11.84895,-0.88215 -22.884273,-5.18869 -33.14648425,-10.95117 1.12118185,12.04587 11.60772425,20.6909 21.90804825,25.50196 6.651723,3.38629 14.614572,4.6586 21.871249,5.60742 1.11912,5.2072 8.73808,5.91757 13.158203,7.72265 -1.519034,1.882 -10.316224,4.21175 -14.903823,5.54899 -5.710979,2.00308 -12.326887,-0.51262 -17.424302,2.96273 9.046657,9.19752 23.026033,11.37614 35.269609,8.88955 6.033172,0.13641 11.949332,-4.80168 17.17961,-4.83291 4.405296,2.20833 10.690446,0.51394 15.349609,-1.1582 -6.118823,9.07021 -14.265369,16.8098 -24.113281,21.69727 3.780339,5.93001 12.119791,2.27691 17.773437,1.90624 8.323495,-2.95848 15.413187,-7.80175 21.507427,-14.16298 4.01743,-3.82756 5.39754,-9.06404 11.1052,-9.41659 3.19331,-0.46921 9.13516,-9.8202 8.29973,-5.3604 -0.77047,10.83513 -5.03877,20.78241 -10.19361,30.18021 11.66643,-1.05502 19.87717,-11.2849 24.46939,-21.24302 2.86438,-6.33499 4.23599,-13.81461 4.99741,-20.54214 4.00066,-2.64223 5.719,-8.809 6.38086,-13.59765 4.57098,9.0395 7.07947,19.19355 6.94727,29.26172 1.90632,6.69364 6.36497,-3.39388 7.79173,-6.1015 4.26275,-8.94556 3.47397,-19.25455 1.4061,-28.66227 -1.03612,-4.65961 -6.6275,-12.19624 -2.88256,-14.94266 5.71791,2.07179 13.75295,0.94788 15.99253,7.97018 4.3677,9.88759 3.63872,-6.33376 9.05593,-1.63875 7.07612,2.0068 14.15131,4.01689 21.22806,6.02148 -0.60868,-8.64088 -2.52891,-16.89609 -6.98938,-24.40464 -3.26334,-6.685941 -9.37829,-11.728556 -14.29461,-17.197513 -2.52087,-1.961248 -16.01019,-11.132147 -7.5248,-5.949166 5.63137,2.163476 2.24616,-7.039911 -0.64559,-9.289882 -8.03977,-6.824699 -2.85991,-6.308354 4.64782,-4.500355 8.77897,1.878488 16.57536,6.212235 24.52531,10.185306 -0.62992,-9.75689 -8.04646,-17.579105 -15.41076,-23.153027 -7.69593,-5.079137 -15.97331,-8.683872 -25.13618,-10.041539 -3.66677,-2.251546 -14.65322,-0.06874 -7.257,-2.367766 -0.10683,-5.769828 -8.52431,-6.671218 -12.87511,-8.622615 -4.06853,-1.970111 8.82678,-3.630495 11.36982,-5.295374 6.24283,-2.026471 13.19878,-1.173314 19.34446,-2.51245 5.28055,-2.083272 -4.71845,-6.557721 -7.2803,-7.964779 -6.17917,-3.106049 -13.59728,-4.515438 -20.46171,-4.184597 -9.53597,0.228386 -18.53702,2.694378 -27.19166,6.61285 -2.76627,-6.296935 -11.57138,-2.053221 -16.76576,-1.612735 0.0677,-2.662204 6.52345,-8.373691 9.55841,-11.5451685 4.3283,-4.4607232 9.83245,-7.60188944 15.21907,-10.6292057 -1.83206,-3.971212 -5.39467,-3.0675148 -9.08593,-3.5390626 z M 98.539062,31.394531 c -2.803573,3.214534 -5.343742,11.127065 1.587888,7.726563 8.73486,-5.334613 1.1217,2.785116 -0.958981,6.816406 -7.618917,4.980326 -11.36588,13.797809 -16.400391,21.039062 -0.318631,-13.514215 4.878435,-27.007857 15.256493,-35.863558 1.152203,-1.245053 3.185099,-3.640858 1.002585,-0.507409 l -0.487594,0.788936 z m 38.249998,5.625 c -2.76034,2.680546 -10.95722,3.352176 -8.66211,8.46875 6.2131,1.39849 11.49004,0.958392 2.32477,4.376018 -6.61059,3.059609 -14.33265,2.989478 -20.41574,7.562727 -5.07407,3.225234 -10.568619,4.499609 -4.19349,-2.002407 7.06318,-10.844602 18.83092,-15.715499 30.94657,-18.405088 z m -71.693357,9.320313 c -1.232177,7.080006 5.003406,3.511248 6.891381,-0.320622 3.001512,-5.459323 0.386934,5.365212 0.8639,7.928008 -3.026986,8.568307 -3.389272,17.962984 -3.196687,26.941442 -4.744146,-8.130371 -7.706988,-17.406095 -6.921875,-26.898438 -0.962095,-0.724055 3.050952,-17.301126 2.376484,-10.111371 -0.0044,0.820327 -0.0088,1.640654 -0.0132,2.460981 z m 48.759767,-3.759766 c -4.65611,2.242591 -8.81342,5.420575 -13.58985,7.408203 2.60011,-5.003833 8.53509,-6.254868 13.58985,-7.408203 z m -32.345704,5.457031 c -1.243545,3.039307 -7.928971,13.478764 -4.633246,5.447852 -0.135688,-1.266778 8.424964,-11.640271 4.633246,-5.447852 z m 58.210934,7.017579 c 4.80123,2.429799 -8.20232,0.392741 -11.00195,1.138671 -7.14272,-1.712949 7.85284,-3.235355 10.7648,-1.173687 l 0.23715,0.03502 z m 10.44532,4.488281 c 3.66022,1.100665 13.29141,2.492184 13.63671,3.599609 -3.42907,0.605231 -14.36423,-2.011947 -10.27343,3.896484 5.46714,4.271563 7.10009,5.407177 -1.08301,4.166471 -7.9007,-1.748695 -16.0739,-4.736972 -24.50098,-3.92233 -9.72039,-1.076354 -1.66453,-3.214547 3.71124,-5.385374 5.82617,-2.567605 12.2513,-2.749804 18.50947,-2.35486 z m -47.3379,7.375 c -1.0521,3.177561 -7.311285,7.332588 -4.564448,10.320312 -0.212949,4.07415 -6.15464,8.065625 -1.871094,0.328125 1.118446,-7.653371 -10.623793,8.032598 -3.951172,-1.451172 2.888516,-6.63513 8.494414,-10.798811 14.839844,-13.74414 -1.48437,1.515625 -2.96875,3.03125 -4.45313,4.546875 z m -43.888667,-1.84961 c 0.141205,2.913742 0.337283,15.268988 -1.339844,6.841797 0.31861,-1.246395 1.424094,-11.915204 1.339844,-6.841797 z m 27.861328,3.486329 c -0.480548,4.959029 -1.995388,10.249885 0.142578,15.041015 5.260407,-8.657753 0.05021,4.685555 0.208985,3.484375 0.568111,-7.659418 -4.95499,-5.246187 -4.714539,1.011359 0.369851,5.835583 1.688669,9.581969 -1.329542,3.343513 2.874738,-7.833541 -0.938875,-17.803709 5.577284,-24.477919 2.130654,-4.28678 1.043742,-0.750601 0.115234,1.597657 z m -32.808593,4.841796 c 2.718906,5.872635 3.146765,12.639459 7.133247,18.099182 3.394655,5.185556 5.240246,9.129794 -1.35429,3.498556 C 53.320882,91.058477 49.160933,84.046448 45.298828,78.777344 44.356973,74.914128 39.837518,63.54814 44.333655,71.90474 c 3.437175,6.237657 6.41298,-3.045949 5.564857,-6.728612 1.30747,2.477964 2.743322,5.529864 4.093676,8.220356 z m 65.253902,-3.257812 c 9.10081,-0.589911 3.20301,0.922356 -1.91015,2.722656 -2.01879,1.712167 -12.42407,4.732466 -6.48828,6.5 -4.67192,1.889499 -10.00068,3.638659 -3.0586,-0.93164 5.49923,-5.556952 -9.400517,-1.431068 1.60891,-5.85414 3.21555,-1.168062 6.25705,-3.873127 9.84812,-2.436876 z m 30.17188,3.923828 c 3.10076,0.412678 13.97109,10.525374 8.63435,7.83451 -3.36432,-2.582778 -11.9261,-5.877484 -11.86094,-7.859858 1.07553,0.0084 2.15106,0.0169 3.22659,0.02535 z m -76.226564,3.845703 c 1.457704,4.855028 3.425081,9.600145 6.388672,13.75 -2.029292,1.925089 0.236667,9.695407 4.272221,11.615997 -0.877272,0.43183 -6.186495,-0.49791 -4.764408,-5.463653 -3.846434,-6.240136 -7.837468,-13.443116 -6.011719,-20.980469 l 0.106279,0.994337 0.009,0.08379 z m 57.285154,3.556641 c 1.26771,2.275212 10.71224,6.324757 4.24219,3.978515 -5.34747,-0.438483 -11.01255,-2.097376 -16.17578,0.140625 0.70964,2.533481 -11.54997,-1.497439 -0.0996,-1.222656 7.16051,-2.263833 -6.43519,-5.473598 4.875,-4.28125 2.38607,0.461589 4.77213,0.923177 7.1582,1.384766 z m 7.53906,-0.259766 c 13.1804,-0.182992 25.74316,5.496027 34.40761,15.406812 6.13842,5.811 10.72214,13.85627 11.69786,22.35491 -6.71506,-1.57861 -9.72892,-9.66001 -16.00564,-12.7814 -4.43714,-3.68073 -10.08447,-5.81453 -12.75217,-11.2479 -6.2682,-4.596996 -12.16861,-9.346726 -18.37305,-13.746094 l 0.99992,0.01333 0.0255,3.4e-4 z M 52.205078,97.355469 c 2.578012,6.981311 -7.894522,-12.930116 -1.727236,-2.942865 0.575745,0.980955 1.151491,1.96191 1.727236,2.942865 z m 74.333982,-5.900391 c 5.68803,2.851998 10.6104,6.74613 12.37452,13.010192 3.37242,4.799 -4.51941,-3.67257 -7.44987,-4.705758 -5.14805,-4.967879 -6.14789,0.643248 -10.22443,-4.421303 -5.88728,-4.312438 3.07368,0.41603 5.95405,0.210074 4.2127,1.136148 -1.55413,-3.640098 -0.65427,-4.093205 z m -56.205076,6.13086 c 4.007387,3.159672 9.2062,4.754812 11.269532,9.744142 4.520323,2.79808 9.336585,4.42104 2.209189,2.6303 -6.079678,-4.76418 -14.992611,-7.71754 -17.146689,-15.972099 1.222656,1.199219 2.445312,2.398438 3.667968,3.597657 z m -22.232422,2.408203 c 5.955502,4.720089 11.536972,10.552759 18.735961,13.861859 6.761453,3.52659 -8.134275,0.94729 -11.14638,-0.14519 -6.830633,-2.62313 -13.407905,-4.61599 -18.121157,-10.43236 -4.434655,-3.19528 10.352384,5.77693 5.281576,-3.08118 -5.244374,-8.445188 1.004116,-3.030523 5.168181,-0.257767 l 0.08182,0.05464 z M 101.125,95.328125 c 2.80898,-0.540789 7.21421,5.455605 2.25195,3.951172 -0.002,-1.825465 -5.685115,0.717288 -5.878903,-1.259766 0.387673,-1.173103 2.610123,-2.555992 3.626953,-2.691406 z m -6.703125,2.875 c -0.372493,0.3697 -0.04404,-0.618172 0,0 z m 5.851565,0.351563 c -0.877863,0.329864 -0.22307,-0.127532 0,0 z m -1.310549,2.361332 c -1.788274,-0.45296 -1.520586,-1.854043 0,0 z m 56.181639,0.20703 c 4.04051,1.75246 7.62078,10.17714 5.86641,12.20821 -3.06631,-3.7419 -5.58935,-8.72868 -7.78828,-13.2961 0.64062,0.36263 1.28125,0.72526 1.92187,1.08789 z m -5.92578,5.51367 c 8.38849,5.97407 3.83903,5.23811 -3.60156,2.92969 -2.55791,-7.41288 -3.25798,-7.84032 3.60156,-2.92969 z m -29.03711,-3.25977 c -0.16013,0.0872 -0.3035,-0.3859 0,0 z m -20.716796,0.78711 c -0.734385,-0.2994 0.554236,-0.79251 0,0 z m 15.349606,0.99219 c -3.27928,6.33807 0.52331,14.59404 -4.55468,20.36914 1.72655,-4.70724 0.73354,-10.06802 0.64843,-14.5293 1.41764,-6.1691 1.02469,-4.43751 3.90625,-5.83984 z m 3.22461,0.78711 c 2.61903,3.08225 3.70386,15.20877 1.07227,5.69726 0.38818,-1.79058 -7.33988,-8.6676 -1.07227,-5.69726 z m 22.20899,5.41406 c 2.14179,5.01257 7.18678,3.88822 7.50291,10.69093 -3.04526,-1.69645 -4.2013,10.28045 -4.46776,8.11376 -3.44158,-6.84202 -6.90448,-13.3775 -9.64453,-20.41602 2.20313,0.53711 4.40625,1.07422 6.60938,1.61133 z m -68.265628,0.53516 c 5.655408,1.69235 11.688675,-0.74684 16.572266,2.71289 5.634219,-1.03055 8.115403,1.13683 1.980468,1.10742 -7.419678,-0.28209 -15.610553,0.45849 -21.5625,-4.86719 1.003255,0.34896 2.006511,0.69792 3.009766,1.04688 z m 37.351558,1.34375 c -4.66756,5.13472 -6.70617,13.21193 -13.871089,15.59375 2.640189,-2.86022 7.194009,-7.29968 6.578759,-10.70538 -4.02348,-2.06703 -8.295811,3.91489 -12.7065,4.65894 -5.341428,2.10758 -13.154903,1.39869 -3.001166,-0.94184 4.068828,-2.09528 7.662677,-4.72626 12.186961,-5.14535 5.018155,-4.56972 2.896845,4.16262 8.138285,-2.68143 1.39789,-1.83647 1.66702,-4.26161 2.67475,-0.77869 z m 18.23438,8.05078 c 2.38144,5.44517 3.26527,11.34017 2.84375,17.25586 4.32933,-5.53372 -0.37865,13.74158 -0.0781,4.36133 -3.79894,-0.11608 -7.34299,8.06203 -7.33007,6.08008 0.33417,-7.97594 0.79722,-15.84574 2.21008,-23.65417 0.21257,-4.09444 -0.792,-12.41227 2.35437,-4.0431 z m -69.261719,-0.16992 c 4.910489,3.73299 -12.900741,-7.58622 -1.565883,-0.88896 l 0.869636,0.4937 0.696247,0.39526 z m -11.351563,3.61523 c 8.454055,-0.13035 16.591674,1.84841 24.861189,2.95724 6.771445,-0.25371 13.784169,-0.16217 3.770198,3.2728 -5.62383,2.48581 -11.753337,3.22212 -17.855996,2.87738 2.798363,3.10078 -13.654874,-1.74152 -7.980469,-0.9375 6.975771,1.09373 2.68895,-5.2086 -0.828125,-6.90625 -0.161469,-0.18086 -2.476236,-1.36039 -1.966797,-1.26367 z m 67.074222,4.33594 c 0.2234,7.87181 -3.19731,14.84432 -6.13282,21.89062 2.24359,-0.35123 -7.25509,11.21004 -3.68164,1.83985 -2.42567,-1.2146 -11.30872,5.33682 -8.330909,1.6472 5.344279,-9.41767 13.338929,-16.7194 18.162949,-26.51048 l -0.0155,0.99988 -0.002,0.13293 z m -17.583988,6.01562 c -3.527841,5.0713 -7.820882,9.76137 -13.46875,12.47071 1.407977,3.75935 -15.338214,6.84272 -7.188054,3.45458 0.783254,-5.35963 -8.984841,-3.21952 -8.413508,-4.26513 6.3301,-3.32702 12.612319,-6.4394 19.395768,-8.42472 2.912665,-0.33771 13.703822,-9.08694 9.960168,-3.69819 l -0.285624,0.46275 z M 75.5625,138.25 c -2.01176,0.60738 -6.218367,-0.44003 0,0 z"
       id="path4202"
       inkscape:connector-curvature="0" />
    <path
       style="fill:none;fill-rule:evenodd;stroke:#0000ff;stroke-width:1px;stroke-linecap:butt;stroke-linejoin:miter;stroke-opacity:1"
       d="m 116.62109,-1.6035156 c -8.84572,3.2362023 -16.48781,8.3129173 -23.020389,15.0861956 -6.36051,7.64938 -13.359225,15.902824 -16.230364,25.558612 -0.947676,5.51635 -2.933567,12.747974 2.311536,5.574988 4.186189,-2.898323 7.698326,-5.358644 10.598308,-9.577825 4.053738,-4.505178 8.003806,-9.251078 13.417089,-11.977908 6.92289,-10.075436 15.08785,-19.6587271 25.87304,-25.7246095 -4.33536,-0.8089006 -8.63113,0.7124155 -12.94922,1.0605469 z M 69.636719,1.1171875 C 59.95114,8.6936376 53.846593,20.062219 51.849934,32.10983 c -1.830216,8.339798 -2.567695,17.411349 -1.254859,25.804537 1.356815,4.649805 5.325052,15.92449 5.299456,4.943055 4.357693,-5.901885 3.36937,-13.163056 5.692912,-19.970836 0.580339,-5.454057 5.129633,-9.33137 4.2612,-15.077581 1.204821,-10.261468 3.542608,-20.6072581 8.975576,-29.5179894 -1.729167,0.94205732 -3.458334,1.88411461 -5.1875,2.8261719 z M 141.60938,19.15625 c -10.61961,4.132489 -22.36629,7.552709 -30.74973,15.501675 -5.79652,5.389361 -5.86758,8.613671 2.43723,4.957309 7.57848,0.916947 14.33197,-3.922467 21.77986,-5.320582 5.49289,0.137621 10.61685,-0.880831 15.3549,-3.956761 9.07672,-3.308407 18.51522,-6.206413 28.28516,-5.81836 -10.41182,-7.554688 -23.88357,-7.671086 -36.08476,-5.475225 l -0.99407,0.108814 -0.0286,0.0031 z m -30.71485,3.556641 c -6.26587,2.024692 -8.48357,8.354203 -11.634764,13.507812 8.955554,-2.79568 14.732204,-10.105006 22.330074,-15.048828 -3.59056,-0.372826 -7.14248,1.101814 -10.69531,1.541016 z m -32.781249,0.855468 c -6.028362,4.239595 -11.423298,10.407024 -9.993157,18.296847 -1.013335,9.368849 5.035649,-4.18207 6.991204,-6.828097 -0.574052,-3.252996 6.391996,-12.829842 3.001953,-11.46875 z M 28.244141,26.6875 c -6.291462,9.845273 -6.52116,21.863096 -4.43612,33.017848 4.285959,12.994774 8.910981,27.841629 21.686298,34.940055 1.452963,-0.05844 -1.573396,-9.364391 -1.764207,-12.444815 -3.18529,-6.862403 -5.434411,-14.489359 -5.777941,-21.931236 -5.345038,-10.578124 -9.387,-22.218773 -9.174827,-34.195133 L 28.244141,26.6875 Z M 140.41992,38.431641 c -6.07318,2.775792 -11.76544,6.321979 -1.42741,5.455592 7.00708,0.600102 13.48987,-3.000811 20.56804,-2.637233 -5.49741,-3.025542 -13.16961,-6.264692 -19.14063,-2.818359 z m -96.216795,7.632812 c -3.171922,6.753818 -4.570811,14.938322 0.75066,21.038299 3.170438,6.153702 1.991258,-8.723951 1.688762,-11.512944 C 45.24098,53.479573 46.11057,43.14125 44.203125,46.064453 Z m 101.148435,0.791016 c -4.85907,1.432636 -15.9076,5.19034 -4.93945,5.267578 4.34689,1.930106 7.38606,4.947292 12.23266,4.907736 6.53155,1.67913 13.56094,2.101468 19.01539,6.506326 12.60852,0.843678 25.45709,3.401362 36.39062,10.019532 -5.19346,-11.287864 -16.20308,-18.750487 -27.6203,-22.651508 -11.41149,-3.62121 -23.17633,-4.314779 -35.07892,-4.049664 z m -41.02734,4.607422 c -4.05957,3.660109 -9.524188,0.04508 -11.098874,5.010749 -2.72218,4.008001 2.654909,2.868727 -2.652909,10.359047 -1.834777,5.081157 -2.552429,13.060167 1.423087,4.333023 5.080249,-6.393264 8.086766,-14.142328 13.748616,-20.534851 l -0.86279,0.505568 -0.55713,0.326464 z m -24.353517,5.353515 c -1.872181,4.54561 -8.136319,5.613632 -7.125703,11.330001 0.9869,1.954761 3.761672,-0.162901 3.237047,8.571309 1.327278,5.936533 4.304907,11.829605 3.169906,2.059628 1.726903,-7.627572 -0.478565,-15.600438 1.515625,-23.361328 l -0.494571,0.869137 -0.302304,0.531253 z m 39.277347,-0.658203 c -6.04671,1.730624 -6.11484,7.287538 -11.66928,10.196173 -5.79915,5.675404 -5.54184,7.335971 1.40887,3.117492 7.46839,-2.694414 13.50791,-7.95566 21.35025,-10.290227 -3.99428,0.72256 -10.87123,-1.745766 -10.55942,-3.138179 l -0.53042,0.114741 z m 37.64843,9.957031 c 5.33116,4.883589 11.9423,7.309754 18.70551,9.192597 6.41375,3.566745 9.10835,3.224047 3.02822,-2.582334 -4.81193,-7.876068 -13.82273,-6.511138 -21.73373,-6.610263 z m -21.02343,6.164063 c -6.97326,0.218891 -14.0465,1.12485 -20.13086,4.796875 7.98385,-0.551136 15.51647,1.844143 23.46702,1.220428 8.02585,1.108323 8.29144,0.946871 2.0397,-3.959921 4.60176,-2.020467 -12.32417,-6.674543 -5.37586,-2.057382 z M 61.996094,73.25 c 0.909567,4.6625 -4.468039,8.558079 -0.347158,12.603715 1.637998,2.774968 6.237701,2.411822 9.376726,8.208852 7.138695,7.077093 1.242884,-1.751668 -0.265771,-5.972508 -3.045393,-4.857285 -7.099672,-10.688506 -8.779422,-17.025606 0.0052,0.728516 0.01042,1.457031 0.01563,2.185547 z M 3.1699219,75.121094 c 0.582913,13.751777 8.9861651,25.748696 19.3430531,34.192026 8.663679,6.91076 18.356108,13.33059 29.92944,12.78741 0.458853,-0.0937 -5.742439,-5.91256 -7.382261,-8.8402 C 38.482944,109.10763 32.591651,103.3442 28.292151,97.081329 18.548061,90.571887 9.3263415,82.764488 3.4355469,72.476562 3.3470052,73.358073 3.2584635,74.239583 3.1699219,75.121094 Z M 158.30273,75.949219 c 3.8659,2.977713 4.91857,8.32334 8.27752,11.2401 6.95504,5.945194 13.91209,11.995708 17.45484,20.687571 3.92158,3.83674 0.0106,12.949 7.14502,13.00018 5.88723,1.67053 11.77446,3.34107 17.66169,5.0116 -0.7988,-12.11554 -7.38841,-23.00456 -15.92659,-31.348172 -7.70468,-7.819943 -17.38076,-14.040975 -27.23566,-18.767745 -1.88586,-0.408448 -13.94972,-2.899947 -7.37682,0.176466 z m -57.59961,4.412109 c -3.523879,1.901856 -6.194673,12.789055 -8.951455,9.451843 -0.95791,-6.506919 -0.106752,-7.405478 -1.255625,0.01486 1.238616,5.672526 -2.17152,8.877448 -4.648384,2.328218 -0.242604,2.896546 7.717711,10.56006 2.134766,9.79102 -5.963567,-1.90183 7.101809,3.39533 4.601221,4.72406 -6.438855,2.4808 9.642687,-1.05365 3.764013,3.43805 3.715354,-3.73902 5.897654,0.52064 7.163484,-3.27171 2.91104,-1.11337 3.63895,-4.08734 -1.43106,-4.5154 -1.15504,2.31549 -5.390813,3.73549 -5.744142,1.98632 -4.561424,-1.40402 -3.922483,-4.411578 -3.999844,-8.952301 0.667519,-0.952737 3.29309,-5.028488 6.848488,-5.941557 0.438643,-0.711649 10.787978,-1.385483 6.670888,1.153627 5.24887,1.52466 5.0111,4.073815 7.89404,7.990431 3.3174,4.13984 -3.787,1.62894 1.9126,3.26543 -3.20702,-6.802894 4.75059,-2.943088 7.17187,-0.23828 2.42435,0.76415 -5.97533,-6.563641 -9.12304,-7.49219 -7.26008,-3.353099 1.80877,-5.10471 5.527,-3.654719 2.46532,-0.892716 -8.41516,-2.214842 -11.73008,-1.911784 -6.99199,-0.01296 1.62978,-5.671171 4.81544,-6.034621 -5.17083,-0.03148 -9.60223,4.264554 -14.585019,5.827686 -1.174673,-2.965128 3.935839,-8.026957 2.964839,-7.958984 z m -74.146479,1.283203 c 0.564237,7.462077 3.668239,15.029564 11.19892,17.716255 4.119488,1.935004 -3.357192,-9.190918 -5.390327,-11.563911 -1.467474,-0.87793 -5.916012,-9.501652 -5.808593,-6.152344 z m 101.541019,7.248047 c 6.34164,3.229169 10.7543,8.475541 17.16121,11.487712 4.22124,2.36398 9.61513,8.14781 5.01084,0.40585 -0.7535,-6.511586 2.52872,-4.860092 -5.33284,-9.988235 0.98275,5.533607 -7.70044,-3.424582 -11.87916,-2.528705 -1.27919,0.290456 -11.63693,-2.41117 -4.96005,0.623378 z m -42.822269,1.761719 c 0.409791,1.389248 -0.0018,-0.304649 0,0 z m -30.4375,5.261719 c 2.503702,4.259184 1.500103,9.440414 6.994277,11.420304 3.918754,2.78972 0.229296,-5.90892 7.186763,0.35291 4.699531,2.08026 13.101496,2.93916 3.986007,-1.17407 -3.615865,-3.20422 -4.954975,-2.93841 -9.12188,-5.21755 -2.097544,-0.17979 -11.98354,-9.743516 -9.045167,-5.381594 z m 43.927734,-1.183594 c 0.518605,3.893012 2.242375,-1.131858 0,0 z m 1.097656,5.671878 c -0.952934,2.60485 1.220389,-1.276198 0,0 z m 31.855469,5.54687 c 8.58628,3.79567 2.12707,-1.33856 -1.89945,-3.68209 -1.36622,-1.1737 1.95389,3.4462 1.89945,3.68209 z m -20.57031,-2.26172 c 0.30818,0.985 1.25472,-1.55146 0,0 z m 54.14062,10.68555 c 6.91991,2.00039 13.69493,3.91937 4.96094,-2.875 -7.48904,-5.32009 -8.03742,-7.87398 -4.96094,2.875 z m -42.25195,-4.68164 c 2.71087,2.06881 5.69093,6.03466 7.25195,10.32422 2.2319,7.75806 2.04756,5.07158 2.50782,-1.01953 1.57823,-3.51474 -3.11487,-13.0305 -5.36058,-9.10699 -2.36318,-0.29243 -7.20596,-6.03201 -4.39919,-0.1977 z m 21.03711,0.36719 c -2.13628,2.30398 3.62992,-0.54055 0,0 z m -27.67383,6.25 c -2.22446,5.40464 1.11015,5.15763 0.65895,10.74784 0.25735,3.58786 -1.36757,12.86784 -1.1192,12.02854 2.25215,-4.54197 6.98037,-7.24994 6.26459,-12.93452 1.93932,-11.05407 -5.49242,6.38464 -3.83234,-5.13165 0.25764,-2.31075 -2.88804,-12.75413 -1.972,-4.71021 z m 32.88281,0.6289 c 3.10907,7.88264 3.39162,16.20612 8.02852,23.44469 3.18344,7.45124 5.44451,16.12793 5.49101,23.85024 8.91729,-14.60614 4.42976,-33.04326 -3.56492,-47.02028 -1.9296,-2.35914 -15.77622,-6.87408 -10.15222,-0.6422 l 0.19761,0.36755 z m -89.421872,1.61133 c 4.007765,2.22399 5.784465,6.99498 11.134696,6.12898 6.854031,0.69973 -4.781253,-4.8443 5.910653,-3.43033 4.277338,-0.0185 13.847929,-3.85482 4.110901,-2.70255 -5.536482,-1.60022 -11.181097,1.27664 -17.256316,-0.28162 -1.161539,0.70034 -9.709644,-2.42448 -3.899934,0.28552 z m -30.822266,1.73633 c 4.293709,6.58206 11.347422,11.12167 19.41203,9.62194 -1.625416,-2.19423 -7.907125,-5.70765 -11.826092,-7.27819 -1.42667,-0.006 -9.291755,-4.95422 -7.585938,-2.34375 z m 75.892578,5.02539 c -3.77927,2.63214 -0.66742,5.08359 -4.73556,9.40657 -0.734446,2.4274 -8.82236,10.08078 -3.889439,6.98796 4.944739,-1.56725 8.686589,-3.35999 11.158199,-8.33008 2.6988,-4.05611 -7.807552,1.31643 -0.86717,-6.46738 1.28762,-4.06404 3.43332,-11.32403 -1.66603,-1.59707 z m 79.26172,-2.17383 c 1.43512,-0.71162 -2.38535,-2.32177 0,0 z m -88.847657,0.20703 c -4.463035,1.73923 -7.793373,3.29044 -10.546657,6.3639 -3.918558,2.2397 -7.965145,4.27358 -12.324437,5.50915 5.311755,-1.05936 10.318386,3.47961 14.900975,-0.56221 6.269613,-1.50886 -2.086135,-4.49152 6.228232,-8.21504 0.677299,-0.58096 6.085418,-6.26224 1.741887,-3.0958 z m -88.2109374,5.14063 c 7.6450244,9.96335 19.5306924,15.30695 31.6890404,17.30374 10.109659,1.57783 20.927002,2.28551 30.097694,-3.15125 6.807029,-2.07493 -6.92376,-2.77114 -9.285785,-4.62623 -7.383253,-0.3639 -14.965018,-2.29435 -21.495752,-5.39738 -11.573435,-0.58106 -23.432307,-2.71999 -33.5091036,-8.71287 0.8346354,1.528 1.6692708,3.05599 2.5039062,4.58399 z m 129.4257844,2.11914 c -2.32708,5.88204 -0.87934,12.80342 -3.46207,18.87867 -1.48308,4.74507 -3.03168,9.10753 -2.86389,14.23994 -1.07291,8.77072 -2.98027,17.66204 -7.60178,25.30522 15.34068,-7.961 20.91037,-26.50625 21.04769,-42.76238 0.60851,-7.58669 -3.09535,-14.6855 -6.30159,-21.33137 -0.27279,1.88997 -0.54558,3.77994 -0.81836,5.66992 z m 10.47656,-3.22656 c -0.33611,6.35448 -0.54058,12.78909 0.22461,19.10742 2.91299,-5.9953 4.53183,-13.83186 -0.1582,-19.39063 l -0.0664,0.28321 z m -28.39258,17.25195 c -6.39454,4.35404 -9.09005,12.03677 -15.15831,16.927 -3.759237,3.08843 -7.027066,6.18079 -9.586865,10.50521 -5.124841,7.35043 -11.641082,13.82002 -19.373964,18.39982 15.779888,0.78252 29.494769,-10.30892 37.742009,-22.92906 6.41662,-7.07828 7.90579,-16.75864 8.21893,-25.95766 -0.61393,1.01823 -1.22787,2.03646 -1.8418,3.05469 z m 8.0957,4.90039 c -3.1375,5.28358 -6.58951,10.44216 -8.67578,16.25781 5.96382,-3.81595 11.20708,-10.21104 9.85743,-17.72265 l -0.62786,0.77833 -0.55379,0.68651 z m -30.730464,-0.83789 c -5.50769,1.44075 -10.748847,2.17715 -15.670387,5.06243 -5.612767,2.05866 -11.485263,3.39596 -17.154339,4.37862 -10.001269,5.07866 -20.985003,8.9752 -32.321759,8.83043 13.042004,8.49531 29.994758,6.32784 43.531937,0.10842 9.376176,-3.21819 17.122228,-10.02533 21.614548,-18.3799 z m -38.115235,1.24805 c -2.979077,0.73156 -13.13971,0.70814 -5.054671,2.71282 6.163426,3.04946 13.203938,1.89114 18.468734,-2.34954 -4.436535,-0.57877 -8.945486,-0.44415 -13.414063,-0.36328 z m 38.705078,8.43164 c -5.059128,2.8073 -10.015193,5.75862 -14.46875,9.46289 7.569684,-0.11274 15.388777,-3.57256 18.091801,-11.09571 -1.207686,0.54428 -2.415368,1.08855 -3.623051,1.63282 z"
       id="path4206"
       inkscape:connector-curvature="0" />
  </g>
</svg>
