<?xml version="1.0" encoding="UTF-8" standalone="no"?>
<svg
  xmlns:svg="http://www.w3.org/2000/svg"
  xmlns="http://www.w3.org/2000/svg"
  version="1.1"
  viewBox="-1.0587706949299331 -6.556527755484979 212.9131370724043 202.11754138985987"
  width="212.9131370724043mm"
  height="202.11754138985987mm"
>
  <defs id="defs4215" />
  <g id="layer1">
    <path
       id="path1"
       style="fill:none;fill-rule:evenodd;stroke:#000000;stroke-width:1px;stroke-linecap:butt;stroke-linejoin:miter;stroke-opacity:1"
       d="m 100,100 0.0,0.0 0.09980267284282718,0.006279051952930104 0.09862026742007401,0.018787594759928083 0.09626323495569977,0.031147747662856773 0.09274708923285857,0.04326156049022245 0.08809499369611729,0.0550325423215412 0.0823376333853787,0.06636623442332734 0.07551304519326152,0.0771707724847488 0.0676664073088773,0.0873574351858224 0.058849788916717216,0.09684117619971744 0.04912186142313146,0.10554113681138233 0.03854757267842501,0.11338113643108727 0.02719778585232291,0.12029013839085678 0.015148884801604368,0.12620268853341088 0.002482347940869545,0.13105932423827937 -0.010715707209456582,0.1348069516763104 -0.024355006472319474,0.13739918924079575 -0.03834162599346769,0.13879667527135098 -0.05257852115579453,0.13896733836426733 -0.06696607471623395,0.13788662874884494 -0.08140266135099239,0.13553770940262666 -0.09578522570370751,0.13191160577981975 -0.1100098709575974,0.12700731323299408 -0.12397245489069064,0.12083186142017155 -0.13756919032755377,0.11340033520455961 -0.1506972468703509,0.10473585177214773 -0.16325535077621112,0.09486949391350663 -0.17514437984740994,0.08384019963558842 -0.1862679502164042,0.071694608491228 -0.1965329919380565,0.05848686523270885 -0.2058503103467615,0.04427838161242903 -0.21413513019766128,0.029137557368116518 -0.22130761968573154,0.013139461637692307 -0.22729339152742511,-0.003634523746512741 -0.23202397839293099,-0.021097097437902335 -0.23543728009506992,-0.03915546639453282 -0.2374779800716169,-0.05771180631947459 -0.23809792884087244,-0.07666375253361934 -0.2372564922652174,-0.09590491893021635 -0.23492086262420742,-0.11532544250911769 -0.23106633067421,-0.13481255085000043 -0.22567651705847425,-0.15425114975600707 -0.21874356162597053,-0.17352442818668123 -0.21026826941965737,-0.19251447749739725 -0.20026021230441415,-0.2111029219172309 -0.18873778541988884,-0.22917155712531212 -0.175728217863508,-0.2466029937289278 -0.1612675372331438,-0.26328130240543146 -0.14540048788464333,-0.27909265744423806 -0.1281804029890452,-0.2939259754150356 -0.10966903070146827,-0.3076735456936319 -0.08993631498418608,-0.32023164959949213 -0.06906013185110282,-0.3315011649348918 -0.04712598202675622,-0.3413881527699516 -0.024226641232559132,-0.34980442338587636 -0.00046176952874077415,-0.356668078371996 0.024062518649131448,-0.3619040259719952 0.04923412191790533,-0.3654444668867143 0.07493545480190278,-0.36722934786902783 0.10104398379252189,-0.3672067805861303 0.1274327942121971,-0.3653334233787575 0.1539711853173742,-0.361574823712175 0.1805252909195616,-0.3559057192908597 0.20695872266200865,-0.3483102959970239 0.23313323295913335,-0.3387824010101639 0.2589093944905301,-0.3273257096720954 0.28414729303970887,-0.31395384487615274 0.30870723037988057,-0.2986904479805901 0.33245043383899997,-0.2815692004750474 0.35523976911821364,-0.2626337958599976 0.37694045289964606,-0.2419378614371368 0.3974207617541623,-0.21954482994721047 0.4165527338532513,-0.1955277612332793 0.43421285999778547,-0.1699691143491293 0.4502827605025175,-0.1429604707735166 0.46464984451691294,-0.11460220963078882 0.47720794842277314,-0.08500313605486554 0.48785795002237364,-0.05428006406661723 0.496508355323499,-0.022557355562284442 0.5030758548337104,0.010033582767576377 0.5074858463972163,0.04335484255496169 0.509672921746315,0.07726259466639362 0.509581314087697,0.11160770547347454 0.5071653042106448,0.14623638585729282 0.5023895827793439,0.18099087014714144 0.4952295666624451,0.2157101220298756 0.4856716673527046,0.2502305643152596 0.47371350974087534,0.28438682930550385 0.4593640997288162,0.3180125263938294 0.44264393939610613,0.3509410234091206 0.4235850886700092,0.38300623813107393 0.4022311726938028,0.41404343632339646 0.37863733433520963,0.4438900325730799 0.35287013153043745,0.4723863901806169 0.325007379415581,0.4993766163191964 0.295137937454399,0.5247093486739658 0.26336144203089873,0.5482385297793968 0.22978798523342903,0.5698241653010854 0.1945377408136011,0.5893330625513471 0.15774053855800219,0.6066395455899709 0.11953538856010937,0.6216261433402082 0.08615830102120015,0.528593158053738 0.057965031735193406,0.5375971672763313 0.029066575373533965,0.5450846645843086 -0.000454860498351195,0.5510065945903193 -0.030513871596355102,0.5553183890717719 -0.061022103306598297,0.5579801667979751 -0.09188850920855884,0.5589569197602628 -0.12301962097997432,0.5582186850839292 -0.15431982888688367,0.5557407019424261 -0.18569167202437598,0.5515035528389376 -0.21703613743461858,0.5454932886668047 -0.2482529671948015,0.5377015370088998 -0.2792409725356464,0.528125593187454 -0.30989835402147037,0.5167684936278221 -0.3401230267970021,0.5036390711543106 -0.36981294988252955,0.4887519918924852 -0.3988664584796595,0.4721277735087881 -0.42718259823192284,0.45379278457781425 -0.4546614603723498,0.4337792249261696 -0.48120451667882946,0.41212508686271576 -0.5067149531514872,0.3888740972659832 -0.5310980013237412,0.36407564056048614 -0.5542612661175781,0.33778466267584406 -0.5761150491578491,0.3100615561443334 -0.5965726664678357,0.28097202655344233 -0.6155507594777418,0.25058694063260134 -0.6329695982928314,0.21898215631229334 -0.6487533761849704,0.18623833515565025 -0.6628304942919812,0.1524407376200969 -0.675133835533984,0.11767900166600498 -0.6856010267825638,0.0820469052849262 -0.6941746883504578,0.04564211357627812 -0.7008026699020462,0.00856591105413429 -0.7054382719229011,-0.02907708008234522 -0.7080404519260668,-0.06717919493057423 -0.7085740146152517,-0.10563003328833531 -0.7070097852713246,-0.1443167786024162 -0.7033247656754327,-0.18312452754376807 -0.6975022719336579,-0.22193662924958346 -0.6895320536202973,-0.26063503323617 -0.6794103937118763,-0.29910064495166466 -0.6671401888412447,-0.3372136879062282 -0.6527310094595578,-0.37485407128956183 -0.6361991395548756,-0.411901761960209 -0.6175675956373823,-0.4482371596695458 -0.5968661247650289,-0.48374147436561543 -0.5741311814475125,-0.5182971044067131 -0.5494058833317439,-0.5517880145039982 -0.5227399456375963,-0.5841001122047089 -0.49418959437976184,-0.6151216217239011 -0.4638174584777772,-0.6447434539328469 -0.4316924409231859,-0.6728595713149872 -0.3978895692396378,-0.6993673467090673 -0.36248982553819076,-0.7241679146689108 -0.32557995653517935,-0.7471665142851123 -0.28725226396682046,-0.7682728223320368 -0.24760437589628737,-0.7874012756254132 -0.20673899947506413,-0.8044713815026938 -0.16476365577899799,-0.8194080153661218 -0.12179039740227893,-0.8321417042628099 -0.07793550954863804,-0.8426088955113897 -0.033319195417391256,-0.8507522094245985 0.011934753265279596,-0.8565206752197696 0.05769929966633924,-0.8598699492554971 0.10384451826477914,-0.8607625147803333 0.15023796327008654,-0.8591678624325425 0.19674504799627357,-0.8550626507823864 0.24322943410757603,-0.8484308462669219 0.28955342961226904,-0.8392638419248897 0.335578394447964,-0.8275605544016713 0.38116515246871074,-0.8133274987569621 0.4261744086176549,-0.7965788406735754 0.4704671700434915,-0.7773364257316473 0.5139051698989476,-0.7556297854819576 0.5563512925420753,-0.7314961201204397 0.5976699988486729,-0.7049802576375583 0.637727750333795,-0.6761345893862512 0.6763934307760877,-0.6450189820856735 0.7135387640370396,-0.611700666349023 0.7490387267689869,-0.5762541018968079 0.7827719547142067,-0.538760819689557 0.8146211413062332,-0.4993092412858857 0.8444734273005565,-0.45799447580346 0.8722207801799726,-0.4149180949320339 0.8977603621024031,-0.3701878865169306 0.920994885186289,-0.3239175873010254 0.9418329529580234,-0.2762265954802814 0.9601893868204172,-0.2272396637944638 0.9759855364402625,-0.17708657393791327 0.9891495729916358,-0.12590179313855288 0.9996167642402156,-0.07382411381236409 1.0073297304987392,-0.02099627725849018 1.012238680537493,0.03243541758469348 1.0143016265880789,0.08632151925033327 1.013484577634614,0.14050984159899826 1.009761710249819,0.19484589325182355 1.0031155162934624,0.24917331739013093 0.9935369268584111,0.3033343406713698 0.9810254119161499,0.35717022997498304 0.9655890551830169,0.410521755659758 0.9472446038020337,0.4632296599857284 0.9260174925059204,0.5151351293290958 0.9019418420037368,0.5660802687974211 0.8750604314090253,0.615908577837672 0.8454246446035114,0.664465425414619 0.8130943905100878,0.7115985233317303 0.7781379973249898,0.7571583962608628 0.7406320808396032,0.8009988470481915 0.7006613870604639,0.8429774158693846 0.6583186094138398,0.8829558318140442 0.613704180901351,0.9208004554955664 0.5669260416485855,0.9563827112974792 0.5180993823672395,0.98957950789206 0.4673463643259055,1.0202736456910344 0.4147958164986676,1.0483542099196796 0.3605829106352445,1.073716948040584 0.3048488150642896,1.096264630290591 0.24774032811386348,1.1159073921381548 0.18940949209681435,1.1325630575144032 0.13001318887482682,1.1461574417204616 0.07774677056305279,0.9915127507463808 0.03288255613125557,0.99847990690985 -0.012449639269362933,1.0034091700774894 -0.058156902815639455,1.0062726157557478 -0.10414476051826682,1.0070465705276064 -0.1503173723647535,1.0057116957897847 -0.19657773182629512,1.002253062504451 -0.24282786931398448,0.9966602167433081 -0.28896905915777893,0.9889272358202277 -0.3349020296725911,0.9790527748289861 -0.38052717586498375,0.9670401034224341 -0.4257447743273559,0.9528971326907509 -0.47045519985694284,0.936636432016968 -0.5145591433325762,0.9182752358098867 -0.5579578303750736,0.89783544003636 -0.6005532403134879,0.8753435884969889 -0.6422483249760376,0.8508308488114693 -0.6829472268217955,0.8243329781032287 -0.7225554959282476,0.7958902783943813 -0.7609803053495341,0.7655475417464146 -0.7981306643609969,0.7333539852035216 -0.8339176291077166,0.6993631756192968 -0.8682545101773655,0.6636329444698106 -0.9010570766223509,0.6262252927790684 -0.9322437559609966,0.5872062863048626 -0.9617358296936516,0.5466459411564131 -0.9894576238773567,0.5046181000358274 -1.015336694310463,0.46120029931829265 -1.0393040058884964,0.4164736272069405 -1.0612941057023448,0.3705225732188353 -1.0812452894620748,0.3234348692800211 -1.099099760840872,0.27530132272634944 -1.1148037833480515,0.22621564152758822 -1.128307824353783,0.17627425206984526 -1.1395666909030808,0.12557610985061274 -1.1485396569731705,0.07422250345766201 -1.1551905818450763,0.022316852219987027 -1.159488019277262,-0.03003550206493344 -1.1614053171891783,-0.08272750890820646 -1.1609207075794927,-0.1356506279770997 -1.1580173864260388,-0.18869505256563457 -1.152683583333399,-0.2417499372287466 -1.1449126207157008,-0.2947036291079428 -1.134702962324269,-0.347443902466793 -1.1220582509516959,-0.3998581959441765 -1.1069873351664796,-0.45183385202489035 -1.089504284955936,-0.5032583582193979 -1.0696283961786435,-0.5540195894389086 -1.047384183751177,-0.6040060510448342 -1.0228013635182833,-0.6531071220492777 -0.9959148227804064,-0.7012132979389492 -0.9667645794765036,-0.7482164325928125 -0.935395730045073,-0.7940099787636399 -0.9018583860111562,-0.8384892265932677 -0.8662075993718759,-0.8815515396329658 -0.8285032768777256,-0.923096587842906 -0.7888100833315406,-0.9630265770490212 -0.7471973340517906,-1.0012464743390552 -0.7037388766711246,-1.0376642288875217 -0.6585129624647266,-1.0721909877050422 -0.6116021074280411,-1.1047413058163755 -0.5630929433448273,-1.1352333503813838 -0.513076059112251,-1.1635890982828556 -0.46164583260939196,-1.1897345267174302 -0.4089002534197306,-1.2135997963386131 -0.35494073673883975,-1.2351194265139611 -0.29987192881891644,-1.2542324622742882 -0.24380150432315872,-1.2708826325478242 -0.1868399559811138,-1.2850184992890092 -0.12910037695600352,-1.2965935971298848 -0.07069823635225703,-1.3055665631999744 -0.011751148308718484,-1.3119012567802741 0.047621364860489734,-1.315566868477049 0.10729811500077346,-1.316538018622623 0.16715649543591837,-1.3147948446313507 0.22707273276652984,-1.310323077062293 0.2869221426311981,-1.3031141041623897 0.3465793889019011,-1.2931650246880508 0.4059187457757929,-1.2804786888283104 0.4648143622158045,-1.2650637270744198 0.5231405281847543,-1.2469345669105394 0.5807719421114541,-1.2261114372210926 0.6375839790208886,-1.2026203603403331 0.6934529587570637,-1.1764931316924816 0.7482564137234959,-1.1477672870001783 0.8018733555644246,-1.1164860570638524 0.8541845402095589,-1.082698310141538 0.9050727307054842,-1.0464584819869032 0.9544229572583021,-1.0078264936279169 1.0021227739163976,-0.9668676569973513 1.0480625113248294,-0.9236525685519439 1.0921355249903115,-0.8782569910437701 1.1342384385007307,-0.8307617236337705 1.1742713811527068,-0.7812524605631666 1.2121382194490735,-0.7298196386246332 1.2477467819390995,-0.6765582736996407 1.2810090768854252,-0.6215677866538272 1.311841502255234,-0.5649518189062093 1.3401650475463924,-0.5068180380118434 1.3659054869748672,-0.44727793362062584 1.3889935635658333,-0.3864466041976584 1.409365163707733,-0.32444253491149766 1.4269614817475968,-0.261387367118715 1.4417291742242213,-0.19740565989236813 1.4536205033566887,-0.1326246440614085 1.4625934694267784,-0.06717396924685204 1.4686119317154862,-0.0011854443974641526 1.4716457176768216,0.06520722765606024 1.4716707200560535,0.13186872109334047 1.4686689816832228,0.19866236289473704 1.4626287676985754,0.2654504129674393 1.4535446249913093,0.33209434803363536 1.4414174286604577,0.3984551486958452 1.4262544153323375,0.464393589084807 1.4080692031971438,0.5297705284874041 1.3868817986545707,0.5944472043446467 1.3627185894862777,0.6582855260035103 1.3356123245020228,0.7211483686028544 1.305602079633772,0.7828998664693074 1.2727332104821016,0.8434057053977142 1.23705729134727,0.9025334131898717 1.1986320408065723,0.9601526478263338 1.1575212339287475,1.0161354826473428 1.1137946012446918,1.0703566879233506 1.0675277146228126,1.122694008199801 1.018801860226148,1.1730284348067386 0.9677038987560422,1.221244472931616 0.9143261132157363,1.2672304026624204 0.8587660444551943,1.3108785334178776 0.8011263147845114,1.352085451193119 0.7415144399712688,1.3907522580618092 0.680042629962827,1.4267848033894666 0.6168275787001676,1.4600939062276126 0.5519902434142807,1.4905955683753547 0.4856556138215353,1.5182111776111356 0.4179524716564913,1.5428677006176912 0.34901314100403624,1.5644978651411634 0.27897322991429974,1.5830403309473837 0.20797136380363668,1.5984398491594334 0.13614891116679928,1.6106474095834926 0.07216820829009407,1.4172793489023832 0.016239272849134068,1.4229399164455998 -0.040022493675394344,1.4263882623715176 -0.09652938980082126,1.4276069997448957 -0.15319286294510448,1.4265822261242818 -0.20992364816294184,1.4233035635374591 -0.26663190870610265,1.4177641929220925 -0.32322737818719816,1.4099608829498322 -0.3796195041219903,1.399894013161429 -0.4357175926220691,1.3875675913488266 -0.49143095400708603,1.372989265130272 -0.5466690491032296,1.3561703276725439 -0.6013416359919574,1.3371257175252822 -0.6553589169722898,1.315874012540064 -0.7086316854976076,1.2924374178585936 -0.7610714728474193,1.2668417479619194 -0.8125906942939309,1.2391164027837505 -0.8631027945229164,1.2092943379002037 -0.9125223920686949,1.1774120288175425 -0.9607654225236644,1.1435094293903063 -1.0077492802837327,1.1076299244108299 -1.053392958592056,1.0698202764215665 -1.0976171876463638,1.030130566811323 -1.1403445705356745,0.9886141312654786 -1.181499716776301,0.9453274896499977 -1.2210093732190614,0.9003302704199712 -1.258802552103461,0.8536851296492785 -1.2948106560377397,0.8054576647914189 -1.3289675996884682,0.7557163232870039 -1.361209927967451,0.7045323061445288 -1.3914769305085173,0.6519794666289442 -1.4197107522320351,0.5981342042008748 -1.4458564998005272,0.5430753538583417 -1.46986234377475,0.48688407104009457 -1.4916796162856087,0.4296437122591499 -1.5112629040439174,0.37143971163985157 -1.52857013651699,0.312359453543138 -1.5435626691079278,0.2524921414679113 -1.5562053611813838,0.19192866342635284 -1.566466648786843,0.1307614539951487 -1.5743186119386365,0.06908435325300388 -1.5797370363207222,0.006992462818743661 -1.582701469291493,-0.055418000788222344 -1.5831952700744836,-0.11804985523997402 -1.5812056540278547,-0.1808051037127143 -1.5767237308965605,-0.24358508818517066 -1.5697445369587655,-0.30629064448220333 -1.5602670609893323,-0.3688222588211829 -1.548294263971627,-0.4310802256126749 -1.5338330924992079,-0.4929648062668548 -1.5168944858196056,-0.5543763887519049 -1.4974933764810316,-0.615215647650075 -1.475648684554912,-0.6753837044542479 -1.4513833054160585,-0.7347822878471106 -1.4247240910731875,-0.7933138937037825 -1.3957018250534077,-0.8508819445578126 -1.3643511908531991,-0.907390948270745 -1.33071073398159,-0.9627466556457591 -1.2948228176285852,-1.0168562167260689 -1.256733572004734,-1.0696283355202354 -1.2164928374073583,-1.120973422898146 -1.1741541010789547,-1.170803747403113 -1.1297744279341941,-1.2190335837277644 -1.0834143852422642,-1.2655793586051232 -1.0351379613604195,-1.3103597938677751 -0.985012478626146,-1.3532960464336554 -0.9331085005241135,-1.3943118449794554 -0.8794997332537022,-1.4333336230673694 -0.8242629218338493,-1.4702906484969418 -0.7674777408893334,-1.5051151486567989 -0.709226680273737,-1.5377424316588986 -0.6495949256915665,-1.5681110030422332 -0.588670234492291,-1.596162677840013 -0.526542806816245,-1.621842687811423 -0.4633051522813574,-1.64509978364471 -0.3990519524074756,-1.6658863319475188 -0.33387991898227654,-1.6841584068465636 -0.2678876485807322,-1.699875876027889 -0.20117547345672904,-1.713002481056506 -0.13384530903226022,-1.7235059118231106 -0.06600049821587817,-1.7313578749749041 0.0022543472116112184,-1.736534156195816 0.07081350790102903,-1.7390146762114966 0.13957032067911257,-1.7387835404040288 0.20841734448037386,-1.7358290819314703 0.27724652820737106,-1.7301438982556618 0.34594938025833954,-1.7217248809954242 0.41441713945516057,-1.7105732390288608 0.48254094710333817,-1.6966945147817825 0.5502120199116405,-1.6800985936495891 0.6173218234967237,-1.6607997065089535 0.6837622461969346,-1.6388164252895052 0.7494257729165312,-1.61417165158457 0.8142056587219173,-1.5868925982920103 0.8779961019099787,-1.55701076428781 0.9406924162682131,-1.5245619021448817 1.0021912022475448,-1.4895859789226336 1.0623905167686587,-1.452127130063019 1.1211900413834286,-1.4122336064396137 1.178491248516778,-1.3699577146191615 1.2341975655125736,-1.3253557504039009 1.288214536214113,-1.2784879257363144 1.3404499798092075,-1.2294182890571008 1.3908141466745292,-1.1782146392190498 1.4392198709592634,-1.1249484330707915 1.4855827196482636,-1.069694686832328 1.5298211378554214,-1.0125318713989415 1.5718565900970276,-0.9535418017159998 1.6116136973054154,-0.8928095203807018 1.6490203693461325,-0.8304231756341451 1.6840079328093083,-0.7664738939185298 1.716511253852417,-0.7010556471822511 1.7464688558795132,-0.6342651151262757 1.7738230318480959,-0.5662015425923528 1.7985199510037972,-0.4969665923035649 1.8205097598511202,-0.42666419317511384 1.8397466771760946,-0.3554003844214293 1.856189082947921,-0.2832831556935389 1.8697996009315716,-0.21042228348711234 1.8805451748593924,-0.13692916406936462 1.8883971380112143,-0.06291664317877377 1.8933312760708958,0.01150115724199452 1.8953278831314861,0.08620901501383571 1.8943718107335883,0.16109078611827243 1.8904525098350433,0.2360295852479979 1.8835640656147632,0.31090796822957856 1.8737052250321256,0.38560811603446155 1.8608794170683183,0.4600120200891311 1.8450947655919947,0.5340016685940228 1.8263640947999988,0.6074592335564333 1.8047049271982871,0.6802672582415425 1.780139474097993,0.7523088447437942 1.7526946186141856,0.8234678413788075 1.7224018911680048,0.8936290295967453 1.689297437502404,0.9626783101161536 1.6534219792363842,1.0305028879785993 1.6148207669920396,1.0969914562243517 1.573543526144448,1.1620343778915156 1.5296443952506138,1.2255238660408097 1.4831818572336033,1.287354161513349 1.434218663400486,1.3474217081270012 1.3828217503936742,1.4056253250251416 1.3290621501799649,1.4618663758905939 1.2730148931958638,1.516048934743992 1.2147589047811778,1.5680799480507375 1.1543768950384958,1.6178693928628718 1.0919552422737695,1.6653304307314016 1.0275838701782902,1.7103795571266573 0.9613561189275401,1.752936746113889 0.8933686103789569,1.7929255900354804 0.8237211075633297,1.8302734339597038 0.7525163686729286,1.8649115046625866 0.6798599957602391,1.8967750339190133 0.6058602783684819,1.925803375884783 0.5306280323257795,1.9519401183628986 0.45427643394273787,1.9751331877547074 0.37692084986059626,1.9953349475056683 0.2986786628063385,2.0125022898678964 0.21966909351749564,2.0265967208066655 0.14001301910647612,2.0375844378956884 0.0682620876949045,1.8182637782003042 0.004581335867925418,1.8230241512430325 -0.059348295802124085,1.8255506994549364 -0.12344832570241238,1.8258318614091564 -0.18763976891736434,1.8238588372064157 -0.25184323454274704,1.8196256095002923 -0.3159790238531741,1.8131289610883528 -0.3799672292017817,1.8043684890350704 -0.4437278335296071,1.7933466152971533 -0.5071808103604667,1.7800685938257317 -0.5702462241567332,1.7645425141244857 -0.6328443309100464,1.746779301247642 -0.6948956788407656,1.7267927122252615 -0.7563212090788909,1.704599328908742 -0.8170423561992379,1.680218547233423 -0.8769811484830541,1.6536725628997715 -0.9360603077786891,1.6249863534793292 -0.9942033488335653,1.5941876569559668 -1.0513346779698622,1.561306946717906 -1.1073796909774956,1.526377403020149 -1.162264870097772,1.4894348809411042 -1.215917879972153,1.4505178748634364 -1.2682676624313274,1.4096674795110857 -1.3192445300016686,1.366927347581509 -1.3687802580055006,1.3223436440140404 -1.4168081751354578,1.2759649969427187 -1.46326325238266,1.2278424453826062 -1.5080821902013497,1.1780293837066722 -1.551203503793971,1.1265815029715043 -1.5925676064029517,1.0735567291563086 -1.6321168904974144,1.0190151583827571 -1.6697958067455119,0.9630189891871623 -1.7055509406653186,0.9056324519218037 -1.739331086850214,0.8469217353641909 -1.771087320666922,0.7869549106178795 -1.8007730673275404,0.7258018523926353 -1.8283441682402213,0.6635341577538441 -1.8537589445454046,0.6002250624362091 -1.8769782577487177,0.5359493548191381 -1.8979655673646363,0.4707832876639202 -1.9166869854884254,0.4048044877184509 -1.9331113282175494,0.3380918632948635 -1.9472101638478705,0.27072550993113964 -1.9589578577731857,0.20278661424890743 -1.9683316140210678,0.13435735612299027 -1.9753115133615466,0.0655208092808266 -1.9798805479303638,-0.0036391595487828 -1.9820246523107983,-0.07303799281410761 -1.981732731025005,-0.14259054552258021 -1.9789966823873186,-0.21221118969950226 -1.9738114186790199,-0.28181391979555315 -1.9661748826069356,-0.35131245891329854 -1.9560880600130588,-0.42062036572133366 -1.9435549888079322,-0.4896511419238436 -1.9285827641039788,-0.5583183401520841 -1.911181539530574,-0.6265356721427793 -1.8913645247171331,-0.694217117068888 -1.8691479789350183,-0.7612770298862301 -1.8445512008943865,-0.8276302495599452 -1.8175965146969162,-0.8931922070344456 -1.7883092519492152,-0.9578790328091031 -1.7567177300482655,-1.021607663984895 -1.7228532266537115,-1.0842959506440195 -1.6867499503672718,-1.145862761426855 -1.6484450076440993,-1.2062280881723666 -1.6079783659665239,-1.2653131494849106 -1.5653928133140766,-1.323040493096471 -1.5207339139695293,-1.379334096889778 -1.4740499607058553,-1.4341194684523089 -1.4253919234011647,-1.4873237430309132 -1.3748133941375684,-1.5388757797594224 -1.3223705288396204,-1.5887062560319976 -1.2681219855170838,-1.636747759899123 -1.2121288591777386,-1.6829348803629216 -1.1544546134823932,-1.727204295452367 -1.0951650092179435,-1.7694948579609218 -1.0343280296682167,-1.8097476787311422 -0.9720138029672825,-1.8479062073750896 -0.9082945215230183,-1.8839163103197052 -0.8432443586039327,-1.9177263460730103 -0.7769393821842314,-1.9492872376057875 -0.7094574661480735,-1.978552541750986 -0.6408781989557895,-2.005478515523393 -0.5712827898792767,-2.0300241792673006 -0.5007539729167192,-2.052151376543364 -0.4293759085005817,-2.0718248306693425 -0.35723408311502425,-2.0890121978333696 -0.28441520694312317,-2.1036841167037608 -0.21100710966562275,-2.1158142544605028 -0.13709863453706106,-2.1253793491823103 -0.0627795308667558,-2.1323592485228176 0.011859654965505229,-2.1367369446176383 0.08672768982609114,-2.138498605166717 0.16173276534274095,-2.137633600640868 0.23678261048162597,-2.134134527568193 0.31178460504835925,-2.1279972278577333 0.3866458939734514,-2.1192208041255327 0.4612735022408643,-2.107807630991033 0.5355744503181157,-2.0937633623187395 0.6094558699436803,-2.0770969343821974 0.6828251201288182,-2.0578205649366765 0.7555899032277154,-2.035949748186624 0.8276583809316733,-2.0115032456447466 0.8989392900410564,-1.9845030728800737 0.9693420578696461,-1.9549744821604236 1.038776917135138,-1.9229459409986305 1.1071550201911506,-1.8884491066171876 1.1743885524544169,-1.8515187963514919 1.2403908448838763,-1.8121929540165738 1.3050764853672092,-1.7705126122680923 1.368361428872042,-1.726521850991979 1.4301631062208315,-1.6802677517646813 1.4904005313482003,-1.6318003484279657 1.5489944069029207,-1.5811725738301803 1.6058672280563613,-1.5284402027883175 1.6609433843834012,-1.4736617913324181 1.7141492596813137,-1.4168986122966274 1.7654133295968677,-1.3582145873275024 1.8146662569318721,-1.2976762153839658 1.8618409845017823,-1.2353524978084423 1.9068728254244292,-1.1713148600531724 1.949699550716801,-1.1056370701492853 1.9902614740848605,-1.0383951540127256 2.028501533789182,-0.9696673076818669 2.0643653714790844,-0.8995338065899716 2.097801407884049,-0.8280769119758489 2.1287609152617932,-0.7553807745423171 2.157198086501353,-0.6815313354753272 2.1830701007858693,-0.6066162249394154 2.206337185722134,-0.5307246581695395 2.2269626758501886,-0.45394732928271253 2.2449130674492324,-0.376376302935185 2.260158069559651,-0.2981049039550925 2.2726706511478483,-0.21922760508235228 2.2824270843435386,-0.13983991295113185 2.289406983684046,-0.060038252452685015 2.293593341304998,0.020080150382227657 2.294972558022593,0.10041738683807466 2.293534470256688,0.18087498516288747 2.2892723727490676,0.2613540312637639 2.2821830370365177,0.34175529030117957 2.272266725644087,0.4219793290335758 2.2595272019690213,0.5019266387604304 2.24397173582949,0.581497758712338 2.2256111046605014,0.6605933997353048 2.2044595903427506,0.7391145681148501 2.180534971656101,0.8169626893865569 2.1538585123545317,0.8940397319771378 2.124454944865704,0.9702483305221321 2.0923524496239168,1.0454919087048395 2.0575826300480458,1.11967480146118 2.0201804831861523,1.1927023763974063 1.9801843660492295,1.2644811542648284 1.9376359576659183,1.3349189283408833 1.8925802168920427,1.403924882562066 1.8450653360174556,1.4714097082591806 1.7951426902152718,1.5372857193451566 1.7428667828864093,1.601466965806651 1.6882951869545195,1.6638693453535183 1.631488482175456,1.7244107130818236 1.572510188527275,1.7830109890073658 1.5114266957536415,1.8395922633306512 1.4483071891378927,1.8940788992946338 1.3832235715902357,1.9463976335008155 1.3162503821344842,1.9964776735511975 1.2474647108883516,2.044250792887908 1.1769461106303822,2.089651422702474 1.1047765050581972,2.132616740794589 1.0310400938406872,2.1730867572587016 0.9558232545760177,2.2110043968851727 0.8792144417674308,2.246315578162296 0.8013040829365536,2.278969288772558 0.7221844719949218,2.3089176574793413 0.6419496599995398,2.336116022304452 0.5606953434223385,2.360522994900876 0.47851875006483624,2.3821005210310773 0.39551852275536703,2.400813937065081 0.3117946009670618,2.416632022415527 0.22744810049908892,2.4295270478351654 0.14258119136519554,2.4394748195048095 0.06540988163777683,2.2018942113767963 -0.003933545973097807,2.2060002595810033 -0.07347022406815995,2.2079199553337503 -0.1431311390572887,2.20764521663547 -0.2128469605819987,2.2051701424092585 -0.2825481105118115,2.200491024415882 -0.3521648323759905,2.193606356983395 -0.4216272611623708,2.1845168445361622 -0.4908654934117749,2.173225406909637 -0.5598096575394038,2.159737182439912 -0.628389984310445,2.144059528818957 -0.6965368774019112,2.126202021708849 -0.7641809839756775,2.106176451110784 -0.8312532651940501,2.08399681548633 -0.8976850666055043,2.059679313631392 -0.9634081883276622,2.0332423343052426 -1.0283549549578765,2.004706443618801 -1.0924582851380649,1.974094370190329 -1.1556517607037051,1.9414309880762346 -1.217869695344774,1.906743297489868 -1.279047202708938,1.8700604033215313 -1.3391202638752873,1.8314134914758142 -1.398025794129751,1.7908358030446152 -1.4557017089720432,1.7483626063370536 -1.5120869892854785,1.7040311667876153 -1.567121745601895,1.6578807147697887 -1.620747281393335,1.6099524113399468 -1.6729061553248812,1.5602893119430234 -1.7235422424026012,1.5089363281103942 -1.7726007939514545,1.4559401871833302 -1.8200284963598108,1.4013493900993126 -1.865773528528166,1.345214167277021 -1.9097856179603525,1.2875864326415751 -1.9520160954363064,1.228519735830531 -1.9924179482092086,1.1680692126254257 -2.030945871667342,1.1062915336540016 -2.0675563194060373,1.0432448514103783 -2.1022075516540752,0.9789887456435338 -2.134859682002201,0.9135841671643163 -2.165474722380935,0.8470933801241074 -2.194016626239204,0.7795799028201031 -2.2204513298746633,0.7111084470829496 -2.244746791869119,0.6417448563045127 -2.2668730305852023,0.571556042165497 -2.286802159680718,0.5006099201233383 -2.3045084216001044,0.4289753437222714 -2.3199682190040676,0.35672203779003553 -2.3331601441003755,0.28392053058465194 -2.3440650058408323,0.21064208495857883 -2.352665854951823,0.13695862860669195 -2.3589480067674344,0.06294268346644571 -2.362899061836927,-0.011332705660407782 -2.364508924279775,-0.0857940431941131 -2.3637698178644087,-0.1603674555002783 -2.360676299788892,-0.23497876417874863 -2.3552252721433575,-0.30955355984403354 -2.3474159910374652,-0.3840172763256646 -2.3372500733777173,-0.4582952652129393 -2.3247315012815193,-0.532312870670296 -2.3098666241184986,-0.6059955044482876 -2.2926641581706804,-0.6792687210150916 -2.2731351839057794,-0.7520582927318173 -2.251293140861293,-0.8242902849970051 -2.227153820137815,-0.8958911312838609 -2.200735354503763,-0.9667877079937739 -2.172058206116077,-1.0369074090501726 -2.1411451518620765,-1.1061782201574601 -2.1080212663334805,-1.1745287926477204 -2.072713902441862,-1.2418885168409588 -2.0352526696916016,-1.3081875948428774 -1.9956694101240515,-1.3733571127052073 -1.9539981719543675,-1.4373291118747886 -1.9102751809194416,-1.5000366598563915 -1.8645388093622302,-1.5614139200172872 -1.8168295430769135,-1.621396220459843 -1.7671899459440965,-1.679920121891172 -1.7156646223851908,-1.7369234844184973 -1.6623001776696853,-1.792345533199665 -1.6071451761098885,-1.8461269228812114 -1.5502500971796067,-1.8982098007539605 -1.4916672895974017,-1.948537868561516 -1.4314509234142605,-1.997056442893836 -1.3696569401512306,-2.0437125141034755 -1.3063430010301147,-2.088454803679582 -1.2415684333479646,-2.1312338200200713 -1.175394175042257,-2.172001912539713 -1.107882717500189,-2.2107133240574797 -1.039098046664904,-2.247324241404584 -0.9691055824941799,-2.281792844199174 -0.8979721168287256,-2.31407935173263 -0.8257657497290865,-2.3441460679178334 -0.7525558243413712,-2.371957424246517 -0.6784128603550954,-2.397480020710688 -0.6034084861151996,-2.4206826646392443 -0.5276153694555745,-2.4415364074082078 -0.45110714731899293,-2.460014578979724 -0.37395835423303936,-2.476092820233049 -0.2962443497106051,-2.489749113046372 -0.2180412446458746,-2.5009638080967704 -0.13942582677803728,-2.509719650342433 -0.060475485295114595,-2.5160018021580726 0.01873186534773197,-2.5197978640928653 0.09811786232005204,-2.5210978932257575 0.17760377194331056,-2.51989441909339 0.2571105677754275,-2.5161824571684974 0.336559009176284,-2.509959519870847 0.4158697202753814,-2.501225625091564 0.49496326926352197,-2.489983302219315 0.5737602479287034,-2.476237595653359 0.652181351357271,-2.459996065797114 0.7301474577197382,-2.4412687875223753 0.8075797080616951,-2.420068346102738 0.8843995860183043,-2.3964098306117307 0.9605289973736859,-2.3703108247892715 1.0358903493820009,-2.3417913953761413 1.1104066297727258,-2.3108740779269255 1.184001485357058,-2.277583860105352 1.2565993001573759,-2.2419481624766107 1.3281252729782125,-2.2039968168075603 1.398505494340938,-2.163762041893314 1.467667022701491,-2.1212784169265717 1.5355379598743255,-2.076582852432928 1.602047525583039,-2.0297145587942538 1.667126131062524,-1.9807150123874138 1.7307054516341296,-1.9296279193662116 1.7927184981804771,-1.8764991771184185 1.8530996874436951,-1.8213768334304135 1.9117849110745055,-1.7643110433963685 1.9687116033597576,-1.7053540241093756 2.0238188075564736,-1.6445600071758832 2.077047240763193,-1.5819851890954482 2.1283393572595912,-1.5176876795515994 2.17763941024657,-1.4517274476608577 2.2248935119228648,-1.3841662662296983 2.2700496918308914,-1.315067654070475 2.313057953412141,-1.244496816430555 2.353870328708922,-1.1725205835899715 2.3924409311550363,-1.0992073476862316 2.4287260063960474,-1.0246269978240434 2.4626839810844245,-0.9488508535333864 2.4942755095963918,-0.8719515966380129 2.523463518618385,-0.7940032015998213 2.5502132495522147,-0.7150808644056781 2.5744922986934426,-0.6352609300649306 2.5962706551356405,-0.5546208187877966 2.6155207363593576,-0.47323895091570023 2.6322174214619594,-0.3911946706760432 2.6463380819924396,-0.30856816883655824 2.657862610352666,-0.22544040433318457 2.666773445733085,-0.1418930249493826 2.6730555975486965,-0.058008287123769264 2.676696666348775,0.026131025035027733 2.677686862171825,0.11044168144600519 2.6760190203223004,0.1948400883863144 2.6716886145481453,0.279242371372149 2.6646937675982656,0.36356445850850605 2.655035259145734,0.44772216422511235 2.6427165310608274,0.5316312733140904 2.627743690025241,0.6152076251871534 2.610125507475672,0.6983671982661974 2.5898734168741555,0.781026194424399 2.5670015082996542,0.8631011233915586 2.5415265203622255,0.9445088870396461 2.513467829440714,1.0251668634634825 2.482847436248562,1.1049929907702989 2.4496899497377456,1.183905850495222 2.414022568348628,1.26182475055667 2.375875058619698,1.3386698076669745 2.3352797311733013,1.4143620291155372 2.2922714140949836,1.4888233938389845 2.2468874237290777,1.5619769326977746 2.1991675329115026,1.6337468078738056 2.1491539366691086,1.7040583913097436 2.096891215412569,1.7728383421077396 2.0424262956555026,1.8400146828084516 1.9858084082927405,1.9055168744697681 1.9270890444756503,1.9692758904688503 1.8663219091230303,2.031224288949346 1.80356287210887,2.091296283838325 1.7388699171721953,2.1494278143589867 1.6723030885935088,2.2055566129649122 1.6039244356888673,2.259622271625261 1.5337979551704848,2.311566306389693 1.4619895314293103,2.3613322201661475 1.388566874793014,2.4088655636417258 1.313599457818782,2.454113994284505 1.2371584496797823,2.4970273333603927 1.1593166487075734,2.5375576209055453 1.0801484131539212,2.5756591685929777 0.9997295902380188,2.611288610436148 0.918137443546982,2.6444049512749785 0.8354505788582571,2.6749696129902674 0.7517488684562466,2.70294647839377 0.6671133740146615,2.7283019327475415 0.5816262681200328,2.7510049028631016 0.49537075451240753,2.771026893738977 0.40843098711906123,2.7883420226909124 0.3208919879625114,2.8029270509384645 0.23283956402048034,2.81476141260859 0.14436022312071373,2.8238272411237375 0.06325657381984229,2.572900176512036 -0.010363399682404406,2.5765105633096397 -0.08413787723640098,2.578012525817556 -0.15800642139208776,2.5774001884656457 -0.23190838528452673,2.5746694096274325 -0.30578296242345004,2.5698177887834106 -0.37956923672089715,2.562844672253391 -0.4532062327161839,2.5537511574902965 -0.5266329659559688,2.5425400959285582 -0.5997884934886599,2.529216094382136 -0.6726119644307857,2.5137855149876174 -0.7450426705638051,2.496256473689499 -0.817020096919066,2.4766388372663073 -0.8884839723082791,2.4549442188960597 -0.9593743197588935,2.431185972263023 -1.0296315068099773,2.405379184206481 -1.0991962956288717,2.377540665915177 -1.1680098929040241,2.347688942672164 -1.2360139994745225,2.3158442421541565 -1.3031508596523622,2.2820284812943896 -1.3693633101972011,2.246265251714476 -1.4345948289013108,2.208579803736569 -1.4987895827441662,2.1689990289849277 -1.5618924755747798,2.127551441588679 -1.6238491952823324,2.0842671579992214 -1.6846062604137728,2.0391778754353425 -1.7441110661991956,1.9923168489715124 -1.8023119299446648,1.9437188672861225 -1.859158135754825,1.8934202270861817 -1.914599978544885,1.8414587062279963 -1.9685888073057072,1.7878735355525919 -2.0210770675830076,1.7327053694574488 -2.0720183431350563,1.6759962552265506 -2.1213673967315287,1.6177896011404869 -2.1690802100578708,1.5581301433923613 -2.215114022691523,1.4970639118332656 -2.2594273701137695,1.4346381945744042 -2.3019801207248634,1.3709015014718773 -2.342733511829749,1.305903526523565 -2.381650184561124,1.239695109206167 -2.4186942177107937,1.1723281947826933 -2.453831160436181,1.1038557936113875 -2.487028063815302,1.0343319394883679 -2.518253511220024,0.9638116470553086 -2.547477647479951,0.892350868307517 -2.574672206811215,0.8200064482351479 -2.5998105394839683,0.7468360796338231 -2.6228676372032282,0.6728982571199253 -2.64382015718067,0.5982522303871747 -2.6626464448739,0.5229579567425162 -2.679326555371688,0.44707605295855046 -2.6938422734048686,0.37066774648107526 -2.7061771319637415,0.29379482603252427 -2.7163164295031805,0.2165195916485061 -2.7242472457186295,0.13890480419075857 -2.7299584558773518,0.061013634374887715 -2.733440743689542,-0.01709038864370882 -2.7346866127059286,-0.09534342908531812 -2.733690396230017,-0.17368139671987137 -2.7304482657325195,-0.25203999935644106 -2.724958237759793,-0.33035479560624026 -2.717220179325537,-0.4085612478750704 -2.7072358117804356,-0.486594775541505 -2.6950087131509974,-0.5643908082780627 -2.6805443189458344,-0.6418848394696681 -2.6638499214219564,-0.7190124796871658 -2.644934667312185,-0.795709510169786 -2.623809554009938,-0.8719119362734489 -2.600487424213199,-0.9475560408396007 -2.5749829590277358,-1.0225784374406999 -2.547312669533845,-1.0969161234573903 -2.5174948868186746,-1.1705065329433637 -2.4855497504817734,-1.243287589233205 -2.4514991956176218,-1.315197757249564 -2.4153669382858425,-1.3861760954645774 -2.377178459475928,-1.4561623074734484 -2.3369609875779602,-1.5250967931343666 -2.294743479371249,-1.592920699233872 -2.250556599542527,-1.6595759696323285 -2.2044326987495424,-1.7250053948488642 -2.1564057902433547,-1.7891526610419533 -2.1065115250685125,-1.8519623983451368 -2.054787165856311,-1.9133802285148818 -2.0012715592321513,-1.9733528118518677 -1.9460051068561626,-2.0318278933528973 -1.8890297351191094,-2.088754348055943 -1.8303888635149974,-2.144082225536863 -1.7701273717162707,-2.197762793521406 -1.7082915653735569,-2.2497485805729127 -1.6449291406685944,-2.2999934178193087 -1.5800891476455092,-2.348452479683033 -1.5138219523494172,-2.395082323577185 -1.4461791978010865,-2.4398409285345224 -1.3772137638380428,-2.4826877327331545 -1.30697972585358,-2.5235836698885805 -1.2355323124644855,-2.5624912044754637 -1.1629278621427233,-2.599374365753306 -1.089223778842765,-2.634198780558961 -1.0144784866612753,-2.666931704842682 -0.9387513835638828,-2.6975420539142476 -0.8621027942161845,-2.726000431374956 -0.7845939219559028,-2.7522791567064644 -0.7062867999452607,-2.776352291493339 -0.6272442415413053,-2.798195664252802 -0.5475297899253633,-2.817786893850297 -0.46720766703042216,-2.8351054114767322 -0.38634272180885887,-2.85013248116924 -0.30500037788146983,-2.862851218852171 -0.2232465806098105,-2.8732466098830827 -0.14114774363569893,-2.881305525083917 -0.05877069492993314,-2.8870167352426677 0.023817377604999024,-2.890370924069444 0.10654898093427789,-2.891360699594358 0.18935637204765499,-2.889980603994374 0.27217161342832696,-2.8862271218375923 0.3549266287890447,-2.8800986867361047 0.4375532590292295,-2.8715956863977965 0.5199833183668261,-2.8607204660704753 0.6021486506001281,-2.847477330373522 0.6839811854507047,-2.8318725435094763 0.7654129949435742,-2.8139143278563665 0.8463763497757384,-2.7936128609348003 0.9268037756278318,-2.77098027075359 1.0066281093709222,-2.7460306295302885 1.0857825551225488,-2.7187799457925266 1.1642007401047465,-2.6892461548611593 1.2418167702578558,-2.657449107722158 1.3185652855624,-2.6234105582913543 1.3943815150245769,-2.587154149081087 1.469201331276878,-2.5487053952774232 1.542961304749653,-2.5080916672373377 1.6155987573674366,-2.46534217141933 1.6870518157235352,-2.4204879297575133 1.7572594636899197,-2.373561757496482 1.8261615944153817,-2.324598239499778 1.893699061670162,-2.2736337050513953 1.9598137304910495,-2.2207062011655267 2.024448527085056,-2.1658554644264996 2.0875474879488536,-2.109122891378064 2.1490558081609663,-2.0505515074843714 2.208919888806193,-1.9901859346856128 2.2670873834908463,-1.9280723575726455 2.323507243907649,-1.8642584882059055 2.378129764414261,-1.7987935296065842 2.4309066255806897,-1.731728137944799 2.4817909366746136,-1.6631143834578381 2.53073727704065,-1.5930057101244302 2.5777017363441246,-1.5214568941302673 2.622641953636709,-1.4485240011525633 2.665517155215767,-1.3742643425008936 2.7062881912403256,-1.298736430146377 2.7449175710703457,-1.2219999306740021 2.7813694973026557,-1.1441156181971905 2.8156098984653397,-1.0651453262672277 2.8476064603486577,-0.9851518988202912 2.8773286559386264,-0.9041991401972069 2.9047477739288468,-0.8223517642779541 2.9298369457834355,-0.7396753427705818 2.952571171325033,-0.6562362526954786 2.972927342826651,-0.5721016231081677 2.990884267581876,-0.4873392811023223 3.0064226889335117,-0.40201769713662827 3.0195253057406433,-0.3162059297304154 3.0301767902628853,-0.22997356957111492 3.038363804449304,-0.1433906830806535 3.044075014608026,-0.05652775548497857 3.0473011044492466,0.030544366566289227 3.0480347864828587,0.11775453278323766 3.0462708117586317,0.2050313473754244 3.042005977942736,0.29230322750021287 3.0352391357125157,0.37949846197189174 3.025971193469914,0.4665452701833459 3.0142051203606286,0.5533718611921898 2.9999459475959043,0.6399064929221652 2.9832007680732175,0.7260775314317414 2.963978734290663,0.81181351019994 2.9422910545575007,0.8970431893817192 2.9181509874972846,0.9816956149822573 2.891573834847378,1.065700177902201 2.862576932557289,1.1489866728043978 2.8311796401884237,1.2314853567521027 2.797403328625677,1.3131270075723478 2.7612713661010275,1.3938429818916234 2.7228091025444883,1.473565272799604 2.6820438522689756,1.55222656708915 2.639004874998733,1.6297603020258435 2.5937233552606926,1.7061007216004924 2.5462323801437776,1.7811829322131842 2.4965669154504155,1.8549429577475394 2.444763780250099,1.927317793981942 2.390861619859379,1.9982454622983141 2.3349008772625552,2.0676650626369764 2.276923762996688,2.135516825655259 2.2169742235239767,2.201742164045868 2.1550979081125377,2.26628372296895 2.091342134252187,2.329085429556514 2.0257558516302083,2.39009254144473 1.9583896046956113,2.449251694293949 1.8892954938396258,2.506510948255638 1.818527135221018,2.5618198333421347 1.7461396192700818,2.615129393666116 1.6721894678994715,2.6663922305041083 1.5967345904594765,2.715562544153734 1.5198342384670696,2.7625961745401995 1.441548959148264,2.8074506405431094 1.3619405478281976,2.8500851780050596 1.2810719992053237,2.8904607763874637 1.1990074575515735,2.9285402140463077 1.1158121658731943,2.9642880920880117 1.0315524140766854,2.9976708667829968 0.9462954861782293,3.028656880502311 0.860109606600048,3.0572163911513144 0.7730638855958887,3.083321600073546 0.6852282638496376,3.1069466783971933 0.5966734562909721,3.1280677918030193 0.5074708951742366,3.1466631236869773 0.4176926724643977,3.1627128966978546 0.32741148157936095,3.1761993926290586 0.23670055853239091,3.187106970642759 -21.99872660059509,0.371594842690925"
    />
  </g>
</svg>
