<?xml version="1.0" encoding="UTF-8" standalone="no"?>
<svg
  xmlns:svg="http://www.w3.org/2000/svg"
  xmlns="http://www.w3.org/2000/svg"
  version="1.1"
  viewBox="13.191018343272205 0.8907237285036587 183.50133883414566 188.27447800070206"
  width="183.50133883414566mm"
  height="188.27447800070206mm"
>
  <defs id="defs4215" />
  <g id="layer1">
    <path
       id="path4"
       style="fill:none;fill-rule:evenodd;stroke:#000000;stroke-width:1px;stroke-linecap:butt;stroke-linejoin:miter;stroke-opacity:1"
       d="m 100,100 0.0,0.0 0.47630710182136227,-0.15209058075548398 0.509959105448246,-0.01307287887779296 0.5134858104650135,0.19243772041059515 0.4492943116481172,0.42129948557845864 0.31520598747725614,0.611219368169003 0.1563601170176412,0.7123906922393388 0.04198667224866881,0.7149039766697314 0.025404901485899245,0.6449779978206891 0.11887068358375075,0.5359315394099582 0.29370491023709633,0.40467231677855864 0.49460976713041305,0.25430264714505313 0.6587793257125156,0.0963000138161334 0.7379096289952685,-0.03147287960526057 0.715177311659076,-0.07064931335456492 0.6019488212342452,0.029719296705152942 0.41187966946121435,0.2835744933099136 -5.085353975884118,-3.4941087253038887 0.22252837254757196,0.5013975672619466 0.015670628543546172,0.6444012279113451 -0.26067166479974446,0.7328691238177782 -0.5532911388511366,0.7166690421702668 -0.7809740382696617,0.59694480880529 -0.8770823638064371,0.434336395014185 -0.8240094731642955,0.31365575095806264 -0.6493074687419664,0.29224671225568954 -0.3958462008380792,0.3713416694880607 -0.10174814953349198,0.5028793160075793 0.19404476157937722,0.6192429245173798 0.43715768490227447,0.669599068518508 0.5596539701994772,0.6465791134228454 0.5031609044562373,0.5851561338878923 0.24282187897729557,0.5284894970349256 -0.20615214861508946,0.48219644535841155 0.38909593525706043,-6.169642107579023 -0.6006574733603856,0.3660249641497302 -0.8917183880195552,0.17141939452756105 -1.1030701107417826,-0.1255328225956589 -1.1648362943339947,-0.46172593359604264 -1.069130160782791,-0.7286553826913433 -0.8807257293964312,-0.8301067447597319 -0.6938074800991956,-0.7308036295929696 -0.5704264852732592,-0.4596285925680661 -0.5103350986511401,-0.08137223320501619 -0.4681010086997759,0.32658065630221245 -0.3985210895612852,0.681281888562566 -0.2988967687317654,0.9022021985885686 -0.21957151125491237,0.9317218260794533 -0.23231853253517443,0.7525523132312486 -0.37639262248949024,0.3804854028181808 -0.6177844823539971,-0.15992717065651618 5.506333476665418,-2.8702176052905912 -0.6782191235826929,-0.682015630510648 -0.5813281665657257,-1.109169221168031 -0.32273674265627506,-1.4518196488768496 0.028905202259622342,-1.609371231329149 0.3377904602396171,-1.5464441411299674 0.47436866117647014,-1.3142468464921677 0.38258881203644535,-1.0070776766262384 0.09460689126932209,-0.696401891357894 -0.29775707700795806,-0.40178937570547646 -0.6805659553005228,-0.11524417750938198 -0.9505507813393592,0.15125090532104934 -1.04566263243548,0.3392258830454722 -0.9627282307962446,0.3624207689813943 -0.7410072908699306,0.15623689146494257 -0.4147626105342681,-0.27952232653903764 5.245824327832054,3.280631150450816 0.1395713062579631,-0.9093912807842912 0.583672241278876,-1.1607565613364699 1.0947251136904015,-1.2270197010750508 1.5514430020112542,-1.060780231907131 1.811494201568081,-0.7235023777971605 1.7938138645638446,-0.36649403891347276 1.5190979825527506,-0.14539573282360152 1.075493372730378,-0.1344806640565679 0.5546385926936779,-0.30092943724065435 0.022108934309301276,-0.5390183712984395 -0.46450106866812746,-0.729792750798012 -0.8282661166113598,-0.798178370593817 -0.9773271612817638,-0.7459169261917395 -0.8415731310330443,-0.6384804322669311 -0.40550831762858763,-0.5457433508449583 0.2883019719922686,-0.4741568301319177 -0.03158356022514397,6.220727752806042 1.2151779824157813,-0.21474072601920113 1.6864069108407733,0.15595276002729008 1.9484818769416847,0.6769157380010995 1.9155573226093736,1.2124469618714215 1.6205130761882458,1.574067148891288 1.2080978839513108,1.6247952675809216 0.8450917182297104,1.3453241386483938 0.6215121305002924,0.8171409675999541 0.5183747138776198,0.16352205658220953 0.45084715488972904,-0.4892670949535187 0.34519679118224644,-1.019694115139373 0.19955895596289963,-1.3198753896708126 0.09099220917960338,-1.322830257788553 0.12176870625454228,-1.0230086203199988 0.34025356719860156,-0.4601246180423857 -5.4522099120844985,2.9148418445697786 0.7294074940380142,0.5109817722168657 0.7975195424551629,0.9946247360891647 0.727466862784155,1.4920910171252757 0.49081976505024727,1.9252142104345893 0.11824922425692819,2.206509751002116 -0.2999607809413618,2.2756861317473494 -0.6445457857834214,2.129936673655422 -0.8145045585307145,1.8248404812662216 -0.7634189981534973,1.443749672956514 -0.5073469838975626,1.0571990886983542 -0.10884539885206834,0.6985671199417709 0.34640440213102863,0.3673256077706242 0.7693227446841036,0.0527096025786733 1.0834194625493438,-0.23921215108789795 1.2397717389453788,-0.47167162054395817 1.2273210494444697,-0.5847954488383778 1.0696539273263426,-0.520071210926659 0.8048009747481899,-0.24729952555397006 0.4575157664208689,0.21917050086842949 -6.360340299020152,-4.005936409268571 -0.16862093157479308,0.9987381688203811 -0.6151193326911937,1.3440968358236063 -1.1487189562340347,1.551294680199149 -1.7060194278455043,1.5502467125274109 -2.1819652873522273,1.3261115067755043 -2.466965763012297,0.938855024254039 -2.494217470422555,0.5080517562280136 -2.2659866147778303,0.16540434054032005 -1.8421660428547142,0.0017917941769098888 -1.3036520821662094,0.03800950165827999 -0.7193596232073389,0.2285032836707046 -0.13681259705619198,0.4873773996215931 0.40527873859326746,0.7214292719517772 0.8594596230562104,0.8606187373356562 1.1645742983619556,0.8795880220080505 1.2589435463210066,0.8024413240940476 1.1019702267979596,0.6852699224202468 0.6883662387427592,0.5815008462966915 0.047823968557707985,0.5066335278112319 0.22388692100435037,-7.518199767718258 -1.0912592408004116,0.33048361467400866 -1.6830332827170338,0.0853190831484767 -2.179718002869123,-0.3223041906354922 -2.4784312017213352,-0.8671208951963223 -2.508839683394754,-1.452315187953431 -2.2722887552991438,-1.936438295508296 -1.8518825501380576,-2.188898266451403 -1.3793694010206963,-2.1415977257069443 -0.9766551269967465,-1.805918305414707 -0.7075986944869612,-1.2520072191086626 -0.5645847475292669,-0.573917692176181 -0.4896595068061629,0.1340788220618947 -0.41396418729605955,0.7834943991064449 -0.2966298244162999,1.2913716184568784 -0.14751058164755193,1.5871802448671275 -0.0237127870920375,1.6277065783455242 -0.0005200125089430685,1.4075552638767874 -0.13058995578687416,0.9531582941148145 -0.4111259377065579,0.30283204525458984 6.596378054263226,-3.6251681743574835 -0.883051492344606,-0.9142337398575506 -0.9743479309614571,-1.6250226869655933 -0.8523696455050072,-2.3272193797703835 -0.48699043367739137,-2.9073101395139673 0.06410762018686,-3.2450598652275318 0.6613101782117923,-3.266275335991736 1.1322774520747032,-2.982371362877842 1.3402377226929048,-2.4856314673773596 1.231755850148403,-1.9012761186560283 0.8420325733904548,-1.3296035376479551 0.2676796915858404,-0.8145718100855817 -0.36821592806172987,-0.3518644377163014 -0.9436008481535083,0.07622034693609692 -1.3583035780023636,0.46358919310175395 -1.5525546854225922,0.762927506827694 -1.5185769357281913,0.8975783953155911 -1.294030969340227,0.7949553263796929 -0.9337309242629743,0.4215776290233464 -0.4729769364752059,-0.19735897493768562 6.476344989164005,3.847102116534785 0.441025380524394,-1.3334237583132733 1.0726457783906795,-1.812433687818526 1.8095099423451728,-2.077027844361311 2.558454117067953,-2.037978378818721 3.1725544915965855,-1.6874609040459205 3.50551587723767,-1.1212118686978272 3.4763133995019615,-0.5118810876008695 3.101114977422938,-0.04050155781946785 2.4725639937311854,0.17503659432937013 1.7069040498068802,0.11563449664834025 0.8992397781969146,-0.14895109624305292 0.11251706805157369,-0.49853615014572483 -0.6040744019164208,-0.8078935621222598 -1.1912178991927505,-0.9864868434078602 -1.5732007681239963,-1.0048380563859922 -1.6754494669826983,-0.8982848473789034 -1.452215374884048,-0.7421440831037529 -0.9037604784279836,-0.6060184061504401 -0.07444388913617672,-0.5091175308851348 -0.028330043432845287,7.539245629974062 1.517307688056576,-0.2619172365262017 2.317388116922814,0.07674201573301787 2.9654117717011275,0.6316993891184239 3.3270365595709706,1.3614851579844185 3.317072043195296,2.1295159049084305 2.9494894722541005,2.7446706553087807 2.3462468129261964,3.0375036243010953 1.6887645995036138,2.9272914945389203 1.1387162258782695,2.4402731396205013 0.776165072634754,1.6780556663648554 0.5856306097850847,0.7694745697476861 0.48717550373224583,-0.16069874264036343 0.38944662744231096,-0.9988886387917404 0.23975566373279378,-1.6416167665429526 0.05166705836268193,-2.0036861655288334 -0.10153724728590419,-2.0363330481075366 -0.12534809356326093,-1.7393135400133133 0.04412566561640574,-1.1519539574379394 0.399967187182412,-0.32712757425923655 -6.5168258668355605,3.8050483293470876 0.943341022529097,1.0487860924028212 1.0575595580802855,1.7474982579869902 0.9999416653489419,2.450115435989133 0.7346091944112771,3.0801385431285695 0.27699780624354275,3.547622376177628 -0.29995069713126554,3.775350095507875 -0.8804667855733612,3.727582497750049 -1.33877033562635,3.425636671197566 -1.5764328330439241,2.9403496684959833 -1.5478102842826047,2.364726599319681 -1.2648434406013962,1.7812021493835744 -0.7845287092184776,1.2393233958990493 -0.18943551232848677,0.7519889967868636 0.42980917144093667,0.3083666479342213 0.9873829015828619,-0.10494977426922958 1.4125211010268544,-0.48468538737243705 1.659035220730999,-0.8017000937577308 1.7122763963764243,-1.0055149282875249 1.5888638642756234,-1.040204738015305 1.326019571180808,-0.8642992508360976 0.9628918998945721,-0.466362315316573 0.5217831188928415,0.12824076811448037 -0.0013573173787904125,0.8583525003626562 -7.867765603867596,-4.262224451817261 -0.9112411818777133,1.789063693975237 -1.5780174414860966,2.1783739879020487 -2.3089744037009154,2.3504947942394807 -3.022319925697218,2.2559560110818637 -3.6083526544267244,1.9017218738926402 -3.9617202200107755,1.3597318145416466 -4.016834368110096,0.751772078428445 -3.7684621779064713,0.2137542547990563 -3.267285080636981,-0.14536394847459633 -2.5949780096397603,-0.2722366787643864 -1.8342807038444846,-0.1760641218424155 -1.0495461799378347,0.08366157658278439 -0.2843444692972952,0.4195040698908201 0.4277999302034772,0.740197419585968 1.0495652287621198,0.9719989411200913 1.5327714075059617,1.0747206499610513 1.8227992388110863,1.049202497868066 1.8718946510802397,0.9326663360678538 1.6534408707567394,0.781350574363131 1.16938987473047,0.6453994248533093 0.44859730402950504,0.545273228504783 -0.4594373305474164,0.45878595352630214 -0.18437513199322098,-8.91793803020387 -1.9207913214455061,0.1686805572401937 -2.680817315969591,-0.18769472642898677 -3.300996555618795,-0.7244132275283732 -3.685571869198725,-1.410854298328644 -3.767024830136762,-2.156549982930784 -3.534651539239576,-2.8295930601292127 -3.0473199065580587,-3.2947803811668166 -2.419493540002378,-3.455380578191992 -1.7843508197600926,-3.2790066604154617 -1.2510541769170942,-2.7974565660448008 -0.8752509992043684,-2.0858081210411257 -0.652731668701449,-1.2359458088792934 -0.5341894250893233,-0.3381507980414966 -0.45195627128526894,0.525048731033408 -0.3486104264505059,1.2778543201786903 -0.19913258368833908,1.8513697822526467 -0.02037756144989089,2.1897670955523267 0.13538268056420577,2.260249018215248 0.20103277500386696,2.0595869576848713 0.12183815866671921,1.610984771836229 -0.12073145750933634,0.9515616334750234 -0.49616947168509284,0.11797136551521703 7.671097231798825,-4.494470724779987 -1.0935487415821257,-1.4356512855094792 -1.2359986697335614,-2.330194753962445 -1.1536248467565855,-3.2173065596258823 -0.8045002725701096,-3.999120109529443 -0.21329007642958686,-4.562661300331257 0.5226556986975623,-4.813551224107741 1.253795615278122,-4.711957182706811 1.8211297815104786,-4.290857684199352 2.1033688085899485,-3.6447318123690593 2.0478094517961978,-2.893784905114714 1.6746328963592987,-2.142488474984148 1.0596041444249806,-1.4522369500712955 0.3086959365372479,-0.8377357317325504 -0.4641340303561208,-0.28407534229666 -1.1528498368397209,0.22649272905208306 -1.6716713849787794,0.6907818867200035 -1.9662657851411183,1.07379680442817 -2.0216184983706853,1.3148570302818143 -1.8609605749460627,1.3474353024254242 -1.5321160705283603,1.1234495347879943 -1.084434854677454,0.6318292505734178 -0.546074424530417,-0.09391590919926784 0.08710405232449148,-0.9776129245714031 8.080679158039857,3.9871490166107435 1.2725275074782587,-2.198853149733125 2.1070757472811152,-2.678373155415642 3.0133565475739914,-2.877430769785505 3.887540938699061,-2.7383154569660206 4.592727339383373,-2.2750507035973584 4.999921348610727,-1.5824368161079718 5.031873292263711,-0.8154798082423866 4.687443744307345,-0.14386317664023807 4.0344762042736875,0.2990471298822257 3.1776745056152436,0.45067579041766237 2.221145896951171,0.32627184089545835 1.24467201889928,0.002362850904091829 0.30134610034073717,-0.41166964926949845 -0.5687565863458133,-0.8035005106010971 -1.321446250721067,-1.083777914820942 -1.8998737221969861,-1.2050896130961348 -2.2400450460984445,-1.170254997853874 -2.2869549755536553,-1.0258929261747767 -2.011596703910996,-0.8408473033371919 -1.4194732231153324,-0.6757282276098238 -0.5480939791454347,-0.554809267928654 0.5409426867535956,-0.4510804892790148 0.4627692644489798,8.951545592477977 2.3948115371762952,-0.08508630776839254 3.328951127362842,0.3579129065431772 4.0794758093468175,1.0212247486160209 4.530416947481584,1.8640222115959801 4.602506010065625,2.772219096616766 4.2876044214183935,3.5825459423080304 3.662989020244069,4.130261561095722 2.8726614532697283,4.300225656474865 2.081162340847726,4.057485914143442 1.4212723570312846,3.4455903774380374 0.958845248676198,2.559828336771943 0.6863392309755341,1.5143399413350522 0.5418948893366178,0.4196561542477042 0.4424202318613766,-0.6245454061493092 0.3182816236940482,-1.5279376685635668 0.13963585471424267,-2.2095256154069887 -0.07284902865703202,-2.604827420025643 -0.25643518054997116,-2.6774948255025492 -0.3314017381389931,-2.426689272375995 -0.2336171323675842,-1.8828657937952045 0.05742836649426408,-1.092518289617317 0.5040038923063719,-0.10096973447181767 -7.585072804311949,4.6895965637414605 1.132935785026092,1.5143293900357833 1.289691699024246,2.355592272067213 1.2699217581111384,3.201290720157928 1.0336154862246474,3.9855467138159355 0.5795931996044317,4.627913677113355 -0.04642167160497479,5.049536983698999 -0.7557076763280861,5.194383956034841 -1.4337872944013839,5.047156442583855 -1.9665527742610323,4.639622210850135 -2.2663851910937183,4.041816462931195 -2.289335184873437,3.3414779431348336 -2.038936773422634,2.620182721935265 -1.5583378721305792,1.9352192204395067 -0.9164592087652181,1.3126833710877008 -0.19406187562073285,0.7521900683786953 0.5271323030181918,0.23961097834501288 1.1723205655649735,-0.23755874907914176 1.680128047285848,-0.6775198668055964 2.0087295348325256,-1.0581467524802406 2.140633294287028,-1.339355506552664 2.083669076687471,-1.4728029945003414 1.8660293687282774,-1.4153354299320426 1.5254540665184777,-1.1415263132196003 1.0955640729378615,-0.6516830231719553 0.5941937520630347,0.02573369280005977 0.01833810932046731,0.8358991844997661 -9.068368399412577,-4.8512048909119585 -1.048338630572971,2.054211040179325 -1.7776865179768464,2.602558152157883 -2.5945184650083917,2.962092238030124 -3.447188900395119,3.068618230052323 -4.2521466406611665,2.8921664848538455 -4.9088626966705675,2.450935177300778 -5.323956300311934,1.8145083048204356 -5.43600984857072,1.092148099941852 -5.231146784015195,0.408233854831451 -4.743199456990965,-0.127037333834096 -4.039417397134301,-0.44154807816812536 -3.199012676437249,-0.5127212887768451 -2.2939391846709327,-0.3653919800699441 -1.378671695221854,-0.059850757142442035 -0.49062618942242864,0.32452173803199 0.3418520053673575,0.7058185618155619 1.0894962669941322,1.0141913988510112 1.7155691404794595,1.2033399485410143 2.175985246660673,1.2575425278485852 2.4259977063394444,1.1923575036101965 2.4302270482892823,1.0477015275828023 2.1713831029390604,0.8740882388266868 1.6540968555725044,0.7154409646498721 0.9032785343850804,0.5934884589372587 -0.04045386033284615,0.49838524437703313 -1.1244106092645296,0.3882776116643072 -0.6403848133810186,-10.341014703188051 -2.761015370953203,-0.014085722420816182 -3.6194683883229715,-0.45380589432696183 -4.319087317039873,-1.0745119302086437 -4.776342040452221,-1.8465763913994238 -4.929454026757412,-2.693346350248902 -4.758442970885596,-3.5026241442660933 -4.297040605487183,-4.151069538686784 -3.6293149296772853,-4.533947799626915 -2.8701670110605235,-4.589424211795915 -2.1362701801282924,-4.308812004600711 -1.5181076683002033,-3.730848522794247 -1.0623937171426334,-2.925185876790053 -0.7688719996991864,-1.9737750610685652 -0.5998439886190852,-0.9573865401841601 -0.497508403738685,0.05007725666231977 -0.4036474137294732,0.9815010778672644 -0.27706965289087293,1.7751632596429658 -0.10524870957902976,2.3759422457603137 0.09240424886332477,2.7402734516125378 0.27062489447426685,2.842728303319319 0.3723001801018384,2.680214213348904 0.34642356456144796,2.270515999288463 0.1647872433069537,1.6448906049708256 -0.1669472231407454,0.8379297020499052 -0.6058135493138721,-0.1201674727216755 -1.075526524626035,-1.2045192663800037 8.544338316186504,-6.042708835561484 -1.466978222414518,-2.9019468571659672 -1.4382630534828706,-3.9134915185801873 -1.1477780586894397,-4.844111910944434 -0.596448217123104,-5.59765732902774 0.15841214093745037,-6.080902245889419 1.0085158056213785,-6.22897480092135 1.8158911440770638,-6.0264370136581675 2.444459586632945,-5.514222425752848 2.7911396259605183,-4.778439941291111 2.805869029749168,-3.925346442296444 2.495477257905989,-3.052760024221726 1.9136705520299273,-2.2286839270964762 1.1441090517616885,-1.4835026939895428 0.2836237069355718,-0.816003282209806 -0.5707321821675464,-0.2087776936739374 -1.3309295732812245,0.353482472732793 -1.9254892960255177,0.8690828175294811 -2.3064743143772546,1.3124229369331388 -2.4548451454858835,1.6370098181387363 -2.381323388273593,1.7870148456992538 -2.1203055531811756,1.7130802094767361 -1.7170170172423624,1.3868875619593126 -1.2114877965914985,0.8102920308881636 -0.6250270367341528,0.017866186349351665 0.045475104510657616,-0.9254610158145908 9.239187722314412,4.62355504791546 1.3418033372299334,-2.409543720078659 2.210263820263293,-3.059098636641224 3.1783869641699596,-3.4786260829058264 4.1838123787550785,-3.5933726649191655 5.126746855563951,-3.3700732972258223 5.888143267744809,-2.8330390269764294 6.358547145198543,-2.067316434113721 6.467375110761097,-1.2041385692743063 6.20089043592948,-0.3913788373128071 5.601764654119464,0.241199906298867 4.75161819555656,0.609889373539886 3.7453672615360176,0.6900078121671029 2.6685229789044342,0.512768481554815 1.585326972150014,0.15068093968392304 0.5394896823939206,-0.30201839312947243 -0.4362345419607436,-0.7489282689095447 -1.308247216751326,-1.1085096902236415 -2.0344559516608456,-1.3273210295891928 -2.5644812034614546,-1.3879299444846112 -2.8474957871121376,-1.309396095456961 -2.843867088281442,-1.1389099896984973 -2.5351691308350297,-0.935595401166502 -1.9284376647897403,-0.7505106695905894 -1.054060903365297,-0.6086757425538991 0.03968398862654965,-0.4984553916280845 1.2909543812204305,-0.3713523015079261 0.9810051994424356,10.386663427305201 3.2702274229899047,0.1104868662623133 4.277705723646875,0.6303951685920666 5.091735017485149,1.362044656507443 5.615067376474727,2.2689713229631323 5.7769228470304625,3.25955482307797 5.556309762787663,4.201101584542556 4.9955180457636175,4.948936330588822 4.19552340250641,5.381416619900023 3.2925619426241894,5.428149547818293 2.423802906427113,5.081459705046072 1.6946969425652867,4.389085858118136 1.158794860984159,3.4343979288267548 0.8145207238163437,2.3143954471300248 0.6167692987754663,1.1239303121400894 0.49743825648764073,-0.05084712836867311 0.3884601301128612,-1.132283446847353 0.24199994795014845,-2.049504068860273 0.043741547239193324,-2.7397282736563824 -0.18361271097901977,-3.1539134916046123 -0.3876634863210029,-3.264226384091984 -0.5026875967378714,-3.0687101701496573 -0.4704046456096762,-2.5894028104699345 -0.2591055346796054,-1.863641554728062 0.12383751604679105,-0.9323122386432487 0.6283168942164252,0.16903096569321008 -8.658293895529937,5.564970194600434 1.306543689670832,1.9346997766540142 1.4994661114422456,2.8751642701363807 1.5222938056394923,3.8227202131907774 1.3345817883620157,4.722641168543191 0.9242702876856299,5.506722821526651 0.31519748235001543,6.102810316904382 -0.4319525730965381,6.448979765775675 -1.2271632472764509,6.508295610223769 -1.9663066718913171,6.279044245355038 -2.550394530283768,5.796440697893445 -2.9034857015542457,5.1247766242713055 -2.9843950724296917,4.342506741441525 -2.7898435047868873,3.525192282119292 -2.349848380539072,2.731519741185423 -1.7184288102586436,1.9959516361802798 -0.9632235659763353,1.3289941819463138 -0.15656729992872442,0.7237575381837473 0.6311556422046181,0.16610574532384703 1.3364511915317792,-0.35470454262735984 1.9069647090773856,-0.8376852679442948 2.3055310935958744,-1.266090459952153 2.5135039065203273,-1.6085865179867085 2.532040296025002,-1.8251432735924027 2.3800011153986134,-1.8758769478535555 2.0880267910463317,-1.730314599801062 1.6897793076395544,-1.3746890827229379 1.2126027021859045,-0.81588610555184 0.6703519292939006,-0.0820486021053739 0.06069196194036408,0.7791242546872184 -10.205299064018504,-5.532250786563196 -1.1034339188723834,2.2015569656329603 -1.860548439134618,2.8730010974550737 -2.7128685553946355,3.3916661663859884 -3.6315639470273595,3.6920304972871065 -4.5605918233639215,3.7275416682411446 -5.421510136951895,3.482439711358097 -6.12597903626164,2.980005685031017 -6.593201627412498,2.283372357186778 -6.767241709102933,1.4869269115641828 -6.628637205297437,0.6995851896901968 -6.196565984035402,0.024316356070499978 -5.521319404102158,-0.46033701725428955 -4.67035377803559,-0.7120201845784209 -3.7131081689280023,-0.7276201264829751 -2.7094397380898982,-0.538570797198588 -1.7044467727794625,-0.2011894608705802 -0.7297893624896403,0.21493257236394925 0.19053927796656467,0.6383183858733048 1.0331201208687588,1.0056687708632523 1.769761419061652,1.2700664164859745 2.365975295878414,1.4067199367451053 2.7837949548973313,1.4153192416258662 2.987795294696511,1.3180618725032502 2.952002925043743,1.1530731772779745 2.6651707485746243,0.964158436626235 2.1327743613973524,0.7890438263272017 1.3756691462622541,0.6488695001017106 0.4268592392605086,0.5414168165733315 -0.6714752292072035,0.4395999234599799 -0.38959557716729876,-11.61283089818221 -2.5878714389918827,0.12620321726896577 -3.597033956415359,-0.2105569386236823 -4.515686958884402,-0.7141450069256621 -5.269130232324827,-1.3924839177776676 -5.785786381203181,-2.2187152207438885 -6.010485141227548,-3.129455168064027 -5.918496270474243,-4.031929467456564 -5.525350852503919,-4.819485494193515 -4.88801617505537,-5.391885903535183 -4.095686667299709,-5.6746244329809485 -3.252239253641946,-5.631570071525289 -2.4554686836343578,-5.267727431601173 -1.7791143251844375,-4.622638728669244 -1.2621918447140885,-3.758123865884073 -0.9072773373411422,-2.7452792612472194 -0.6866454645451938,-1.6547047014888818 -0.5535547337422173,-0.5516296540593686 -0.4556309815040862,0.5047981489197468 -0.3477068348388457,1.4603323564315644 -0.2020325111560055,2.2650605954222556 -0.01423606159396229,2.8750156324143177 0.19606528397001455,3.255942046810617 0.3902448715367086,3.3876922689730833 0.5202650636378507,3.2670123266483984 0.5407163453481445,2.9069280392746464 0.42048435067677303,2.3323810327811287 0.1515174616945245,1.573510558266264 -0.24678240423801867,0.6591926053556278 -0.7277972534093777,-0.3864279430530928 9.830698304910655,-6.215707382864139 -1.4515745226998717,-2.2997413105640163 -1.6745209249035895,-3.3930197456959803 -1.6979167393684378,-4.490298081496803 -1.4756671093275031,-5.527843309624529 -0.9950090246684553,-6.42663198528264 -0.28498360142371126,-7.103535449653805 0.5827815282227036,-7.487809401355648 1.5031005436970801,-7.53810762016883 2.355099782915879,-7.254111577534758 3.0245911082293944,-6.678201025523151 3.4247018266909706,-5.886071960766607 3.50917961502752,-4.969289590316812 3.2757263610362486,-4.015520208212067 2.7603780338312163,-3.092468331778292 2.02654996294887,-2.2395714614683015 1.1529285794792585,-1.4685100586777153 0.22313824057339104,-0.7709321641615503 -0.6818974461475946,-0.1302305227488887 -1.4895819083203605,0.46621256795003774 -2.1404420539486324,1.0175048820174837 -2.592666360319697,1.5047233078492397 -2.825791872444192,1.8923595511920155 -2.842037546037268,2.13514052360469 -2.663774148603906,2.188164913777392 -2.3266596389434824,2.0174498665249843 -1.869598921712715,1.6081664275940994 -1.3241107275085753,0.9690168223403788 -0.7062271518688448,0.13279040604837888 -0.013517335962582422,-0.8456951953318281 10.344814940749927,5.342545773060202 1.3470537441603625,-2.509678118323123 2.2214970297274164,-3.28353075074714 3.203196481487538,-3.8775490226354847 4.258346795902561,-4.216815039884857 5.321887159859216,-4.248757793377877 6.303270464581686,-3.9566362893037947 7.101046368441217,-3.3687987960554864 7.623013637357673,-2.559309653607457 7.806071344682707,-1.637755866690327 7.6293623380471445,-0.7297990706165365 7.116475147791277,0.04642238091233253 6.3265215451833825,0.6014223382197343 5.3379316463417155,0.8876431183073947 4.230963644487673,0.9026749399443474 3.0744812719999004,0.683601630227642 1.9201235730116224,0.29572088342368374 0.8039292573227499,-0.1808677596007442 -0.24697903405439092,-0.6643244658343548 -1.2062542619183603,-1.0825298490405117 -2.0422284453832447,-1.3823539213159393 -2.7162050376968097,-1.536069948101911 -3.1856935935238653,-1.5438820368093786 -3.411259413316685,-1.4315287411110802 -3.364338753432591,-1.2426838499808355 -3.0331536078284813,-1.027252911720609 -2.4248814803005274,-0.8280335077776755 -1.5640382497621488,-0.6688729243627165 -0.48874054179655957,-0.5471147687181741 0.7527146679481689,-0.4320309692715085 0.623642876451882,11.638802684911425 2.9765220973089157,-0.06928283604914043 4.133037360469629,0.31788276089125134 5.181637818705994,0.8958400189822129 6.036998402165523,1.6729015162610992 6.617820454681421,2.617408259363117 6.862031587931142,3.655983722867944 6.742734647527442,4.681965992012003 6.279225566028515,5.573360207718125 5.538052699610688,6.216124280588232 4.622215222103648,6.526170879684514 3.6509322922613023,6.4636041450037 2.7358862821177468,6.035595601441798 1.9608093372410167,5.2885895884908365 1.3695176669816362,4.2941272699384285 0.964197718560996,3.133929919564224 0.7126172512743665,1.8887520007735077 0.5611236879306887,0.6328690928002771 0.44993302935927204,-0.5666794514556841 0.3277034105778682,-1.648701459931516 0.1630428297054891,-2.5571677143253737 -0.04885841350042597,-3.2429984916683736 -0.2856759566728613,-3.668277875199422 -0.5037117401444675,-3.811156387593087 -0.6488278588214484,-3.6689109652751313 -0.6700663567049219,-3.257157781092957 -0.5327718555066667,-2.6048480591026077 -0.22837853987186918,-1.7466446993159082 0.22077632427701133,-0.7156323614434825 0.7618620661725402,0.4605678378862308 -9.736166882357509,6.431384183096256 1.4691548632180798,2.3250750775251845 1.692184015212547,3.3373464168016795 1.7554327127684246,4.359304486261536 1.620125752010324,5.345788887420952 1.2682051069971862,6.240010173596033 0.7085594993427833,6.979106277829288 -0.020335884969284734,7.503280355962602 -0.8528814576204979,7.766600901371859 -1.7042964810181331,7.746622321909001 -2.482848200343483,7.449942498670822 -3.1037649667449614,6.911818109385337 -3.5016228808214294,6.189711559562312 -3.638490339694755,5.352480388272994 -3.5065109837599664,4.468127742580663 -3.1252969104106967,3.593203544734166 -2.5358052759302154,2.7661479541847314 -1.7928547095064857,2.005541542615134 -0.9580899712690041,1.312906463475855 -0.09435157993701182,0.6787648452442738 0.7384917352033824,0.09021861328992031 1.4867627536138457,-0.461711892966008 2.105843415028403,-0.9765013876433954 2.562936611565675,-1.4413565172488916 2.8394224186350527,-1.831756323039258 2.932070626118417,-2.1150786303010705 2.852290680035111,-2.2564091770724417 2.622964994807859,-2.225149722818827 2.273102496430681,-2.0009492826659994 1.8312913232880703,-1.5778376154217142 1.3194248940799866,-0.9661104255494024 0.7482434915914951,-0.1922198734118581 0.11587702235379993,0.7026385252395073 -0.5900610387916458,1.6645539514228744 -11.827231840247663,-5.664085354087632 -1.880996466654807,3.0353630186125145 -2.74334229152754,3.679344105224061 -3.6858479304084426,4.142863480331528 -4.673610990018631,4.374913643443165 -5.651030843327646,4.342975442987836 -6.547060770740842,4.040870886249451 -7.285102975483369,3.493630063596271 -7.795605386460693,2.7572646770603626 -8.028311327545282,1.9124930692938449 -7.960919035171557,1.0532025142027805 -7.601844343754365,0.2720896931609502 -6.986561394462683,-0.35320988854246593 -6.168936664295117,-0.7704647142408021 -5.210321413471519,-0.9578640377254146 -4.169480220969078,-0.9235322760072222 -3.0957373723527297,-0.700698974269244 -2.026426389576102,-0.3403111136195207 -0.9883594980783954,0.09722320113189653 -0.0020032407191195034,0.5500005644439057 0.9134559547908907,0.9617048416435523 1.735942147138303,1.2875289052909125 2.4385356752629264,1.4986545116726688 2.990294187884203,1.5848300086345262 3.3595392258472856,1.5544783574568157 3.5185472616488767,1.4319396415183405 3.4481853539022893,1.2519479640917268 3.1411374978190167,1.0521118961813158 2.6029554831686283,0.8647405489009259 1.8510163347605442,0.7095925019412164 0.9122375643121501,0.5889404454692055 -0.17921897123143538,0.48585042270912027 -1.3831828532792514,0.36598785483681695 -0.8605256591496158,-13.029503068456563 -3.3664557207831507,-0.024980179879747766 -4.423986253297031,-0.4161742389989058 -5.3806158201992815,-0.9697551665290121 -6.172037731773159,-1.6893181458524111 -6.737038363762871,-2.5510532288605248 -7.026843539258209,-3.5026429887703046 -7.0150614090241135,-4.46778347209721 -6.705391427109518,-5.356193093848475 -6.134375557413918,-6.077353169199057 -5.367641293588726,-6.554898949361785 -4.4899798436530745,-6.7381765428196445 -3.5914927957024645,-6.608275799207178 -2.7531688268584986,-6.177577009809227 -2.035213244923966,-5.483813555693246 -1.4703810491017464,-4.581080830268263 -1.063009152435768,-3.530641267257039 -0.7930428512890586,-2.3937891683259522 -0.6235143331388571,-1.2278375088079656 -0.5097104773342949,-0.08500448488257462 -0.40845009636973373,0.9869492283148986 -0.2861979676892332,1.9438222254075868 -0.12500602131586902,2.745047775258584 0.0745040194997415,3.355287173941747 0.29359941541918033,3.7472311881061273 0.49933642588163707,3.904597884223193 0.6512660233283754,3.824037296313705 0.7097011832161115,3.514924399772127 0.6439616610516765,2.9967519683808916 0.43909884180679626,2.2947409573240805 0.10008222339583028,1.4350099085133081 -0.34692069430246875,0.440909910261837 -0.8560048974342465,-0.6681509321963688 -1.3653353187374506,-1.8747968950949883 10.668591104165543,-7.874735847126942 -1.8646488256226377,-3.832302019292115 -1.9343313996142086,-4.990268831298835 -1.7777471014334623,-6.105001561160549 -1.3751115902195323,-7.112091815445936 -0.7373377283218332,-7.940487637494243 0.09111863656303854,-8.522897898235115 1.035213844010471,-8.80802368569617 1.9984653485837498,-8.771384588394852 2.876901712251623,-8.421483958505263 3.574839858151222,-7.799216716866141 4.018849143929685,-6.970419849862743 4.166846646275118,-6.013541358270103 4.01086534402981,-5.0057525122283195 3.5739545597932434,-4.010997775696509 2.903135053592358,-3.0725530808334724 2.0608617426858515,-2.2111508827372717 1.1170380877958266,-1.42823782724966 0.1426540105537697,-0.7128792587527641 -0.7948984993618211,-0.05033831763529406 -1.6354217341692276,0.5696595770294124 -2.3290968108133114,1.1466706428513902 -2.839535756670614,1.6664752453506537 -3.1463661847838296,2.1017394332118897 -3.2465239475238263,2.4161313157758855 -3.153343365510054,2.570862498477979 -2.892948104980377,2.5320934889675115 -2.498221224532543,2.277548427770988 -2.0014605784960224,1.8010910112066014 -1.4273725781433626,1.1147694061047204 -0.7881237872460929,0.24862663757034653 -0.08176260884532383,-0.7509409558562794 0.7053924025654084,-1.8235020679496472 12.032841180369743,5.396078320908316 2.1874015933035835,-3.4026927962746853 3.161136522489933,-4.128001754606643 4.223472700056064,-4.647217840601314 5.334671960015683,-4.903269950023557 6.4317391336280565,-4.8602017060961344 7.434459378221796,-4.511945777655711 8.256644435317689,-3.8876835755044254 8.820367652946544,-3.0514335446259366 9.069734111869423,-2.094825455683832 8.980536577444425,-1.1239852657965628 8.563225703419079,-0.2433114641819003 7.8586430363127135,0.46011637176485465 6.928149338034601,0.9280860636639119 5.8412857585090165,1.1367627245711844 4.664435823459385,1.0959970864173272 3.4531535778392026,0.8437662602574676 2.249353434414388,0.4377766240398415 1.0830172369512923,-0.05386424705746151 -0.02307714039764619,-0.5616051284520012 -1.0476540041224496,-1.0223783882171773 -1.9662668959648215,-1.3861933479822284 -2.7491235406139083,-1.6210897215426456 -3.3620209643218573,-1.7159460767402805 -3.7700293128279156,-1.680520893501722 -3.942726984270081,-1.5422982739411424 -3.8593520134456014,-1.3402649572066565 -3.5123617647767844,-1.1164899485059578 -2.9085556693645316,-0.9070110933343472 -2.06786425248427,-0.7337864753270367 -1.020762523890923,-0.5992541797034505 0.19431745443796444,-0.48448699101624015 1.5323840168270522,-0.3512720560767235 1.148925853252166,13.064376049695213 3.7930802767443623,0.09227848909513625 4.981000712074419,0.5328683805309566 6.052642379532713,1.1556295012579767 6.9359314271288355,1.964111154473727 7.562521714049581,2.9310045293489253 7.878288080417889,3.9970320299512565 7.854440400264281,5.076160261727168 7.496076659870937,6.066949917637899 6.845132381203257,6.868038401960334 5.9760180832188325,7.394277940602208 4.984368884833998,7.589621083979253 3.971444096190794,7.433759149493753 3.027961835479857,6.94147070516496 2.2210875796529876,6.15584011502672 1.587075190633783,5.138095289045751 1.1303074616511424,3.957265823218151 0.8279158325277081,2.6821893624285167 0.6382301318989789,1.3770386723557948 0.5110739090271466,0.10010296808908947 0.39813636213548875,-1.095474187893629 0.2620039943033987,-2.160670143131469 0.08273547688244776,-3.0506479614542172 -0.13888207182441192,-3.726511440899813 -0.38191640853403896,-4.158397847649212 -0.6096950583044531,-4.32877760684427 -0.777308559373239,-4.23452738329442 -0.8408172513219085,-3.8866511762097957 -0.7663968709216533,-3.307339833732037 -0.5377632844980837,-2.525065706150478 -0.16075576996956897,-1.5692079578449807 0.33531613029441587,-0.4659902913785814 0.8993638515086957,0.762808671069223 -19.503065421914158,8.646951167125444"
    />
  </g>
</svg>
