<?xml version="1.0" encoding="UTF-8" standalone="no"?>
<svg
  xmlns:svg="http://www.w3.org/2000/svg"
  xmlns="http://www.w3.org/2000/svg"
  version="1.1"
  viewBox="4.482963253630373 -2.1581554785747414 198.06433692820048 190.73824950302347"
  width="198.06433692820048mm"
  height="190.73824950302347mm"
>
  <defs id="defs4215" />
  <g id="layer1">
    <path
       id="path6"
       style="fill:none;fill-rule:evenodd;stroke:#000000;stroke-width:1px;stroke-linecap:butt;stroke-linejoin:miter;stroke-opacity:1"
       d="m 100,100 0.0,0.0 0.10745034420607169,0.0362917827224436 0.12257922928208131,0.03145403363893706 0.11082912208264872,0.003955706538818049 0.07194504241478228,-0.02042023248661451 0.035146134241699656,-0.01921881973507311 0.035938733048269,0.006418147090485604 0.08166395235086554,0.05330448873276339 0.136357521203891,0.13416139205862976 0.13525254070063397,0.24152820392913554 0.04561186273680562,0.3083786479408417 -0.07609746439705134,0.2614907730981031 -0.13555181603976507,0.11802301122024517 -0.10531734145503435,-0.02307121097352649 -0.025850501345004773,-0.07576078537654496 0.07256058395515197,-0.024460980224802142 0.1851052308606569,0.08117809015544708 0.2745553179077831,0.17560430757130518 0.25948786775332167,0.2332753800737919 0.08902560614907884,0.25415324687340046 -0.18513814086755076,0.2082534965880285 -0.4169700230504674,0.07052867167840304 -0.48043466263500534,-0.081109891842857 -0.4037871331927221,-0.10386172172557906 -0.3221846423518002,0.04250253161505668 -0.2838961970600309,0.2588861085943961 -0.20367060080509702,0.4203115874606169 -0.015684409672999777,0.4338275682507913 0.20095104499800698,0.2551206896610836 0.2880825596507748,-0.04440379024218544 0.19054979973019215,-0.28157389770619545 0.0009307114162453445,-0.3070062053013629 -0.19961693009155113,-0.12037362186438827 -0.44599008251580585,0.1323228619482677 -0.7557946653623588,0.227021682384958 -0.9583203042230082,0.037763569904171845 -0.8238290177114891,-0.285109242908419 -0.3679440208586584,-0.45409773727945435 0.13655697323927996,-0.3736279250768604 0.42054482053606534,-0.17372297518672042 0.3876190529553867,0.034101402366971456 0.12220392025182036,0.25896887667637714 -0.20149287702042784,0.4786455166235015 -0.46494311281190903,0.5312778179664406 -0.6254332700282106,0.2479142565578485 -0.5937593577275635,-0.33691057318705475 -0.26989983195826994,-0.9197978454880769 0.21231731661752917,-1.13756453083478 0.4802729254389959,-0.9405147945782346 0.31078022984272025,-0.6341818770175252 -0.15651103096789143,-0.45839535482147653 -0.6291006828760999,-0.3262601963892706 -0.8577037438653008,-0.05225263757304788 -0.6844129121039373,0.31808395975903636 -0.15920940958555718,0.512068397832337 0.412512525869289,0.3630279549191613 0.6976625247975932,0.00841678639760346 0.5803278090932906,-0.33820687618376155 0.19879294145705728,-0.6771905837996144 -0.11660483648131503,-1.1163445270788657 -0.05821736399501276,-1.5130325602507355 0.30718257392224757,-1.4855266898444484 0.5757667658018164,-0.8873086363803679 0.5125735198034818,-0.019288889648308327 0.26785229951325107,0.6675886842473489 0.04563180570272607,0.8802286343563281 -0.17629284015220037,0.5959012926745118 -0.4713580692067012,0.03109868304728991 -0.6746302712913916,-0.5609502809774369 -0.4583851767433629,-1.0271844351257755 0.30374653549610287,-1.1817874699702458 1.2681930412620375,-0.7840432485624405 1.792041935617135,0.08256351288245867 1.5704456296792983,0.8251480066729329 0.9812417252838372,0.8861854314896789 0.5543214197461737,0.287924250481737 0.348076715330194,-0.5468012696452291 0.07327611112124544,-1.1733611101562929 -0.36580475082061525,-1.2493503702176696 -0.6656283025099015,-0.6869961418029646 -0.5093362300113711,0.19690927589088858 0.0014468821281923283,0.9021893985432143 0.5067006920260724,1.1144551769118323 0.882500219245415,0.8248155340786241 1.3228839861227186,0.3279161791550962 1.8584614733443487,0.08781855942004313 2.0733930449172107,0.2717801980524115 1.575694941185617,0.5219645795520051 0.5007397516999674,0.4706476606666996 -0.632051715048874,0.21640760359827027 -1.299381483172965,0.05008877662251621 -1.2325643298555207,-0.03316954182794518 -0.5533756068537627,-0.2571166980813331 0.3839513357988551,-0.5793615344878305 1.274833923031764,-0.5657051661721653 1.8089691249729754,0.1714347563247145 1.5594633147107686,1.426676416389114 0.42389467515828017,2.3544097677881126 -0.9054751517111157,2.2623412151643265 -1.4734388421221354,1.4130514594262849 0.817556356403145,1.1838189423810377 1.1134841908897641,0.6558852846167582 0.8915291326273689,0.03358973743264926 0.3472914666402005,-0.6073903916837082 -0.3652667674005414,-0.9601567503894728 -0.9422194128904096,-0.8872981067391379 -1.1016462099039188,-0.5101074614660774 -0.7702910515249073,-0.040917665321444474 -0.11616855517189606,0.44689623101689335 0.5288730877524443,1.0399924223767556 0.7818526153873648,1.7633501804587297 0.4087851627830901,2.3675858841416897 -0.44251434904580833,2.4329260937631147 -1.2708099794099326,1.763367273739462 -1.6112898330432017,0.6290007468754197 -1.3890201373621238,-0.43539534373925903 -0.8551851807003032,-1.0127074111362049 -0.2616207319510977,-0.9904838616396034 0.31932614589146624,-0.5243555512857228 0.8863355718626735,0.0901677984809055 1.3181854710726242,0.5901775481274854 1.3662774809217382,0.8834714211252503 0.8446875642106164,1.009895539593927 -0.18645662700832588,0.9657631932487902 -1.3870702321890178,0.6456809342914767 -2.274265830745648,0.027615997937360248 -2.5124447398392675,-0.6291518250811521 -2.1775856521797436,-0.9036814711818977 -1.6798015574039766,-0.5859978967434785 -1.3515636176982184,0.14703011992072845 -1.1577102500306609,0.9317640269735818 -0.8260490497913224,1.4662064435279234 -0.19414307837872968,1.5545812020106524 0.5815536770301151,1.0986333477675743 1.1221906012333278,0.1976303834756692 1.1458440191851196,-0.7911124722130438 0.704785105405918,-1.4227160427496273 0.0835996946230182,-1.4400967287760835 -0.5197243489379133,-0.8928536424993041 -1.1583071082071115,-0.08512990889647654 -1.9557036684232116,0.52514637958663 -2.7730328686204047,0.5203224230841954 -3.14607512301329,-0.15723686979846718 -2.6708968341680333,-1.0677749184682739 -1.4311790354738463,-1.6127403288738407 0.03913532605461967,-1.5407299350328856 1.1555782315827514,-1.0538804154101626 1.5882052002059766,-0.4751776432378563 1.3230217556984911,0.07175183559223797 0.5992071801805565,0.6411249986032459 -0.24081344396562088,1.2060890168639844 -0.9541909161316937,1.5140218079286143 -1.4637551293076143,1.2328415090732676 -1.7034052836331313,0.22922193349404552 -1.4892808429667923,-1.2498884110290476 -0.6880550544872364,-2.612425411687596 0.46099484424679815,-3.2422369522244736 1.343565908025056,-2.966708752507728 1.4341837444631977,-2.2027899172951777 0.7166336181034438,-1.5329042042016 -0.40310595618136347,-1.1661520150303346 -1.4497483994308595,-0.864870284908136 -2.0502685595475043,-0.31554579611581346 -1.9472119481909829,0.4854807146553384 -1.1030138849810385,1.1732071859675273 0.16926339200438179,1.3302267944781647 1.3203290176107458,0.8755014418932632 1.8928777525603664,0.10945033612483712 1.7420118227347103,-0.6255412170564227 1.0365995602744675,-1.2752357104798193 0.1944315195168258,-2.028227254865527 -0.25052504772868645,-2.931195403651202 0.014122081992539393,-3.6092562275158997 0.7583483037204246,-3.5069869107857414 1.3732732146076359,-2.4324907604355133 1.4381978535154332,-0.7598795985654192 1.0405560764896222,0.8691884454588177 0.5373726018627849,1.9170490794849826 0.12457770687981906,2.1215575808208484 -0.2912940037234222,1.5415453641938512 -0.8304138937216976,0.49679673167017313 -1.3362999795736954,-0.6445062136012751 -1.3917088652683702,-1.6510564581835894 -0.6307825039936716,-2.3566895622994224 0.918172107130971,-2.4799560077180445 2.688461415198006,-1.7257430753635816 3.822469405546272,-0.20201268387990012 3.7929860305984278,1.3816315518362927 2.8581047838495834,2.1604713099197568 1.7807948935944893,1.7844034790718695 1.0962071652776473,0.5601382853467243 0.7391834255254821,-0.9272332616938002 0.31272780245041076,-2.131934997858295 -0.3941169414491412,-2.6152086094242293 -1.1353926297080505,-2.1398748761657487 -1.418816554016459,-0.8619042757163413 -0.9943703185309545,0.6792754285734759 -0.10074830086331588,1.8783797511374303 0.7950832980110505,2.370734724685036 1.4613569569385305,2.1025557554185497 2.0688535319182364,1.3147007380357394 2.8699038843232216,0.5172576017466497 3.722290308597124,0.2341507457242784 4.059309871384144,0.5515105631671418 3.4101793657852966,1.0137061244346057 1.8460800477782016,1.1082008395536178 -0.09996250159645115,0.773998442108919 -1.7747243466851188,0.35315439922428027 -2.6558317590555447,0.12650773547591143 -2.51903270006558,0.003912126265660731 -1.5267161627797634,-0.2982220975157901 -0.08810350844007075,-0.8229978765290298 1.4162779950775217,-1.1859963649188217 2.6974552797018134,-0.8242357941258831 3.372981225766324,0.5389463865426194 2.9646965634116214,2.527300086729568 1.3432457591631248,4.170129366014393 -0.8446666293874756,4.559750880231604 -2.46961375423993,3.6261245910359463 -2.764754783890325,2.1604751566912483 2.218895486686705,2.2640906468003124 2.0195782818333896,1.2800678762617963 1.7274508130076924,0.3066295902542038 0.9768995618092191,-0.7752046470449159 -0.10689074321878422,-1.5862425741165538 -1.220190878627605,-1.845752136576536 -1.976736211096096,-1.5387585566917181 -2.100589385352251,-0.8865479298313801 -1.5589064462241708,-0.1418485737942916 -0.5587447218104273,0.6086328684470317 0.5291334636488472,1.4603327984668795 1.258447904928687,2.5083246955244647 1.2466752778779124,3.616770961511989 0.3903831120656349,4.36458296213047 -0.9869899045400246,4.282536518979754 -2.26420240616865,3.2198087193269203 -2.9016761696288143,1.5041137721738664 -2.7553812549115264,-0.25199969790874377 -2.0619056173237027,-1.4980757843085968 -1.1658138956960045,-1.9644463171977407 -0.26940311816554185,-1.6821926390951205 0.6025811941381249,-0.9001849784014837 1.4512491500804998,0.03438905484364341 2.1446046101258815,0.8238607756679386 2.4135299318340344,1.3400843699249094 2.0048463804638317,1.6151037961431456 0.8568379822472849,1.6986082398297384 -0.818737056235733,1.530422377439379 -2.572585188437216,0.9838195364956306 -3.8693870782312985,0.06431143739521872 -4.3393864983493415,-0.939655407602217 -4.004201251905954,-1.5585182064235 -3.2637217618707695,-1.455362107575226 -2.5924115750040215,-0.6602826138689721 -2.193351543509621,0.49084067463471115 -1.9099398202238689,1.5995272515392287 -1.4291743143295292,2.365692243176426 -0.5713487085094613,2.5885631073704616 0.5421665715905846,2.147175220618138 1.5356164910108703,1.0731463114164228 2.011197568712717,-0.36014919668144785 1.811599946283792,-1.6892109646442464 1.1044580411096945,-2.469396300459536 0.2150619902642461,-2.479371015231976 -0.641281237253537,-1.7815503274685085 -1.4932053324494632,-0.6691005802790073 -2.500426129970691,0.4081436436220258 -3.6812697082054058,0.9546520644126986 -4.721046147535446,0.6492774403095609 -5.085267788760504,-0.41018066539253084 -4.399478596921654,-1.6926863545101298 -2.7610607608521747,-2.560302698043202 -0.6971682986212784,-2.6821959602580847 1.1501684311589315,-2.1737006195419752 2.3129088415003025,-1.3869567013185247 2.6045635240086824,-0.5956850514114223 2.104913794187979,0.15176032596035327 1.0947935490172824,0.9299344843117012 -0.06795530527480764,1.719265612720946 -1.1101028482060542,2.290943265826982 -1.9221841841299607,2.297045321088987 -2.4716754854230203,1.4816347891582353 -2.648119828828044,-0.13534994213175366 -2.2430338312718305,-2.1850405594700675 -1.1477808325985848,-4.031944336302615 0.39707757980959,-5.045675934558176 1.7938143760213876,-4.966459352823577 2.418499902626479,-4.0820486295889395 2.019184664764353,-3.0053997470869973 0.8179848726266101,-2.2167624318043693 -0.7129328492027014,-1.7706240649207956 -2.1124423079864414,-1.3741515466461465 -3.01940580312106,-0.702899404600501 -3.16454909621919,0.3062956947511708 -2.430599800378559,1.3700106348008063 -0.9753717194828653,2.0325019493616736 0.7521254507937272,1.9845190623320406 2.195026070793233,1.2783360597359206 2.9421095000269304,0.25738618607067565 2.860221631336316,-0.7304483178335204 2.0811274441960848,-1.5853484825157977 0.9520236117046039,-2.4669478456401777 -0.023907993019719243,-3.5490925477491686 -0.3601288843509707,-4.71535550417461 0.11906187383644351,-5.493121914999207 1.1027958998498093,-5.34840888277445 1.9806333366193059,-4.095581827603937 2.2789012487013878,-2.0429907996189627 1.954196134849525,0.2079591198680788 1.3117844430248624,2.0630998296849583 0.6832518574768898,3.115212179611973 0.16838510876281987,3.20621417259801 -0.36073257211431553,2.442564684937153 -1.0318362630446671,1.1402149198787868 -1.7436889794732338,-0.33355326994244194 -2.1410470239040365,-1.7190471756847643 -1.8032240287862464,-2.8679221400825554 -0.5055576075502586,-3.5991677121797494 1.5803473478959802,-3.6123712871546445 3.8460261109359806,-2.6434019565327276 5.464238275794628,-0.7874233433544475 5.842477629610428,1.3431209935902473 5.014602372365815,2.882979508399387 3.59983229202858,3.232076221344414 2.327059326189925,2.3647247894356838 1.5454738680466562,0.7082346326901501 1.1058986254763141,-1.1756918363006292 0.6171350347321578,-2.782704537903115 -0.17826708908636135,-3.692973021704063 -1.1694652825151763,-3.6130691045948424 -1.9316994239023018,-2.5136908209621964 -2.036387406455205,-0.7214459864305525 -1.3788655263084308,1.1963415286233356 -0.25002648856802523,2.693126937119885 0.9003084878140726,3.437157429515196 1.8000870647094729,3.3461117380106344 2.521816796865238,2.565670752418228 3.343593836724196,1.4726509919312036 4.397977812537732,0.5995869021184319 5.413798149997206,0.36588813407638554 5.829366938297525,0.7697349664395716 5.201876581577736,1.3732125786307705 3.5263229596693577,1.6585995018627102 1.2142421946614945,1.4296505687606071 -1.14146470384091,0.8978302226783654 -2.9757947750385085,0.4251158417874308 -3.8782469336639167,0.18712601363243664 -3.6966995210782727,0.046107115945488886 -2.5878443280461454,-0.2726016129730766 -0.9193781796772669,-0.8679595725885179 0.9324336405946099,-1.490736138521953 2.692840558232035,-1.6426233604176446 4.100135910933034,-0.8620112502447626 4.769358689017565,0.9621774026449685 4.2693173536857785,3.3947686038383864 2.4693060552316695,5.542538359870122 -0.1453305860915748,6.507669990863221 -2.5877590785957523,5.964958900025181 -3.921217567934036,4.374995899460231 -3.7730070168112206,2.6119089917078924 4.15057621532705,3.366505581317128 2.857445177841555,1.8952938346685642 2.559529190447506,0.7133128659348529 1.7517857147617235,-0.657180482597397 0.5135317844902545,-1.8564414471308481 -0.9237830443954635,-2.5483444836539775 -2.2037292507953055,-2.5810908490260687 -2.9694748204766768,-2.0470418245805604 -3.008307764466963,-1.1974372114844414 -2.3244548073521116,-0.2692885310138422 -1.1206697244263069,0.6542034747502612 0.2616693284824123,1.6550007889090352 1.404158252193099,2.854953180662605 1.895411044946485,4.232338545230931 1.4734972520475935,5.509296016440828 0.1870708715987064,6.220095198577852 -1.553472280150885,5.955689460685889 -3.133399370641854,4.628542804783422 -4.033417673312044,2.559423884101818 -4.067638980424505,0.32517079034988683 -3.4007982862651573,-1.5053845280745008 -2.367093128452183,-2.5689834551961894 -1.2484714739562008,-2.765589157654233 -0.1616595611031073,-2.21931740366054 0.900617281330554,-1.2048504615811453 1.9362317728017757,-0.055857010070482715 2.8224312424281095,0.9447575018268992 3.3137571644016504,1.655348062579023 3.1482603755296026,2.083631974949128 2.1849247042887043,2.2959899392870398 0.4933065369103815,2.2978138214654393 -1.6323535711181734,1.9913973854368692 -3.7301625998139087,1.262777992217707 -5.300003263771728,0.1417352845766402 -5.992774549972964,-1.0996693679603027 -5.779736303265054,-2.0219971388699207 -4.973707412577966,-2.2447960630833563 -4.046288929002586,-1.660505749937414 -3.349087778974237,-0.4720314554398044 -2.934856874365437,0.9511386306788836 -2.587901189952163,2.252917787176983 -2.0109486640076994,3.1727831172511003 -1.033517430057998,3.529212750844181 0.2673394231679964,3.199885237188937 1.5820952273689954,2.167154279834108 2.5123440679468416,0.5959746987883534 2.774100320858963,-1.1523082788955321 2.342033589672397,-2.624655783743009 1.4377848225040708,-3.446971186912805 0.3703660091883165,-3.4509226761167326 -0.6581952025263575,-2.6987126756825432 -1.6506262023966798,-1.439942500270007 -2.7529985816859437,-0.05951411599934886 -4.070046681327781,0.9837307227924441 -5.4765852538552195,1.2792996640757792 -6.573604601489208,0.6527748818543841 -6.861673550679228,-0.6918282917670524 -6.036461670221215,-2.2236711695726683 -4.19181350609518,-3.348357708082631 -1.784234964695358,-3.7121977720304074 0.5883851306320693,-3.3346818547562975 2.4182737245643793,-2.5030999508335583 3.4086474936315696,-1.5414301375056283 3.4902548284461687,-0.6250473886211694 2.7928436435806248,0.25238254224130685 1.5924102189060108,1.166691751829049 0.21856654034016287,2.1047171612761986 -1.0626222526528721,2.8809019063796484 -2.119920842134377,3.1866579259627628 -2.9220918291512987,2.732152566287226 -3.4244300400058734,1.3938254394932414 -3.484843934982429,-0.6925788999758993 -2.908611052532045,-3.1174056069023663 -1.6197752275050235,-5.2847209921720975 0.16539592248141588,-6.6180554299971845 1.9291383775589566,-6.823000162054939 3.066749439599043,-6.046285211464806 3.1922779610699266,-4.7885891340688005 2.31026147061516,-3.6044905549097592 0.7478318990177115,-2.798091816103536 -1.0500284042323926,-2.3143128343846797 -2.6811895653269886,-1.8588290315973666 -3.8266292385129503,-1.1324962994186052 -4.236301277164884,-0.037807561315830185 -3.7596711368560065,1.2395167669445186 -2.4339012723049223,2.3111118624513693 -0.5428459334463227,2.7921865378009727 1.4431966000705287,2.5159433623311855 3.035727131782238,1.616879022645847 3.896332528276133,0.42778575133245056 3.9106302474091024,-0.7337308244543692 3.1726274351533235,-1.7446785695630922 1.94778847611083,-2.709371971776932 0.6430513282164014,-3.8228926768986895 -0.26845493070152315,-5.145048460559352 -0.41982433612942316,-6.4416397333225035 0.24277880967517262,-7.2355501238662185 1.386238955393324,-7.064195982959291 2.456337572732849,-5.761870206931171 2.990092302833915,-3.5597481357467586 2.850040323030683,-0.9609778212795206 2.2286763727250474,1.4760584908760492 1.456447384164946,3.2986796529783575 0.770156764719971,4.229309101578352 0.19388410576945603,4.189635871577607 -0.40695108232006305,3.3048256690158837 -1.1526272766750338,1.8589131738639253 -1.9871603125513104,0.18397570866014235 -2.6405365431510006,-1.4602891939485971 -2.73223807129402,-2.9229434094234676 -1.9466762823540051,-4.084929554508356 -0.1994476897903894,-4.750639953195488 2.2584814727575804,-4.6380821536854455 4.848186866219606,-3.5302874113909724 6.83382719329974,-1.5057667088212767 7.637377543800824,0.94523158957643 7.1366910310286755,3.0667889405564566 5.728323128317555,4.18677143559475 4.082402455851508,4.024130170737152 2.7581329702741186,2.7455547829158746 1.943361105519216,0.7896210897206402 1.4538924193669231,-1.3515348869130008 0.9368856383200495,-3.241428181945821 0.13058643195466857,-4.508050611526315 -0.9553196504894004,-4.858924865741798 -2.0242417356262905,-4.164438867566609 -2.654039956188811,-2.5547471826131485 -2.546111369802915,-0.4204633020984616 -1.7036657914155597,1.7209287215124789 -0.42124844517425686,3.4095544683689383 0.9004962994346215,4.360413964318099 1.9883374230495576,4.4801452114792895 2.8339100084518947,3.8468736629399984 3.6513246095260854,2.712229217928659 4.670368098548522,1.4914251569099761 5.891848988192436,0.651847751835021 6.989404214303022,0.491946119655708 7.45738045499391,0.9540076671244719 6.906012550719851,1.6479633794955078 5.28116059357734,2.10100618594457 2.872204440009824,2.049829082205889 0.16363251332680306,1.5647588494363163 -2.3270157568543937,0.9429736917248022 -4.1528344527228,0.47324641012986035 -5.008391051312827,0.2396783219127201 -4.796833185465346,0.08900643878547498 -3.6575384476097668,-0.22491156042231353 -1.899994356385946,-0.8246566826278183 0.1350176757411532,-1.5711345657335443 2.181609107924345,-2.0877883563961745 4.034746472424757,-1.9205667640304256 5.444836925193272,-0.7513258672767478 6.053924177417855,1.4102977858342456 5.496414495737099,4.12919159527199 3.6513336869401485,6.629579995603947 0.8648638978479255,8.10014604828946 -2.078561797059507,8.096835211765779 -4.282316277720298,6.781426534510302 -5.147936678522171,4.807115200453097 -4.582212319811816,2.928065673678603 6.542663544232113,4.534364340312948 3.6474672622633193,2.4989054893310367 3.369169484873453,1.188255416112625 2.570883527413798,-0.36630854035635707 1.2978513331349575,-1.8524340487932562 -0.2889636354112497,-2.936991377637625 -1.9060983609331572,-3.3929935321023805 -3.2110152241320407,-3.1842185925711703 -3.9102522146015417,-2.461195607012968 -3.8534431254919355,-1.4678605555731963 -3.068820607585451,-0.41099352093885955 -1.7417270133137492,0.6343139844657344 -0.16994397032615893,1.7325624187838145 1.2794084584647294,3.0049804281887305 2.221100767209549,4.496734528910977 2.3380659966213955,6.06509610461876 1.501516065270522,7.36297673863433 -0.13180502744279465,7.953124100421064 -2.127624004540195,7.509906072283002 -3.9214941389777493,5.996040235662292 -5.042346579720515,3.705225698640845 -5.286521651696148,1.1483652167565594 -4.747874021509915,-1.1387184105893482 -3.706712947835342,-2.756942488798785 -2.4619525083300573,-3.515573624959927 -1.2048529538121784,-3.424987946738156 0.010416312687738127,-2.652359314181382 1.2045589974138977,-1.465655317539813 2.370871657785898,-0.16580046257746517 3.400418225657887,0.9925654540056712 4.08095196455983,1.8671873599443245 4.168360372760191,2.4427845019903316 3.4873681341949236,2.7781974503546962 2.011117374495825,2.9164721635965805 -0.10582255126101359,2.819583218760357 -2.5409543180160767,2.3787638162246765 -4.8604021852584935,1.50411748461039 -6.621502952173103,0.24155950111233437 -7.510706305528359,-1.1651314148323024 -7.466891539712577,-2.3279079157443334 -6.713883493111496,-2.871835873744203 -5.658535674913622,-2.60591431159844 -4.695776405570072,-1.5998231250924562 -4.030464304848337,-0.12687661493816904 -3.614354640202606,1.4699612415109584 -3.2171266501991056,2.891340162279164 -2.5742170240360736,3.918430944660713 -1.531982556197491,4.392932135683282 -0.13309020256164672,4.200238776355661 1.3835319608053993,3.296606401271646 2.6676415911692146,1.7672388791320088 3.3976239371382633,-0.13899593576519464 3.4144368198882233,-2.0462019833236695 2.7805060367508645,-3.5571545523489476 1.7298779964823865,-4.374108563169017 0.5381919037078688,-4.373274247819296 -0.6137948132360975,-3.6122542205233685 -1.7101011583188637,-2.297055628954354 -2.867837417577732,-0.7449734676757487 -4.21853922727577,0.6519313181883888 -5.761098012975367,1.4922680700585147 -7.270899081880074,1.4818624676086358 -8.336339884095253,0.5689301922745074 -8.526614863511554,-0.988239483712789 -7.604197353524199,-2.6950652482078965 -5.654318123388727,-4.021518280615794 -3.05727174941174,-4.621014465512104 -0.3365155497162178,-4.442772301264995 2.0157849264623025,-3.6881780454174304 3.6519274130588286,-2.659625149250374 4.404539303333223,-1.5996950029816333 4.2772944889587805,-0.6035888158788509 3.4197645242745622,0.36389676358406575 2.0865289679755676,1.3719445668859152 0.5692888122731006,2.4117999954857368 -0.8867181119894951,3.3373196365345166 -2.1407151183323165,3.8907067426581534 -3.1492547638019133,3.7945156266281685 -3.8960437764814557,2.8607714981389165 -4.309981565973658,1.0754268859397769 -4.238980536267178,-1.3600852345563794 -3.5161581175158148,-4.039401044246205 -2.0931965994446387,-6.4292714124404995 -0.15831935265197217,-8.02127916695622 1.8552573836255917,-8.518132381834747 3.406438133804606,-7.962629617419651 4.064398661265862,-6.718790218676375 3.6781088117037584,-5.295863631554923 2.4005783914447676,-4.110829868679218 0.5780695573448753,-3.323269667952971 -1.399106709249942,-2.8190462016432747 -3.1902382164058167,-2.3243527690061114 -4.520566489411166,-1.573874962445771 -5.167307459572974,-0.4552596712729553 -4.974003355191847,0.9223713364130077 -3.9081116994708083,2.259988206711455 -2.120486864358938,3.191101260365329 0.054000875321008834,3.4436759181411816 2.179311667877542,2.960878404280521 3.8475587002032654,1.9151489631050538 4.7859543569694765,0.6095985621827396 4.897768100042477,-0.6758059222925112 4.248273230062544,-1.810612775115601 3.037269912615166,-2.8501832567108494 1.5804518842495838,-3.96359613929026 0.2770373902898271,-5.28478672453771 -0.47735331679143655,-6.763258042908532 -0.4341503428088771,-8.108156710795328 0.3775335975624188,-8.879799014776665 1.6322847381621415,-8.690486256667775 2.8430116571412185,-7.396060761094915 3.5823479788556085,-5.164800578230825 3.661110155603879,-2.4008461930152336 3.1680055468019717,0.40622720955445857 2.3685349252561707,2.8131530740658235 1.5382998505789516,4.494010709470189 0.8256362140858471,5.266718414942709 0.20887194684669907,5.104683751937408 -0.44016617129642555,4.136033895735572 -1.229748818813846,2.608684968686447 -2.1342813436767614,0.8129199408931171 -2.9567056969969627,-1.0065452877488283 -3.382664576195566,-2.6940980480874614 -3.0932050233734145,-4.152164387663433 -1.8876339826795174,-5.2618467720431 0.2179834968133605,-5.824796417297108 2.9398450018648603,-5.591717237393041 5.751998084487276,-4.389275942763277 8.016029398700226,-2.2817100348731714 9.199596117659283,0.3451150964899483 9.094990813660715,2.8631280837024917 7.91092806741095,4.627935513050389 6.166914328370453,5.226069617104997 4.443359549339107,4.600107834384154 3.1312122153888993,3.000375888205056 2.3097723770652294,0.8323419415795783 1.7879341475833002,-1.4842769925385682 1.2566993060439557,-3.5778946301886236 0.46895479783442795,-5.126384212285657 -0.6266229452657228,-5.860286408081748 -1.8468505985382393,-5.610180812614217 -2.8483095133166643,-4.380979081473114 -3.285634403798454,-2.3920910903407844 -2.977270471412865,-0.03465324338506548 -1.9907743723254612,2.243589685761023 -0.603191577612975,4.062313793321593 0.8373942822833271,5.179955670685047 2.0740002843662353,5.501897311901551 3.0470957727029884,5.06385781598987 3.894729743401683,4.029577934992446 4.841226360290861,2.696596882749091 6.023335920100351,1.460615391554775 7.349020026842268,0.7003316153380368 8.48378547530612,0.6153609049524107 8.987978032702841,1.1180353821826898 8.52537067408079,1.8692878324588662 7.015243937920616,2.4533849735069424 4.651498315961987,2.586796807683406 1.8122935153479602,2.2378429886303692 -1.0588244940641687,1.6008239682439793 -3.540490146325652,0.9575885231447785 -5.286940887748358,0.5123551481451756 -6.073537180040745,0.2875441625150188 -5.8410081439322425,0.13138239055112422 -4.710254772139166,-0.17100161370494504 -2.9372600713513464,-0.7472875673411608 -0.8188591887387418,-1.5325020575675836 1.3939423614450845,-2.2609794863974315 3.5162941380632162,-2.551543220876944 5.3744314250519665,-2.043958353018951 6.7293041078700355,-0.5423851497707943 7.261037070785704,1.8693849707100085 6.665342051248558,4.781857296029301 4.8342019550725865,7.531804544724295 2.012416401506755,9.409949010268107 -1.195711772280248,9.939334881461363 -4.013077330742931,9.082264648285332 -5.778743213546932,7.246676496611357 -6.171915244723749,5.080787798033683 -5.256128947478203,3.1778157358463517 9.358508273182622,5.787515134655209 4.402920461865506,3.091444399552728 4.153666932005592,1.6989726053082563 3.393751823784413,0.02825039325249179 2.1465164113799915,-1.6585545052032273 0.519853485535549,-3.057332006094711 -1.2748503290334554,-3.915436963930844 -2.948292407695419,-4.111152577653925 -4.200858993186699,-3.685817408319366 -4.803259098643821,-2.8121227200059735 -4.654120668529117,-1.7117948468507649 -3.7953142205753068,-0.5608488149282493 -2.3921198096668093,0.5743446205006677 -0.7002150642524896,1.7426198487174247 0.9651281161143004,3.0530943725407695 2.2618024448211145,4.581700669082181 2.872788732596888,6.278430088893927 2.585746611049615,7.921185965435072 1.3802747584397252,9.150695345352318 -0.5239925100254936,9.586762637459856 -2.703218191498479,8.980585661584229 -4.654092984727072,7.329671063500086 -5.958323656492269,4.896383813472681 -6.409652751176026,2.1236748600914837 -6.046472820416625,-0.5040205048781274 -5.086291533091554,-2.5877209307429325 -3.806736159459092,-3.885057173907853 -2.434287774789567,-4.322533037479417 -1.08612237351943,-3.972012124312897 0.22092005300780215,-3.014376463669066 1.5105038360403569,-1.6978417019334984 2.7719792673823065,-0.28763897919230885 3.910074377449604,0.9913203091299181 4.744333440993131,2.002688638245104 5.057289470096634,2.7142981789865814 4.666750450550069,3.168731969186126 3.4907242458597523,3.4212744568037294 1.5847151554944787,3.478987638663938 -0.8524060899130177,3.277384806611167 -3.50032914019954,2.712986768999798 -5.966846219162363,1.7202883205641513 -7.867282534784096,0.35441503719877687 -8.924914654314847,-1.1699664369550362 -9.060788942496472,-2.517132801674819 -8.426916317733983,-3.3395946786991146 -7.351947880928961,-3.407642234889522 -6.21259525609014,-2.6918613193597025 -5.288578037338851,-1.358200770838124 -4.66960672925228,0.31136478827176006 -4.251775226921907,2.0187688106539667 -3.812650942364783,3.5164497998235618 -3.1223708814774653,4.621384587614159 -2.045020059577098,5.196798150587426 -0.5994946462946871,5.138702537421693 1.034388430888157,4.39192206704729 2.5657150115993375,2.990950926275275 3.685031577401304,1.0958044228458448 4.169053941044666,-1.0108417407523689 3.9557615827419426,-2.97800924482587 3.1558782520966844,-4.473314062846299 1.9948639934025465,-5.263843418147474 0.7129198051114969,-5.259195984492749 -0.5308559656540837,-4.511232432512315 -1.7086936244690918,-3.189254388156826 -2.9085801281113675,-1.5530450988903226 -4.258752735922613,0.07086486179051121 -5.821725712784897,1.325278411378548 -7.504420955452758,1.890065693821441 -9.033496406748412,1.5785981380780072 -10.022562225304938,0.42511049339447027 -10.112271875746337,-1.2923891627657724 -9.119277935630102,-3.1266574019446693 -7.1193433828629225,-4.61207126389732 -4.42624668828708,-5.422761508860447 -1.4870526266859656,-5.463536732201561 1.2465390554951483,-4.858809011819858 3.4150983128609056,-3.859047655499438 4.795692213805452,-2.7188214013619927 5.3060861379647335,-1.6024390441917262 4.991582900591595,-0.5515000618928241 4.005108547820228,0.4815057033949586 2.575546422570312,1.5568905510329785 0.9577903804955312,2.6687921450162833 -0.6273005089166546,3.702501556154033 -2.038318568650041,4.4472524692558295 -3.2187603092476422,4.655613527541476 -4.157245249366852,4.121676843710787 -4.825252444716249,2.750215586128405 -5.131980505272324,0.6016212428373251 -4.9305070711643,-2.092559908890564 -4.083723133549526,-4.949461753925277 -2.564020276304589,-7.500036376838636 -0.5339019417177155,-9.300905256184365 1.6469702420235564,-10.06766019613309 3.510355647983914,-9.775495400319414 4.631637389236019,-8.670502412704835 4.772090211361757,-7.1729106185441935 3.941138931208428,-5.712264561833422 2.3576593921388636,-4.572404895994367 0.3482438005685822,-3.8141761002207915 -1.753195164737356,-3.2972567743185976 -3.65930015299071,-2.775122963395603 -5.134534392078493,-2.015492628939384 -5.983180102623336,-0.9026429091595958 -6.055377416997416,0.5077632338891362 -5.283544760910033,1.9965975701774425 -3.730131429211923,3.2513915517202747 -1.6101846422950956,3.9767908960470066 0.7382516145192284,4.0029719954518725 2.932096872189234,3.3450666422595816 4.636002757046114,2.1868051410330906 5.629927034013846,0.7974062772900936 5.832023487628717,-0.579032718754803 5.287081322013904,-1.8134848156915666 4.146032190375976,-2.925242350557582 2.652460618246181,-4.045332262473906 1.1275948289787152,-5.322465224236694 -0.0714752175014084,-6.808407099007013 -0.6359324112432745,-8.37635806506303 -0.41258985482249955,-9.721005404327165 0.5189509485830612,-10.453427009428175 1.8540807327024211,-10.25135055270988 3.168889497525413,-8.990187433824417 4.078588980063749,-6.791317484223384 4.37173873313165,-3.974855256051427 4.0598127544322935,-0.9562748103675176 3.3302735372106014,1.8562516214531826 2.4376130628262374,4.128307869556764 1.5874880896858272,5.628817722854592 0.862768786181924,6.241544154690246 0.21738155141134996,5.97169316299216 -0.46556048195925825,4.942772488494533 -1.2818509805030445,3.3694662174120396 -2.225076597212883,1.5028124956487616 -3.1535997826692324,-0.4336521281037946 -3.817489314268869,-2.284274529505325 -3.929770013552627,-3.9549012783551447 -3.2536362358921807,-5.364585275995573 -1.681892848426017,-6.388643730191006 0.7055988566880984,-6.83670280417229 3.6192742838911443,-6.494652330549755 6.590141017929206,-5.224949085371179 9.067537724280172,-3.0805441505488886 10.573209012260492,-0.3658855748175114 10.860662528786861,2.406099563023659 10.005237016177759,4.658912281949526 8.371510550033392,5.935771676419023 6.466262955152217,6.0321700438340145 4.7467464550986875,5.020229595001354 3.4724169940617884,3.1733569307380236 2.6554815945040957,0.8512818893180594 2.1115013718595605,-1.589872590229973 1.5721998527515808,-3.833958639534572 0.8118950612789888,-5.6033075882183425 -0.2535810000748455,-6.6571684001890645 -1.5245484385846595,-6.817935141867409 -2.7463264938030534,-6.022275450082915 -3.602072086346169,-4.365820406621324 -3.8355126750023487,-2.104985784280359 -3.3519427600152056,0.39739051479362786 -2.2528440180659715,2.7612068821960065 -0.7904558972511637,4.671762545863672 0.7346477771997826,5.924142357742028 2.0878820666332842,6.427238141407273 3.1813914660031344,6.190795790215859 4.090505915551219,5.320633900255132 4.997209138467994,4.0250364428240175 6.078549167905464,2.60819757336305 7.38544779585709,1.4196070718177651 8.772001701786252,0.7536804541903095 9.919241801973698,0.7373139116582621 10.449244382119815,1.2692232987487628 10.07306527626119,2.0564668158603325 8.697776671750717,2.7384351274921244 6.448220460210564,3.0366445272738005 3.612933765442733,2.856689901915189 0.5597683609661885,2.3000270035910404 -2.3360572302372873,1.5912837759872716 -4.737682812471746,0.9625835421657456 -6.378037799760165,0.5480766096579401 -7.091601384326452,0.33242768671095035 -6.843903958548822,0.17294727671954035 -5.7392024600271725,-0.11655825902698069 -3.989102370426508,-0.659767604904161 -1.8479302802007567,-1.4383514462152718 0.45380828881147295,-2.2721028257171696 2.7406884590995446,-2.8619426097704945 4.8719191668782,-2.8750761375376115 6.686945126886059,-2.045378874574034 7.96058628864958,-0.26768550313857986 8.412614182296494,2.332837021361165 7.790375828965352,5.381270131410702 5.998765192023484,8.311287603127454 3.211691376134297,10.509547240692491 -0.10851728857898024,11.509971384022961 -3.317013990370924,11.158547506208635 -5.7800785991091175,9.665921921270069 -7.0648247426843795,7.516127761461888 -7.036905315653939,5.275394447359602 -5.8370996035506835,3.3929607984682804 -15.887814676273024,-4.561758896735341"
    />
  </g>
</svg>
