<?xml version="1.0" encoding="UTF-8" standalone="no"?>
<svg
  xmlns:svg="http://www.w3.org/2000/svg"
  xmlns="http://www.w3.org/2000/svg"
  version="1.1"
  viewBox="-8.666666666666671 -3.287373729689847 229.9426693505768 194.8400236811932"
  width="229.9426693505768mm"
  height="194.8400236811932mm"
>
  <defs id="defs4215" />
  <g id="layer1">
    <path
       id="path2"
       style="fill:none;fill-rule:evenodd;stroke:#000000;stroke-width:1px;stroke-linecap:butt;stroke-linejoin:miter;stroke-opacity:1"
       d="m 100,100 5.333333333333329,0.0 -0.14433792236533804,0.32646391966176225 -0.5956080945367432,0.25381584498524035 -0.9400014073263776,0.11664087015630287 -1.126060189414119,-0.04801368155176533 -1.1293265161069854,-0.19466947668925627 -0.9561197976389906,-0.27928504323784864 -0.6418663321544358,-0.2690591375081226 -0.2443435034395236,-0.15016601662675555 0.16687537656528662,0.06819438992226878 0.522811045583822,0.3543398939403346 0.7670295888869418,0.6592566269362266 0.8649970273684033,0.9254614269675159 0.8091939628253044,1.0979338525280014 0.619161171797515,1.1350370271718617 0.3366048334708296,1.017303974281461 0.016609921402732652,0.7523320979097718 -0.28328089578005233,0.37473728108729176 -0.5139995031149311,-0.05896108269550382 -0.6438149402306976,-0.4796950149099217 -0.6634841722510885,-0.8177995999941317 -0.5867956735548603,-1.0154033246893874 -0.44651940331611684,-1.036983607013724 -0.28667165648292325,-0.8761229785187652 -0.15271179624221531,-0.5571799182970807 -0.08167445727876554,-0.13151165714910462 -0.09423256118463996,0.331117002834759 -0.19028698576205727,0.7544204531372287 -0.3489671518086368,1.0686494484301647 -0.5330425242965617,1.2224777854794269 -0.6968607581979285,1.1915933120816362 -0.7962166410977574,0.982474866764889 -0.798156485200181,0.6307211052964306 -0.6887143734865759,0.19429389731327262 -0.47696324817951563,-0.25703770325385733 -0.19447235222000359,-0.6540883750634947 0.10984256060864084,-0.9402088289246251 0.3785808950157872,-1.0806414554672017 0.5567885857584969,-1.0676360829248068 0.6028783788918588,-0.9204967310857768 0.4974156855343068,-0.6806880413551397 0.24801266710221626,-0.40304990688495934 -0.11071797397740113,-0.14487764190923258 -0.5222781801680583,0.045008974315180694 -0.9176395896521115,0.1351269880756405 -1.227195216444258,0.11647972053586386 -1.393149727666625,0.0030990252818696717 -1.3800748158800786,-0.17200606036344368 -1.1816651301667491,-0.36458577993769836 -0.8224087649458625,-0.5289542256403195 -0.3538096259096335,-0.6278584134024783 0.15420428022397914,-0.6404165173083385 0.6251682301057144,-0.5665294151601756 0.9891386602553212,-0.4268812752634119 1.1945806374144041,-0.2585291813438886 1.2169597402743904,-0.10696605936119852 1.0625199496735007,-0.016252748310805032 0.7666134992655742,-0.019214556893857093 0.3869453655503037,-0.1297058960564499 -0.006981603856033303,-0.33855999430868167 -0.3462563899484934,-0.614132180507724 -0.5745108308911426,-0.9074503142173 -0.6572739505965188,-1.1610770078675188 -0.5870863553616914,-1.3200414599916144 -0.38354559089752627,-1.3427601039437462 -0.08841114618972767,-1.209822732277246 0.24318236516464253,-0.9288867535451146 0.553646500166451,-0.5346310537965451 0.793871415798165,-0.08364077941526205 0.9320886346326347,0.35494784779874067 0.9590219637997706,0.7113994479596357 0.8884312096053151,0.9277701005219825 0.7530622662117707,0.9684631590134671 0.5969120615900181,0.8269857255898074 0.4654253664171648,0.5276197827281095 0.3956270549253418,0.12164529929046353 0.408185158831202,-0.32125064497610367 0.503000555937021,-0.7248603175682575 0.6592075569157316,-1.0195121955012212 0.8395853871922156,-1.1539573374791559 0.9984962942483833,-1.1039600879142455 1.0917544326464252,-0.8760747147303789 1.0864301796021323,-0.5059739381852779 0.9685862861698098,-0.05169203520247834 0.7473288525659001,0.4169314759630822 0.4542646387874072,0.8306430306988375 0.13835112667243266,1.1327275869204243 -0.14296531411578428,1.2883645322390862 -0.33468097829486965,1.2897436903884056 -0.3951553021199885,1.156112311985794 -0.3048969275385076,0.9288817286362132 -0.07145801146688768,0.6628421934523487 0.27061174668665444,0.41524324629563125 0.6648800422788526,0.23486293836803895 1.0423867567632357,0.153146706326325 1.3335953684787825,0.1790580710127898 1.4807829518339872,0.29853651076859933 1.4485952638803923,0.4785489232590976 1.2308023830956927,0.6748261850447932 0.8519689005148336,0.8416677958152832 0.3636759837682746,0.9418110110490403 -0.05241377061275898,0.8008390596849608 -0.4121630494825155,0.7619302229904719 -0.7269729249947261,0.6770691961392004 -0.9649040028135403,0.5609937394042248 -1.1028067568164346,0.43440584556265094 -1.1291813356777851,0.3209727554052364 -1.0456098863566012,0.2437673622665244 -0.8665654300745302,0.2216461665769458 -0.6176098190445458,0.26608650129796274 -0.3322025888051314,0.37895581733849326 -0.04752483064667956,0.5515694298951246 0.20014699824132265,0.7652237366145584 0.37992109587477785,0.9931916122751119 0.47004498392648486,1.2039623102362924 0.4604495299677325,1.3653277903306247 0.35375591857111033,1.4487863511775458 0.1646223476147668,1.4336720213545107 -0.08247218185434235,1.310434692761234 -0.35670111396473203,1.0825912808518865 -0.6251465163852004,0.7670313759563356 -0.8572591071150555,0.3925715518624884 -1.028916011509665,-0.003116533298708646 -1.1255252807657001,-0.3778584810254131 -1.1437566699852226,-0.690083782936938 -1.0916667766378083,-0.9040455415298254 -0.9872081003733086,-0.9944792833400129 -0.8553358735423586,-0.9500825023965263 -0.7241228839418454,-0.7753351330964193 -0.6204336926611518,-0.49038593800587194 -0.565775603467884,-0.12897495768599754 -0.5729244979017238,0.2653839895440342 -0.6438208097771252,0.6445076490110182 -0.7690575771159871,0.9613076664977172 -0.9290616559280949,1.175493511616736 -1.0968306583661445,1.2584908241443884 -1.2418647259102187,1.1969445852534335 -1.3347550562709785,0.9943524197315412 -1.351785519150738,0.6706103999753026 -1.2788856658631573,0.25952138761510923 -1.1143471670491607,-0.1954207551775511 -0.8698728958234057,-0.6464335902106484 -0.5697486132131928,-1.0473425591062266 -0.24818253207982366,-1.3592138335362876 0.05488633182223168,-1.555000198495236 0.29898915304947593,-1.622606273951959 0.4486604377109842,-1.565987770951324 0.47855907714864543,-1.4041592877419617 0.377465455344165,-1.168261999232584 0.15057242748819988,-0.8970995728542874 -0.1803003535272154,-0.631753258797886 -0.5786723283905815,-0.4100079241244714 -0.9973641091232537,-0.2613432211540214 -1.3840015822022167,-0.2031646453366136 -1.6873917041889968,-0.2387782216984391 -1.8639673907403704,-0.3573726983923393 -1.8834698173521929,-0.5359966527835809 -1.7331164028796735,-0.7432422777770142 -1.419683160987546,-0.9441104491576198 -0.9691889007123962,-1.1053656960538376 -0.424173091342837,-1.2006182135220627 0.16113030929905392,-1.2144037015853968 0.7271449093247497,-1.1446669670548175 1.2160472019692747,-1.0032743434176155 1.5787172596399728,-0.8144538426514174 1.7806658667525,-0.6113534796873807 1.8061824479337787,-0.4311774454147468 1.6601707858997798,-0.30956930763966284 1.3674332308879684,-0.27503140606729914 0.9694909408178347,-0.344182108020334 0.5193449970159065,-0.5185540651280007 0.07484925545078625,-0.7834386334258028 -0.30845477978242286,-1.1090095305435739 -0.5841220226957233,-1.4536484714623867 -0.7203392773865289,-1.769088634099873 -0.7035100249312762,-2.0067302969393523 -0.5394443272475797,-2.1243033776312643 -0.2520260877700906,-2.091979946569481 0.12043698775542566,-1.897088014597898 0.5306699273650679,-1.5467419452387077 0.928945733034837,-1.0679649812203849 1.2697748624510012,-0.5052025884988751 1.5178666847522635,0.08453045362119838 1.6525643636413179,0.6383066555836336 1.6701661866563313,1.0949316049047155 1.5838374778974327,1.4026149338588283 1.4211487176657016,1.5256770999392018 1.2196024796255216,1.4494068808869969 1.020789757934324,1.1824067527933408 0.8640070328933547,0.7560761252125161 0.7802424364827658,0.22124591342716826 0.7873913309165914,-0.3576549452852049 0.8873941500093281,-0.9101978362176624 1.0657244511084798,-1.3683792861946245 1.2933282620112578,-1.6748178901072208 1.5307712756585232,-1.7896886407435773 1.7340354271698573,-1.6955139775824364 1.8611645729420871,-1.3992002416993046 1.8788246020263415,-0.9310585745335516 1.7678363391057559,-0.34093530793759896 1.5268629223851065,0.3080517918139378 1.1736721124730565,0.9473671954746976 0.7437174266135429,1.5114932234930336 0.28614733798089276,1.94586715537298 -0.1422900719775413,2.213308123710192 -0.48467756172595955,2.298123300405692 -0.6917209326745279,2.207390277560023 -0.7288533706086895,1.969285611605585 -0.5816663821651105,1.6287188584198447 -0.2588802090293001,1.240885366783317 0.2076247783313221,0.86362246232855 0.7658147366013566,0.5496061719139789 1.3492452308965284,0.3394388278763927 1.8848693830156975,0.25654988482696695 2.3019526037321896,0.30458016707157753 2.54096850299635,0.4675773884018355 2.5613289272882156,0.7129442869083107 2.34692965970612,0.9967023810242068 1.9087574379620662,1.2703155964360349 1.284170760554673,1.4881024401181975 0.5328896300291319,1.6141828554224986 -0.16355778479746164,1.399836233989376 -0.7402499434248284,1.3388706402209039 -1.259037529957027,1.2127042173440117 -1.6812474074083923,1.0371506011537122 -1.9764427976001144,0.8345679345876249 -2.125113324604385,0.6314611824714547 -2.1203761308906905,0.455576580012675 -1.968527750443755,0.3327861398580154 -1.68839443583407,0.2840867745817377 -1.309542104603949,0.3230324909253284 -0.8695150694027944,0.453879467427754 -0.41036478973799717,0.6706560946041265 0.025202932479231777,0.9572796518750692 0.39769818195426865,1.2887369856259312 0.6743697678278977,1.6332386107155514 0.8320503469284404,1.955154855098158 0.8590598973528074,2.2184592080319447 0.7559954830048952,2.390346531253016 0.535343690087231,2.444668399268224 0.21996654823917083,2.3648375938514477 -0.15937902054940878,2.145898287696099 -0.5672348669712335,1.7955338636189708 -0.9670268139952185,1.333883669741283 -1.3246834170151516,0.7921538887024155 -1.6119293539443902,0.2101251210157784 -1.8089291165694164,-0.3672312266099027 -1.906023437273987,-0.8937249460160217 -1.9043932136842017,-1.326141838192342 -1.8155944338255665,-1.6282674093965568 -1.6600219389260076,-1.7743548875363757 -1.4644683755476535,-1.7516996291407736 -1.2590365025274508,-1.56206185268492 -1.073728869162622,-1.2217853939599195 -0.9350720566776118,-0.7605818974543155 -0.8631296958319012,-0.21907594267948127 -0.8692194598880434,0.35467507503851436 -0.9545779153045117,0.9093734252082157 -1.110120486718543,1.3950029174316825 -1.3173314402837804,1.7672631004813013 -1.550201942825737,1.9915041534219284 -1.7780246875099692,2.0457955767928837 -1.968762433405658,1.9228417794926003 -2.0926444814140837,1.6305653970894696 -2.125616295141981,1.1913044393205325 -2.052276469925232,0.6397001624845586 -1.867981597612868,0.019476312191130773 -1.5798790632937312,-0.6205848754449619 -1.206732872376051,-1.2310889550157924 -0.7775280269422211,-1.7664778462750519 -0.3289628784574461,-2.1890620658259365 0.0979460826687415,-2.472259640253583 0.4618280119411651,-2.6027426889151286 0.7251067936461624,-2.5812993778559985 0.8579249514464067,-2.422344029183165 0.8414450760905225,-2.152139424717447 0.6701842759331669,-1.8059199425662484 0.3531249998406736,-1.4242099129013752 -0.08653969458413258,-1.0487081068352637 -0.6130376541505171,-0.7181490677068183 -1.1809030867974712,-0.4645511501134365 -1.7388687958839881,-0.31021974357983595 -2.2344157392140005,-0.2657963259861731 -2.6185605069338607,-0.3295374327471876 -2.8504309420754197,-0.4878829216660563 -2.9011928031816154,-0.7172424682322571 -2.7569453908112536,-0.9868060543835213 -2.4202965943813908,-1.2620806439429941 -1.910449326438055,-1.508781687339237 -1.2617703593060057,-1.6966720286180106 -0.5209559133759356,-1.8029459488473378 0.2569578191184334,-1.814802116931375 1.0133796784802271,-1.7309316849736547 1.6913065709845156,-1.5617585416417654 2.240350214541465,-1.3283968188833057 2.62118143248658,-1.0604233233402454 2.8089784511316935,-0.7926862810956834 2.7955579322151465,-0.5614740769757987 2.5899907254102175,-0.4004380178277671 2.2176468373804568,-0.3366941450120038 1.717762241334185,-0.38751723274010885 1.1397596514444217,-0.5579860648559247 0.5386727982886441,-0.8398478380953804 -0.029892300752194956,-1.2117498204570154 -0.5147832316456942,-1.6408498622173227 -0.8738417803714498,-2.085677482972713 -1.0775356101076028,-2.4999879940088476 -1.1113469326964776,-2.837246518133597 -0.97670563892828,-3.055307694943778 -0.6903960775287885,-3.120827865078951 -0.28251475001607673,-3.0129630875324835 0.20680384221984127,-2.7259674669365097 0.7315577821450319,-2.270406544159357 1.244524502060031,-1.6728305963421377 1.701920282584581,-0.9739002157199863 2.0676116834924017,-0.22510724361367807 2.316466279245489,0.5156266982536906 2.436518972859872,1.1890779743263806 2.429750951603978,1.7401017739830138 2.3114190201782634,2.1227603891111357 2.1080196028468237,2.3047092932601316 1.8541095350025216,2.27041479419195 1.5883210905315934,2.0228822354477387 1.3489899416640014,1.5837109838051333 1.1698537116657093,0.9914488168646756 1.0762714377971037,0.29837890857888283 1.0823612018532458,-0.4339780409379159 1.1893595702926092,-1.1402403446185758 1.3853815592199084,-1.7569285072768963 1.646616028287923,-2.228083483244106 1.9398431022806193,-2.510219318473105 2.2260223514307853,-2.5761499825166396 2.4645870197583406,-2.4173347592071934 2.618002219333846,-2.0445253328801343 2.656111830727866,-1.4866574676308844 2.559813632601333,-0.7880956341283678 2.3236639271608794,-0.004494189593224007 1.9571159288631605,0.8023312024625326 1.4842305604408494,1.570035881616647 0.9418509421160479,2.241350526815424 0.3763877001278786,2.7691312450663332 -0.16049428444569003,3.1203851339346187 -0.6168803993826799,3.278902154725884 -0.9458169495695046,3.246260541546718 -1.1102119867901479,3.041131339284874 -1.086930339269685,2.696972563628094 -0.8696562884767047,2.2583588148234384 -0.4702100495320707,1.7763227894927525 0.08185032631114098,1.3031782754172099 0.7413456627011641,0.8873408111981007 1.4511476688391127,0.568657747541593 2.1470889326141958,0.37470448539463064 2.7636681407603874,0.31840369641642496 3.24002348190038,0.3971893107169251 3.525612743399762,0.5937804186292084 3.585057929708938,0.8784675668564859 3.401684025697733,1.2126614431361276 2.9793994015145415,1.5533268616725735 2.3427183674654657,1.8578360116369765 1.5349000943614328,2.0887330733707756 0.6143559476969358,2.217911831789351 -0.2375432761395757,1.9551722496450026 -0.9618790708338167,1.8855165056755254 -1.6289200867482236,1.7424448396319576 -2.200435116473443,1.5396083034700894 -2.6444707778132113,1.2965724801441922 -2.9375042911542266,1.037207253724418 -3.0660099262067035,0.7876908170799624 -3.027327503105994,0.5742844978764907 -2.8297715894559303,0.4210548868424553 -2.4919748775330106,0.3477260772468611 -2.0415146209843584,0.367836964586715 -1.5129228704139308,0.4873569872605401 -0.9452257356033869,0.7038799440165775 -0.3791907202101612,1.0064720796070645 0.14551818973380648,1.3762007279747195 0.5930720854404115,1.7873172072164039 0.9338989892475524,2.2090163778902365 1.1466233666065335,2.6076492490468013 1.2193870825428803,2.949227825059012 1.1504619965666905,3.2020359734668773 0.9481173136468328,3.339148535524572 0.6297602889054588,3.3406642412407166 0.22042276630577362,3.1954761541028347 -0.24928571941507016,2.902435158417518 -0.7455985477328397,2.47080517263538 -1.2341997625649412,1.9199602012427022 -1.6828197475881979,1.2783292477604107 -2.0636220573789075,0.5816513493542743 -2.355201990116001,-0.1293446582929505 -2.54404841360504,-0.8116765447881562 -2.6253624910753643,-1.4230689335338127 -2.6031770818454305,-1.9249257181209032 -2.489774889221721,-2.285099072816905 -2.304457746832057,-2.480251486308333 -2.0717696202712546,-2.497634411130406 -1.8193181068115507,-2.336147568103314 -1.5753701968228455,-2.0065937939698983 -1.366415421542186,-1.5311018931712397 -1.214891893387076,-0.94175004611634 -1.1372579301094845,-0.27848051472139446 -1.142564888999658,0.4135516380742956 -1.2316475639646427,1.0870112097989875 -1.3970000029075322,1.695583644525101 -1.623350592288375,2.197117457266444 -1.8888948778456154,2.5564850543146065 -2.1670921193212678,2.7479582603828874 -2.428886087305969,2.75692935170801 -2.645175664865036,2.5808553302844075 -2.7893391914130206,2.2293591386335265 -2.8396099537867485,1.7234824063189649 -2.781109416851507,1.0941456602126323 -2.6073691199562603,0.3799291963185567 -2.3212099079800623,-0.37566323040778116 -1.934895537983877,-1.1272587141615986 -1.4695330899206027,-1.8307659669337113 -0.9537508308747249,-2.446394987254621 -0.42174080243577805,-2.941328817930838 0.08919593187826536,-3.291857296236003 0.5414226657881187,-3.4848233812282103 0.8998526788262069,-3.5182842481442265 1.1347284412469065,-3.4013480088119223 1.2240799043159996,-3.153208259697905 1.1556679165723693,-2.801458084555975 0.9282543200747568,-2.3798181991755456 0.5520882626131822,-1.925456652018383 0.04855523378270732,-1.4761066945534793 -0.5510028946102636,-1.06720293561186 -1.2072265600504295,-0.7292527058690013 -1.8753081231654392,-0.48563995262314563 -2.5080158432989066,-0.35102447390957536 -3.0589594354009364,-0.33045252620725307 -3.4858635699069893,-0.4192393739267999 -3.7536118866222026,-0.6036244256954291 -3.8368378144065716,-0.8621397983223886 -3.72186886129208,-1.1675780357656151 -3.4078759568452597,-1.4893985071493745 -2.9071356832073434,-1.7963782612607844 -2.244376749685948,-2.0592944265570736 -1.4552482063574814,-2.2534230717272123 -0.5840107882146484,-2.3606539787693492 0.31939029707127986,-2.3710509461828053 1.202667117549872,-2.28373075142828 2.0147102196804028,-2.1069874455589 2.7090401498975822,-1.8576481329102137 3.2469442272023414,-1.5597072360831987 3.600075462396603,-1.2423437659374912 3.7523288266903805,-0.9374758442165216 3.700861954015515,-0.6770447724297526 3.4561890332431204,-0.49024428783836527 3.0413435874619026,-0.4009173874772216 2.4901731239381775,-0.42533258636740356 1.8448913099172017,-0.5705243763680699 1.1530667583225522,-0.8333409123021909 0.46426774460472586,-1.2002886518413334 -0.1733937529060796,-1.6482028029060842 -0.7165691674168073,-2.145708585430725 -1.1295943455774449,-2.6553763567898443 -1.3868168810367365,-3.136418342799004 -1.4741671636944886,-3.5477303546535808 -1.389867331647693,-3.8510519574332704 -1.144236727155615,-4.01400552259183 -0.7586196632558995,-4.012779621021792 -0.2635262757323531,-3.8342451130245934 0.3038648927932357,-3.477331530654581 0.9026474778844715,-2.9535441414533565 1.4913443804919808,-2.286564597239689 2.0310403468578073,-1.510945706865158 2.48825295721187,-0.6699786004842494 2.837326796242394,0.1871267036087687 3.0621736745817145,1.0085533087626999 3.1572331854465574,1.7434487888835761 3.127588684090256,2.345500275945419 2.9882393268264593,2.776254001190459 2.7625940958422177,3.0079354436876002 2.480313777494544,3.025559822283924 2.1746770624869214,2.828172054421863 1.8796834487009875,2.4291169656374194 1.6271256432952157,1.8553099976521708 1.4438661271347115,1.1455508527109117 1.3495362857167805,0.347992115504681 1.354843244606954,-0.4830632388575822 1.460621797712264,-1.2908120163935592 1.657710224660562,-2.0197917490060178 1.9276638441665028,-2.619640628933965 2.244253833520986,-3.0485095406331624 2.5756362765445857,-3.2758836715364197 2.8870224363161014,-3.2846133090872556 3.1436401024697886,-3.07201025865794 3.3137507936578317,-2.6499336964580706 3.37148064815797,-2.0438622616687354 3.2992346778281956,-1.291022424187183 3.0894939260826106,-0.4377112416343536 2.745840807813039,0.463990481537742 2.2831161372534723,1.3598751732663104 1.7266777078476991,2.1973703629307124 1.1107997610263283,2.929133956072576 0.4763199758139365,3.5162251901679085 -0.13229944130486615,3.93062625515779 -0.6702820401385168,4.156938761009222 -1.0959720923349892,4.193141235211506 -1.3741337763279091,4.050363992778379 -1.4788599854675795,3.7517107892924315 -1.3958614310026007,3.3302271783082205 -1.1239496764046635,2.826178178075139 -0.6755853445895639,2.283848030232676 -0.07643079695500887,1.7481087694848298 0.6360799190048283,1.2610195078461715 1.4150675827695807,0.8587136741546146 2.20727656266871,0.5688073417306612 2.956674346252669,0.40852009569027814 3.6083281453298923,0.3836438364376136 4.112281013694286,0.48842877492268144 4.427146337531639,0.7063847002487051 4.523156714890234,1.0119248254589763 4.384440032534457,1.3727145479786742 4.010349406234354,1.752533263088381 3.415740716631518,2.114418090700852 2.630166882618113,2.423837032484059 1.6960362530735438,2.651637317479924 0.6658578091463596,2.776532675307209 -0.2894743797809838,2.480906222321238 -1.118917570759777,2.408722003914278 -1.8958019658963394,2.2605224479594455 -2.5848169838045294,2.047449027084184 -3.1552320550695185,1.785647536154201 -3.5825318499766183,1.4952169907679291 -3.8497091119706397,1.1988844789777744 -3.9481425372460706,0.9204880852728081 -3.878010775270212,0.6833626991385415 -3.6482201106091736,0.5087304586113106 -3.2758511844992597,0.4141983021430917 -2.785157606418352,0.41245952380147344 -2.2061748877562763,0.5102846425422314 -1.57302030750094,0.7078699666683548 -0.9219817975607612,0.9985909479764672 -0.2895056916293015,1.3691830348898435 0.28980146938482676,1.8003467043783843 0.7850432495906716,2.267747242538576 1.1706699196946317,2.7433552334380096 1.427789670337262,3.197052106689199 1.5450822236336421,3.598407818387159 1.5192662530735959,3.918525879395503 1.355098406020005,4.131845264545603 1.064909305279997,4.217789636421088 0.6677090540096913,4.162161807202949 0.18791987541871435,3.95819505640344 -0.3461848988202121,3.607192062154695 -0.9042394938156235,3.118705698856701 -1.4556350153927156,2.5102424459558677 -1.9713478693323623,1.8064970938373506 -2.4256378317181486,1.0381551774932234 -2.7975149922557137,0.24032547008329175 -3.0718894732732167,-0.5493126229865766 -3.2403376307754996,-1.2925441733480625 -3.301442171655708,-1.9527218322101874 -3.260689838865929,-2.4968170942816243 -3.1299374402466356,-2.8973015280003835 -2.9264833882026977,-3.133748330424879 -2.6718059812476014,-3.194059585042112 -2.3900499386349168,-3.075245253116236 -2.106357966831311,-2.78370504332284 -1.8451534636765103,-2.3349924402569684 -1.6284832826020477,-1.7530697042339511 -1.4745256078224145,-1.0690918661743183 -1.396357658858335,-0.3197849259393877 -1.401061767601064,0.454492975366918 -1.4892273272799912,1.211900089274394 -1.6548814717264406,1.9113495460011336 -1.8858545987373816,2.514712468076766 -2.164559629168167,2.988862028718387 -2.4691378545770277,3.30744355383311 -2.774900966566264,3.452271197049498 -3.0559798144454646,3.4142729145581825 -3.287076789583068,3.193931208651719 -3.4452113483967537,2.8011959044297043 -3.5113475498763194,2.2548753999524536 -3.4717986800302185,1.5815426290744483 -3.319316733612254,0.8140196606344148 -3.0537929963835637,-0.01047118813517045 -2.6825191386826717,-0.8523830205871832 -2.219984722230471,-1.6720275100080926 -1.6872152561283968,-2.4317405884633274 -1.1106832182118467,-3.0979073789414713 -0.5208510730032216,-3.6427318978782637 0.049571355761202085,-4.045652529166091 0.5675541988231672,-4.2943254755903695 1.0017458701092963,-4.385124071383757 1.3244227353314457,-4.32313046864482 1.5132715722653032,-4.121626095426365 1.552894531029125,-3.8011166557682827 1.4359412611002043,-3.3879545649368765 1.1637937005735353,-2.912644984503885 0.7467545340654169,-2.407939669717905 0.20371904231046756,-1.9068346056853613 -0.43865968948019685,-1.4405922041172659 -1.1472722477891395,-1.0369063897242796 -1.88425313929676,-0.7183193879466785 -2.6089876502282863,-0.5009830194791647 -3.2803140762637355,-0.3938357858066013 -3.858797342937663,-0.3982412974418281 -4.308944437265545,-0.508105208594813 -4.601233997882581,-0.7104584935916591 -4.7138418067535355,-0.9864664029346102 -4.633960293248322,-1.3127964921749111 -4.358632590118859,-1.663257293314075 -3.8950488976424964,-2.010602817252746 -3.2602833551777337,-2.3283881305262923 -2.4804815289616613,-2.592758346217664 -1.589540146358459,-2.7840576887233937 -0.627349999056932,-2.8881565796045976 0.3623017176768428,-2.897412269542855 1.3340534600582572,-2.8112013495801023 2.243386336494794,-2.635989134019198 3.049000747453036,-2.384929801080361 3.7150192870000893,-2.0770205487136195 4.212892155099013,-1.7358610800007312 4.522898113444036,-1.3880947565726842 4.635156997456903,-1.0616282076271801 4.550097646874114,-0.7837407853906342 4.278356222932501,-0.579203092616865 3.8401124337296935,-0.46852435694856354 3.2639032953995013,-0.4664416122856778 2.5849838438049133,-0.5807498356795264 1.8433299419906106,-0.8115521721165777 1.0813985019985353,-1.1509843311587815 0.3417738806149515,-1.5834386423116626 -0.33516486279108904,-2.086282817458226 -0.9134230802755212,-2.6310380182264197 -1.363292904208528,-3.1849522062900206 -1.6628725514036518,-3.7128797102967326 -1.7991191884748403,-4.1793580165038975 -1.76837971619792,-4.550759226880409 -1.5763747046733556,-4.7973873010326855 -1.2376428989623776,-4.895393552042776 -0.774485312024737,-4.828391889592737 -0.21547706053030424,-4.5886715262492 0.40635994056548697,-4.1779273804966195 1.055610996918844,-3.6074559367831966 1.696624408588626,-2.8977952641870814 2.2956390181082043,-2.0778204421559394 2.8227563183898425,-1.1833378763962656 3.253640274750076,-0.2552519975179308 3.5708453469750054,0.6625961748534479 3.7646964361691886,1.525798717693732 3.833672218474618,2.291825289496515 3.7842738859733913,2.9224030874385676 3.63039284803763,3.3856951660271477 3.3922215497602934,3.6581502445577243 3.0947793897269804,3.725914846274769 2.766149086117082,3.5857228172275555 2.435536334995419,3.245206592124788 2.131276168143742,2.722607324624782 1.8789124079658706,2.045895286784578 1.6994718489058442,1.251345773805916 1.6080425522817023,0.38164715017894935 1.6127466610244596,-0.5163551996064939 1.7141735683634067,-1.3941539969059775 1.9053105970902635,-2.204175128551711 2.1719773032046135,-2.9023273524446367 2.493737997332275,-3.450363577520328 2.8452370020591786,-3.8179211179444223 3.1978743750456573,-3.9841264582821694 3.521717976003046,-3.938674828690978 3.7875321973740768,-3.6823248466784833 3.968795395504202,-3.226781897586662 4.043577596695243,-2.5939788572387954 3.9961574854239075,-1.814797173420132 3.8182726073140145,-0.9273032125013003 3.5099182788779615,0.02539771556982373 3.0796376253543656,0.9975657194902112 2.544275871006306,1.9433508583266672 1.9282046493243286,2.8192934066945554 1.2620547213150815,3.5866576168679245 0.5810261147484823,4.213467216220181 -0.07712854087279197,4.676128999011873 -0.6743304568381916,4.960555557980214 -1.1744794637916982,5.06272798700536 -1.5456990339848744,4.988672505132001 -1.7623850353894852,4.753859442911079 -1.8069314958703728,4.3820668538851635 -1.671024142166658,3.9037821685444456 -1.3564166850873676,3.3542419573558817 -0.8751343647502097,2.771230445405692 -0.2490824357168151,2.192770718765246 0.49092787846583974,1.654847811539085 1.3066889522269207,1.189299772906594 2.1545627737864095,0.8220015933949156 2.9877966062769303,0.5714482126164597 3.7590597652448707,0.4478178742908199 4.423058592168076,0.4525673522472857 4.93908054958905,0.5785778426003532 5.2733208694863265,0.810836579843766 5.400856266964411,1.127606525288968 5.3071492947216825,1.5020067697697925 4.988992895241381,1.903901382546934 4.45483612957284,2.301975829812136 3.724467118826311,2.6658689045224406 2.8280658995601584,2.9682250322774166 1.8046760356569678,3.186537034389275 0.7001773369527484,3.3046626268262003 -0.3274573830265126,2.9856799332959554 -1.2345084032798752,2.9139144538449386 -2.0946281694820357,2.7664089558067104 -2.876060788659345,2.5521311887789295 -3.55038084485642,2.284186163961593 -4.093719200178441,1.9791246387038228 -4.487785117835472,1.6560604080932961 -4.720638274338057,1.3356407094318996 -4.787175778270267,1.0389217804758317 -4.689312502654957,0.7862067904150649 -4.435847246045711,0.5959057151556522 -4.042021794122775,0.4834761245259358 -3.528794171313592,0.4605003020341911 -2.9218605788408922,0.5339477856894774 -2.2504720871490065,0.7056635964409423 -1.5461015398590803,0.9721115278380097 -0.8410228898622449,1.324389429089564 -0.16686900745523303,1.7485200250383741 0.44676530257970626,2.226007131656246 0.9736107925636475,2.734633813824729 1.3918429745961873,3.2494667485041475 1.6849824859260707,3.744020409908444 1.8425366842600681,4.191526216996692 1.8603550114127927,4.566245908188819 1.74068439095592,4.844765440698524 1.491925249717866,5.007205819930533 1.1281029868790142,5.03829046751062 0.6680831757402643,4.928214904257715 0.13457082756161753,4.673273381893409 -0.44705590143666996,4.276208237692856 -1.0500195987600023,3.746260649812797 -1.6474623697637583,3.0989155293866872 -2.213745091088157,2.3553478307366618 -2.7256641690914876,1.5415918975747331 -3.1635273115426514,0.6874689008536166 -3.512037129521218,-0.17468068810853765 -3.760941159774461,-1.0114028881289698 -3.905418654840247,-1.7896104161290793 -3.946187652099809,-2.478069293361102 -3.8893297585064346,-3.048822848947566 -3.745844093133499,-3.478486397264078 -3.5309552292709157,-3.7493513148331203 -3.2632121155740634,-3.8502456237074227 -2.963425237289485,-3.777109121166575 -2.653497199965301,-3.5332540757052584 -2.355207090621917,-3.1292969326106004 -2.089011140708621,-2.5827616632513752 -1.8729212737601415,-1.9173706354317517 -1.7215191132875987,-1.162053457241882 -1.6451561482601136,-0.34971746216010047 -1.6493813408638545,0.4841652708154527 -1.734625975349573,1.3030907687070794 -1.8961625516941893,2.071106540416622 -2.124340662895875,2.7543736013143985 -2.405088743708177,3.3226360965496156 -2.7206570362441624,3.750531621580734 -3.050564755984439,4.0186826211737525 -3.3727038763417454,4.114519327245944 -3.6645437110000643,4.032797100201293 -3.904374978414481,3.7757851853884006 -4.072529566687379,3.353119120004976 -4.152512916614555,2.781324608181933 -4.131989788368024,2.0830358873552086 -4.003571000902937,1.2859457189113357 -3.7653582138763824,0.42153648365660956 -3.4212155089906275,-0.4763481353621728 -2.9807498601647,-1.3730242155797043 -2.4589969152371864,-2.234510706537492 -1.8758231488942414,-3.0290232065993905 -1.2550696713272487,-3.72834970399191 -0.6234760897732059,-4.309045501725109 -0.009434170718449764,-4.753393416061499 0.5583699288367967,-5.050086729817309 1.0523598600737287,-5.194605746360935 1.447451590810438,-5.189273485137306 1.7223462737737876,-5.042991379250282 1.860669002071937,-4.77067104511525 1.8518956210534654,-4.392392564668739 1.6920192752592627,-3.9323325644144234 1.3839203090505947,-3.4175160793209614 0.9374169521598006,-2.8764542437135674 0.3689892553508187,-2.337734874610959 -0.29881571786457073,-1.8286347710529185 -1.0382741332787262,-1.373820969440274 -1.8176334204323794,-0.9942033551766514 -2.6024677941328704,-0.7059931778994297 -3.357180579331555,-0.5200115401631535 -4.046585075085993,-0.44127934338909824 -4.637491291740311,-0.468906098090784 -5.10022490391259,-0.5962801277164829 -5.410007249588787,-0.8115477454381335 -5.548131075883958,-1.0983546925605339 -5.502875726131265,-1.4368101952924803 -5.27011717180666,-1.8046230563646475 -4.853602175973961,-2.1783507850988144 -4.264871285860423,-2.5346972962937 -3.5228315687959366,-2.8517924433198942 -2.652996264525356,-3.110387705812826 -1.6864240594067894,-3.2949066764829382 -0.6584047573036713,-3.39429637364357 0.3930499418127198,-3.4026354846710802 1.4288426122756874,-3.319467926413168 2.4104791947291204,-3.149843988237535 3.3017343422794596,-2.9040661188533363 4.0702172907123355,-2.59715139958503 4.688767001290884,-2.2480371737452174 5.136613140134287,-1.8785694585742618 5.400250247486682,-1.512324997541981 5.473985708426767,-1.173326553645083 5.3601372409694505,-0.8847168559157552 5.068871856751997,-0.6674591911150287 4.617694857696023,-0.5391318373832377 4.0306136250189795,-0.5128793882756923 3.3370159698609854,-0.5965767004982183 2.5703159383604373,-0.7922510592171221 1.7664305787733383,-1.0957956735423977 0.9621587839276486,-1.4969933912185809 0.19353756207605244,-1.9798542436501663 -0.5057482334357104,-2.5232548433078676 -1.1058295968517626,-3.1018525178098812 -1.5819237220391145,-3.6872331233296762 -1.9153537418984286,-4.2492394252378105 -2.0942727507863808,-4.757417368954378 -2.114061263567571,-5.182510974247833 -1.9773829276004449,-5.497933315292883 -1.6938996191552178,-5.6811412812724456 -1.2796632408371735,-5.7148455638463105 -0.7562168161988083,-5.587994433690724 -0.14945112097664293,-5.296480029863716 0.5117255538212291,-4.843528625120882 1.1968383835816923,-4.239751052093183 1.8753463155748236,-3.5028454847918624 2.518118457048871,-2.656961306154429 3.098815039935566,-1.7317490643076638 3.595106653081629,-0.7611367448294573 3.989673830234608,0.21811397376690422 4.270940263571525,1.1680068147897913 4.433506327600625,2.050992665749064 4.4782645880302425,2.8316566956149387 4.4121947999540225,3.4783325128353226 4.247851794347184,3.9645677479427377 4.002574833589108,4.2703717359558055 3.697460742830202,4.383185580653645 3.3561547230249573,4.29852736766675 3.003521655833765,4.020280079488614 2.6642664845170003,3.5606061640798004 2.3615746155500403,2.939489951099347 2.1158421171133597,2.183926384175102 1.9435608497430792,1.3267910274884542 1.856415778447527,0.40544122826093343 1.8606409710512821,-0.5398890369162785 1.9566677118050393,-1.4678283389536446 2.1390833950474217,-2.3376622891599865 2.396904137737266,-3.1111018891623274 2.71414813760326,-3.7539453280188155 3.0706814921126266,-4.237557625364104 3.4432942417199257,-4.540100867673914 3.8069525035979126,-4.647459284192223 4.136163315318257,-4.553817521323964 4.406382679628123,-4.261866536067004 4.595394608134967,-3.7826287838927755 4.6845898525450025,-3.1349120104357127 4.660077461128395,-2.344418136975264 4.513570104699966,-1.442549645572143 4.242994914589815,-0.46496976931501877 3.8527948505295626,0.5500159793379993 3.353900731008821,1.5631813823126777 2.763370281197865,2.5361241819552447 2.103707094705385,3.43295316200458 1.4018884561489813,4.221840106272197 0.6881457421577011,4.876365889153206 -0.005446122696639577,5.376600064031834 -0.6465035692952767,5.7098662592503615 -1.2039201140318312,5.871160842696497 -1.649425960247811,5.86320894647924 -1.9590448104183338,5.696159253844705 -2.1143752542267293,5.386936111174222 -2.1036316875798207,4.958283716626553 -1.9223905312314855,4.437551579743634 -1.5740010564935858,3.855282454146547 -1.0696357564479229,3.2436729476986628 -0.4279721862068584,2.6349825862626943 0.32548427248539724,2.0599689896646396 1.1594100273441654,1.5464249315693053 2.0379624593465735,1.1178875008810394 2.922311645344422,0.7925806406756095 3.7723359703515484,0.5826404549718944 4.548404528791366,0.49365842963059947 5.213164355313438,0.5245618109481001 5.73324951461916,0.667833603675831 6.0808319879030535,0.9100578109388522 6.234941006040316,1.2327594657298135 6.1824876992798465,1.6134944834024907 5.918945194105731,2.0271321068456984 5.448649977086376,2.447263320140138 4.7847077317164235,2.847662531917152 3.948505122416009,3.20372737339423 2.968847289772498,3.4938227382437645 1.8807582684025306,3.7004601490510964 -26.642846687529556,0.5065892981925373"
    />
  </g>
</svg>
