<?xml version="1.0" encoding="UTF-8" standalone="no"?>
<svg
  xmlns:svg="http://www.w3.org/2000/svg"
  xmlns="http://www.w3.org/2000/svg"
  version="1.1"
  viewBox="0.0 8.0 120.0 24.0"
  width="100mm"
  height="20mm"
>
  <defs id="defs4215" />
  <g id="layer1">
    <path
       id="path1"
       style="fill:none;fill-rule:evenodd;stroke:#000000;stroke-width:1px;stroke-linecap:butt;stroke-linejoin:miter;stroke-opacity:1"
       d="m 10,15 0,15 15,0 0,-15 -15,0 5,0 0,-5 0,15 15,0 0,-15 -15,0"
    />
    <path
       id="path2"
       style="fill:none;fill-rule:evenodd;stroke:#000000;stroke-width:1px;stroke-linecap:butt;stroke-linejoin:miter;stroke-opacity:1"
       d="m 50,15 0,15 15,0 0,-15 -15,0 5,0 0,-5 0,15 15,0 0,-15 -15,0"
    />
    <path
       id="path3"
       style="fill:none;fill-rule:evenodd;stroke:#000000;stroke-width:1px;stroke-linecap:butt;stroke-linejoin:miter;stroke-opacity:1"
       d="m 90,15 0,15 15,0 0,-15 -15,0 5,0 0,-5 0,15 15,0 0,-15 -15,0"
    />
  </g>
</svg>
